<svg class="icon" viewBox="0 0 1097 1024" xmlns="http://www.w3.org/2000/svg" width="214.258" height="200"><path d="M438.857 950.857H113.152a41.18 41.18 0 0 1-40.01-42.203V115.346c0-23.552 18.14-42.203 40.01-42.203h651.41c21.87 0 40.01 18.651 40.01 42.203v208.53a36.571 36.571 0 1 0 73.142 0v-208.53C877.714 51.858 827.246 0 764.562 0H113.225C50.47 0 0 51.858 0 115.346v793.308C0 972.142 50.469 1024 113.152 1024h325.705a36.571 36.571 0 1 0 0-73.143zm329.143-512A292.571 292.571 0 1 0 768 1024a292.571 292.571 0 0 0 0-585.143zm0 512A219.429 219.429 0 1 1 768 512a219.429 219.429 0 0 1 0 438.857zm109.13-237.714h-90.844V640a36.571 36.571 0 1 0-73.143 0v109.714a36.571 36.571 0 0 0 36.571 36.572H877.13a36.571 36.571 0 1 0 0-73.143zM658.285 292.57A36.571 36.571 0 0 0 621.714 256H256a36.571 36.571 0 0 0 0 73.143h365.714a36.571 36.571 0 0 0 36.572-36.572zM256 548.571a36.571 36.571 0 0 0 0 73.143h91.794a36.571 36.571 0 0 0 0-73.143H256z" fill="#63656E"/></svg>