<svg class="icon" viewBox="0 0 1024 1024" xmlns="http://www.w3.org/2000/svg" width="200" height="200"><path d="M960 123.685C872.667 49.883 704.731 0 512 0 319.195 0 151.333 49.883 64 123.685 23.186 158.208 0 197.85 0 239.982v366.007l.073 1.974H0v175.982C0 916.48 229.23 1024 512 1024s512-107.52 512-240.055V608.037h-.073l.073-5.267V239.91c0-42.13-23.186-81.774-64-116.298zM64 356.279c87.333 73.947 255.269 123.83 448 123.83 192.805 0 360.667-49.883 448-123.684v79.214a508.27 508.27 0 0 1-58.807 32.183c-104.96 49.152-243.2 76.215-389.193 76.215s-284.233-27.063-389.193-76.362A508.27 508.27 0 0 1 64 435.493v-79.214zm0 181.394c87.333 73.801 255.269 123.685 448 123.685 192.805 0 360.667-49.884 448-123.685v79.214a523.776 523.776 0 0 1-58.807 32.183C796.233 698.295 657.92 725.358 512 725.358s-284.233-27.063-389.193-76.288A508.27 508.27 0 0 1 64 616.887V537.6zm837.193 292.718C796.233 879.616 657.92 906.679 512 906.679s-284.233-27.063-389.193-76.288a533.504 533.504 0 0 1-56.393-30.647A53.98 53.98 0 0 1 64 784.091v-65.097C151.333 792.87 319.269 842.68 512 842.68c192.805 0 360.667-49.957 448-123.685v65.024c0 5.12-.731 10.387-2.414 15.653a515.95 515.95 0 0 1-56.32 30.647z" fill="#63656E"/></svg>