<svg t="1686054773614" class="icon" viewBox="0 0 1024 1024" version="1.1" xmlns="http://www.w3.org/2000/svg" p-id="12406" width="200" height="200"><path d="M512 0c282.768 0 512 229.232 512 512 0 282.768-229.232 512-512 512C229.232 1024 0 794.768 0 512 0 229.232 229.232 0 512 0z m-7.968 178.432c-68.832 0-125.888 15.392-171.168 46.192-48 32.608-71.552 76.976-71.552 134.032 0 56.16 24.464 99.632 74.272 129.504 19.92 10.88 68.832 28.08 148.528 53.44 71.552 21.744 114.112 36.224 128.608 43.472 40.752 20.832 61.584 48.912 61.584 85.12 0 28.992-14.496 51.632-43.472 67.936-28.992 16.304-67.936 25.36-116.832 25.36-54.336 0-94.192-9.968-120.448-29.888-28.992-21.728-47.104-58.88-54.352-109.584h-97.808c5.44 81.504 34.416 141.28 87.84 179.328 44.384 30.784 105.968 47.088 184.768 47.088 81.504 0 144.896-16.304 190.192-48.912 45.28-33.504 67.92-78.784 67.92-136.752 0-59.776-28.08-105.952-83.328-139.472-25.36-15.392-82.4-36.224-169.36-63.392-60.672-18.112-97.808-31.696-112.288-39.84-32.608-17.216-48-39.856-48-68.832 0-32.608 13.584-56.16 41.648-70.656 22.64-12.672 55.248-19.008 97.824-19.008 48.896 0 85.12 9.056 110.48 28.064 25.36 18.128 41.664 48.912 50.72 90.56h97.808c-6.336-70.624-31.68-122.24-76.976-155.76-42.56-32.608-101.44-48-176.608-48z" p-id="12407" fill="#63656e"></path></svg>
