<svg class="icon" viewBox="0 0 1024 1024" xmlns="http://www.w3.org/2000/svg" width="200" height="200"><path d="M418.133 454.4l192 87.467L804.267 371.2c2.133-14.933 4.266-27.733 4.266-42.667 0-119.466-96-217.6-217.6-217.6-72.533 0-138.666 34.134-179.2 93.867l-32 166.4 38.4 83.2zm-10.666 32L217.6 657.067c-2.133 14.933-4.267 29.866-4.267 42.666 0 119.467 98.134 217.6 217.6 217.6 72.534 0 138.667-36.266 179.2-93.866l32-166.4L599.467 576l-192-89.6zM217.6 324.267l132.267 32 29.866-149.334c-19.2-14.933-40.533-21.333-64-21.333-57.6 0-104.533 46.933-104.533 104.533 0 10.667 2.133 23.467 6.4 34.134zM352 390.4l-145.067-34.133c-59.733 19.2-100.266 76.8-100.266 138.666 0 59.734 36.266 115.2 93.866 136.534l185.6-166.4L352 390.4zm322.133 283.733l-29.866 149.334c19.2 14.933 40.533 21.333 61.866 21.333 57.6 0 104.534-46.933 104.534-104.533 0-12.8-2.134-25.6-6.4-36.267l-130.134-29.867zm149.334-275.2L633.6 565.333 672 640l145.067 34.133c59.733-19.2 100.266-76.8 100.266-138.666 0-59.734-36.266-113.067-93.866-136.534z" fill="#63656E"/></svg>