<?xml version="1.0" standalone="no"?><!DOCTYPE svg PUBLIC "-//W3C//DTD SVG 1.1//EN" "http://www.w3.org/Graphics/SVG/1.1/DTD/svg11.dtd"><svg t="1683796029056" class="icon" viewBox="0 0 1024 1024" version="1.1" xmlns="http://www.w3.org/2000/svg" p-id="12190" xmlns:xlink="http://www.w3.org/1999/xlink" width="200" height="200"><path d="M482.88 205.792l-73.84 1.728-3.472 147.664-240.32-240.32-50.384 50.384L355.2 405.568l-147.68 3.472-1.728 73.824 270.72-6.352 6.352-270.72z m347.728 277.072l-1.744-73.824-147.648-3.472 240.32-240.32-50.384-50.384L630.832 355.2l-3.472-147.68-73.824-1.728 6.352 270.72 270.72 6.352zM482.864 823.952l-73.824-1.744-3.472-147.648-240.32 240.32-50.384-50.4L355.2 624.16l-147.68-3.456-1.728-73.84 270.72 6.368 6.352 270.72z m347.744-277.088l-1.744 73.84-147.648 3.456 240.32 240.32-50.384 50.4-240.32-240.352-3.472 147.68-73.824 1.744 6.352-270.72 270.72-6.368z" p-id="12191"></path></svg>