<svg class="icon" viewBox="0 0 1024 1024" xmlns="http://www.w3.org/2000/svg" width="200" height="200"><path d="M941.546 458.48c-.072 25.95-.146 51.896-.221 77.847-.03 10.939-7.219 21.861-21.58 30.207l.221-77.849c14.36-8.345 21.55-19.267 21.58-30.205zm-839.058 77.422l.221-77.848c-.031 11.082 7.284 22.18 21.93 30.636l-.221 77.847c-14.647-8.455-21.961-19.554-21.93-30.635z" fill="#63656E"/><path d="M919.966 488.686l-.221 77.849-344.016 199.92.221-77.848 344.016-199.921zm-449.062 199.92l-.221 77.848-346.266-199.917.221-77.847a61532604.59 61532604.59 0 0 0 346.266 199.916zm105.046 0l-.221 77.848c-28.915 16.803-75.942 16.803-105.046 0l.221-77.848c29.104 16.803 76.131 16.803 105.046 0zM941.546 596.424c-.072 25.95-.146 51.896-.221 77.847-.03 10.939-7.219 21.861-21.58 30.207l.221-77.849c14.36-8.344 21.55-19.267 21.58-30.205zm-839.058 77.422l.221-77.848c-.031 11.081 7.284 22.18 21.93 30.635l-.221 77.848c-14.647-8.456-21.961-19.555-21.93-30.635z" fill="#63656E"/><path d="M919.966 626.629l-.221 77.849-344.016 199.92.221-77.848 344.016-199.921zM470.904 826.55l-.221 77.848L124.417 704.48l.221-77.848L470.904 826.55zm105.046 0l-.221 77.848c-28.915 16.804-75.942 16.804-105.046 0l.221-77.848c29.104 16.804 76.131 16.804 105.046 0zM940.855 361.334l-.136 47.636c-.001.2-.004.4-.01.6l.136-47.637c.006-.2.009-.4.01-.599" fill="#63656E"/><path d="M940.846 361.933l-.136 47.637a23.166 23.166 0 0 1-.446 3.911l.135-47.637c.26-1.299.409-2.604.447-3.911m-.448 3.91l-.135 47.637a24.923 24.923 0 0 1-1.101 3.838l.135-47.637a24.78 24.78 0 0 0 1.101-3.838" fill="#63656E"/><path d="M939.298 369.682l-.135 47.637a28.003 28.003 0 0 1-1.816 3.875l.132-47.636a27.573 27.573 0 0 0 1.819-3.876" fill="#63656E"/><path d="M937.479 373.558c-.044 15.878-.089 31.757-.132 47.636a32.145 32.145 0 0 1-2.744 4.074l.136-47.637a32.134 32.134 0 0 0 2.74-4.073m-2.741 4.073l-.136 47.637a39.375 39.375 0 0 1-4.228 4.546l.135-47.637a39.043 39.043 0 0 0 4.229-4.546" fill="#63656E"/><path d="M930.51 382.177l-.135 47.637c-2.442 2.256-5.322 4.4-8.632 6.392l.135-47.637c3.31-1.991 6.187-4.136 8.632-6.392" fill="#63656E"/><path d="M921.878 388.568c-.045 15.879-.088 31.758-.135 47.637-.274.165-.55.33-.833.492l.135-47.637c.28-.162.559-.326.833-.492M122.156 389.068l-.134 47.637c-13.444-7.762-20.158-17.949-20.128-28.121l.134-47.636c-.029 10.172 6.685 20.358 20.128 28.12" fill="#63656E"/><path d="M921.045 389.061l-.135 47.637L570.817 640.15l.136-47.638c116.697-67.817 233.395-135.633 350.092-203.451zM474.538 592.516l-.135 47.639-352.381-203.449.134-47.637 352.382 203.447z" fill="#63656E"/><path d="M570.953 592.513l-.136 47.638c-4.55 2.642-9.584 4.832-14.942 6.568l.137-47.635c5.355-1.738 10.392-3.929 14.941-6.571m-14.941 6.571l-.137 47.635c-4.137 1.344-8.465 2.413-12.909 3.216l.136-47.639a98.813 98.813 0 0 0 12.91-3.212" fill="#63656E"/><path d="M543.102 602.296l-.136 47.639c-2.856.515-5.765.918-8.695 1.21l.135-47.637c2.931-.293 5.838-.695 8.696-1.212m-8.697 1.212l-.135 47.637c-2.505.25-5.028.418-7.561.503l.134-47.636a117.08 117.08 0 0 0 7.562-.504" fill="#63656E"/><path d="M526.844 604.012l-.134 47.636a117.8 117.8 0 0 1-6.983.034l.134-47.637c2.327.056 4.659.047 6.983-.033m-6.984.033l-.134 47.637a120.938 120.938 0 0 1-6.714-.359l.134-47.638c2.23.183 4.47.305 6.714.36" fill="#63656E"/><path d="M513.146 603.685l-.134 47.638a115.989 115.989 0 0 1-6.629-.742l.136-47.638c2.191.312 4.403.558 6.627.742" fill="#63656E"/><path d="M506.52 602.942l-.136 47.638a108.51 108.51 0 0 1-6.758-1.174l.135-47.639c2.223.462 4.479.854 6.759 1.175" fill="#63656E"/><path d="M499.761 601.768l-.135 47.639a101.055 101.055 0 0 1-7.11-1.744l.134-47.636c2.324.661 4.698 1.241 7.111 1.741m-7.111-1.742l-.134 47.636a89.341 89.341 0 0 1-8.278-2.794l.136-47.637a88.133 88.133 0 0 0 8.276 2.795M484.373 597.231c-.045 15.879-.089 31.758-.136 47.637-3.462-1.368-6.757-2.939-9.834-4.714l.135-47.639c3.077 1.778 6.371 3.348 9.835 4.716" fill="#63656E"/><path d="M920.73 333.217L568.35 129.77c-26.716-15.425-69.88-15.425-96.416-.004L121.841 333.217c-26.54 15.424-26.399 40.426.314 55.851l352.383 203.448c26.709 15.422 69.874 15.421 96.415-.003 116.697-67.817 233.396-135.634 350.092-203.452 26.534-15.421 26.393-40.424-.315-55.844zM451.292 196.865l59.554 18.938 59.157-34.957-18.994 49.333 56.245 22.514-71.293 11.543-24.391 48.874-25.065-42.198-71.32 7.696 55.797-37.632-19.69-44.111zm-174.269 172.75c-12.726-7.347-21.302-17.198-23.209-28.349-4.357-25.492 27.777-48.135 71.771-50.577 24.75-1.374 47.977 3.938 64.342 13.387 12.726 7.348 21.303 17.199 23.208 28.35 4.358 25.491-27.771 48.138-71.77 50.576-24.75 1.374-47.975-3.938-64.342-13.387zm255.765 163.789l-155.58-89.825 211.652-32.876-56.072 122.701zM688.366 428.68l-128.454-74.163 127.617-74.166 128.456 74.165-127.619 74.164zM941.546 458.48c-.072 25.95-.146 51.896-.221 77.847-.03 10.939-7.219 21.861-21.58 30.207l.221-77.849c14.36-8.345 21.55-19.267 21.58-30.205zm-839.058 77.422l.221-77.848c-.031 11.082 7.284 22.18 21.93 30.636l-.221 77.847c-14.647-8.455-21.961-19.554-21.93-30.635z" fill="#63656E"/><path d="M919.966 488.686l-.221 77.849-344.016 199.92.221-77.848 344.016-199.921zm-449.062 199.92l-.221 77.848-346.266-199.917.221-77.847a61532604.59 61532604.59 0 0 0 346.266 199.916zm105.046 0l-.221 77.848c-28.915 16.803-75.942 16.803-105.046 0l.221-77.848c29.104 16.803 76.131 16.803 105.046 0zM941.546 596.424c-.072 25.95-.146 51.896-.221 77.847-.03 10.939-7.219 21.861-21.58 30.207l.221-77.849c14.36-8.344 21.55-19.267 21.58-30.205zm-839.058 77.422l.221-77.848c-.031 11.081 7.284 22.18 21.93 30.635l-.221 77.848c-14.647-8.456-21.961-19.555-21.93-30.635z" fill="#63656E"/><path d="M919.966 626.629l-.221 77.849-344.016 199.92.221-77.848 344.016-199.921zM470.904 826.55l-.221 77.848L124.417 704.48l.221-77.848L470.904 826.55zm105.046 0l-.221 77.848c-28.915 16.804-75.942 16.804-105.046 0l.221-77.848c29.104 16.804 76.131 16.804 105.046 0zM940.855 361.334l-.136 47.636c-.001.2-.004.4-.01.6l.136-47.637c.006-.2.009-.4.01-.599" fill="#63656E"/><path d="M940.846 361.933l-.136 47.637a23.166 23.166 0 0 1-.446 3.911l.135-47.637c.26-1.299.409-2.604.447-3.911m-.448 3.91l-.135 47.637a24.923 24.923 0 0 1-1.101 3.838l.135-47.637a24.78 24.78 0 0 0 1.101-3.838" fill="#63656E"/><path d="M939.298 369.682l-.135 47.637a28.003 28.003 0 0 1-1.816 3.875l.132-47.636a27.573 27.573 0 0 0 1.819-3.876" fill="#63656E"/><path d="M937.479 373.558c-.044 15.878-.089 31.757-.132 47.636a32.145 32.145 0 0 1-2.744 4.074l.136-47.637a32.134 32.134 0 0 0 2.74-4.073m-2.741 4.073l-.136 47.637a39.375 39.375 0 0 1-4.228 4.546l.135-47.637a39.043 39.043 0 0 0 4.229-4.546" fill="#63656E"/><path d="M930.51 382.177l-.135 47.637c-2.442 2.256-5.322 4.4-8.632 6.392l.135-47.637c3.31-1.991 6.187-4.136 8.632-6.392" fill="#63656E"/><path d="M921.878 388.568c-.045 15.879-.088 31.758-.135 47.637-.274.165-.55.33-.833.492l.135-47.637c.28-.162.559-.326.833-.492M122.156 389.068l-.134 47.637c-13.444-7.762-20.158-17.949-20.128-28.121l.134-47.636c-.029 10.172 6.685 20.358 20.128 28.12" fill="#63656E"/><path d="M921.045 389.061l-.135 47.637L570.817 640.15l.136-47.638c116.697-67.817 233.395-135.633 350.092-203.451zM474.538 592.516l-.135 47.639-352.381-203.449.134-47.637 352.382 203.447z" fill="#63656E"/><path d="M570.953 592.513l-.136 47.638c-4.55 2.642-9.584 4.832-14.942 6.568l.137-47.635c5.355-1.738 10.392-3.929 14.941-6.571m-14.941 6.571l-.137 47.635c-4.137 1.344-8.465 2.413-12.909 3.216l.136-47.639a98.813 98.813 0 0 0 12.91-3.212" fill="#63656E"/><path d="M543.102 602.296l-.136 47.639c-2.856.515-5.765.918-8.695 1.21l.135-47.637c2.931-.293 5.838-.695 8.696-1.212m-8.697 1.212l-.135 47.637c-2.505.25-5.028.418-7.561.503l.134-47.636a117.08 117.08 0 0 0 7.562-.504" fill="#63656E"/><path d="M526.844 604.012l-.134 47.636a117.8 117.8 0 0 1-6.983.034l.134-47.637c2.327.056 4.659.047 6.983-.033m-6.984.033l-.134 47.637a120.938 120.938 0 0 1-6.714-.359l.134-47.638c2.23.183 4.47.305 6.714.36" fill="#63656E"/><path d="M513.146 603.685l-.134 47.638a115.989 115.989 0 0 1-6.629-.742l.136-47.638c2.191.312 4.403.558 6.627.742" fill="#63656E"/><path d="M506.52 602.942l-.136 47.638a108.51 108.51 0 0 1-6.758-1.174l.135-47.639c2.223.462 4.479.854 6.759 1.175" fill="#63656E"/><path d="M499.761 601.768l-.135 47.639a101.055 101.055 0 0 1-7.11-1.744l.134-47.636c2.324.661 4.698 1.241 7.111 1.741m-7.111-1.742l-.134 47.636a89.341 89.341 0 0 1-8.278-2.794l.136-47.637a88.133 88.133 0 0 0 8.276 2.795M484.373 597.231c-.045 15.879-.089 31.758-.136 47.637-3.462-1.368-6.757-2.939-9.834-4.714l.135-47.639c3.077 1.778 6.371 3.348 9.835 4.716" fill="#63656E"/><path d="M920.73 333.217L568.35 129.77c-26.716-15.425-69.88-15.425-96.416-.004L121.841 333.217c-26.54 15.424-26.399 40.426.314 55.851l352.383 203.448c26.709 15.422 69.874 15.421 96.415-.003 116.697-67.817 233.396-135.634 350.092-203.452 26.534-15.421 26.393-40.424-.315-55.844zM451.292 196.865l59.554 18.938 59.157-34.957-18.994 49.333 56.245 22.514-71.293 11.543-24.391 48.874-25.065-42.198-71.32 7.696 55.797-37.632-19.69-44.111zm-174.269 172.75c-12.726-7.347-21.302-17.198-23.209-28.349-4.357-25.492 27.777-48.135 71.771-50.577 24.75-1.374 47.977 3.938 64.342 13.387 12.726 7.348 21.303 17.199 23.208 28.35 4.358 25.491-27.771 48.138-71.77 50.576-24.75 1.374-47.975-3.938-64.342-13.387zm255.765 163.789l-155.58-89.825 211.652-32.876-56.072 122.701zM688.366 428.68l-128.454-74.163 127.617-74.166 128.456 74.165-127.619 74.164zM941.546 458.48c-.072 25.95-.146 51.896-.221 77.847-.03 10.939-7.219 21.861-21.58 30.207l.221-77.849c14.36-8.345 21.55-19.267 21.58-30.205zm-839.058 77.422l.221-77.848c-.031 11.082 7.284 22.18 21.93 30.636l-.221 77.847c-14.647-8.455-21.961-19.554-21.93-30.635z" fill="#63656E"/><path d="M919.966 488.686l-.221 77.849-344.016 199.92.221-77.848 344.016-199.921zm-449.062 199.92l-.221 77.848-346.266-199.917.221-77.847a61532604.59 61532604.59 0 0 0 346.266 199.916zm105.046 0l-.221 77.848c-28.915 16.803-75.942 16.803-105.046 0l.221-77.848c29.104 16.803 76.131 16.803 105.046 0zM941.546 596.424c-.072 25.95-.146 51.896-.221 77.847-.03 10.939-7.219 21.861-21.58 30.207l.221-77.849c14.36-8.344 21.55-19.267 21.58-30.205zm-839.058 77.422l.221-77.848c-.031 11.081 7.284 22.18 21.93 30.635l-.221 77.848c-14.647-8.456-21.961-19.555-21.93-30.635z" fill="#63656E"/><path d="M919.966 626.629l-.221 77.849-344.016 199.92.221-77.848 344.016-199.921zM470.904 826.55l-.221 77.848L124.417 704.48l.221-77.848L470.904 826.55zm105.046 0l-.221 77.848c-28.915 16.804-75.942 16.804-105.046 0l.221-77.848c29.104 16.804 76.131 16.804 105.046 0zM940.855 361.334l-.136 47.636c-.001.2-.004.4-.01.6l.136-47.637c.006-.2.009-.4.01-.599" fill="#63656E"/><path d="M940.846 361.933l-.136 47.637a23.166 23.166 0 0 1-.446 3.911l.135-47.637c.26-1.299.409-2.604.447-3.911m-.448 3.91l-.135 47.637a24.923 24.923 0 0 1-1.101 3.838l.135-47.637a24.78 24.78 0 0 0 1.101-3.838" fill="#63656E"/><path d="M939.298 369.682l-.135 47.637a28.003 28.003 0 0 1-1.816 3.875l.132-47.636a27.573 27.573 0 0 0 1.819-3.876" fill="#63656E"/><path d="M937.479 373.558c-.044 15.878-.089 31.757-.132 47.636a32.145 32.145 0 0 1-2.744 4.074l.136-47.637a32.134 32.134 0 0 0 2.74-4.073m-2.741 4.073l-.136 47.637a39.375 39.375 0 0 1-4.228 4.546l.135-47.637a39.043 39.043 0 0 0 4.229-4.546" fill="#63656E"/><path d="M930.51 382.177l-.135 47.637c-2.442 2.256-5.322 4.4-8.632 6.392l.135-47.637c3.31-1.991 6.187-4.136 8.632-6.392" fill="#63656E"/><path d="M921.878 388.568c-.045 15.879-.088 31.758-.135 47.637-.274.165-.55.33-.833.492l.135-47.637c.28-.162.559-.326.833-.492M122.156 389.068l-.134 47.637c-13.444-7.762-20.158-17.949-20.128-28.121l.134-47.636c-.029 10.172 6.685 20.358 20.128 28.12" fill="#63656E"/><path d="M921.045 389.061l-.135 47.637L570.817 640.15l.136-47.638c116.697-67.817 233.395-135.633 350.092-203.451zM474.538 592.516l-.135 47.639-352.381-203.449.134-47.637 352.382 203.447z" fill="#63656E"/><path d="M570.953 592.513l-.136 47.638c-4.55 2.642-9.584 4.832-14.942 6.568l.137-47.635c5.355-1.738 10.392-3.929 14.941-6.571m-14.941 6.571l-.137 47.635c-4.137 1.344-8.465 2.413-12.909 3.216l.136-47.639a98.813 98.813 0 0 0 12.91-3.212" fill="#63656E"/><path d="M543.102 602.296l-.136 47.639c-2.856.515-5.765.918-8.695 1.21l.135-47.637c2.931-.293 5.838-.695 8.696-1.212m-8.697 1.212l-.135 47.637c-2.505.25-5.028.418-7.561.503l.134-47.636a117.08 117.08 0 0 0 7.562-.504" fill="#63656E"/><path d="M526.844 604.012l-.134 47.636a117.8 117.8 0 0 1-6.983.034l.134-47.637c2.327.056 4.659.047 6.983-.033m-6.984.033l-.134 47.637a120.938 120.938 0 0 1-6.714-.359l.134-47.638c2.23.183 4.47.305 6.714.36" fill="#63656E"/><path d="M513.146 603.685l-.134 47.638a115.989 115.989 0 0 1-6.629-.742l.136-47.638c2.191.312 4.403.558 6.627.742" fill="#63656E"/><path d="M506.52 602.942l-.136 47.638a108.51 108.51 0 0 1-6.758-1.174l.135-47.639c2.223.462 4.479.854 6.759 1.175" fill="#63656E"/><path d="M499.761 601.768l-.135 47.639a101.055 101.055 0 0 1-7.11-1.744l.134-47.636c2.324.661 4.698 1.241 7.111 1.741m-7.111-1.742l-.134 47.636a89.341 89.341 0 0 1-8.278-2.794l.136-47.637a88.133 88.133 0 0 0 8.276 2.795M484.373 597.231c-.045 15.879-.089 31.758-.136 47.637-3.462-1.368-6.757-2.939-9.834-4.714l.135-47.639c3.077 1.778 6.371 3.348 9.835 4.716" fill="#63656E"/><path d="M920.73 333.217L568.35 129.77c-26.716-15.425-69.88-15.425-96.416-.004L121.841 333.217c-26.54 15.424-26.399 40.426.314 55.851l352.383 203.448c26.709 15.422 69.874 15.421 96.415-.003 116.697-67.817 233.396-135.634 350.092-203.452 26.534-15.421 26.393-40.424-.315-55.844zM451.292 196.865l59.554 18.938 59.157-34.957-18.994 49.333 56.245 22.514-71.293 11.543-24.391 48.874-25.065-42.198-71.32 7.696 55.797-37.632-19.69-44.111zm-174.269 172.75c-12.726-7.347-21.302-17.198-23.209-28.349-4.357-25.492 27.777-48.135 71.771-50.577 24.75-1.374 47.977 3.938 64.342 13.387 12.726 7.348 21.303 17.199 23.208 28.35 4.358 25.491-27.771 48.138-71.77 50.576-24.75 1.374-47.975-3.938-64.342-13.387zm255.765 163.789l-155.58-89.825 211.652-32.876-56.072 122.701zM688.366 428.68l-128.454-74.163 127.617-74.166 128.456 74.165-127.619 74.164z" fill="#63656E"/></svg>