<?xml version="1.0" standalone="no"?><!DOCTYPE svg PUBLIC "-//W3C//DTD SVG 1.1//EN" "http://www.w3.org/Graphics/SVG/1.1/DTD/svg11.dtd"><svg t="1683796005537" class="icon" viewBox="0 0 1024 1024" version="1.1" xmlns="http://www.w3.org/2000/svg" p-id="12055" xmlns:xlink="http://www.w3.org/1999/xlink" width="200" height="200"><path d="M448.528 431.952l-1.856 4.64-6.496 14.848-103.792 242.256c-20.992 48.896-31.504 79.2-31.504 90.96 0 16.72 8.032 25.072 24.096 25.072 22.864 0 48.192-16.096 76-48.272 6.784-8.048 11.424-12.064 13.888-12.064 3.712 0 5.568 1.856 5.568 5.568 0 14.848-18.24 33.408-54.672 55.68-21.632 13.008-43.872 19.504-66.72 19.504-17.92 0-33.68-4.96-47.264-14.848-13.6-9.904-20.4-21.344-20.4-34.352 0-7.424 2.784-18.88 8.352-34.336l11.12-31.552c-41.392 47.648-72.752 78.576-94.08 92.8-21.296 14.24-47.408 21.36-78.288 21.36-24.096 0-43.872-4.8-59.312-14.4C7.728 805.248 0 792.72 0 777.248c0-16.704 6.8-40.208 20.384-70.528L115.84 492.288c2.464-5.568 7.712-16.4 15.744-32.48 1.856-3.104 2.784-5.28 2.784-6.512 0-4.944-7.408-7.424-22.24-7.424-19.76 0-29.648-3.392-29.648-10.208 0-4.32 2.16-6.496 6.48-6.496 4.96 0 12.048 0.624 21.312 1.856 9.28 1.248 16.384 1.856 21.312 1.856 32.128 0 55.92-2.784 71.36-8.352 3.712-1.232 6.176-1.856 7.424-1.856 3.088 0 4.64 1.856 4.64 5.568 0 4.96-6.192 20.576-18.56 46.88a1122.24 1122.24 0 0 0-34.272 81.216c-2.48 6.8-12.048 29.392-28.736 67.76l-37.056 85.392c-15.456 35.264-23.168 60.32-23.168 75.168 0 17.952 11.424 26.928 34.288 26.928 24.08 0 55.28-19.808 93.6-59.408 43.232-44.544 79.072-100.864 107.488-168.928l59.312-141.088c3.088-7.424 6.48-11.136 10.192-11.136-0.624 0 5.872 0.624 19.456 1.856h7.408c16.688 0 27.504-0.928 32.448-2.784 3.088-1.232 5.248-1.856 6.48-1.856 3.088 0 4.64 1.248 4.64 3.712zM1024 165.568a50.976 50.976 0 0 1-2.784 6.496c-2.464 4.96-5.872 12.064-10.192 21.344l-211.28 513.28c-16.064 38.992-24.096 63.12-24.096 72.4 0 17.328 9.888 26 29.648 26 29.664 0 54.992-16.4 76-49.2 6.784-10.512 11.424-15.776 13.888-15.776 4.32 0 6.496 2.48 6.496 7.424 0 10.512-10.512 25.376-31.52 44.56-25.936 23.52-57.136 35.264-93.6 35.264-46.32 0-69.488-19.808-69.488-59.408 0-8.048 0.608-17.008 1.856-26.912-22.864 32.8-44.8 56.16-65.808 70.08-20.992 13.92-45.712 20.88-74.128 20.88-34.592 0-62.864-10.976-84.8-32.96-21.92-21.952-32.896-50.576-32.896-85.84 0-73.024 34.608-142.016 103.792-206.992 62.4-58.784 122.016-88.16 178.848-88.16 39.552 0 65.808 18.864 78.784 56.608l5.552-11.136 6.496-13.92 105.632-254.336c2.48-3.088 3.712-5.872 3.712-8.352 0-4.32-1.696-6.96-5.104-7.888-3.392-0.928-14.976-2-34.752-3.248-11.728-0.608-17.6-2.784-17.6-6.496 0-3.712 3.392-5.568 10.192-5.568h11.12c8.032 0 19.616 0.32 34.752 0.928 15.136 0.624 26.096 0.928 32.896 0.928 23.472 0 38.608-1.232 45.408-3.712 3.712-1.232 6.176-1.856 7.408-1.856 3.712 0 5.568 1.856 5.568 5.568zM800.672 493.216c0-14.24-6.496-26.912-19.472-38.048-12.96-11.152-27.488-16.72-43.552-16.72-45.712 0-92.352 38.368-139.936 115.104-45.088 72.4-67.648 133.648-67.648 183.776 0 45.168 20.4 67.76 61.168 67.76 35.84 0 71.04-25.072 105.648-75.2 24.704-35.264 46.016-76.4 63.936-123.44l21.312-54.752c12.368-31.568 18.544-51.04 18.544-58.48z" p-id="12056"></path></svg>