<?xml version="1.0" encoding="UTF-8"?>
<svg width="33px" height="28px" viewBox="0 0 33 28" version="1.1" xmlns="http://www.w3.org/2000/svg" xmlns:xlink="http://www.w3.org/1999/xlink">
    <title>Icon/5 logo图标/企业微信 有色</title>
    <g id="数据采集" stroke="none" stroke-width="1" fill="none" fill-rule="evenodd">
        <g id="编组" transform="translate(0.000000, -2.000000)" fill-rule="nonzero">
            <g id="企业微信logo" transform="translate(0.300465, 2.785344)">
                <g id="编组" transform="translate(0.000000, 0.000000)">
                    <path d="M21.4587553,21.4569987 C21.3699112,21.5449977 21.3245288,21.6676752 21.3347528,21.7922012 C21.3449768,21.9167272 21.4097636,22.0303893 21.5117756,22.1027705 C22.4317907,22.9630228 23.0240055,24.1155492 23.1872133,25.3633891 C23.4221836,26.2242371 24.2628389,26.7753781 25.1474872,26.648562 C26.0321353,26.5217457 26.6834873,25.7567221 26.6663357,24.8646492 C26.6491841,23.9725764 25.9689052,23.2330707 25.0800339,23.14024 C23.9158417,22.9229148 22.8546323,22.3318549 22.0578835,21.4569987 C21.8923216,21.2921116 21.6243172,21.2921116 21.4587553,21.4569987 Z" id="路径" fill="#FB6500"></path>
                    <path d="M28.9791051,18.1205997 C28.6931365,18.4062265 28.5140373,18.7816737 28.471884,19.1838919 C28.2574699,20.3466681 27.6693065,21.4073993 26.7969979,22.2044883 C26.6798549,22.31682 26.637248,22.4863611 26.6873432,22.640824 C26.7374385,22.7952868 26.8713991,22.9074236 27.032108,22.9294223 C27.1928168,22.9514209 27.3519243,22.8794008 27.4415913,22.7440693 C28.3000053,21.8257813 29.4505645,21.234838 30.6962597,21.0724259 C31.4123645,20.8783888 31.9308004,20.2566487 31.9936263,19.5165445 C32.0564521,18.7764404 31.6502517,18.076018 30.9771249,17.7637635 C30.3039983,17.4515091 29.5076881,17.5941031 28.9843887,18.1205997 L28.9791051,18.1205997 Z" id="路径" fill="#0082EF"></path>
                    <path d="M23.4498151,13.3177102 C22.9690308,13.7995953 22.807584,14.5146397 23.0346852,15.1563124 C23.2617864,15.7979851 23.8371083,16.2523416 24.5140171,16.3246049 C25.6777883,16.5394363 26.7394269,17.1287435 27.5371979,18.0027487 C27.6496259,18.1201193 27.819312,18.1628092 27.9739071,18.1126165 C28.128502,18.0624239 28.2407348,17.9282027 28.2627523,17.7671813 C28.2847697,17.6061599 28.212688,17.4467429 28.0772408,17.3569016 C27.1585237,16.4965489 26.5671445,15.3438883 26.4041669,14.0959031 C26.2361547,13.4898212 25.7587957,13.0185955 25.1505323,12.8583755 C24.5422689,12.6981555 23.8946697,12.873061 23.4498151,13.3177102 L23.4498151,13.3177102 Z" id="路径" fill="#2DBC00"></path>
                    <path d="M22.7630045,16.1084372 L22.7313831,16.1401497 C21.8721659,17.0892996 20.7049017,17.7017713 19.4374872,17.8684803 C18.8288568,18.0292287 18.3532064,18.5054133 18.1918524,19.1155139 C18.0304983,19.7256145 18.2083048,20.3756167 18.6574927,20.8177416 C19.1372299,21.2976975 19.8490872,21.458866 20.4878999,21.2321561 C21.1267125,21.0054463 21.579044,20.4311157 21.6509852,19.7553732 C21.866656,18.5930627 22.4551728,17.5332795 23.3269195,16.7374016 C23.5001043,16.5812321 23.5142616,16.3138335 23.3585408,16.1401497 C23.20282,15.9664661 22.9361893,15.9522679 22.7630045,16.1084372 Z" id="路径" fill="#FFCC00"></path>
                    <path d="M11.6543976,0.0888088148 C8.32587224,0.454283792 5.30852791,1.87188371 3.14137452,4.08688357 C2.28006997,4.96180852 1.57991272,5.94748345 1.06312999,6.99960839 C-0.578046851,10.2916254 -0.303810994,14.2108028 1.77995765,17.2439828 C2.36897883,18.1299827 3.33586264,19.2374827 4.21939441,20.0238076 L3.81930456,23.1580324 L3.77485012,23.2909324 C3.76373652,23.3296949 3.76373652,23.3739949 3.75817972,23.4127573 L3.74706611,23.5124324 L3.75817972,23.6121073 C3.78805924,23.9573491 3.99382757,24.2630824 4.30302147,24.4216403 C4.61221536,24.5801983 4.98146811,24.5693421 5.28074389,24.3928948 L5.29741431,24.3928948 L5.35853913,24.3485948 L6.31430935,23.8723699 L9.16494957,22.4436949 C10.5195681,22.8317461 11.9231089,23.0238295 13.3325522,23.0140573 C15.0754403,23.0179883 16.80559,22.718138 18.4448115,22.1280575 C17.6222607,21.8574791 17.0981419,21.0544744 17.1834171,20.1954701 C15.4880593,20.7385929 13.6961405,20.9160297 11.9266809,20.7159951 L11.643284,20.6772325 C11.0044225,20.5940933 10.3728304,20.4626603 9.75397076,20.2840701 C9.41663101,20.1795776 9.05104141,20.2176109 8.74263251,20.3892825 L8.66483725,20.4280451 L6.31986616,21.8013449 L6.21984369,21.8622575 C6.16427565,21.8954825 6.13649164,21.9065575 6.10870763,21.9065575 C6.02188847,21.9006356 5.95547001,21.8270936 5.95867392,21.7404325 L6.04758279,21.3804949 L6.15316205,20.9873325 L6.31986616,20.3394451 L6.51435428,19.6195701 C6.64398643,19.2175637 6.50068949,18.7780103 6.15871885,18.5286827 C5.23711085,17.846956 4.43691905,17.0158507 3.79152053,16.0700328 C2.14415225,13.6822947 1.92301821,10.5929351 3.21361296,7.99635832 C3.63593004,7.15465837 4.19161039,6.37387093 4.88065404,5.67060847 C6.65883117,3.84323359 9.15939277,2.68035865 11.9266809,2.38133367 C12.8832541,2.27617297 13.848532,2.27617297 14.8051052,2.38133367 C17.5557229,2.69697116 20.0451709,3.87645859 21.8122345,5.69275847 C22.4957213,6.39602092 23.0514017,7.18788337 23.4626051,8.02958332 C24.0127287,9.14815825 24.2905688,10.3331832 24.2905688,11.5458956 C24.2905688,11.6732581 24.2794552,11.8006206 24.2738984,11.9224456 C25.0034881,11.4747104 25.9461061,11.5846823 26.5521879,12.1882456 L26.63554,12.2879206 C26.7781779,10.4792851 26.4288025,8.66578421 25.6242017,7.03837088 C25.0975475,5.96533805 24.4036044,4.9822408 23.5681844,4.12564607 C21.2936953,1.84711017 18.2971145,0.424471696 15.0885021,0.0998838141 C13.9476829,-0.0294829733 12.7960331,-0.0331970479 11.6543976,0.0888088148 Z" id="路径" fill="#0082EF"></path>
                </g>
                <rect id="矩形" fill="#000000" opacity="0" x="0" y="1.09405818e-11" width="32" height="26.6666667"></rect>
            </g>
        </g>
    </g>
</svg>