<svg xmlns="http://www.w3.org/2000/svg" width="16" height="16" viewBox="0 0 16 16" fill="none">
<g transform="translate(2 2) scale(1.33333)">
<path id="&#229;&#189;&#162;&#231;&#138;&#182;" fill-rule="evenodd" clip-rule="evenodd" d="M7.87045 2.58704L1.67611 8.78138H0.218623V7.32389L6.41296 1.12955L7.87045 2.58704ZM8.89069 1.5668L8.23482 2.22267L6.77733 0.765182L7.4332 0.109312C7.57895 -0.0364372 7.79757 -0.0364372 7.94332 0.109312L8.89069 1.05668C9.03644 1.20243 9.03644 1.42105 8.89069 1.5668ZM4.22672 2.58704L2.58704 4.22672L1.67611 3.31579L2.22267 2.76923L2.04049 2.58704L1.49393 3.1336L0.765182 2.40486L1.31174 1.8583L1.12955 1.67611L0.582996 2.22267L0.109312 1.74899C-0.0364372 1.60324 -0.0364372 1.38462 0.109312 1.23887L1.23887 0.109312C1.38462 -0.0364372 1.60324 -0.0364372 1.74899 0.109312L4.22672 2.58704ZM8.89069 7.76113L7.76113 8.89069C7.61538 9.03644 7.39676 9.03644 7.25101 8.89069L6.77733 8.417L7.32389 7.87045L7.1417 7.68826L6.59514 8.23482L5.8664 7.50607L6.41296 6.95951L6.23077 6.77733L5.68421 7.32389L4.77328 6.41296L6.41296 4.77328L8.89069 7.25101C9.03644 7.39676 9.03644 7.61538 8.89069 7.76113Z" fill="#8F9FBD"/>
</g>
</svg>
