<svg xmlns="http://www.w3.org/2000/svg" viewBox="0 0 12 12" class="design-iconfont">
  <path d="M8.50160009,4.32922062 L2.33352205,4.32922062 L5.33296443,1.66312822 C5.47814999,1.53408372 5.49123312,1.31179043 5.36217662,1.16660487 C5.23313211,1.02145528 5.0108748,1.00832418 4.86567724,1.13739267 L1.18973753,4.40480537 C1.10816883,4.46921371 1.05574038,4.5689141 1.05574038,4.68091816 C1.05574038,4.68738178 1.05592027,4.69292202 1.05618408,4.69845027 C1.06080095,4.79313807 1.10298834,4.88178197 1.17378834,4.94467932 L4.86566525,8.2262664 C4.93266383,8.28584201 5.01607928,8.31510217 5.09917093,8.31510217 C5.19613719,8.31510217 5.29269572,8.27521722 5.36216462,8.19704221 C5.49120913,8.05188062 5.47813799,7.82957535 5.33295243,7.70054283 L2.33144744,5.0325917 L8.50158809,5.0325917 C9.7815043,5.0325917 10.8227823,6.07386972 10.8227823,7.35378593 L10.8227823,10.5711996 C10.8227823,10.7924982 10.9635681,10.9666248 11.1916718,10.9666248 C11.4197755,10.9666248 11.5261894,10.7667248 11.5261894,10.5711996 L11.5261894,7.35378595 C11.5261894,5.6860287 10.1693574,4.32922062 8.50160009,4.32922062 Z" transform="matrix(0 1 1 0 .283375 -.283375)" fill="#3A84FF" fill-rule="nonzero"/>
</svg>
