<?xml version="1.0" standalone="no"?><!DOCTYPE svg PUBLIC "-//W3C//DTD SVG 1.1//EN" "http://www.w3.org/Graphics/SVG/1.1/DTD/svg11.dtd"><svg t="1646980218013" class="icon" viewBox="0 0 1024 1024" version="1.1" xmlns="http://www.w3.org/2000/svg" p-id="8977" xmlns:xlink="http://www.w3.org/1999/xlink" width="200" height="200"><defs><style type="text/css"></style></defs><path d="M1023.812301 47.794971V47.965606l-2.303578 520.096649-1.535718 5.716286c-2.132942 8.275816-10.323441 29.349286-38.563597 45.303694-23.035777 12.968289-54.262052 19.623069-92.996284 19.623069h-4.863108c-48.887037-0.682542-110.998317-11.603206-184.883438-32.335405a447.150022 447.150022 0 0 0-120.553899-17.660762c-87.365316 0-148.96469 30.714369-188.296145 60.916832a73.54385 73.54385 0 0 0-22.609189 88.303811l98.371299 220.802186a46.498142 46.498142 0 0 1-42.14694 65.182716 46.498142 46.498142 0 0 1-42.48821-27.472296L4.009932 149.920248a45.8156 45.8156 0 0 1-2.815484-29.008015 55.79777 55.79777 0 0 1 32.079452-41.805669C72.09345 61.616437 134.204729 37.215577 210.734699 20.152039A766.152872 766.152872 0 0 1 377.274833 0.87024c51.36125 0 100.418923 6.142874 146.490477 18.172669 112.278082 29.519921 192.391395 41.123127 252.540367 41.123127 86.085551 0 131.815834-23.633001 174.218727-52.043792l2.047624-1.279765a46.412824 46.412824 0 0 1 47.266002-0.597224c14.845278 8.531769 24.144907 24.40086 24.059589 41.549716z" p-id="8978" fill="#699DF4"></path></svg>