<svg xmlns="http://www.w3.org/2000/svg" xmlns:xlink="http://www.w3.org/1999/xlink" viewBox="0 0 832.04 832"><defs><style>.cls-1{fill:url(#未命名的渐变_20);}.cls-2{fill:#fff;}</style><linearGradient id="未命名的渐变_20" x1="416.02" y1="3.78" x2="416.02" y2="827.78" gradientUnits="userSpaceOnUse"><stop offset="0" stop-color="#0fcaea"/><stop offset="1" stop-color="#5c46f8"/></linearGradient></defs><title>LOGO02.0</title><g id="图层_2" data-name="图层 2"><g id="图层_1-2" data-name="图层 1"><g id="图层_5" data-name="图层 5"><path class="cls-1" d="M720,0H112C50.12,0,0,55,0,122.75V710.18C0,778,50.12,832,111.95,832H720c61.87,0,112-54,112-121.82l0-587.43C832,55,781.87,0,720,0Z"/><path class="cls-2" d="M686.63,233.88l-.35-3.36a19.9,19.9,0,0,0-16.75-17.58l-3.34-.52A84.13,84.13,0,0,1,639.1,201C622.82,190.32,614,175.77,612,156.51L611.6,152a19.91,19.91,0,0,0-19.8-17.92H236.25A19.89,19.89,0,0,0,216.45,152l-.45,4.48c-1.93,19.26-10.78,33.81-27.06,44.47a84.13,84.13,0,0,1-27.09,11.41l-3.34.52a19.9,19.9,0,0,0-16.72,17.58l-.35,3.36C140.73,239.61,124.86,376.64,199,514c44.32,82.19,113.5,139.2,169.13,179.51,11.53,7.85,17.34,11.92,26.29,16.74,13.15,7.09,28.15,7.09,40,.31a217,217,0,0,0,25.61-17c55.62-40.31,124.8-97.32,169.12-179.51C703.21,376.67,687.34,239.64,686.63,233.88ZM585.33,490.44C541.2,572.26,467.39,628.33,414,664.76c-53.36-36.43-127.17-92.5-171.3-174.32-52.63-97.6-54.62-196.49-53-234.37,26.24-9.79,58.92-31.92,71.34-72.21h306c12.42,40.29,45.1,62.42,71.34,72.21C639.95,293.95,638,392.84,585.33,490.44Z"/><path class="cls-2" d="M531.65,273.78a16.58,16.58,0,0,0-11.73-4.85H308.14a16.58,16.58,0,0,0-11.73,4.85L266.6,303.59a16.84,16.84,0,0,0-4.62,14.5c7.78,52,31,184.65,128.78,257.66,0,0,15,11.56,23.27,12.19,8.29-.63,23.27-12.19,23.27-12.19,97.78-73,121-205.67,128.78-257.66a16.84,16.84,0,0,0-4.62-14.5ZM381.24,336.6c31.51-10,59.7,3.31,59.7,3.31l6.59-13.26s5-13.27,13.27,0c5.9,9.43,21.56,39.79,21.56,39.79s8.29,11.61-5,14.93c-14.83,3.71-44.77,10-44.77,10s-13.27,3.31-10-6.64l5-14.92s-56.38-28.19-87.89,21.56C339.79,391.32,349.74,346.54,381.24,336.6Zm65.58,133.92c-31.51,10-59.7-3.31-59.7-3.31l-6.59,13.26s-5,13.27-13.27,0c-5.89-9.43-21.56-39.8-21.56-39.8s-8.29-11.6,5-14.92c14.83-3.71,44.77-10,44.77-10s13.27-3.32,10,6.63l-5,14.93s56.38,28.19,87.88-21.56C488.27,415.8,478.32,460.57,446.82,470.52Z"/><circle class="cls-2" cx="254.83" cy="252.9" r="22.39"/><circle class="cls-2" cx="571.56" cy="252.9" r="22.39"/><circle class="cls-2" cx="414.03" cy="617.72" r="22.39"/></g></g></g></svg>