<svg viewBox="0 0 24 24" version="1.1" xmlns="http://www.w3.org/2000/svg"><path d="M21 15.735c0-0.060-0.015-0.105-0.030-0.165-0.015-0.045-0.015-0.090-0.030-0.12s-0.030-0.060-0.045-0.075c-0.030-0.060-0.060-0.105-0.105-0.15 0 0 0 0 0-0.015l-8.355-9c-0.24-0.27-0.63-0.27-0.87 0l-8.355 9c0 0 0 0.015 0 0.015-0.045 0.045-0.060 0.090-0.090 0.15-0.015 0.030-0.045 0.060-0.060 0.090s-0.015 0.075-0.030 0.12c-0.015 0.030-0.030 0.090-0.030 0.15 0 0 0 0.015 0 0.015 0 0.045 0.015 0.075 0.015 0.105 0 0.060 0.015 0.105 0.030 0.165s0.045 0.105 0.075 0.15c0.015 0.030 0.030 0.060 0.045 0.090 0 0 0 0 0.015 0.015 0.030 0.045 0.075 0.075 0.12 0.105 0.030 0.015 0.060 0.045 0.090 0.060s0.060 0.015 0.090 0.030c0.045 0 0.090 0.030 0.15 0.030 0 0 0.015 0 0.015 0h16.71c0.090 0 0.18-0.015 0.255-0.060 0.015 0 0.015-0.015 0.030-0.015 0.075-0.045 0.135-0.090 0.195-0.15 0 0 0 0 0.015 0 0.015-0.030 0.030-0.060 0.045-0.090 0.030-0.045 0.060-0.090 0.075-0.15 0.015-0.045 0.015-0.105 0.030-0.165 0-0.045 0.015-0.075 0.015-0.105-0.015-0.015-0.015-0.030-0.015-0.030z"/></svg>