<?xml version="1.0" encoding="UTF-8"?>
<svg width="32px" height="32px" viewBox="0 0 32 32" version="1.1" xmlns="http://www.w3.org/2000/svg" xmlns:xlink="http://www.w3.org/1999/xlink">
    <title>AI 小鲸</title>
    <defs>
        <linearGradient x1="45.02491%" y1="35.5927467%" x2="99.2803929%" y2="81.0358394%" id="linearGradient-1">
            <stop stop-color="#235DFA" offset="0%"></stop>
            <stop stop-color="#EB8CEC" offset="100%"></stop>
        </linearGradient>
        <linearGradient x1="50%" y1="0%" x2="50%" y2="100%" id="linearGradient-2">
            <stop stop-color="#FFFFFF" stop-opacity="0.885701426" offset="0%"></stop>
            <stop stop-color="#FFFFFF" stop-opacity="0.29" offset="100%"></stop>
        </linearGradient>
        <linearGradient x1="50%" y1="0%" x2="50%" y2="100%" id="linearGradient-3">
            <stop stop-color="#1562FC" offset="0%"></stop>
            <stop stop-color="#EB8CEC" offset="100%"></stop>
        </linearGradient>
        <linearGradient x1="50%" y1="95.0902604%" x2="35.112422%" y2="19.6450217%" id="linearGradient-4">
            <stop stop-color="#DC63FE" offset="0.0150240385%"></stop>
            <stop stop-color="#235DFA" offset="100%"></stop>
        </linearGradient>
        <linearGradient x1="46.6072083%" y1="95.8855311%" x2="46.6072083%" y2="50%" id="linearGradient-5">
            <stop stop-color="#B962FD" offset="0%"></stop>
            <stop stop-color="#565FFB" offset="99.984976%"></stop>
        </linearGradient>
        <linearGradient x1="50%" y1="0%" x2="50%" y2="100%" id="linearGradient-6">
            <stop stop-color="#235DFA" offset="0%"></stop>
            <stop stop-color="#A826E2" offset="100%"></stop>
        </linearGradient>
    </defs>
    <g id="AI-小鲸" stroke="none" stroke-width="1" fill="none" fill-rule="evenodd">
        <g transform="translate(0, 0)" fill-rule="nonzero">
            <path d="M13.8279996,6.90270289 C19.8572048,6.90270289 24.7448413,11.7903394 24.7448413,17.8195447 L24.7469417,25.947159 C27.3162336,26.204621 29.111578,26.9336798 29.111578,28.7151105 C29.0986396,28.7282164 29.0727626,28.7314504 28.9951317,28.7334929 L28.9420667,28.7345782 C28.9320954,28.7347361 28.9215377,28.7348828 28.9103588,28.7350186 L27.9809964,28.7352521 C27.9456658,28.7351498 27.909231,28.735041 27.8716577,28.7349268 L27.5018242,28.7337502 C27.4571088,28.7336042 27.4111514,28.7334534 27.3639173,28.7332981 L27.0649177,28.7323165 C27.0124392,28.7321449 26.9586151,28.7319696 26.903411,28.7317909 L26.5553486,28.7306804 C26.3727608,28.7301075 26.177131,28.72951 25.9675276,28.7288973 L25.5294135,28.7276541 C25.2852701,28.7269824 25.0244872,28.7263001 24.7459305,28.7256188 L13.8279996,28.7363864 C9.04281277,28.7363864 4.97671009,25.6576213 3.5024947,21.3728941 C1.50453121,20.9739999 0,19.2183605 0,17.1130311 L1.77026391,17.1123268 C2.18210271,17.1119866 2.56958333,17.1115338 2.93414643,17.1109921 C3.29868547,11.4122007 8.03671769,6.90270289 13.8279996,6.90270289 Z" id="形状结合" fill="url(#linearGradient-1)"></path>
            <path d="M13.8279996,9.8138607 C18.2494167,9.8138607 21.8336835,13.3981275 21.8336835,17.8195447 L21.8336835,22.9140708 C21.8336835,24.5218589 20.5303138,25.8252286 18.9225257,25.8252286 L13.8279996,25.8252286 C9.40658241,25.8252286 5.82231561,22.2409618 5.82231561,17.8195447 C5.82231561,13.3981275 9.40658241,9.8138607 13.8279996,9.8138607 Z" id="矩形" fill="url(#linearGradient-2)"></path>
            <rect id="矩形" fill="url(#linearGradient-3)" x="26.2004202" y="11.2694396" width="2.9111578" height="13.1002101" rx="1"></rect>
            <path d="M27.6332633,1.4555789 C27.6332633,3.68174698 29.2991086,5.51883604 31.4522457,5.78829253 L32,5.82231561 C29.7738318,5.82231561 27.9367428,7.48816096 27.6672863,9.64129814 L27.6332633,10.1890523 C27.6332633,7.96288424 25.9674179,6.12579518 23.8142807,5.85633869 L23.2665266,5.82231561 C25.4926946,5.82231561 27.3297837,4.15647026 27.5992402,2.00333308 L27.6332633,1.4555789 Z" id="星形" fill="url(#linearGradient-4)"></path>
            <path d="M21.8109477,0 C21.8109477,1.48411206 22.9215112,2.70883809 24.356936,2.88847575 L24.7221055,2.9111578 C23.2379935,2.9111578 22.0132673,4.02172138 21.8336297,5.45714616 L21.8109477,5.82231561 C21.8109477,4.33820355 20.7003841,3.11347752 19.2649593,2.93383986 L18.8997899,2.9111578 C20.3839019,2.9111578 21.6086279,1.80059423 21.7882655,0.36516945 L21.8109477,0 Z" id="星形" fill="url(#linearGradient-5)"></path>
            <path d="M23.2665266,7.27789451 C23.2665266,8.01995054 23.8218084,8.63231356 24.5395207,8.72213239 L24.7221055,8.73347341 C23.9800495,8.73347341 23.3676864,9.28875519 23.2778676,10.0064676 L23.2665266,10.1890523 C23.2665266,9.44699629 22.7112448,8.83463327 21.9935323,8.74481444 L21.8109477,8.73347341 C22.5530037,8.73347341 23.1653666,8.17819163 23.2551854,7.46047924 L23.2665266,7.27789451 Z" id="星形" fill="#8860FC"></path>
            <rect id="矩形" fill="#16204D" x="9.46126287" y="15.6361763" width="2.9111578" height="4.36673671" rx="1"></rect>
            <rect id="矩形备份" fill="#16204D" x="15.2835785" y="15.6361763" width="2.9111578" height="4.36673671" rx="1"></rect>
            <path d="M17.7430123,6.90270289 C17.3518809,4.96193101 16.5812316,3.99154509 15.4310645,3.99154509 C13.705814,3.99154509 13.724469,6.29770264 15.4310645,6.09372131 C16.3313167,5.98611841 16.9417044,6.25577893 17.2622276,6.90270289 L17.7430123,6.90270289 Z" id="路径-7" fill="url(#linearGradient-6)" transform="translate(15.9436, 5.4471) scale(-1, 1) translate(-15.9436, -5.4471)"></path>
            <path d="M14.1441131,6.90270289 C13.7529817,4.96193101 12.9823324,3.99154509 11.8321654,3.99154509 C10.1069148,3.99154509 10.1255698,6.29770264 11.8321654,6.09372131 C12.7324175,5.98611841 13.3428052,6.25577893 13.6633284,6.90270289 L14.1441131,6.90270289 Z" id="路径-7" fill="url(#linearGradient-6)"></path>
        </g>
    </g>
</svg>