<?xml version="1.0" standalone="no"?><!DOCTYPE svg PUBLIC "-//W3C//DTD SVG 1.1//EN" "http://www.w3.org/Graphics/SVG/1.1/DTD/svg11.dtd"><svg t="1730172658932" class="icon" viewBox="0 0 1024 1024" version="1.1" xmlns="http://www.w3.org/2000/svg" p-id="19342" id="mx_n_1730172658933" xmlns:xlink="http://www.w3.org/1999/xlink" width="200" height="200"><path d="M512 15.04a497.92 497.92 0 0 1 497.024 497.088 496.832 496.832 0 0 1-145.728 351.68A494.4 494.4 0 0 1 512 1008.96a493.824 493.824 0 0 1-351.36-145.152A496.832 496.832 0 0 1 15.104 512.128 497.92 497.92 0 0 1 512 15.04z m-22.784 917.12v-160.64a405.12 405.12 0 0 0-129.152 26.624c-5.76 1.728-11.52 3.904-17.088 6.464 3.52 7.04 6.784 14.08 10.56 20.928 25.536 45.568 55.36 80.896 88.96 101.184 15.488 2.816 31.04 4.608 46.72 5.44zM809.344 215.04a128.768 128.768 0 0 0-10.624-10.048 441.216 441.216 0 0 1-58.24 36.928c27.072 70.784 43.904 156.032 46.592 247.424h144.896a419.648 419.648 0 0 0-122.624-274.304z m-46.72-40.384a415.36 415.36 0 0 0-85.696-49.472c12.416 16.384 23.68 33.6 33.664 51.584 3.84 7.04 7.872 15.232 11.904 23.36 13.568-8.128 27.136-16.576 40.128-25.536z m-181.184-77.44a532.352 532.352 0 0 0-46.656-5.12v161.216a428.992 428.992 0 0 0 146.176-33.408c-2.944-7.296-7.04-14.336-10.496-20.864-24.96-46.144-55.68-80.896-89.024-101.76z m-92.224-5.12a534.016 534.016 0 0 0-46.72 5.12c-33.6 20.928-63.424 55.68-88.96 101.824-3.776 6.528-7.04 13.568-10.816 20.864a428.8 428.8 0 0 0 146.496 33.408V92.16z m-142.144 33.088a414.848 414.848 0 0 0-85.76 49.472c13.056 8.96 26.624 17.28 40.448 25.472a375.168 375.168 0 0 1 45.312-74.88zM224.96 204.992a419.648 419.648 0 0 0-132.928 284.416h144.896c2.688-91.52 19.52-176.64 46.4-247.488a478.464 478.464 0 0 1-58.368-36.928z m-132.928 330.24a420.8 420.8 0 0 0 122.624 274.304l10.304 10.24c18.432-14.016 37.888-26.496 58.368-37.376-26.88-71.104-43.712-155.776-46.4-247.232H92.032z m169.28 314.432c26.56 19.84 55.296 36.416 85.76 49.408a360.512 360.512 0 0 1-33.664-51.584 351.616 351.616 0 0 1-11.648-22.784 416.64 416.64 0 0 0-40.448 24.96z m273.472 82.496a371.84 371.84 0 0 0 46.656-5.44c33.408-20.352 64-55.616 88.96-101.184 3.52-6.784 7.68-13.824 10.56-20.928a133.888 133.888 0 0 0-17.024-6.464 405.248 405.248 0 0 0-129.152-26.624v160.64z m142.144-33.088a416.32 416.32 0 0 0 85.76-49.408 390.656 390.656 0 0 0-40.192-24.96l-11.904 22.784a415.36 415.36 0 0 1-33.6 51.584z m121.792-79.296l10.624-10.24a420.8 420.8 0 0 0 122.624-274.368h-144.896c-2.688 91.52-19.52 176.128-46.656 247.232 20.48 10.752 40 23.232 58.304 37.376z m-99.84-558.08a203.648 203.648 0 0 1-18.944 7.36 460.608 460.608 0 0 1-145.152 29.824v190.464h206.208c-2.432-84.352-17.408-162.56-42.048-227.648z m-209.664 37.12a456.064 456.064 0 0 1-144.896-29.76 187.904 187.904 0 0 1-19.52-7.36c-24.384 65.088-39.616 143.296-42.048 227.648h206.464V298.88z m0 426.624V535.168H282.752c2.432 84.16 17.664 161.984 42.048 227.392 6.528-2.432 13.056-5.12 19.52-7.296a463.68 463.68 0 0 1 144.896-29.824z m45.568 0a465.344 465.344 0 0 1 144.896 29.824c6.464 2.176 12.736 4.864 19.2 7.296 24.704-65.408 39.68-143.232 42.112-227.392H534.784v190.272z" p-id="19343" fill="#ffffff"></path></svg>