<?xml version="1.0" standalone="no"?><!DOCTYPE svg PUBLIC "-//W3C//DTD SVG 1.1//EN" "http://www.w3.org/Graphics/SVG/1.1/DTD/svg11.dtd"><svg t="1741701248812" class="icon" viewBox="0 0 1024 1024" version="1.1" xmlns="http://www.w3.org/2000/svg" p-id="17521" xmlns:xlink="http://www.w3.org/1999/xlink" width="200" height="200"><path d="M114.272 96H461.76c10.048 0 18.272 8.224 18.272 18.272V461.76a18.336 18.336 0 0 1-18.272 18.272H114.24A18.336 18.336 0 0 1 96 461.728V114.24C96 104.224 104.224 96 114.272 96z m0 448H461.76c10.048 0 18.272 8.224 18.272 18.272V909.76a18.336 18.336 0 0 1-18.272 18.272H114.24A18.336 18.336 0 0 1 96 909.728V562.24c0-10.048 8.224-18.272 18.272-18.272z m448-448H909.76c10.048 0 18.272 8.224 18.272 18.272V461.76a18.336 18.336 0 0 1-18.272 18.272H562.24a18.336 18.336 0 0 1-18.272-18.272V114.24c0-10.048 8.224-18.272 18.272-18.272z m0 448H909.76c10.048 0 18.272 8.224 18.272 18.272V909.76a18.336 18.336 0 0 1-18.272 18.272H562.24a18.336 18.336 0 0 1-18.272-18.272V562.24c0-10.048 8.224-18.272 18.272-18.272z" p-id="17522" fill="#ffffff"></path></svg>