<?xml version="1.0" encoding="UTF-8"?>
<svg width="17px" height="17px" viewBox="0 0 17 17" version="1.1" xmlns="http://www.w3.org/2000/svg" xmlns:xlink="http://www.w3.org/1999/xlink">
    <title>Icon/3 面性图标/圆-警示备份 28</title>
    <g id="⚙️-控件" stroke="none" stroke-width="1" fill="none" fill-rule="evenodd">
        <g id="故障ICON" transform="translate(-522.000000, -129.000000)">
            <g id="Icon/3-面性图标/圆-警示备份-28" transform="translate(522.000000, 129.000000)">
                <path d="M14.34375,1.0625 C14.6371513,1.0625 14.875,1.30034873 14.875,1.59375 L14.875,15.40625 C14.875,15.6996513 14.6371513,15.9375 14.34375,15.9375 L2.65625,15.9375 C2.36284873,15.9375 2.125,15.6996513 2.125,15.40625 L2.125,1.59375 C2.125,1.30034873 2.36284873,1.0625 2.65625,1.0625 L14.34375,1.0625 Z M13.8125,11.421875 L5.843,11.4215 L5.84375,14.875 L13.8125,14.875 L13.8125,11.421875 Z M13.8125,6.640625 L5.843,6.6405 L5.843,10.3585 L13.8125,10.359375 L13.8125,6.640625 Z M3.984375,6.640625 C3.69097373,6.640625 3.453125,6.87847373 3.453125,7.171875 L3.453125,9.828125 C3.453125,10.1215263 3.69097373,10.359375 3.984375,10.359375 C4.27777627,10.359375 4.515625,10.1215263 4.515625,9.828125 L4.515625,7.171875 C4.515625,6.87847373 4.27777627,6.640625 3.984375,6.640625 Z M13.8125,2.125 L5.84375,2.125 L5.843,5.5775 L13.8125,5.578125 L13.8125,2.125 Z" id="形状结合" fill="#EAEBF0"></path>
                <rect id="codesign_placeholder_name" x="0" y="0" width="17" height="17"></rect>
            </g>
        </g>
    </g>
</svg>