<?xml version="1.0" encoding="UTF-8"?>
<svg width="17px" height="17px" viewBox="0 0 17 17" version="1.1" xmlns="http://www.w3.org/2000/svg" xmlns:xlink="http://www.w3.org/1999/xlink">
    <title>Icon/3 面性图标/圆-警示备份 33</title>
    <g id="⚙️-控件" stroke="none" stroke-width="1" fill="none" fill-rule="evenodd">
        <g id="故障ICON" transform="translate(-522.000000, -298.000000)">
            <g id="Icon/3-面性图标/圆-警示备份-33" transform="translate(522.000000, 298.000000)">
                <path d="M8.44177507,0.796875 C8.59185518,0.799507984 9.02629761,0.958803541 9.02629761,0.958803541 L14.4041683,3.5483437 C14.4041683,3.5483437 14.7319748,3.71553821 14.8070149,3.82085759 C14.8833714,3.92486047 14.951829,4.31454217 14.951829,4.31454217 L16.2525233,10.0149534 C16.2525233,10.0149534 16.3578427,10.34276 16.3183479,10.6600346 C16.2880686,10.7930003 16.0247702,11.1208069 16.0247702,11.1208069 L12.2332726,15.8772932 C12.2332726,15.8772932 12.1016234,16.074767 11.9831391,16.1537565 C11.9357454,16.1846001 11.8122638,16.1930901 11.7151274,16.1947021 L11.6019858,16.1938961 L11.584242,16.1932513 L5.2966752,16.1932513 C5.2966752,16.1932513 5.01757885,16.2327461 4.93858932,16.1537565 C4.85959979,16.1142618 4.74111549,15.9562827 4.74111549,15.9562827 L0.752144117,10.9931071 L0.642875264,10.8219631 L0.563885732,10.6639841 C0.507276568,10.5520822 0.541505365,10.4033186 0.541505365,10.4033186 L0.583633115,10.2190097 L1.97648187,4.11706833 C1.97648187,4.11706833 2.03704051,3.8695678 2.10023213,3.79057827 C2.16210727,3.71290523 2.41882325,3.57862302 2.41882325,3.57862302 L7.89279782,0.941689142 L7.95895156,0.919061933 C8.0806448,0.878332955 8.33711394,0.796875 8.44177507,0.796875 Z M6.9221875,12.9168125 C6.7181875,12.9168125 6.555625,12.95825 6.4313125,13.0475 C6.3038125,13.130375 6.24325,13.2483125 6.24325,13.4013125 C6.24325,13.54475 6.307,13.6563125 6.4345,13.736 C6.5141875,13.787 6.65125,13.8348125 6.8456875,13.8794375 C7.0114375,13.9176875 7.1198125,13.946375 7.1708125,13.971875 C7.2664375,14.0165 7.31425,14.0770625 7.31425,14.1535625 C7.31425,14.2874375 7.18675,14.3575625 6.93175,14.3575625 C6.810625,14.3575625 6.7245625,14.33525 6.670375,14.297 C6.6161875,14.252375 6.5779375,14.1790625 6.5588125,14.073875 L6.205,14.073875 C6.2400625,14.4595625 6.4855,14.654 6.9445,14.654 C7.4385625,14.654 7.6871875,14.4786875 7.6871875,14.1280625 C7.6871875,13.9814375 7.62025,13.8635 7.4895625,13.780625 C7.4003125,13.7200625 7.2600625,13.6690625 7.0751875,13.6244375 C6.9094375,13.583 6.8010625,13.551125 6.746875,13.5288125 C6.657625,13.4905625 6.6161875,13.44275 6.6161875,13.39175 C6.6161875,13.328 6.6416875,13.283375 6.6990625,13.2546875 C6.746875,13.226 6.8201875,13.21325 6.9158125,13.21325 C7.027375,13.21325 7.11025,13.2291875 7.1644375,13.26425 C7.2154375,13.296125 7.2536875,13.3566875 7.2791875,13.4395625 L7.633,13.4395625 C7.59475,13.0889375 7.3556875,12.9168125 6.9221875,12.9168125 Z M10.3264375,12.9168125 C10.06825,12.9168125 9.8674375,13.002875 9.724,13.175 C9.590125,13.3311875 9.5231875,13.5351875 9.5231875,13.7838125 C9.5231875,14.0388125 9.590125,14.246 9.7271875,14.405375 C9.8674375,14.571125 10.0650625,14.654 10.3200625,14.654 C10.533625,14.654 10.70575,14.5998125 10.83325,14.494625 C10.9639375,14.38625 11.05,14.2205 11.08825,13.997375 L10.7280625,13.997375 C10.699375,14.2364375 10.5655,14.3575625 10.32325,14.3575625 C10.183,14.3575625 10.0778125,14.3065625 10.0076875,14.20775 C9.9311875,14.10575 9.896125,13.9623125 9.896125,13.780625 C9.896125,13.602125 9.934375,13.461875 10.010875,13.3630625 C10.087375,13.2610625 10.1925625,13.21325 10.3264375,13.21325 C10.4348125,13.21325 10.5240625,13.23875 10.591,13.28975 C10.65475,13.34075 10.699375,13.41725 10.7216875,13.5224375 L11.081875,13.5224375 C11.05,13.31525 10.967125,13.16225 10.8364375,13.06025 C10.7089375,12.964625 10.54,12.9168125 10.3264375,12.9168125 Z M8.194,12.9614375 L7.79875,12.9614375 L8.4075625,14.609375 L8.7709375,14.609375 L9.37975,12.9614375 L8.9845,12.9614375 L8.58925,14.15675 L8.194,12.9614375 Z M10.359375,3.71875 L6.90625,3.71875 L6.90625,5.578125 L8.234375,5.578125 L8.23425,6.90575 L3.984375,6.90625 L3.984375,9.296875 L2.65625,9.296875 L2.65625,11.15625 L6.109375,11.15625 L6.109375,9.296875 L4.78125,9.296875 L4.78025,7.70275 L8.23425,7.70275 L8.234375,9.296875 L6.90625,9.296875 L6.90625,11.15625 L10.359375,11.15625 L10.359375,9.296875 L9.03125,9.296875 L9.03025,7.70275 L12.48425,7.70275 L12.484375,9.296875 L11.15625,9.296875 L11.15625,11.15625 L14.609375,11.15625 L14.609375,9.296875 L13.28125,9.296875 L13.28125,6.90625 L9.03025,6.90575 L9.03125,5.578125 L10.359375,5.578125 L10.359375,3.71875 Z" id="形状结合" fill="#EAEBF0"></path>
                <rect id="codesign_placeholder_name" x="0" y="0" width="17" height="17"></rect>
            </g>
        </g>
    </g>
</svg>