<?xml version="1.0" encoding="UTF-8"?>
<svg width="17px" height="17px" viewBox="0 0 17 17" version="1.1" xmlns="http://www.w3.org/2000/svg" xmlns:xlink="http://www.w3.org/1999/xlink">
    <title>Icon/3 面性图标/圆-警示备份 29</title>
    <g id="⚙️-控件" stroke="none" stroke-width="1" fill="none" fill-rule="evenodd">
        <g id="故障ICON" transform="translate(-522.000000, -164.000000)">
            <g id="Icon/3-面性图标/圆-警示备份-29" transform="translate(522.000000, 164.000000)">
                <path d="M8.5,1.59375 C9.67360509,1.59375 10.625,2.54514491 10.625,3.71875 C10.625,4.34069331 10.3578111,4.9002313 9.93195679,5.28884042 L12.7885484,10.682411 C12.9466739,10.6448707 13.1116414,10.625 13.28125,10.625 C14.4548551,10.625 15.40625,11.5763949 15.40625,12.75 C15.40625,13.9236051 14.4548551,14.875 13.28125,14.875 C12.2912677,14.875 11.4594011,14.1980265 11.2233272,13.2817566 L5.77667275,13.2817566 C5.54059887,14.1980265 4.70873225,14.875 3.71875,14.875 C2.54514491,14.875 1.59375,13.9236051 1.59375,12.75 C1.59375,11.5763949 2.54514491,10.625 3.71875,10.625 C3.88835857,10.625 4.05332611,10.6448707 4.21145162,10.682411 L7.0678584,5.28867175 C6.64211162,4.9000694 6.375,4.34060333 6.375,3.71875 C6.375,2.54514491 7.32639491,1.59375 8.5,1.59375 Z M8.99370656,5.78610013 C8.8352751,5.82379505 8.66996791,5.84375 8.5,5.84375 C8.33039143,5.84375 8.16542389,5.82387933 8.00729838,5.78633897 L5.1508916,11.1800783 C5.45092251,11.4539329 5.67217111,11.8126428 5.77667275,12.2182434 L11.2233272,12.2182434 C11.3278289,11.8126428 11.5490775,11.4539329 11.8491084,11.1800783 L8.99370656,5.78610013 Z" id="形状结合" fill="#EAEBF0"></path>
                <rect id="codesign_placeholder_name" x="0" y="0" width="17" height="17"></rect>
            </g>
        </g>
    </g>
</svg>