<?xml version="1.0" encoding="UTF-8"?>
<svg width="17px" height="17px" viewBox="0 0 17 17" version="1.1" xmlns="http://www.w3.org/2000/svg" xmlns:xlink="http://www.w3.org/1999/xlink">
    <title>Icon/3 面性图标/圆-警示备份 36</title>
    <g id="⚙️-控件" stroke="none" stroke-width="1" fill="none" fill-rule="evenodd">
        <g id="故障ICON" transform="translate(-522.000000, -389.000000)">
            <g id="Icon/3-面性图标/圆-警示备份-36" transform="translate(522.000000, 389.000000)">
                <path d="M8.44177507,0.796875 C8.59185518,0.799507984 9.02629761,0.958803541 9.02629761,0.958803541 L14.4041683,3.5483437 C14.4041683,3.5483437 14.7319748,3.71553821 14.8070149,3.82085759 C14.8833714,3.92486047 14.951829,4.31454217 14.951829,4.31454217 L16.2525233,10.0149534 C16.2525233,10.0149534 16.3578427,10.34276 16.3183479,10.6600346 C16.2880686,10.7930003 16.0247702,11.1208069 16.0247702,11.1208069 L12.2332726,15.8772932 C12.2332726,15.8772932 12.1016234,16.074767 11.9831391,16.1537565 C11.9357454,16.1846001 11.8122638,16.1930901 11.7151274,16.1947021 L11.6019858,16.1938961 L11.584242,16.1932513 L5.2966752,16.1932513 C5.2966752,16.1932513 5.01757885,16.2327461 4.93858932,16.1537565 C4.85959979,16.1142618 4.74111549,15.9562827 4.74111549,15.9562827 L0.752144117,10.9931071 L0.642875264,10.8219631 L0.563885732,10.6639841 C0.507276568,10.5520822 0.541505365,10.4033186 0.541505365,10.4033186 L0.583633115,10.2190097 L1.97648187,4.11706833 C1.97648187,4.11706833 2.03704051,3.8695678 2.10023213,3.79057827 C2.16210727,3.71290523 2.41882325,3.57862302 2.41882325,3.57862302 L7.89279782,0.941689142 L7.95895156,0.919061933 C8.0806448,0.878332955 8.33711394,0.796875 8.44177507,0.796875 Z M9.305375,12.3855625 C9.101375,12.3855625 8.9388125,12.427 8.8145,12.51625 C8.687,12.599125 8.6264375,12.7170625 8.6264375,12.8700625 C8.6264375,13.0135 8.6901875,13.1250625 8.8176875,13.20475 C8.897375,13.25575 9.0344375,13.3035625 9.228875,13.3481875 C9.394625,13.3864375 9.503,13.415125 9.554,13.440625 C9.649625,13.48525 9.6974375,13.5458125 9.6974375,13.6223125 C9.6974375,13.7561875 9.5699375,13.8263125 9.3149375,13.8263125 C9.1938125,13.8263125 9.10775,13.804 9.0535625,13.76575 C8.999375,13.721125 8.961125,13.6478125 8.942,13.542625 L8.5881875,13.542625 C8.62325,13.9283125 8.8686875,14.12275 9.3276875,14.12275 C9.82175,14.12275 10.070375,13.9474375 10.070375,13.5968125 C10.070375,13.4501875 10.0034375,13.33225 9.87275,13.249375 C9.7835,13.1888125 9.64325,13.1378125 9.458375,13.0931875 C9.292625,13.05175 9.18425,13.019875 9.1300625,12.9975625 C9.0408125,12.9593125 8.999375,12.9115 8.999375,12.8605 C8.999375,12.79675 9.024875,12.752125 9.08225,12.7234375 C9.1300625,12.69475 9.203375,12.682 9.299,12.682 C9.4105625,12.682 9.4934375,12.6979375 9.547625,12.733 C9.598625,12.764875 9.636875,12.8254375 9.662375,12.9083125 L10.0161875,12.9083125 C9.9779375,12.5576875 9.738875,12.3855625 9.305375,12.3855625 Z M7.6829375,12.3855625 C7.584125,12.3855625 7.494875,12.4046875 7.412,12.446125 C7.3323125,12.484375 7.259,12.5449375 7.19525,12.6214375 L7.19525,12.4301875 L6.831875,12.4301875 L6.831875,14.078125 L7.19525,14.078125 L7.19525,13.0868125 C7.208,12.956125 7.252625,12.854125 7.329125,12.784 C7.3960625,12.72025 7.47575,12.688375 7.565,12.688375 C7.813625,12.688375 7.9379375,12.82225 7.9379375,13.0931875 L7.9379375,14.078125 L8.3013125,14.078125 L8.3013125,13.0613125 C8.3013125,12.6086875 8.094125,12.3855625 7.6829375,12.3855625 Z M5.3125,9.296875 L4.515625,9.296875 L4.515625,10.625 L5.84375,10.625 L5.84375,9.828125 L5.311625,9.827875 L5.3125,9.296875 Z M12.21875,9.296875 L11.421875,9.296875 L11.421625,9.827875 L10.890625,9.828125 L10.890625,10.625 L12.21875,10.625 L12.21875,9.296875 Z M7.96875,9.828125 L6.640625,9.828125 L6.640625,10.625 L7.96875,10.625 L7.96875,9.828125 Z M10.09375,9.828125 L8.765625,9.828125 L8.765625,10.625 L10.09375,10.625 L10.09375,9.828125 Z M5.3125,7.171875 L4.515625,7.171875 L4.515625,8.5 L5.3125,8.5 L5.3125,7.171875 Z M12.21875,7.171875 L11.421875,7.171875 L11.421875,8.5 L12.21875,8.5 L12.21875,7.171875 Z M5.84375,5.046875 L4.515625,5.046875 L4.515625,6.375 L5.3125,6.375 L5.311625,5.842875 L5.84375,5.84375 L5.84375,5.046875 Z M12.21875,5.046875 L10.890625,5.046875 L10.890625,5.84375 L11.421625,5.842875 L11.421875,6.375 L12.21875,6.375 L12.21875,5.046875 Z M7.96875,5.046875 L6.640625,5.046875 L6.640625,5.84375 L7.96875,5.84375 L7.96875,5.046875 Z M10.09375,5.046875 L8.765625,5.046875 L8.765625,5.84375 L10.09375,5.84375 L10.09375,5.046875 Z" id="形状结合" fill="#EAEBF0"></path>
                <rect id="codesign_placeholder_name" x="0" y="0" width="17" height="17"></rect>
            </g>
        </g>
    </g>
</svg>