<?xml version="1.0" encoding="UTF-8"?>
<svg width="17px" height="17px" viewBox="0 0 17 17" version="1.1" xmlns="http://www.w3.org/2000/svg" xmlns:xlink="http://www.w3.org/1999/xlink">
    <title>Icon/3 面性图标/圆-警示备份 30</title>
    <g id="⚙️-控件" stroke="none" stroke-width="1" fill="none" fill-rule="evenodd">
        <g id="故障ICON" transform="translate(-522.000000, -197.000000)">
            <g id="Icon/3-面性图标/圆-警示备份-30" transform="translate(522.000000, 197.000000)">
                <path d="M15.4377875,12.4664105 C15.4122765,12.53444 15.0806325,13.6994457 14.2642782,14.8899623 C13.5499682,15.9274126 12.8186508,16.9648629 11.6621489,16.9818702 C10.5226543,16.9988776 10.1569956,16.301575 8.85593097,16.301575 C7.5548663,16.301575 7.14668915,16.9648629 6.06672044,16.9988776 C4.95273696,17.0413961 4.0938642,15.8678868 3.37955419,14.8389402 C1.92542309,12.7470323 0.802935918,8.87785305 2.30808916,6.29273109 C3.04791025,5.00017011 4.38298969,4.17531211 5.8286171,4.14980104 C6.9170895,4.13279366 7.96304345,4.88962213 8.62633132,4.88962213 C9.30662658,4.88962213 10.5651728,3.97122354 11.8917485,4.10728259 C12.4444884,4.13279366 14.0006638,4.33688224 14.9955956,5.79101334 C14.9190624,5.84203548 13.1417911,6.89649312 13.1587984,9.03091948 C13.1758058,11.6075377 15.4122765,12.4579068 15.4377875,12.4664105 M11.0158684,2.7296847 C11.6111267,1.9983673 12.0108002,0.994931807 11.9002522,0 C11.0498832,0.0340147626 10.0039292,0.569747274 9.39166348,1.29256098 C8.84742728,1.92183409 8.36271691,2.94227697 8.49877596,3.92870508 C9.44268563,3.97972723 10.4206101,3.42698734 11.0158684,2.7296847" id="形状" fill="#EAEBF0"></path>
                <rect id="codesign_placeholder_name" x="0" y="0" width="17" height="17"></rect>
            </g>
        </g>
    </g>
</svg>