<?xml version="1.0" standalone="no"?><!DOCTYPE svg PUBLIC "-//W3C//DTD SVG 1.1//EN" "http://www.w3.org/Graphics/SVG/1.1/DTD/svg11.dtd"><svg t="1730172877668" class="icon" viewBox="0 0 1024 1024" version="1.1" xmlns="http://www.w3.org/2000/svg" p-id="20386" xmlns:xlink="http://www.w3.org/1999/xlink" width="200" height="200"><path d="M960 123.684571C872.667429 49.883429 704.731429 0 512 0 319.195429 0 151.332571 49.883429 64 123.684571 23.186286 158.208 0 197.851429 0 239.981714v366.006857l0.073143 1.974858H0v175.981714C0 916.48 229.229714 1024 512 1024s512-107.52 512-240.054857V608.036571h-0.073143L1024 602.770286V239.908571c0-42.130286-23.186286-81.773714-64-116.297142zM64 356.278857C151.332571 430.226286 319.268571 480.109714 512 480.109714c192.804571 0 360.667429-49.883429 448-123.684571v79.213714a508.269714 508.269714 0 0 1-58.806857 32.182857C796.233143 516.973714 657.993143 544.036571 512 544.036571c-145.993143 0-284.233143-27.062857-389.193143-76.361142a508.269714 508.269714 0 0 1-58.806857-32.182858V356.278857z m0 181.394286C151.332571 611.474286 319.268571 661.357714 512 661.357714c192.804571 0 360.667429-49.883429 448-123.684571v79.213714a523.776 523.776 0 0 1-58.806857 32.182857C796.233143 698.294857 657.92 725.357714 512 725.357714c-145.92 0-284.233143-27.062857-389.193143-76.288a508.269714 508.269714 0 0 1-58.806857-32.182857V537.6z m837.193143 292.717714c-104.96 49.225143-243.273143 76.288-389.193143 76.288-145.92 0-284.233143-27.062857-389.193143-76.288a533.504 533.504 0 0 1-56.393143-30.646857 53.979429 53.979429 0 0 1-2.413714-15.652571V718.994286c87.332571 73.874286 255.268571 123.684571 448 123.684571 192.804571 0 360.667429-49.956571 448-123.684571v65.024c0 5.12-0.731429 10.386286-2.413714 15.652571a515.949714 515.949714 0 0 1-56.32 30.646857z" p-id="20387" fill="#ffffff"></path></svg>