<?xml version="1.0" encoding="UTF-8"?>
<svg width="17px" height="17px" viewBox="0 0 17 17" version="1.1" xmlns="http://www.w3.org/2000/svg" xmlns:xlink="http://www.w3.org/1999/xlink">
    <title>Icon/3 面性图标/圆-警示备份 35</title>
    <g id="⚙️-控件" stroke="none" stroke-width="1" fill="none" fill-rule="evenodd">
        <g id="故障ICON" transform="translate(-522.000000, -360.000000)">
            <g id="Icon/3-面性图标/圆-警示备份-35" transform="translate(522.000000, 360.000000)">
                <path d="M8.44177507,0.796875 C8.59185518,0.799507984 9.02629761,0.958803541 9.02629761,0.958803541 L14.4041683,3.5483437 C14.4041683,3.5483437 14.7319748,3.71553821 14.8070149,3.82085759 C14.8833714,3.92486047 14.951829,4.31454217 14.951829,4.31454217 L16.2525233,10.0149534 C16.2525233,10.0149534 16.3578427,10.34276 16.3183479,10.6600346 C16.2880686,10.7930003 16.0247702,11.1208069 16.0247702,11.1208069 L12.2332726,15.8772932 C12.2332726,15.8772932 12.1016234,16.074767 11.9831391,16.1537565 C11.9357454,16.1846001 11.8122638,16.1930901 11.7151274,16.1947021 L11.6019858,16.1938961 L11.584242,16.1932513 L5.2966752,16.1932513 C5.2966752,16.1932513 5.01757885,16.2327461 4.93858932,16.1537565 C4.85959979,16.1142618 4.74111549,15.9562827 4.74111549,15.9562827 L0.752144117,10.9931071 L0.642875264,10.8219631 L0.563885732,10.6639841 C0.507276568,10.5520822 0.541505365,10.4033186 0.541505365,10.4033186 L0.583633115,10.2190097 L1.97648187,4.11706833 C1.97648187,4.11706833 2.03704051,3.8695678 2.10023213,3.79057827 C2.16210727,3.71290523 2.41882325,3.57862302 2.41882325,3.57862302 L7.89279782,0.941689142 L7.95895156,0.919061933 C8.0806448,0.878332955 8.33711394,0.796875 8.44177507,0.796875 Z M7.078375,13.4480625 C6.8265625,13.4480625 6.62575,13.52775 6.4759375,13.6935 C6.3229375,13.8560625 6.249625,14.06325 6.249625,14.31825 C6.249625,14.5700625 6.3229375,14.77725 6.47275,14.936625 C6.62575,15.102375 6.8265625,15.18525 7.078375,15.18525 C7.327,15.18525 7.531,15.102375 7.684,14.936625 C7.830625,14.77725 7.907125,14.5700625 7.907125,14.31825 C7.907125,14.06325 7.830625,13.8560625 7.6808125,13.6935 C7.5278125,13.52775 7.327,13.4480625 7.078375,13.4480625 Z M8.9749375,13.4480625 C8.7645625,13.4480625 8.5988125,13.483125 8.4776875,13.559625 C8.33425,13.6425 8.245,13.776375 8.2099375,13.9580625 L8.570125,13.98675 C8.58925,13.9006875 8.6370625,13.8369375 8.7071875,13.7955 C8.76775,13.75725 8.8474375,13.7413125 8.9494375,13.7413125 C9.1853125,13.7413125 9.30325,13.8465 9.30325,14.06325 L9.30325,14.127 L8.9430625,14.1365625 C8.7008125,14.1429375 8.51275,14.1939375 8.378875,14.2895625 C8.23225,14.388375 8.162125,14.5318125 8.162125,14.7166875 C8.162125,14.85375 8.213125,14.9653125 8.315125,15.0545625 C8.4139375,15.140625 8.5478125,15.18525 8.7199375,15.18525 C8.863375,15.18525 8.9876875,15.15975 9.092875,15.1119375 C9.1853125,15.0673125 9.265,15.00675 9.32875,14.923875 L9.32875,15.140625 L9.666625,15.140625 L9.666625,14.08875 C9.666625,13.8879375 9.615625,13.7349375 9.513625,13.62975 C9.398875,13.508625 9.2171875,13.4480625 8.9749375,13.4480625 Z M11.5855,12.820125 L11.222125,12.820125 L11.222125,13.719 C11.0850625,13.5373125 10.9225,13.4480625 10.73125,13.4480625 C10.495375,13.4480625 10.3073125,13.534125 10.1734375,13.70625 C10.0459375,13.865625 9.985375,14.0664375 9.985375,14.3086875 C9.985375,14.5605 10.049125,14.7676875 10.176625,14.9270625 C10.3136875,15.0991875 10.5049375,15.18525 10.750375,15.18525 C10.967125,15.18525 11.132875,15.1119375 11.247625,14.9653125 L11.247625,15.140625 L11.5855,15.140625 L11.5855,12.820125 Z M5.899,12.820125 L5.535625,12.820125 L5.535625,15.140625 L5.899,15.140625 L5.899,12.820125 Z M9.30325,14.388375 L9.30325,14.47125 C9.30325,14.59875 9.25225,14.7039375 9.156625,14.7868125 C9.061,14.8665 8.9430625,14.9079375 8.8028125,14.9079375 C8.723125,14.9079375 8.659375,14.885625 8.608375,14.847375 C8.557375,14.809125 8.5350625,14.7613125 8.5350625,14.7039375 C8.5350625,14.5063125 8.6785,14.4043125 8.9685625,14.3979375 L9.30325,14.388375 Z M10.8173125,13.7413125 C10.9320625,13.7413125 11.030875,13.789125 11.107375,13.88475 C11.19025,13.98675 11.234875,14.127 11.234875,14.3023125 L11.234875,14.3278125 C11.234875,14.4871875 11.1998125,14.6210625 11.132875,14.7230625 C11.056375,14.834625 10.9448125,14.892 10.8045625,14.892 C10.642,14.892 10.5240625,14.834625 10.45075,14.719875 C10.387,14.62425 10.3583125,14.4871875 10.3583125,14.3086875 C10.3583125,14.1301875 10.3901875,13.9963125 10.457125,13.903875 C10.533625,13.7955 10.6515625,13.7413125 10.8173125,13.7413125 Z M7.078375,13.7445 C7.2281875,13.7445 7.346125,13.801875 7.429,13.923 C7.499125,14.025 7.537375,14.158875 7.537375,14.31825 C7.537375,14.4744375 7.499125,14.605125 7.429,14.7103125 C7.346125,14.82825 7.2281875,14.8888125 7.078375,14.8888125 C6.925375,14.8888125 6.810625,14.82825 6.72775,14.7103125 C6.657625,14.6083125 6.6225625,14.477625 6.6225625,14.31825 C6.6225625,14.158875 6.657625,14.025 6.72775,13.923 C6.810625,13.801875 6.925375,13.7445 7.078375,13.7445 Z M8.7454375,10.7918125 C8.493625,10.7918125 8.2928125,10.8715 8.143,11.03725 C7.99,11.1998125 7.9166875,11.407 7.9166875,11.662 C7.9166875,11.9138125 7.99,12.121 8.1398125,12.280375 C8.2928125,12.446125 8.493625,12.529 8.7454375,12.529 C8.9940625,12.529 9.1980625,12.446125 9.3510625,12.280375 C9.4976875,12.121 9.5741875,11.9138125 9.5741875,11.662 C9.5741875,11.407 9.4976875,11.1998125 9.347875,11.03725 C9.194875,10.8715 8.9940625,10.7918125 8.7454375,10.7918125 Z M5.7300625,10.8364375 L5.3284375,10.8364375 L5.8830625,12.484375 L6.2209375,12.484375 L6.5524375,11.2795 L6.88075,12.484375 L7.218625,12.484375 L7.77325,10.8364375 L7.371625,10.8364375 L7.0433125,12.0540625 L6.7181875,10.8364375 L6.3835,10.8364375 L6.058375,12.0540625 L5.7300625,10.8364375 Z M10.6706875,10.7918125 C10.5686875,10.7918125 10.482625,10.8205 10.4093125,10.8810625 C10.34875,10.9256875 10.29775,10.9894375 10.253125,11.0723125 L10.253125,10.8364375 L9.8929375,10.8364375 L9.8929375,12.484375 L10.253125,12.484375 L10.253125,11.611 C10.253125,11.47075 10.2945625,11.3591875 10.3838125,11.273125 C10.4603125,11.196625 10.546375,11.1615625 10.642,11.1615625 C10.7185,11.1615625 10.795,11.171125 10.877875,11.196625 L10.877875,10.83325 C10.8205,10.8045625 10.750375,10.7918125 10.6706875,10.7918125 Z M11.4484375,10.163875 L11.0850625,10.163875 L11.0850625,12.484375 L11.4484375,12.484375 L11.4484375,11.9074375 L11.6141875,11.75125 L12.191125,12.484375 L12.6565,12.484375 L11.8628125,11.5185625 L12.59275,10.8364375 L12.1241875,10.8364375 L11.4484375,11.489875 L11.4484375,10.163875 Z M8.7454375,11.08825 C8.89525,11.08825 9.0131875,11.145625 9.0960625,11.26675 C9.1661875,11.36875 9.2044375,11.502625 9.2044375,11.662 C9.2044375,11.8181875 9.1661875,11.948875 9.0960625,12.0540625 C9.0131875,12.172 8.89525,12.2325625 8.7454375,12.2325625 C8.5924375,12.2325625 8.4776875,12.172 8.3948125,12.0540625 C8.3246875,11.9520625 8.289625,11.821375 8.289625,11.662 C8.289625,11.502625 8.3246875,11.36875 8.3948125,11.26675 C8.4776875,11.145625 8.5924375,11.08825 8.7454375,11.08825 Z M4.78125,4.05427632 L4.78128963,7.93040721 C4.7829537,8.03445532 4.84029477,8.12981735 4.93192208,8.18091903 L8.36019737,10.09375 L8.36019737,6.00050168 L4.78125,4.05427632 Z M12.3865132,4.05427632 L8.80756579,6.07721513 L8.80756579,10.09375 L12.233899,8.23266988 C12.3281736,8.18148633 12.3865132,8.08535029 12.3865132,7.98112058 L12.3865132,4.05427632 Z M8.66202525,1.63240804 C8.57390236,1.58086399 8.46621229,1.58086399 8.3780894,1.63240804 L5.00493421,3.60569478 L8.5379397,5.62006579 L11.9391447,3.54950689 Z" id="形状结合" fill="#EAEBF0"></path>
                <rect id="codesign_placeholder_name" x="0" y="0" width="17" height="17"></rect>
            </g>
        </g>
    </g>
</svg>