<?xml version="1.0" encoding="UTF-8"?>
<svg width="17px" height="17px" viewBox="0 0 17 17" version="1.1" xmlns="http://www.w3.org/2000/svg" xmlns:xlink="http://www.w3.org/1999/xlink">
    <title>Icon/3 面性图标/圆-警示备份 31</title>
    <g id="⚙️-控件" stroke="none" stroke-width="1" fill="none" fill-rule="evenodd">
        <g id="故障ICON" transform="translate(-522.000000, -230.000000)">
            <g id="Icon/3-面性图标/圆-警示备份-31" transform="translate(522.000000, 230.000000)">
                <path d="M8.44177507,0.796875 C8.59185518,0.799507984 9.02629761,0.958803541 9.02629761,0.958803541 L14.4041683,3.5483437 C14.4041683,3.5483437 14.7319748,3.71553821 14.8070149,3.82085759 C14.8833714,3.92486047 14.951829,4.31454217 14.951829,4.31454217 L16.2525233,10.0149534 C16.2525233,10.0149534 16.3578427,10.34276 16.3183479,10.6600346 C16.2880686,10.7930003 16.0247702,11.1208069 16.0247702,11.1208069 L12.2332726,15.8772932 C12.2332726,15.8772932 12.1016234,16.074767 11.9831391,16.1537565 C11.9357454,16.1846001 11.8122638,16.1930901 11.7151274,16.1947021 L11.6019858,16.1938961 L11.584242,16.1932513 L5.2966752,16.1932513 C5.2966752,16.1932513 5.01757885,16.2327461 4.93858932,16.1537565 C4.85959979,16.1142618 4.74111549,15.9562827 4.74111549,15.9562827 L0.752144117,10.9931071 L0.642875264,10.8219631 L0.563885732,10.6639841 C0.507276568,10.5520822 0.541505365,10.4033186 0.541505365,10.4033186 L0.583633115,10.2190097 L1.97648187,4.11706833 C1.97648187,4.11706833 2.03704051,3.8695678 2.10023213,3.79057827 C2.16210727,3.71290523 2.41882325,3.57862302 2.41882325,3.57862302 L7.89279782,0.941689142 L7.95895156,0.919061933 C8.0806448,0.878332955 8.33711394,0.796875 8.44177507,0.796875 Z M8.42992664,2.82164001 C8.25483318,2.82164001 8.11396851,3.00726541 8.11396851,3.23633505 C8.11396851,3.5325458 8.17847663,3.57335706 8.19295805,3.96698822 C8.19822401,4.1065364 8.19295805,4.32244112 8.03497898,4.51991495 L8.03497898,4.53834584 C7.00297964,4.63317401 6.04103412,5.10127402 5.32958751,5.85483804 C5.1456974,5.82759603 4.9719908,5.75321513 4.82537099,5.63893332 C4.52521077,5.37958436 4.53574271,5.30586079 4.30272359,5.12155189 C4.12368065,4.97805424 3.89066153,4.97278827 3.78139268,5.10838696 C3.67344031,5.24661864 3.73004948,5.4730553 3.90909242,5.61786945 C4.14079505,5.80217835 4.21188563,5.77584851 4.52916025,6.01281711 C4.6384291,6.09180664 4.79640816,6.22608884 4.8582833,6.45779147 C4.29545045,7.31654234 4.06299284,8.35020698 4.20398667,9.36723924 C4.069249,9.49070647 3.90520747,9.57771192 3.72741649,9.62000574 C3.3390513,9.69241281 3.28639161,9.63975312 2.99807981,9.70426124 C2.77427614,9.75297145 2.62419603,9.93201439 2.6636908,10.1018419 C2.70318556,10.2729859 2.91514081,10.3690898 3.13762799,10.3177466 C3.42725627,10.251922 3.45095313,10.1808314 3.83273587,10.078145 C4.00765492,10.0215747 4.19661841,10.0262175 4.3685482,10.0913099 C4.68556899,11.0723043 5.3461374,11.9058453 6.22875168,12.4386155 L6.20637131,12.4781103 C6.22542002,12.6721357 6.1917637,12.8677062 6.10895089,13.044202 C5.92464198,13.3943889 5.84960193,13.3996549 5.72058569,13.6682193 C5.62184877,13.8749085 5.667926,14.1026617 5.82590507,14.1790182 C5.98388413,14.2553748 6.19057341,14.1500554 6.29062681,13.9420496 C6.41832656,13.6761182 6.37883179,13.6129266 6.53681086,13.2495747 C6.60614918,13.063942 6.74230145,12.9108881 6.91859359,12.8203983 L6.93702448,12.779587 C7.91831063,13.1445531 8.9993566,13.1370589 9.97548849,12.7585232 C10.1117317,12.8597079 10.2218573,12.9919489 10.2967126,13.1442554 C10.4546916,13.5076072 10.4151969,13.5707988 10.5415801,13.8367303 C10.6416335,14.0434195 10.8496393,14.1487389 11.0063019,14.0736989 C11.1642809,13.9986588 11.2103582,13.7695892 11.1116213,13.5628999 C10.982605,13.2969685 10.907565,13.2864365 10.7232561,12.9388826 C10.6358367,12.7908355 10.5971526,12.6190597 10.6126707,12.447831 C11.4985835,11.9189215 12.163451,11.0876033 12.4847226,10.1071079 C12.6723133,10.0448903 12.870677,10.0339712 13.0613462,10.075512 C13.4431289,10.1781984 13.4668258,10.249289 13.7564541,10.3151136 C13.9802578,10.3664568 14.1908965,10.2690364 14.2303913,10.0992089 C14.2698861,9.92806492 14.1198059,9.75165496 13.8973188,9.70162826 C13.6076905,9.63580365 13.5550308,9.68846334 13.1666656,9.61605626 C12.9704221,9.58983847 12.7910583,9.49123533 12.6637656,9.3395929 C12.7945111,8.32737774 12.5598822,7.3005255 11.998937,6.44725953 C12.0729173,6.25933572 12.1884591,6.09830503 12.3399085,5.97595532 C12.6571831,5.74161971 12.7282737,5.76663306 12.9599763,5.58100766 C13.1390193,5.43751001 13.1969449,5.21238985 13.0876761,5.07547466 C12.9770907,4.93855947 12.7453881,4.94382544 12.5663451,5.08732309 C12.3346425,5.271632 12.3425415,5.34667205 12.0436977,5.60470452 C11.9009006,5.74244105 11.7115003,5.82139701 11.5131514,5.82587521 C10.7984311,5.09003677 9.84563467,4.63140414 8.8248743,4.53834584 L8.8248743,4.51991495 C8.72337214,4.35320016 8.6687899,4.1621623 8.66689524,3.96698822 C8.68137665,3.57204056 8.74588477,3.5325458 8.74588477,3.23633505 C8.74588477,3.00726541 8.60502011,2.82164001 8.42992664,2.82164001 Z M8.57869026,10.3177466 C8.8090764,10.6258058 9.22377144,11.3340786 9.56079344,11.9870587 C9.19753881,12.1152259 8.81512884,12.1806674 8.42992664,12.180584 C8.05084498,12.1808575 7.67439171,12.1176703 7.31617424,11.9936412 C7.67162713,11.3024828 8.09027165,10.5849945 8.3364557,10.3216961 C8.41717038,10.3270988 8.49819461,10.3257778 8.57869026,10.3177466 Z M7.15951167,9.65555103 C7.19505696,9.70821072 7.23455172,9.75955391 7.27799597,9.80694763 C7.2385012,10.080778 6.92912553,10.9049021 6.60263547,11.6474037 C5.96508578,11.2400203 5.48147142,10.6317965 5.22821761,9.91884947 C5.95228832,9.76876936 6.75139908,9.64765208 7.15951167,9.65555103 Z M9.69902513,9.65686752 C10.0294647,9.65160155 10.8707032,9.76876936 11.6316357,9.91621649 C11.3815022,10.6271223 10.9009825,11.2327087 10.2677498,11.6408213 C9.96232357,10.9720432 9.66479633,10.2242757 9.57527486,9.81484659 C9.62003559,9.76481988 9.66084685,9.7121602 9.69902513,9.65686752 Z M8.68006016,8.26401877 L9.00260075,8.65106748 L8.90386384,9.14606855 L8.45493999,9.37513819 L7.99548422,9.16713242 L7.87173395,8.67871382 L8.17716014,8.27718369 L8.68006016,8.26401877 Z M5.5336438,7.00676872 C6.11158387,7.48860487 6.71058783,8.04416457 6.94755642,8.36275569 C6.93053158,8.42463634 6.91734159,8.48750862 6.90806166,8.55101407 C6.58420457,8.70372717 5.7864103,8.95649367 5.05444064,9.14738504 C5.04106601,9.02671979 5.03403504,8.90543562 5.03337676,8.78403319 C5.03337676,8.1573829 5.20452075,7.54126455 5.5336438,7.00676872 Z M11.319627,6.99755327 C11.7174242,7.63921114 11.8889077,8.39559265 11.8067291,9.14606855 C11.073443,8.96175964 10.2914466,8.71820858 9.95179163,8.53521617 C9.94158578,8.47296548 9.927516,8.41141022 9.90966388,8.35090726 C10.1045047,8.09287479 10.725889,7.50308628 11.319627,6.99755327 Z M8.03725,5.410875 C8.01918108,6.17211266 7.95598945,6.98965432 7.85198657,7.35563915 C7.778263,7.38591847 7.70717242,7.42146376 7.64003132,7.46227502 C7.32012372,7.30429596 6.62633232,6.8408907 6.0233789,6.38933388 C6.50916452,5.89880888 7.13357677,5.57037041 7.8102406,5.44528653 L8.03725,5.410875 Z M8.82882378,5.41249666 C9.58396235,5.5009146 10.2873985,5.84080827 10.8259425,6.37748545 C10.2243055,6.83562473 9.54894501,7.29508051 9.19349212,7.44647711 C9.13405087,7.41269278 9.07248597,7.38278982 9.00918321,7.35695565 C8.93019368,7.05416244 8.85515362,6.19844251 8.82882378,5.41249666 Z" id="形状结合" fill="#EAEBF0"></path>
                <rect id="codesign_placeholder_name" x="0" y="0" width="17" height="17"></rect>
            </g>
        </g>
    </g>
</svg>