<?xml version="1.0" standalone="no"?><!DOCTYPE svg PUBLIC "-//W3C//DTD SVG 1.1//EN" "http://www.w3.org/Graphics/SVG/1.1/DTD/svg11.dtd"><svg t="1730172893121" class="icon" viewBox="0 0 1097 1024" version="1.1" xmlns="http://www.w3.org/2000/svg" p-id="20768" xmlns:xlink="http://www.w3.org/1999/xlink" width="214.2578125" height="200"><path d="M438.857143 950.857143H113.152A41.179429 41.179429 0 0 1 73.142857 908.653714V115.346286C73.142857 91.794286 91.282286 73.142857 113.152 73.142857h651.410286c21.869714 0 40.009143 18.651429 40.009143 42.203429v208.530285a36.571429 36.571429 0 1 0 73.142857 0V115.346286C877.714286 51.858286 827.245714 0 764.562286 0H113.225143C50.468571 0 0 51.858286 0 115.346286v793.307428C0 972.141714 50.468571 1024 113.152 1024H438.857143a36.571429 36.571429 0 1 0 0-73.142857z m329.142857-512a292.571429 292.571429 0 1 0 0 585.142857 292.571429 292.571429 0 0 0 0-585.142857z m0 512a219.428571 219.428571 0 1 1 0-438.857143 219.428571 219.428571 0 0 1 0 438.857143z m109.129143-237.714286H786.285714v-73.142857a36.571429 36.571429 0 1 0-73.142857 0v109.714286a36.571429 36.571429 0 0 0 36.571429 36.571428h127.414857a36.571429 36.571429 0 1 0 0-73.142857zM658.285714 292.571429a36.571429 36.571429 0 0 0-36.571428-36.571429h-365.714286a36.571429 36.571429 0 0 0 0 73.142857h365.714286A36.571429 36.571429 0 0 0 658.285714 292.571429zM256 548.571429a36.571429 36.571429 0 0 0 0 73.142857h91.794286a36.571429 36.571429 0 0 0 0-73.142857H256z" p-id="20769" fill="#ffffff"></path></svg>