<?xml version="1.0" standalone="no"?><!DOCTYPE svg PUBLIC "-//W3C//DTD SVG 1.1//EN" "http://www.w3.org/Graphics/SVG/1.1/DTD/svg11.dtd"><svg t="1722841543324" class="icon" viewBox="0 0 1024 1024" version="1.1" xmlns="http://www.w3.org/2000/svg" p-id="14457" id="mx_n_1722841543324" xmlns:xlink="http://www.w3.org/1999/xlink" width="200" height="200"><path d="M160 896h704c17.6 0 32 14.4 32 32v32H128v-32c0-17.6 14.4-32 32-32zM800 864V520c1.6-78.4-28.8-153.6-83.2-209.6-68.8-70.4-169.6-100.8-265.6-80-35.2 6.4-68.8 20.8-99.2 41.6-80 52.8-128 144-128 240v352h576z m-308.8-142.4l-48-43.2 68.8-76.8-89.6-89.6 112-112 44.8 44.8-65.6 67.2 88 88-110.4 121.6zM787.2 318.4l70.4-40c16-9.6 35.2-3.2 43.2 11.2 9.6 16 3.2 35.2-11.2 43.2l-70.4 40-14.4-28.8c-4.8-8-11.2-17.6-17.6-25.6zM654.4 206.4l41.6-70.4c9.6-16 28.8-20.8 43.2-11.2 16 9.6 20.8 28.8 11.2 43.2l-40 70.4c-8-6.4-17.6-12.8-27.2-17.6l-28.8-14.4zM544 177.6V96c0-17.6-14.4-32-32-32s-32 14.4-32 32v81.6c11.2-1.6 20.8-1.6 32-1.6s20.8 0 32 1.6zM369.6 206.4l-40-70.4c-9.6-16-28.8-20.8-43.2-11.2-16 9.6-20.8 28.8-11.2 43.2l40 70.4c8-6.4 17.6-12.8 27.2-17.6s17.6-9.6 27.2-14.4zM235.2 318.4l-70.4-40c-16-9.6-35.2-3.2-43.2 11.2-9.6 16-3.2 35.2 11.2 43.2l70.4 40 14.4-28.8c6.4-8 11.2-17.6 17.6-25.6z" fill="#ffffff" p-id="14458"></path></svg>