<?xml version="1.0" encoding="UTF-8"?>
<svg width="17px" height="17px" viewBox="0 0 17 17" version="1.1" xmlns="http://www.w3.org/2000/svg" xmlns:xlink="http://www.w3.org/1999/xlink">
    <title>Icon/3 面性图标/圆-警示备份 34</title>
    <g id="⚙️-控件" stroke="none" stroke-width="1" fill="none" fill-rule="evenodd">
        <g id="故障ICON" transform="translate(-522.000000, -331.000000)">
            <g id="Icon/3-面性图标/圆-警示备份-34" transform="translate(522.000000, 331.000000)">
                <path d="M8.44177507,0.796875 C8.59185518,0.799507984 9.02629761,0.958803541 9.02629761,0.958803541 L14.4041683,3.5483437 C14.4041683,3.5483437 14.7319748,3.71553821 14.8070149,3.82085759 C14.8833714,3.92486047 14.951829,4.31454217 14.951829,4.31454217 L16.2525233,10.0149534 C16.2525233,10.0149534 16.3578427,10.34276 16.3183479,10.6600346 C16.2880686,10.7930003 16.0247702,11.1208069 16.0247702,11.1208069 L12.2332726,15.8772932 C12.2332726,15.8772932 12.1016234,16.074767 11.9831391,16.1537565 C11.9357454,16.1846001 11.8122638,16.1930901 11.7151274,16.1947021 L11.6019858,16.1938961 L11.584242,16.1932513 L5.2966752,16.1932513 C5.2966752,16.1932513 5.01757885,16.2327461 4.93858932,16.1537565 C4.85959979,16.1142618 4.74111549,15.9562827 4.74111549,15.9562827 L0.752144117,10.9931071 L0.642875264,10.8219631 L0.563885732,10.6639841 C0.507276568,10.5520822 0.541505365,10.4033186 0.541505365,10.4033186 L0.583633115,10.2190097 L1.97648187,4.11706833 C1.97648187,4.11706833 2.03704051,3.8695678 2.10023213,3.79057827 C2.16210727,3.71290523 2.41882325,3.57862302 2.41882325,3.57862302 L7.89279782,0.941689142 L7.95895156,0.919061933 C8.0806448,0.878332955 8.33711394,0.796875 8.44177507,0.796875 Z M10.7923437,13.9957813 C10.5878125,13.9957813 10.4257812,14.0648438 10.3089062,14.205625 C10.1867187,14.34375 10.1282812,14.51375 10.1282812,14.7182813 C10.1282812,14.9467188 10.1920312,15.1246875 10.3195312,15.2548438 C10.4390625,15.3796875 10.6010937,15.4434375 10.805625,15.4434375 C10.9889062,15.4434375 11.1403125,15.3903125 11.2625,15.2867188 C11.358125,15.2017188 11.421875,15.0928125 11.45375,14.9653125 L11.1509375,14.9653125 C11.11375,15.0423438 11.0739062,15.098125 11.02875,15.1326563 C10.9703125,15.1751563 10.8959375,15.1964063 10.8029687,15.1964063 C10.6940625,15.1964063 10.6090625,15.161875 10.550625,15.0954688 C10.4921875,15.0290625 10.4576562,14.9307813 10.4470312,14.8032813 L11.475,14.8032813 C11.475,14.55625 11.4192187,14.3623438 11.3103125,14.2242188 C11.1907812,14.0701563 11.018125,13.9957813 10.7923437,13.9957813 Z M9.88921875,13.4725 L9.58640625,13.4725 L9.58640625,14.2215625 C9.4721875,14.0701563 9.33671875,13.9957813 9.17734375,13.9957813 C8.98078125,13.9957813 8.8240625,14.0675 8.7125,14.2109375 C8.60625,14.34375 8.55578125,14.5110938 8.55578125,14.7129688 C8.55578125,14.9228125 8.60890625,15.0954688 8.71515625,15.2282813 C8.829375,15.3717188 8.98875,15.4434375 9.19328125,15.4434375 C9.37390625,15.4434375 9.51203125,15.3823438 9.60765625,15.2601563 L9.60765625,15.40625 L9.88921875,15.40625 L9.88921875,13.4725 Z M7.65265625,13.9957813 C7.4428125,13.9957813 7.27546875,14.0621875 7.150625,14.2003125 C7.023125,14.3357813 6.96203125,14.5084375 6.96203125,14.7209375 C6.96203125,14.9307813 7.023125,15.1034375 7.14796875,15.23625 C7.27546875,15.374375 7.4428125,15.4434375 7.65265625,15.4434375 C7.85984375,15.4434375 8.02984375,15.374375 8.15734375,15.23625 C8.27953125,15.1034375 8.34328125,14.9307813 8.34328125,14.7209375 C8.34328125,14.5084375 8.27953125,14.3357813 8.1546875,14.2003125 C8.0271875,14.0621875 7.85984375,13.9957813 7.65265625,13.9957813 Z M6.18109375,13.9957813 C6.09875,13.9957813 6.024375,14.0117188 5.9553125,14.04625 C5.88890625,14.078125 5.8278125,14.1285938 5.7746875,14.1923438 L5.7746875,14.0329688 L5.471875,14.0329688 L5.471875,15.40625 L5.7746875,15.40625 L5.7746875,14.5801563 C5.7853125,14.47125 5.8225,14.38625 5.88625,14.3278125 C5.94203125,14.2746875 6.0084375,14.248125 6.0828125,14.248125 C6.29,14.248125 6.39359375,14.3596875 6.39359375,14.5854688 L6.39359375,15.40625 L6.69640625,15.40625 L6.69640625,14.5589063 C6.69640625,14.1817188 6.52375,13.9957813 6.18109375,13.9957813 Z M9.2490625,14.2401563 C9.3446875,14.2401563 9.42703125,14.28 9.49078125,14.3596875 C9.55984375,14.4446875 9.59703125,14.5615625 9.59703125,14.7076563 L9.59703125,14.7289063 C9.59703125,14.8617188 9.5678125,14.9732813 9.51203125,15.0582813 C9.44828125,15.15125 9.3553125,15.1990625 9.2384375,15.1990625 C9.10296875,15.1990625 9.0046875,15.15125 8.94359375,15.055625 C8.89046875,14.9759375 8.8665625,14.8617188 8.8665625,14.7129688 C8.8665625,14.5642188 8.893125,14.4526563 8.94890625,14.375625 C9.01265625,14.2853125 9.1109375,14.2401563 9.2490625,14.2401563 Z M7.65265625,14.2428125 C7.7775,14.2428125 7.87578125,14.290625 7.94484375,14.3915625 C8.00328125,14.4765625 8.03515625,14.588125 8.03515625,14.7209375 C8.03515625,14.8510938 8.00328125,14.96 7.94484375,15.0476563 C7.87578125,15.1459375 7.7775,15.1964063 7.65265625,15.1964063 C7.52515625,15.1964063 7.42953125,15.1459375 7.36046875,15.0476563 C7.30203125,14.9626563 7.2728125,14.85375 7.2728125,14.7209375 C7.2728125,14.588125 7.30203125,14.4765625 7.36046875,14.3915625 C7.42953125,14.290625 7.52515625,14.2428125 7.65265625,14.2428125 Z M10.8003125,14.2428125 C11.0128125,14.2428125 11.1323437,14.3517188 11.1589062,14.5748438 L10.4523437,14.5748438 C10.4709375,14.4659375 10.508125,14.3835938 10.5639062,14.3278125 C10.6223437,14.269375 10.699375,14.2428125 10.8003125,14.2428125 Z M8.44460085,2.390625 C8.34836073,2.390625 8.06599585,2.49049682 8.06599585,2.49049682 L4.29084097,4.30907191 C4.29084097,4.30907191 4.11379546,4.40168033 4.07112296,4.45524794 C4.02754253,4.50972348 3.98577795,4.68041351 3.98577795,4.68041351 L3.0251926,8.88864893 L2.99613898,9.01575852 C2.99613898,9.01575852 2.97253291,9.11835412 3.01157372,9.1955278 L3.06604926,9.30447888 L3.14140709,9.42250921 L5.89242183,12.8453889 C5.89242183,12.8453889 5.97413513,12.95434 6.02861067,12.9815778 C6.08308621,13.0360533 6.27556645,13.0088156 6.27556645,13.0088156 L10.6118194,13.0088156 C10.6118194,13.0088156 10.8297215,13.0188027 10.8869209,12.9815778 C10.9686342,12.9271022 11.0594267,12.7909134 11.0594267,12.7909134 L13.6742526,9.510578 C13.6742526,9.510578 13.8558378,9.28450451 13.8767201,9.19280402 C13.9039578,8.97399394 13.8313238,8.74792045 13.8313238,8.74792045 L12.9342932,4.81660236 L12.9237052,4.76165035 C12.9068702,4.67911647 12.8720355,4.52736318 12.8344214,4.47613023 C12.7826696,4.40349618 12.5565961,4.28818962 12.5565961,4.28818962 L8.84771984,2.50229986 C8.84771984,2.50229986 8.54810437,2.39244085 8.44460085,2.390625 Z M9.33077674,7.96875 L9.82061367,7.96920074 C9.90536686,7.96920074 9.96961524,8.0368113 9.96961524,8.11614103 L10.0179154,8.5691318 C10.1341093,8.6006834 10.2466579,8.6529689 10.3473593,8.70029629 L10.7251033,8.42624815 C10.7734035,8.37847001 10.8736492,8.37847001 10.9219494,8.42624815 L11.2677971,8.76790686 C11.3160973,8.81568499 11.3160973,8.91529788 11.2677971,8.96307602 L10.9902987,9.32051052 C11.0426999,9.41967269 11.0905444,9.53145548 11.1228964,9.64684418 L11.5648888,9.70994737 C11.6455411,9.70994737 11.7138904,9.76178213 11.6774374,9.8731142 L11.6774374,10.3662206 C11.6774374,10.4496069 11.6090881,10.5131609 11.5288915,10.5131609 L11.0868991,10.560939 C11.0550028,10.6763277 11.0185498,10.7876597 10.9543014,10.8872726 L11.235445,11.2289314 C11.2837452,11.2767095 11.2837452,11.3763224 11.235445,11.4236498 L10.890053,11.7657592 C10.8417528,11.8135374 10.7410515,11.8135374 10.6927513,11.7657592 L10.3473593,11.4872037 C10.2307097,11.5548143 10.1181611,11.6025924 10.0015116,11.6345947 L9.95321139,12.0718097 C9.95321139,12.1551961 9.88486205,12.21875 9.8046655,12.21875 L9.31027193,12.21875 C9.27087511,12.21875 9.23309188,12.2032688 9.20523412,12.1757122 C9.17737636,12.1481555 9.16172603,12.1107807 9.16172603,12.0718097 L9.11342583,11.6345947 C8.99074339,11.6050031 8.87397829,11.5551753 8.76803383,11.4872037 L8.42218616,11.7459268 C8.37388596,11.7937049 8.27364027,11.7937049 8.22534006,11.7459268 L7.8794924,11.4033666 C7.8311922,11.3555885 7.8311922,11.2564263 7.8794924,11.2086482 L8.16109168,10.8669895 C8.10818578,10.7564443 8.06385862,10.6420778 8.02849396,10.52488 L7.58650156,10.4771019 C7.54702585,10.4772217 7.50912545,10.4617934 7.48116906,10.4342238 C7.45321267,10.4066541 7.4375,10.3692108 7.4375,10.3301616 L7.4375,9.84111186 C7.4375,9.7577255 7.50584934,9.69417157 7.5860459,9.69417157 L8.03259492,9.64639344 C8.06449128,9.53100474 8.10094426,9.41967269 8.16473698,9.32005979 L7.88404902,8.96262528 C7.83574882,8.91484714 7.83574882,8.81523425 7.88404902,8.76745612 L8.22989669,8.42579741 C8.27774123,8.37801927 8.37844259,8.37801927 8.42674279,8.42579741 L8.78853863,8.69984555 C8.88878433,8.64846153 9.00133291,8.60068339 9.11798245,8.5691318 L9.18223083,8.11569029 C9.18223083,8.03230393 9.25058017,7.96875 9.33077674,7.96875 Z M9.56226653,9.03125 C9.28003951,9.02989 9.00898089,9.14140418 8.80945773,9.34097235 C8.60993457,9.54054052 8.49851566,9.81159015 8.5,10.0937562 C8.49926888,10.3756934 8.61092979,10.646305 8.81028906,10.8457092 C9.00964833,11.0451135 9.28026867,11.1568694 9.56226653,11.15625 C10.1347151,11.15625 10.6081758,10.6824211 10.625,10.0937562 C10.6264854,9.81150881 10.5150026,9.5403876 10.315378,9.34080575 C10.1157535,9.1412239 9.84457428,9.02976493 9.56226653,9.03125 Z M5.99351337,7.96875 L6.23843184,7.96897537 C6.28080843,7.96897537 6.31293262,8.00278065 6.31293262,8.04244551 L6.33708272,8.2689409 C6.39517966,8.2847167 6.45145395,8.31085945 6.50180463,8.33452315 L6.69067664,8.19749907 C6.71482674,8.17361001 6.76494959,8.17361001 6.78909969,8.19749907 L6.96202353,8.36832843 C6.98617363,8.3922175 6.98617363,8.44202394 6.96202353,8.46591301 L6.82327436,8.64463026 C6.84947495,8.69421134 6.87339721,8.75010274 6.88957322,8.80779709 L7.11056942,8.83934868 C7.15089553,8.83934868 7.1850702,8.86526607 7.16684372,8.9209321 L7.16684372,9.16748528 C7.16684372,9.20917846 7.13266904,9.24095543 7.09257077,9.24095543 L6.87157456,9.2648445 C6.85562638,9.32253884 6.83739989,9.37820487 6.8052757,9.42801132 L6.94584751,9.59884068 C6.96999761,9.62272974 6.96999761,9.67253619 6.94584751,9.69619989 L6.77315151,9.86725461 C6.74900141,9.89114368 6.69865073,9.89114368 6.67450063,9.86725461 L6.50180463,9.72797685 C6.44347986,9.76178213 6.38720557,9.7856712 6.3288808,9.80167237 L6.3047307,10.0202799 C6.3047307,10.061973 6.27055603,10.09375 6.23045775,10.09375 L5.98326097,10.09375 C5.96356256,10.09375 5.94467094,10.0860094 5.93074206,10.0722311 C5.91681318,10.0584528 5.90898801,10.0397654 5.90898801,10.0202799 L5.88483792,9.80167237 C5.8234967,9.78687656 5.76511415,9.76196265 5.71214191,9.72797685 L5.53921808,9.8573384 C5.51506798,9.88122747 5.46494513,9.88122747 5.44079503,9.8573384 L5.2678712,9.6860583 C5.2437211,9.66216924 5.2437211,9.61258816 5.2678712,9.58869909 L5.40867084,9.41786974 C5.38221789,9.36259715 5.36005431,9.3054139 5.34237198,9.24681501 L5.12137578,9.22292595 C5.10163793,9.22298584 5.08268773,9.2152717 5.06870953,9.20148688 C5.05473134,9.18770206 5.046875,9.16898041 5.046875,9.1494558 L5.046875,8.90493093 C5.046875,8.86323775 5.08104967,8.83146079 5.12114795,8.83146079 L5.34442246,8.80757172 C5.36037064,8.74987737 5.37859713,8.69421134 5.41049349,8.6444049 L5.27014951,8.46568764 C5.24599941,8.44179857 5.24599941,8.39199213 5.27014951,8.36810306 L5.44307334,8.1972737 C5.46699561,8.17338464 5.51734629,8.17338464 5.54149639,8.1972737 L5.72239431,8.33429778 C5.77251717,8.30860576 5.82879145,8.2847167 5.88711623,8.2689409 L5.91924042,8.04222014 C5.91924042,8.00052696 5.95341509,7.96875 5.99351337,7.96875 Z M6.10925827,8.5 C5.96814475,8.49932 5.83261545,8.55507709 5.73285387,8.65486118 C5.63309229,8.75464526 5.57738283,8.89017007 5.578125,9.03125309 C5.57775944,9.17222172 5.63358989,9.30752749 5.73326953,9.40722962 C5.83294916,9.50693174 5.96825933,9.56280971 6.10925827,9.5625 C6.39548254,9.5625 6.6322129,9.32558557 6.640625,9.03125309 C6.6413677,8.89012941 6.58562629,8.7545688 6.48581402,8.65477787 C6.38600175,8.55498695 6.25041214,8.49925746 6.10925827,8.5 Z M5.3125,5.54017857 L6.45089286,6.15159196 L6.45089286,7.4375 L5.36042583,6.83657757 C5.33128098,6.8205238 5.31304191,6.7905655 5.31251261,6.75787842 L5.3125,5.54017857 Z M7.77901786,5.54017857 L7.77901786,6.7738102 C7.77901786,6.80655432 7.76046119,6.83675579 7.73047428,6.85283528 L6.640625,7.4375 L6.640625,6.17569176 L7.77901786,5.54017857 Z M6.57489069,4.78246446 L6.60294071,4.7921801 L7.58928571,5.33421698 L6.56559353,5.91964286 L5.50223214,5.35010344 L6.51748191,4.7921801 L6.54553193,4.78246446 L6.57489069,4.78246446 Z M7.171875,3.68080357 L8.31026786,4.29221696 L8.31026786,5.578125 L7.21980083,4.97720257 C7.19065598,4.9611488 7.17241691,4.9311905 7.17188761,4.89850342 L7.171875,3.68080357 Z M9.63839286,3.68080357 L9.63839286,4.9144352 C9.63839286,4.94717932 9.61983619,4.97738079 9.58984928,4.99346028 L8.5,5.578125 L8.5,4.31631676 L9.63839286,3.68080357 Z M8.43426569,2.92308946 L8.46231571,2.9328051 L9.44866071,3.47484198 L8.42496853,4.06026786 L7.36160714,3.49072844 L8.37685691,2.9328051 L8.40490693,2.92308946 L8.43426569,2.92308946 Z" id="形状结合" fill="#EAEBF0"></path>
                <path d="M9.296875,5.80580357 L10.4352679,6.41721696 L10.4352679,7.703125 L9.34480083,7.10220257 C9.31565598,7.0861488 9.29741691,7.0561905 9.29688761,7.02350342 L9.296875,7.02205926 L9.296875,5.80580357 L9.296875,5.80580357 Z M11.7633929,5.80580357 L11.7633929,7.0394352 C11.7633929,7.07217932 11.7448362,7.10238079 11.7148493,7.11846028 L10.625,7.703125 L10.625,6.44131676 L11.7633929,5.80580357 L11.7633929,5.80580357 Z M10.5018569,5.0578051 C10.5283801,5.04323163 10.5607925,5.04323163 10.5873157,5.0578051 L11.5736607,5.59984198 L10.5499685,6.18526786 L9.48660714,5.61572844 L10.5018569,5.0578051 Z" id="形状备份-2" fill="#EAEBF0"></path>
                <rect id="codesign_placeholder_name" x="0" y="0" width="17" height="17"></rect>
            </g>
        </g>
    </g>
</svg>