<?xml version="1.0" standalone="no"?><!DOCTYPE svg PUBLIC "-//W3C//DTD SVG 1.1//EN" "http://www.w3.org/Graphics/SVG/1.1/DTD/svg11.dtd"><svg t="1730172907030" class="icon" viewBox="0 0 1024 1024" version="1.1" xmlns="http://www.w3.org/2000/svg" p-id="20959" xmlns:xlink="http://www.w3.org/1999/xlink" width="200" height="200"><path d="M601.024 99.584a32 32 0 0 0-8.064 63.488 380.352 380.352 0 0 1 175.68 69.952c-115.776 26.368-150.912 106.048-158.336 174.976-10.752 99.712 60.224 152 107.2 186.56 16.448 12.16 41.344 30.592 42.496 39.168 0.128 1.216-0.96 5.376-6.528 12.416-61.056 76.928-83.84 140.8-67.584 189.888 4.928 14.912 15.296 32.896 36.288 47.872A381.824 381.824 0 0 1 544 928c-3.008 0-5.952-0.32-8.96-0.448 40.128-67.392 25.728-118.272 3.456-151.04-54.08-79.488-134.912-104.128-211.072-64.192-5.248 2.816-9.6 1.664-34.368-21.696-24.448-23.04-63.232-58.88-120.064-48.32-5.056-19.2-8.96-38.848-11.008-59.2a32 32 0 0 0-63.744 6.4A446.528 446.528 0 0 0 544 992.064c247.04 0 448-200.96 448-448 0-225.024-168.064-416.064-390.976-444.416z m-405.952 604.736c18.368 0.704 33.152 13.184 54.08 32.896 24 22.656 60.352 56.704 108.032 31.744 63.296-33.28 107.584 12.992 128.32 43.52 8.128 11.904 28.928 42.56-22.4 106.752a381.824 381.824 0 0 1-268.032-214.912z m589.376 138.624c-21.056-5.952-33.856-15.04-37.824-27.008-8.576-25.792 12.672-74.432 56.896-130.048 15.872-19.968 22.592-40.384 19.84-60.608-4.736-35.584-35.392-58.24-67.968-82.176-43.392-32-88.32-65.088-81.536-128.192 5.568-51.264 28.352-118.336 156.736-126.08a383.232 383.232 0 0 1-46.144 554.176zM266.496 599.68a32 32 0 0 0 43.072 0C456.512 466.048 528 358.848 528 272A240.256 240.256 0 0 0 288 32 240.256 240.256 0 0 0 48 272c0 86.784 71.488 194.048 218.432 327.68zM288 96a176.192 176.192 0 0 1 176 176c0 43.904-31.232 124.16-176 260.416-144.768-136.32-176-216.576-176-260.416A176.192 176.192 0 0 1 288 96zM208 272a80 80 0 1 0 160 0 80 80 0 0 0-160 0z" p-id="20960" fill="#ffffff"></path></svg>