<?xml version="1.0" standalone="no"?><!DOCTYPE svg PUBLIC "-//W3C//DTD SVG 1.1//EN" "http://www.w3.org/Graphics/SVG/1.1/DTD/svg11.dtd"><svg t="1704093357870" class="icon" viewBox="0 0 1024 1024" version="1.1" xmlns="http://www.w3.org/2000/svg" p-id="13605" xmlns:xlink="http://www.w3.org/1999/xlink" width="200" height="200"><path d="M512 32l375.28 180.72 92.688 406.08L720.272 944.48H303.728L44.048 618.816l92.672-406.08L512 32z m-98.176 730.048c-13.056 0-23.04 4.416-29.952 13.248v-10.56H363.52v137.28h21.888v-51.648c8.064 10.752 18.048 16.32 29.568 16.32 14.208 0 25.536-5.184 33.6-15.552 7.488-9.6 11.328-21.696 11.328-36.288 0-15.36-3.84-27.648-11.52-37.248-8.448-10.368-19.968-15.552-34.56-15.552z m111.36 0c-15.168 0-27.264 4.8-36.288 14.784-9.216 9.792-13.632 22.272-13.632 37.632 0 15.168 4.416 27.648 13.44 37.248 9.216 9.984 21.312 14.976 36.48 14.976 14.976 0 27.264-4.992 36.48-14.976 8.832-9.6 13.44-22.08 13.44-37.248 0-15.36-4.608-27.84-13.632-37.632-9.216-9.984-21.312-14.784-36.288-14.784z m161.664-37.824H664.96v54.144c-8.256-10.944-18.048-16.32-29.568-16.32-14.208 0-25.536 5.184-33.6 15.552-7.68 9.6-11.328 21.696-11.328 36.288 0 15.168 3.84 27.648 11.52 37.248 8.256 10.368 19.776 15.552 34.56 15.552 13.056 0 23.04-4.416 29.952-13.248V864h20.352v-139.776zM410.56 779.712c9.6 0 16.704 3.456 21.312 10.368 3.648 5.76 5.568 14.016 5.568 24.768s-2.112 19.008-6.144 24.768c-4.608 6.144-11.904 9.408-21.504 9.408-7.104 0-12.864-2.88-17.472-8.64-5.184-6.336-7.68-14.784-7.68-25.152v-1.536c0-9.984 1.92-17.856 6.144-23.808 4.608-6.912 11.136-10.176 19.776-10.176z m230.016 0c6.912 0 12.864 2.88 17.472 8.64 4.992 6.144 7.68 14.592 7.68 25.152v1.536c0 9.6-2.112 17.664-6.144 23.808-4.608 6.72-11.328 10.176-19.776 10.176-9.792 0-16.896-3.456-21.312-10.368-3.84-5.76-5.568-14.016-5.568-24.768s1.92-18.816 5.952-24.384c4.608-6.528 11.712-9.792 21.696-9.792z m-115.392 0.192c9.024 0 16.128 3.456 21.12 10.752 4.224 6.144 6.528 14.208 6.528 23.808 0 9.408-2.304 17.28-6.528 23.616-4.992 7.104-12.096 10.752-21.12 10.752-9.216 0-16.128-3.648-21.12-10.752-4.224-6.144-6.336-14.016-6.336-23.616s2.112-17.664 6.336-23.808c4.992-7.296 11.904-10.752 21.12-10.752zM240 304v277.248c0.128 7.456 4.224 14.272 10.784 17.92L496 736V443.2L240 304z m544 0l-256 144.704V736l245.088-133.12c6.736-3.664 10.912-10.544 10.912-18V304zM517.6 130.768a20.032 20.032 0 0 0-20.32 0L256 271.92 508.72 416 752 267.888z" fill="#EAEBF0" p-id="13606"></path></svg>