<?xml version="1.0" encoding="UTF-8"?>
<svg width="17px" height="17px" viewBox="0 0 17 17" version="1.1" xmlns="http://www.w3.org/2000/svg" xmlns:xlink="http://www.w3.org/1999/xlink">
    <title>Icon/3 面性图标/圆-警示备份 32</title>
    <g id="⚙️-控件" stroke="none" stroke-width="1" fill="none" fill-rule="evenodd">
        <g id="故障ICON" transform="translate(-522.000000, -265.000000)">
            <g id="Icon/3-面性图标/圆-警示备份-32" transform="translate(522.000000, 265.000000)">
                <path d="M8.44177507,0.796875 C8.59185518,0.799507984 9.02629761,0.958803541 9.02629761,0.958803541 L14.4041683,3.5483437 C14.4041683,3.5483437 14.7319748,3.71553821 14.8070149,3.82085759 C14.8833714,3.92486047 14.951829,4.31454217 14.951829,4.31454217 L16.2525233,10.0149534 C16.2525233,10.0149534 16.3578427,10.34276 16.3183479,10.6600346 C16.2880686,10.7930003 16.0247702,11.1208069 16.0247702,11.1208069 L12.2332726,15.8772932 C12.2332726,15.8772932 12.1016234,16.074767 11.9831391,16.1537565 C11.9357454,16.1846001 11.8122638,16.1930901 11.7151274,16.1947021 L11.6019858,16.1938961 L11.584242,16.1932513 L5.2966752,16.1932513 C5.2966752,16.1932513 5.01757885,16.2327461 4.93858932,16.1537565 C4.85959979,16.1142618 4.74111549,15.9562827 4.74111549,15.9562827 L0.752144117,10.9931071 L0.642875264,10.8219631 L0.563885732,10.6639841 C0.507276568,10.5520822 0.541505365,10.4033186 0.541505365,10.4033186 L0.583633115,10.2190097 L1.97648187,4.11706833 C1.97648187,4.11706833 2.03704051,3.8695678 2.10023213,3.79057827 C2.16210727,3.71290523 2.41882325,3.57862302 2.41882325,3.57862302 L7.89279782,0.941689142 L7.95895156,0.919061933 C8.0806448,0.878332955 8.33711394,0.796875 8.44177507,0.796875 Z M9.7144375,12.9168125 C9.4913125,12.9168125 9.309625,12.9933125 9.1725625,13.1463125 C9.0323125,13.2993125 8.965375,13.500125 8.965375,13.74875 C8.965375,13.997375 9.0323125,14.1981875 9.1725625,14.348 C9.309625,14.494625 9.4913125,14.571125 9.7144375,14.571125 C9.9184375,14.571125 10.081,14.4850625 10.202125,14.316125 L10.202125,14.558375 C10.202125,14.851625 10.0650625,14.99825 9.7909375,14.99825 C9.6634375,14.99825 9.571,14.979125 9.513625,14.9440625 C9.4530625,14.9058125 9.4148125,14.8420625 9.3956875,14.749625 L9.0323125,14.749625 C9.0641875,14.9345 9.1406875,15.068375 9.2618125,15.157625 C9.3829375,15.2405 9.55825,15.285125 9.7909375,15.285125 C10.3073125,15.285125 10.5655,15.02375 10.5655,14.5041875 L10.5655,12.9614375 L10.202125,12.9614375 L10.202125,13.16225 C10.081,12.9965 9.9184375,12.9168125 9.7144375,12.9168125 Z M7.16514113,12.9614375 L6.42965726,12.9614375 L6.42965726,14.609375 L7.16514113,14.609375 L7.16514113,12.9614375 Z M8.02825,12.9168125 C7.9294375,12.9168125 7.8401875,12.9359375 7.7573125,12.977375 C7.677625,13.015625 7.6043125,13.0761875 7.5405625,13.1526875 L7.5405625,12.9614375 L7.1771875,12.9614375 L7.1771875,14.609375 L7.5405625,14.609375 L7.5405625,13.6180625 C7.5533125,13.487375 7.5979375,13.385375 7.6744375,13.31525 C7.741375,13.2515 7.8210625,13.219625 7.9103125,13.219625 C8.1589375,13.219625 8.28325,13.3535 8.28325,13.6244375 L8.28325,14.609375 L8.646625,14.609375 L8.646625,13.5925625 C8.646625,13.1399375 8.4394375,12.9168125 8.02825,12.9168125 Z M9.7718125,13.2100625 C9.908875,13.2100625 10.01725,13.257875 10.09375,13.3535 C10.1670625,13.449125 10.2053125,13.5798125 10.2053125,13.74875 C10.2053125,13.9145 10.1670625,14.042 10.09375,14.137625 C10.01725,14.226875 9.908875,14.2746875 9.768625,14.2746875 C9.60925,14.2746875 9.4976875,14.2205 9.4275625,14.1153125 C9.367,14.0260625 9.3383125,13.9049375 9.3383125,13.74875 C9.3383125,13.576625 9.3765625,13.4459375 9.4530625,13.3535 C9.5295625,13.257875 9.63475,13.2100625 9.7718125,13.2100625 Z M6.79739919,12.288875 C6.65546371,12.288875 6.53933468,12.3111875 6.44256048,12.3558125 C6.34578629,12.4004375 6.300625,12.4578125 6.300625,12.5279375 C6.300625,12.5980625 6.34578629,12.6554375 6.44256048,12.70325 C6.53933468,12.747875 6.65546371,12.7701875 6.79739919,12.7701875 C6.93933468,12.7701875 7.05546371,12.747875 7.1522379,12.70325 C7.2490121,12.658625 7.300625,12.5980625 7.300625,12.5279375 C7.300625,12.4578125 7.2490121,12.4004375 7.15868952,12.3558125 C7.06191532,12.3111875 6.93933468,12.288875 6.79739919,12.288875 Z M6.37412041,4.85541538 L4.27432311,4.85541538 L4.27432311,5.91791538 L5.84124499,5.91791538 L9.44305513,10.7429124 L9.60239851,10.9563765 L11.6816521,10.9563765 L11.6816521,11.6965292 L13.3047745,10.3693426 L11.6816521,9.04215611 L11.6816521,9.89387646 L10.1353387,9.89379038 L8.59,7.823375 L7.926,6.934375 L6.53346379,5.0688794 L6.37412041,4.85541538 Z M6.769,8.486375 L5.81692188,9.76298877 L4.25,9.76298877 L4.25,10.8254888 L6.34979729,10.8254888 L6.50914067,10.6120248 L7.435,9.370375 L6.769,8.486375 Z M11.6573289,3.984375 L11.6573289,4.72452769 L9.57807539,4.72452769 L9.41873201,4.93799171 L8.425,6.268375 L9.091,7.152375 L10.1110156,5.78711377 L11.6573289,5.78702769 L11.6573289,6.63874804 L13.2804514,5.31156152 L11.6573289,3.984375 Z" id="形状结合" fill="#EAEBF0"></path>
                <rect id="codesign_placeholder_name" x="0" y="0" width="17" height="17"></rect>
            </g>
        </g>
    </g>
</svg>