<svg xmlns="http://www.w3.org/2000/svg" viewBox="0 0 16 16" class="design-iconfont">
  <path d="M8,1 C10.209139,1 12,2.790861 12,5 C12,6.67850691 10.9661392,8.1155427 9.50047642,8.70904859 L9.5,10.5 L12,10.5 C13.1045695,10.5 14,11.3954305 14,12.5 L14,12.75 L2,12.75 L2,12.5 C2,11.3954305 2.8954305,10.5 4,10.5 L6.5,10.5 L6.5005144,8.70944966 C5.03432675,8.11619029 4,6.67888513 4,5 C4,2.790861 5.790861,1 8,1 Z M8,6.5 C7.72385763,6.5 7.5,6.72385763 7.5,7 C7.5,7.27614237 7.72385763,7.5 8,7.5 C8.27614237,7.5 8.5,7.27614237 8.5,7 C8.5,6.72385763 8.27614237,6.5 8,6.5 Z M8,2.5 C7.72385763,2.5 7.5,2.72385763 7.5,3 L7.5,5 C7.5,5.27614237 7.72385763,5.5 8,5.5 C8.27614237,5.5 8.5,5.27614237 8.5,5 L8.5,3 C8.5,2.72385763 8.27614237,2.5 8,2.5 Z M2,13.75 L14,13.75 L14,15 L2,15 Z" fill="#699DF4" fill-rule="nonzero"/>
</svg>
