<?xml version="1.0" encoding="UTF-8"?>
<svg width="17px" height="17px" viewBox="0 0 17 17" version="1.1" xmlns="http://www.w3.org/2000/svg" xmlns:xlink="http://www.w3.org/1999/xlink">
    <title>Icon/3 面性图标/圆-警示备份 18</title>
    <g id="⚙️-控件" stroke="none" stroke-width="1" fill="none" fill-rule="evenodd">
        <g id="故障ICON" transform="translate(-199.000000, -610.000000)">
            <g id="Icon/3-面性图标/圆-警示备份-18" transform="translate(199.000000, 610.000000)">
                <g id="cloud-云" transform="translate(0.000000, 2.124972)" fill="#EAEBF0">
                    <path d="M13.9531264,4.14207761 C13.2867219,1.7544117 11.1005073,-8.8817842e-16 8.50005667,-8.8817842e-16 C5.3703358,-8.8817842e-16 2.83335222,2.53698358 2.83335222,5.66670444 C2.83335222,5.68398789 2.8356189,5.700138 2.8356189,5.71742145 C1.22712485,5.98658991 3.33066907e-16,7.38173254 3.33066907e-16,9.06672711 C3.33066907e-16,10.9443896 1.52207681,12.4667498 3.40002267,12.4667498 L12.750085,12.4667498 C15.097234,12.4667498 17.0001133,10.5638704 17.0001133,8.21672144 C17.0001133,6.28749192 15.7140548,4.66143108 13.9531264,4.14207761 L13.9531264,4.14207761 Z" id="路径"></path>
                </g>
                <rect id="codesign_placeholder_name" x="0" y="0" width="17" height="17"></rect>
            </g>
        </g>
    </g>
</svg>