<?xml version="1.0" standalone="no"?><!DOCTYPE svg PUBLIC "-//W3C//DTD SVG 1.1//EN" "http://www.w3.org/Graphics/SVG/1.1/DTD/svg11.dtd"><svg t="1730172669671" class="icon" viewBox="0 0 1092 1024" version="1.1" xmlns="http://www.w3.org/2000/svg" p-id="19444" xmlns:xlink="http://www.w3.org/1999/xlink" width="213.28125" height="200"><path d="M805.685931 500.394667l51.746133 4.778666c7.236267 2.4576 12.014933 10.24 12.014933 17.476267v49.425067c12.0832 5.393067 24.712533 10.24 34.338134 17.408l42.1888-24.644267c7.236267-4.778667 16.861867-4.778667 24.644266 3.003733l31.9488 42.120534c4.778667 7.236267 4.778667 17.476267-2.4576 22.3232l-34.269866 34.269866c4.778667 12.0832 7.236267 24.712533 9.557333 36.727467l47.035733 12.0832c7.236267 2.389333 12.014933 10.24 12.014934 17.476267l-4.778667 51.746133a18.909867 18.909867 0 0 1-17.476267 12.0832h-46.967466c-4.778667 12.014933-12.629333 24.644267-19.8656 34.269867l24.644266 39.185066c4.846933 7.236267 4.846933 17.408-2.389333 22.254934l-41.506133 31.880533c-7.236267 4.846933-17.476267 4.846933-22.3232-2.389333l-34.338134-31.880534c-12.014933 4.778667-24.644267 7.236267-36.727466 9.557334l-12.014934 47.035733a18.909867 18.909867 0 0 1-17.476266 12.014933l-51.746134-4.778666a18.909867 18.909867 0 0 1-12.0832-17.476267v-46.967467a159.880533 159.880533 0 0 1-34.269866-19.8656l-42.1888 24.644267c-7.236267 4.846933-17.476267 4.846933-22.254934-2.389333l-31.9488-42.120534c-4.778667-7.236267-4.778667-17.476267 2.4576-22.3232l34.269867-34.269866c-4.778667-12.0832-7.168-24.712533-9.557333-36.727467l-47.035734-12.0832a18.909867 18.909867 0 0 1-12.014933-17.476267l4.778667-51.746133a18.909867 18.909867 0 0 1 17.476266-12.0832H648.536064c5.461333-9.557333 10.24-22.254933 17.476267-31.880533l-24.644267-42.120534c-4.846933-7.236267-4.846933-17.476267 2.389333-22.3232l41.506134-31.880533c7.236267-4.778667 17.476267-4.778667 22.3232 2.389333l31.880533 31.9488c12.0832-4.846933 24.712533-7.236267 36.727467-9.693866l12.0832-46.967467a18.909867 18.909867 0 0 1 17.476266-12.014933z m86.016 160.1536c-39.662933-46.967467-108.3392-54.203733-155.306667-17.476267-46.967467 39.799467-54.203733 108.407467-17.476267 155.374933 39.799467 46.967467 108.407467 54.203733 155.374934 17.476267 46.967467-37.341867 56.661333-108.407467 17.476266-155.374933zM357.037397 123.562667c12.6976 0 22.3232 10.24 22.3232 22.254933l7.236267 68.608c17.408 4.778667 34.269867 12.6976 49.3568 19.8656l56.593067-41.506133c7.236267-7.236267 22.254933-7.236267 29.4912 0l51.8144 51.746133c7.236267 7.236267 7.236267 22.3232 0 29.559467l-41.5744 54.135466c7.850667 15.018667 15.018667 31.9488 19.8656 49.425067l66.218666 9.557333c12.0832 0 22.3232 7.850667 16.861867 24.712534v74.683733c0 12.629333-10.24 22.254933-22.254933 22.254933l-66.218667 7.236267c-4.778667 17.476267-10.24 34.338133-19.8656 49.425067l42.120533 51.746133c7.236267 7.236267 7.236267 22.3232 0 29.4912l-51.746133 51.8144c-7.236267 7.236267-22.3232 7.236267-29.559467 0l-51.746133-42.1888c-17.476267 10.24-34.338133 17.476267-51.8144 22.3232l-7.236267 66.218667c0 12.629333-10.24 22.254933-22.254933 22.254933H280.578731a22.254933 22.254933 0 0 1-22.254934-22.254933l-7.236266-66.218667a168.413867 168.413867 0 0 1-51.746134-22.3232l-51.8144 39.185067c-7.236267 7.236267-22.254933 7.236267-29.4912 0L66.221397 643.6864c-7.236267-7.236267-7.236267-22.254933 0-29.4912l42.1888-51.746133a365.226667 365.226667 0 0 1-19.8656-51.8144l-66.218666-7.236267A22.254933 22.254933 0 0 1 0.002731 481.143467V407.074133c0-12.629333 10.24-22.254933 22.254933-22.254933l66.901333-7.236267c4.778667-17.476267 10.24-34.338133 19.797334-49.425066L66.904064 274.0224c-7.236267-7.236267-7.236267-22.3232 0-29.559467l51.8144-51.746133c7.168-7.236267 22.254933-7.236267 29.4912 0l54.203733 41.506133c15.018667-7.7824 31.880533-15.018667 49.3568-19.797333l9.6256-68.676267c0-12.629333 10.24-22.254933 22.254934-22.254933z m-36.727466 164.932266a154.555733 154.555733 0 0 0-155.306667 155.374934 154.965333 154.965333 0 0 0 155.306667 155.374933c83.694933 0 152.917333-69.290667 155.374933-155.374933a154.555733 154.555733 0 0 0-155.374933-155.374934zM867.467264 0l3.822933 0.682667 49.3568 17.408c7.236267 2.389333 12.0832 12.629333 9.6256 19.8656l-9.557333 46.967466c12.014933 7.236267 19.797333 15.018667 29.422933 24.712534l44.578134-15.018667c7.850667-2.4576 15.018667 0 19.8656 9.557333l24.712533 46.967467c2.389333 7.850667 0 15.018667-7.236267 19.8656l-39.1168 27.101867c2.389333 14.472533 2.389333 27.101867 2.389334 39.185066l42.120533 19.797334c7.236267 2.4576 12.0832 12.6976 9.6256 19.933866l-17.408 49.3568c-2.4576 7.236267-12.6976 12.014933-19.8656 9.6256l-46.967467-9.6256c-7.236267 9.6256-15.018667 19.8656-24.712533 29.4912l15.018667 44.578134c2.4576 7.850667 0 15.018667-7.168 19.797333l-46.967467 24.7808a16.657067 16.657067 0 0 1-19.8656-7.236267l-27.101867-39.185066c-12.0832 2.4576-27.101867 2.4576-39.185066 2.4576l-19.797334 42.120533c-2.4576 7.236267-12.6976 12.014933-19.933866 9.6256l-49.3568-17.476267c-7.236267-2.389333-12.014933-12.629333-9.6256-19.797333l9.6256-47.035733a267.195733 267.195733 0 0 1-29.4912-24.644267l-44.578134 15.018667a16.657067 16.657067 0 0 1-19.8656-7.236267l-24.712533-46.967467a16.657067 16.657067 0 0 1 7.236267-19.797333l39.185066-27.170133c-2.4576-12.014933-2.4576-24.644267-2.4576-36.727467l-44.509866-22.254933c-7.236267-2.389333-12.0832-12.629333-9.693867-19.8656l17.476267-49.3568c2.4576-7.236267 12.629333-12.0832 19.8656-9.6256l49.425066 9.557333c7.168-9.557333 15.018667-19.797333 24.644267-27.0336l-15.018667-46.967467a16.657067 16.657067 0 0 1 7.236267-19.8656l46.967467-24.712533c7.7824-2.389333 15.018667 0 19.797333 7.236267l27.101867 39.1168c12.0832-2.389333 24.712533-2.389333 36.795733-2.389334l22.254933-44.578133c2.389333-7.236267 12.629333-12.014933 19.8656-9.557333z m53.794133 178.244267a110.1824 110.1824 0 0 0-147.456-49.3568 110.1824 110.1824 0 0 0-49.425066 147.456 110.1824 110.1824 0 0 0 147.456 49.425066 110.1824 110.1824 0 0 0 49.425066-147.456z" p-id="19445" fill="#ffffff"></path></svg>