<?xml version="1.0" encoding="UTF-8"?>
<svg width="16px" height="16px" viewBox="0 0 16 16" version="1.1" xmlns="http://www.w3.org/2000/svg" xmlns:xlink="http://www.w3.org/1999/xlink">
    <title>Icon/1 常用图标/更多</title>
    <g id="2⃣️-故障详情" stroke="none" stroke-width="1" fill="none" fill-rule="evenodd">
        <g id="详情-故障拓扑" transform="translate(-2190, -2375)">
            <g id="编组-10备份-5" transform="translate(1898, 2359)">
                <g id="Icon/1-常用图标/更多" transform="translate(292, 16)">
                    <path d="M14,13.75 L14,15 L2,15 L1.99986906,14.957 L3.20686906,13.75 L14,13.75 Z M8,1 C9.43596983,1 10.6952099,1.75666984 11.4007515,2.8930407 L12.363961,1.92893219 C12.5592232,1.73367004 12.8758057,1.73367004 13.0710678,1.92893219 C13.26633,2.12419433 13.26633,2.44077682 13.0710678,2.63603897 L1.75735931,13.9497475 C1.56209717,14.1450096 1.24551468,14.1450096 1.05025253,13.9497475 C0.854990386,13.7544853 0.854990386,13.4379028 1.05025253,13.2426407 L2.01204925,12.279204 C2.11398132,11.3510314 2.85103144,10.6139813 3.77920396,10.5120493 L5.89266308,8.40051705 C4.75650222,7.69493097 4,6.43581077 4,5 C4,2.790861 5.790861,1 8,1 Z M11.9997723,4.95687502 C11.999924,4.971232 12,4.98560712 12,5 C12,6.67888513 10.9656733,8.11619029 9.4994856,8.70944966 L9.499,10.5 L12,10.5 C13.1045695,10.5 14,11.3954305 14,12.5 L14,12.75 L4.20686906,12.75 L6.45686906,10.5 L6.499,10.5 L6.49886906,10.458 L11.9997723,4.95687502 Z" id="形状结合" fill="#699DF4" fill-rule="nonzero"></path>
                    <rect id="codesign_placeholder_name" x="0" y="0" width="16" height="16"></rect>
                </g>
            </g>
        </g>
    </g>
</svg>