<?xml version="1.0" encoding="UTF-8"?>
<svg width="18px" height="18px" viewBox="0 0 18 18" version="1.1" xmlns="http://www.w3.org/2000/svg" xmlns:xlink="http://www.w3.org/1999/xlink">
    <title>icon/MTTA</title>
    <g id="首页" stroke="none" stroke-width="1" fill="none" fill-rule="evenodd">
        <g transform="translate(-1188.000000, -191.000000)" id="编组-4">
            <g transform="translate(117.000000, 122.000000)">
                <g id="编组-12备份" transform="translate(51.000000, 69.000000)">
                    <g id="icon/MTTA" transform="translate(1020.000000, 0.000000)">
                        <polygon id="路径" points="0 0 18 0 18 18 0 18"></polygon>
                        <path d="M8.976,1.664 C9.86066478,1.664 10.7049215,1.8370076 11.4767819,2.15103462 L10.4335777,3.1944673 C9.97042201,3.06259653 9.48145536,2.992 8.976,2.992 C6.04226341,2.992 3.664,5.37026341 3.664,8.304 C3.664,11.2377366 6.04226341,13.616 8.976,13.616 C9.10742848,13.616 9.23774216,13.6112269 9.36677715,13.6018447 C9.11667758,13.1064172 8.976,12.5476424 8.976,11.956 C8.976,9.9390004 10.6110004,8.304 12.628,8.304 C13.2196424,8.304 13.7784172,8.44467758 14.2727005,8.69440908 C14.2832234,8.56583773 14.288,8.43547668 14.288,8.304 C14.288,7.29086639 14.0043707,6.34397796 13.5121832,5.53840594 L14.5008589,4.61959271 C15.2052847,5.67379771 15.616,6.94093501 15.616,8.304 C15.616,8.77223175 15.5675349,9.22914386 15.4753474,9.66999353 C15.9787243,10.2947444 16.28,11.0901774 16.28,11.956 C16.28,13.9729996 14.6449996,15.608 12.628,15.608 C11.7621774,15.608 10.9667444,15.3067243 10.3408118,14.8032837 C9.90124857,14.8955238 9.4442854,14.944 8.976,14.944 C5.30882926,14.944 2.336,11.9711707 2.336,8.304 C2.336,4.63682926 5.30882926,1.664 8.976,1.664 Z M12.628,9.632 C11.3444902,9.632 10.304,10.6724902 10.304,11.956 C10.304,13.2395098 11.3444902,14.28 12.628,14.28 C13.9115098,14.28 14.952,13.2395098 14.952,11.956 C14.952,10.6724902 13.9115098,9.632 12.628,9.632 Z M12.96,10.296 L12.96,11.624 L13.624,11.624 L13.624,12.288 L12.296,12.288 L12.296,10.296 L12.96,10.296 Z M12.518384,2.88344 L13.457384,3.82244 L8.312,8.968 L5.656384,6.31144 L6.595384,5.37244 L8.312,7.090208 L12.518384,2.88344 Z" id="形状结合" fill="#3A84FF" fill-rule="nonzero"></path>
                    </g>
                </g>
            </g>
        </g>
    </g>
</svg>