<?xml version="1.0" encoding="UTF-8"?>
<svg width="24px" height="24px" viewBox="0 0 24 24" version="1.1" xmlns="http://www.w3.org/2000/svg" xmlns:xlink="http://www.w3.org/1999/xlink">
    <title>Icon/AI 小鲸头像</title>
    <defs>
        <linearGradient x1="50%" y1="5.74847225%" x2="50%" y2="100%" id="linearGradient-1">
            <stop stop-color="#3530C5" offset="0%"></stop>
            <stop stop-color="#1460FC" offset="50.7985255%"></stop>
            <stop stop-color="#33DFFF" offset="100%"></stop>
        </linearGradient>
        <linearGradient x1="50%" y1="0%" x2="50%" y2="100%" id="linearGradient-2">
            <stop stop-color="#E8F1FF" offset="0%"></stop>
            <stop stop-color="#CDDFFE" offset="100%"></stop>
        </linearGradient>
    </defs>
    <g id="📈-仪表盘✍️" stroke="none" stroke-width="1" fill="none" fill-rule="evenodd">
        <g id="仪表盘-AI-分析面板" transform="translate(-2145, -700)">
            <g id="编组-56" transform="translate(2103, 543)">
                <g id="编组-9" transform="translate(26, 145)">
                    <g id="Icon/AI-小鲸头像" transform="translate(17.125, 13.5)">
                        <g id="Icon/小鲸-W" transform="translate(11.0625, 10.3125) scale(-1, 1) translate(-11.0625, -10.3125)">
                            <path d="M9.9375,20.625 C6.789906,20.625 4.0951836,18.6860262 2.98261652,15.9373624 L0,15.9375 L0.00513285744,15.7661703 C0.0861482803,14.4179492 1.11693379,13.3257882 2.43737835,13.1497983 L2.4375,11.25 C2.4375,7.10786438 5.79536438,3.75 9.9375,3.75 L10.2578684,3.75 C9.84039295,2.91666667 9.04537431,2.56930419 7.87281253,2.70791258 C5.65000352,2.97067057 5.62570565,0 7.87281253,0 C9.37088379,0 10.3746402,1.25 10.8840817,3.75 C11.3935232,1.25 12.3972796,0 13.8953508,0 C16.1424577,0 16.1181599,2.97067057 13.8953508,2.70791258 C12.7227891,2.56930419 11.9277704,2.91666667 11.5102949,3.75 L11.8125,3.75 C15.9546356,3.75 19.3125,7.10786438 19.3125,11.25 L19.3125,13.125 C20.8658009,13.125 22.125,14.3841991 22.125,15.9375 L19.312,15.937 L19.312,17.812 L22.125,17.8125 C22.125,19.2978662 20.9959477,20.5142936 19.3125274,20.6178549 L9.9375,20.625 Z" id="形状结合" fill="url(#linearGradient-1)"></path>
                            <path d="M9.9375,7.5 L10.875,7.5 C13.9816017,7.5 16.5,10.0183983 16.5,13.125 L16.5,17.8125 C16.5,18.8480339 15.6605339,19.6875 14.625,19.6875 L9.9375,19.6875 C6.83089828,19.6875 4.3125,17.1691017 4.3125,14.0625 L4.3125,13.125 C4.3125,10.0183983 6.83089828,7.5 9.9375,7.5 Z" id="矩形" fill="url(#linearGradient-2)"></path>
                            <rect id="矩形" fill="#4F5CD5" x="6.1875" y="10.3125" width="1.875" height="4.6875" rx="0.9375"></rect>
                            <rect id="矩形" fill="#4F5CD5" x="11.8125" y="10.3125" width="1.875" height="4.6875" rx="0.9375"></rect>
                        </g>
                    </g>
                </g>
            </g>
        </g>
    </g>
</svg>