<svg xmlns="http://www.w3.org/2000/svg" xmlns:xlink="http://www.w3.org/1999/xlink" viewBox="0 0 33 32" class="design-iconfont">
  <defs>
    <linearGradient x1="80.8634187%" y1="42.9122968%" x2="17.088772%" y2="60.5321508%" id="fcqqsydq3__jh13gg08uc">
      <stop stop-color="#FB0" stop-opacity=".6" offset="0%"/>
      <stop stop-color="#FFBD07" stop-opacity=".59324216" offset="24.8246053%"/>
      <stop stop-color="#FFEFD7" stop-opacity=".4" offset="100%"/>
    </linearGradient>
    <filter x="-23.7%" y="-38.9%" width="147.4%" height="200%" filterUnits="objectBoundingBox" id="fcqqsydq3__373t3fucda">
      <feMorphology radius="1" operator="dilate" in="SourceAlpha" result="shadowSpreadOuter1"/>
      <feOffset dy="1" in="shadowSpreadOuter1" result="shadowOffsetOuter1"/>
      <feGaussianBlur stdDeviation="1" in="shadowOffsetOuter1" result="shadowBlurOuter1"/>
      <feComposite in="shadowBlurOuter1" in2="SourceAlpha" operator="out" result="shadowBlurOuter1"/>
      <feColorMatrix values="0 0 0 0 0 0 0 0 0 0 0 0 0 0 0 0 0 0 0.04 0" in="shadowBlurOuter1"/>
    </filter>
    <path d="M26.5829824,7 C27.3655796,7 28,7.63599897 28,8.42054345 C28,9.15893826 27.4380221,9.76574949 26.7194507,9.83458405 L26.5829824,9.8410869 C25.6277186,9.8410869 24.8582703,10.2723173 23.9129296,11.248401 L23.6797464,11.4964547 L22.7013551,12.591795 C22.2407783,13.0880549 21.8642849,13.418536 21.4246424,13.6552513 C21.0501564,13.8568846 20.6524166,13.9701848 20.2308368,13.9701848 C19.1992035,13.9701848 18.5777341,13.6483902 17.5741612,12.8309914 L17.2325022,12.5484025 L17.0082499,12.3684932 L16.8239744,12.2304847 L16.6727329,12.1295974 C16.5128542,12.0316907 16.4062448,11.9998146 16.3032919,11.9998146 C16.1649203,11.9998146 15.9422058,12.0813991 15.6434654,12.2436624 L15.4052853,12.380473 C15.3632561,12.4057913 15.3200715,12.4323666 15.2757477,12.4601972 L14.996265,12.6422304 L14.6902219,12.8543058 L14.3583981,13.0963386 L14.0015733,13.3682439 L13.6205274,13.6699367 L13.2160399,14.001332 L12.7888906,14.3623451 L12.3398593,14.752891 L11.8697257,15.1728848 L11.3792694,15.6222415 C10.8047809,16.1549972 9.90825413,16.1200072 9.37682084,15.5440892 C8.84538755,14.9681713 8.88029069,14.0694137 9.45477919,13.5366581 L10.0363158,13.0036232 C10.1312377,12.9176986 10.2251688,12.8332302 10.3181241,12.7502164 L10.8642635,12.2695758 C13.2702569,10.1851252 14.9863709,9.15872774 16.3032919,9.15872774 C17.3391761,9.15872774 17.9609059,9.4807592 18.9694352,10.3023232 L19.4275817,10.6795291 L19.6292893,10.8365682 C19.8421678,10.9960314 19.9811155,11.0755857 20.0947865,11.1089666 L20.1363689,11.1186806 L20.2290542,11.0473124 L20.3643967,10.9248111 C20.3895556,10.9007338 20.4160234,10.8747941 20.4438121,10.8469437 L20.6703215,10.6084934 L21.5816222,9.58659502 L21.6431902,9.51926874 C23.1624035,7.87663504 24.6052207,7 26.5829824,7 Z" id="fcqqsydq3__5qnbbsrnqb"/>
  </defs>
  <g fill="none" fill-rule="evenodd">
    <rect fill="#FFF" width="32" height="32" rx="2"/>
    <path d="M4,9.38742589 L4,24.8667614 C4,25.4190461 4.44771525,25.8667614 5,25.8667614 C5.04159839,25.8667614 5.08315626,25.8641657 5.12443136,25.8589896 L27.1244314,23.1000579 C27.624684,23.0373233 28,22.6120007 28,22.1078297 L28,16.7207592 C28,16.2903288 27.7245699,15.90819 27.3162278,15.7720759 L5.31622777,8.43874259 C4.79228445,8.26409482 4.22596447,8.5472548 4.0513167,9.07119812 C4.01732788,9.17316459 4,9.27994379 4,9.38742589 Z" fill="#3A84FF"/>
    <g stroke-linecap="round" transform="rotate(-9 18.5 11.5)">
      <use fill="#000" filter="url(#fcqqsydq3__373t3fucda)" xlink:href="#fcqqsydq3__5qnbbsrnqb"/>
      <path stroke-opacity=".8" stroke="#FFF" d="M26.5829824,6.5 C27.1124941,6.5 27.5919333,6.71506595 27.9389576,7.06295374 C28.2855327,7.41039125 28.5,7.89034243 28.5,8.42054345 C28.5,8.9172473 28.3117422,9.36983095 28.0030444,9.71070898 C27.6909568,10.0553303 27.2556625,10.2855072 26.7671292,10.3323056 C25.7644122,10.3402816 25.1007956,10.7420004 24.2782047,11.5899486 L24.2782047,11.5899486 L23.0678387,12.931927 C22.5615986,13.477388 22.1443899,13.8355895 21.6616804,14.0954932 C21.2128377,14.3371622 20.7356622,14.4701848 20.2308368,14.4701848 C19.0917448,14.4701848 18.3931761,14.1389152 17.2867204,13.2419488 C16.3650471,12.698484 16.1287249,12.5665078 15.9057365,12.6710685 L15.9057365,12.6710685 L13.5244514,14.3953284 L13.1170201,14.739613 L12.6729694,15.1257686 L12.2074948,15.5415473 L11.7192557,15.9888603 C11.3305131,16.3493632 10.8327915,16.5176768 10.3424001,16.4985376 C9.85205812,16.4794003 9.36893572,16.2728399 9.00936083,15.8831661 C8.65024985,15.493995 8.48238872,14.9957672 8.50145596,14.504785 C8.52052511,14.0137534 8.72655214,13.5300769 9.11693078,13.1680683 L9.11693078,13.1680683 L9.70461534,12.6294912 L10.5368649,11.8916734 C13.0876854,9.6817508 14.916239,8.65872774 16.3032919,8.65872774 C17.456451,8.65872774 18.1572413,8.99579418 19.287243,9.91632032 L19.287243,9.91632032 L19.7383007,10.2876897 L21.2144728,9.24718185 C22.9112991,7.41169386 24.4680691,6.5 26.5829824,6.5 Z" fill="url(#fcqqsydq3__jh13gg08uc)"/>
    </g>
  </g>
</svg>
