<?xml version="1.0" encoding="utf-8"?>
<!-- Generator: Adobe Illustrator 24.1.3, SVG Export Plug-In . SVG Version: 6.00 Build 0)  -->
<svg version="1.1" id="图层_1" xmlns="http://www.w3.org/2000/svg" xmlns:xlink="http://www.w3.org/1999/xlink" x="0px" y="0px"
	 viewBox="0 0 480 240" style="enable-background:new 0 0 480 240;" xml:space="preserve">
<style type="text/css">
	.st0{fill-rule:evenodd;clip-rule:evenodd;fill:url(#Fill-1_1_);}
	.st1{fill-rule:evenodd;clip-rule:evenodd;fill:#C4C6CC;}
	.st2{fill-rule:evenodd;clip-rule:evenodd;fill:#D1D3D6;}
	.st3{fill-rule:evenodd;clip-rule:evenodd;fill:#E5E7EC;}
	.st4{fill-rule:evenodd;clip-rule:evenodd;fill:url(#三角形_1_);}
	.st5{fill:#979BA5;}
	.st6{fill:url(#矩形-2_1_);}
	.st7{fill:url(#矩形_1_);}
	.st8{fill:#DCDEE0;}
	.st9{fill:#D1D3D6;}
	.st10{fill:url(#矩形-3-2_1_);}
	.st11{fill:#C4C6CC;}
</style>
<linearGradient id="Fill-1_1_" gradientUnits="userSpaceOnUse" x1="-1548.5803" y1="673.3275" x2="-1548.5803" y2="674.26" gradientTransform="matrix(193 0 0 34 299136 -22730.2109)">
	<stop  offset="0" style="stop-color:#FBFCFD"/>
	<stop  offset="1" style="stop-color:#F2F4F7"/>
</linearGradient>
<path id="Fill-1" class="st0" d="M191.5,167c19.3-4.2,48.4-5.7,67.3-4.7s39.4,3.8,39.4,3.8s5.3-2.4,4.9-1.4s-2.9,2.4-1.2,2.8
	s18.5,2.4,25.4,3.8c3.5,0.6,6.9,1.6,10.3,2.8c3.2-4.9,8.8-7.7,14.7-7.1c0,0.8-3.7,1.7-5,3.8c-1,1.4-2.4,2.6-4,3.3
	c0,0,2.1-1.2,5.9,0.6s7.3,2.4,7.3,2.7s-1.6,4.2-15.2,1.4c-5.5-1.4-8.2,6.1-34.9,8s-71.8,3.3-71.8,3.3c1.6,1.9,3.7,3.2,6.2,3.8
	c0,0-2.9,2.8-8.6,1.9s-11.9-5.7-11.9-5.7s-15.2-0.9-20.9-1.9s-12.3-3.2-16.8-3.8s-25-2.8-17.2-8C165.2,176.4,172.2,171.2,191.5,167z
	"/>
<g>
	<polygon class="st1" points="192.3,171 190.5,171 190.5,182 201.5,182 201.5,180.2 192.3,180.2 	"/>
	<polygon class="st1" points="197.5,54 186.5,54 186.5,55.8 186.5,65 188.3,65 188.3,55.8 197.5,55.8 	"/>
	<polygon class="st1" points="279.5,54 279.5,55.8 288.7,55.8 288.7,65 290.5,65 290.5,54 	"/>
</g>
<g>
	<path id="形状结合-2" class="st2" d="M283.5,129v44c0,0.6-0.4,1-1,1h-24.6L283.5,129z"/>
	<path id="形状结合-3" class="st3" d="M275.5,143.2V164h-12L275.5,143.2z"/>
	
		<linearGradient id="三角形_1_" gradientUnits="userSpaceOnUse" x1="-1530.251" y1="644.7281" x2="-1530.251" y2="645.6682" gradientTransform="matrix(63.18 0 0 56.9 96970.7578 -36557.8906)">
		<stop  offset="0" style="stop-color:#E6E8EB;stop-opacity:0.99"/>
		<stop  offset="1" style="stop-color:#D4D6D9"/>
	</linearGradient>
	<path id="三角形" class="st4" d="M291.2,126.1l1.5,2.6l0,0l28.1,50.3c0.5,1,0.2,2.2-0.8,2.7c0,0,0,0,0,0c-0.3,0.2-0.7,0.3-1,0.2
		h-59.2c-1.1,0-2-0.9-2-2c0-0.3,0.1-0.7,0.2-1l29.6-52.9c0.5-1,1.8-1.3,2.7-0.8c0,0,0,0,0,0C290.8,125.5,291.1,125.8,291.2,126.1z"
		/>
	<path id="_" class="st5" d="M292.2,148l-0.6,16.4h-4.2l-0.6-16.4H292.2z M286.5,169.8c0-0.8,0.3-1.6,0.9-2.1
		c0.6-0.6,1.3-0.9,2.1-0.8c1.6-0.1,2.9,1.2,3,2.8c0,0.1,0,0.1,0,0.2c0,0.8-0.3,1.6-0.8,2.1c-0.5,0.6-1.2,0.9-2,0.9
		c-0.9,0-1.7-0.3-2.3-0.9C286.8,171.3,286.5,170.6,286.5,169.8z"/>
</g>
<g id="text">
	
		<linearGradient id="矩形-2_1_" gradientUnits="userSpaceOnUse" x1="-1537.9375" y1="623.8582" x2="-1537.9375" y2="624.7982" gradientTransform="matrix(88 0 0 112 135578 -69808.9609)">
		<stop  offset="0" style="stop-color:#EBEDF0;stop-opacity:0.99"/>
		<stop  offset="1" style="stop-color:#E1E3E6"/>
	</linearGradient>
	<path id="矩形-2" class="st6" d="M196.5,62h86c0.6,0,1,0.4,1,1v110c0,0.6-0.4,1-1,1h-86c-0.6,0-1-0.4-1-1V63
		C195.5,62.4,195.9,62,196.5,62z"/>
	
		<linearGradient id="矩形_1_" gradientUnits="userSpaceOnUse" x1="-1533.9178" y1="627.1813" x2="-1533.9178" y2="628.1713" gradientTransform="matrix(73 0 0 97 112215 -60767.5898)">
		<stop  offset="0" style="stop-color:#FFFFFF"/>
		<stop  offset="1" style="stop-color:#F2F4F7"/>
	</linearGradient>
	<rect id="矩形" x="202.5" y="69" class="st7" width="73" height="97"/>
	<rect id="矩形-2-2" x="217.5" y="73" class="st8" width="43" height="2"/>
	<rect id="矩形-3" x="202.5" y="164" class="st9" width="73" height="2"/>
	
		<linearGradient id="矩形-3-2_1_" gradientUnits="userSpaceOnUse" x1="-1517.4651" y1="763.24" x2="-1517.4651" y2="764.24" gradientTransform="matrix(43 0 0 15 65490 -11390.6699)">
		<stop  offset="0" style="stop-color:#EDEFF2"/>
		<stop  offset="1" style="stop-color:#E8EAED"/>
	</linearGradient>
	<rect id="矩形-3-2" x="217.5" y="58" class="st10" width="43" height="15"/>
	<g id="编组-3">
		<rect id="矩形-4" x="232.5" y="98" class="st11" width="3.8" height="1"/>
		<rect id="矩形备份" x="240.1" y="98" class="st11" width="3.8" height="1"/>
		<rect id="矩形备份-2" x="247.6" y="98" class="st11" width="3.8" height="1"/>
		<rect id="矩形备份-3" x="255.2" y="98" class="st11" width="3.8" height="1"/>
		<rect id="矩形备份-4" x="262.7" y="98" class="st11" width="3.8" height="1"/>
	</g>
	<g id="编组-3-2">
		<rect id="矩形-5" x="263.3" y="115" class="st11" width="3.9" height="1"/>
		<rect id="矩形备份-5" x="255.5" y="115" class="st11" width="3.9" height="1"/>
		<rect id="矩形备份-2-2" x="271.1" y="115" class="st11" width="3.9" height="1"/>
		<rect id="矩形备份-2-3" x="279" y="115" class="st11" width="3.9" height="1"/>
		<rect id="矩形备份-3-2" x="286.8" y="115" class="st11" width="3.9" height="1"/>
		<rect id="矩形备份-4-2" x="294.6" y="115" class="st11" width="3.9" height="1"/>
	</g>
</g>
</svg>
