<?xml version="1.0" encoding="UTF-8"?>
<svg width="24px" height="24px" viewBox="0 0 24 24" version="1.1" xmlns="http://www.w3.org/2000/svg" xmlns:xlink="http://www.w3.org/1999/xlink">
    <title>AI 小鲸/文字</title>
    <defs>
        <linearGradient x1="45.02491%" y1="37.1323421%" x2="87.8239326%" y2="68.31214%" id="linearGradient-1">
            <stop stop-color="#235DFA" offset="0%"></stop>
            <stop stop-color="#EB8CEC" offset="100%"></stop>
        </linearGradient>
    </defs>
    <g id="DB-资源池" stroke="none" stroke-width="1" fill="none" fill-rule="evenodd">
        <g id="补货记录-单据视角" transform="translate(-2326, -3073)" fill="url(#linearGradient-1)">
            <g id="AI-小鲸/文字" transform="translate(2326, 3077)">
                <path d="M9.5,2 C13.6421356,2 17,5.35786438 17,9.5 L17.001443,15.0837676 C18.766577,15.2606471 20,15.7615191 20,16.9853832 C19.9911111,16.9943871 19.9733333,16.9966089 19.92,16.9980121 L19.8835437,16.9987577 C19.8766933,16.9988662 19.86944,16.998967 19.86176,16.9990603 L19.223277,16.9992207 C19.1990044,16.9991504 19.1739733,16.9990758 19.14816,16.9989972 L18.89408,16.9981889 C18.86336,16.9980886 18.8317867,16.997985 18.7993363,16.9978783 L18.59392,16.9972039 C18.5578667,16.997086 18.5208889,16.9969656 18.482963,16.9968428 L18.24384,16.9960799 C18.1184,16.9956863 17.984,16.9952759 17.84,16.9948549 L17.5390104,16.9940008 C17.371281,16.9935393 17.19212,16.9930706 17.0007483,16.9926025 L9.5,17 C6.21251981,17 3.41905896,14.8848518 2.40625547,11.9411933 C1.03363082,11.6671482 0,10.4610031 0,9.0146168 L1.21619234,9.0141329 L1.49358903,9.01387399 L2.01579346,9.01321596 C2.26623611,5.09807855 5.52132054,2 9.5,2 Z M9.5,4 C6.46243388,4 4,6.46243388 4,9.5 C4,12.5375661 6.46243388,15 9.5,15 L13,15 C14.1045695,15 15,14.1045695 15,13 L15,9.5 C15,6.46243388 12.5375661,4 9.5,4 Z M8.24095337,6.5 C9.0210335,6.5 9.6955576,7.04389846 9.86091991,7.80625029 L10.7208924,11.7708876 C10.7764628,12.027078 10.6138282,12.2798101 10.3576378,12.3353805 C10.1529409,12.3797815 9.94333817,12.2847621 9.84182656,12.1015472 L9.15403943,10.8601838 C8.88637931,10.3770932 8.27777562,10.2024524 7.79468504,10.4701125 C7.63066025,10.5609917 7.49549291,10.696159 7.40461369,10.8601838 L6.71682656,12.1015472 C6.58593238,12.3377937 6.28830611,12.4231985 6.05205969,12.2923043 C5.86467656,12.1884833 5.76667743,11.9747901 5.81026135,11.7650481 L6.63238761,7.80867125 C6.79078115,7.04642269 7.46242182,6.5 8.24095337,6.5 Z M12.2666667,6.5 C12.8005419,6.5 13.2333333,6.93279141 13.2333333,7.46666667 L13.2333333,11.3333333 C13.2333333,11.8672086 12.8005419,12.3 12.2666667,12.3 C11.7327914,12.3 11.3,11.8672086 11.3,11.3333333 L11.3,7.46666667 C11.3,6.93279141 11.7327914,6.5 12.2666667,6.5 Z M20.4843802,5.2577611 C20.4843802,7.04206568 21.8195783,8.51451802 23.5453476,8.73049113 L23.9843802,8.7577611 C22.2000756,8.7577611 20.7276233,10.0929592 20.5116501,11.8187285 L20.4843802,12.2577611 C20.4843802,10.4734565 19.149182,9.00100418 17.4234127,8.78503107 L16.9843802,8.7577611 C18.7686847,8.7577611 20.2411371,7.42256296 20.4571102,5.69679367 L20.4843802,5.2577611 Z M17.9843802,0.257761102 C17.9843802,1.27736372 18.7473505,2.11876505 19.7335044,2.24217826 L19.9843802,2.2577611 C18.9647776,2.2577611 18.1233762,3.02073147 17.999963,4.00688535 L17.9843802,4.2577611 C17.9843802,3.23815849 17.2214098,2.39675715 16.2352559,2.27334394 L15.9843802,2.2577611 C17.0039828,2.2577611 17.8453841,1.49479073 17.9687973,0.508636853 L17.9843802,0.257761102 Z M11.3055094,0 C12.490777,0 12.4779608,1.58435764 11.3055094,1.44422004 C10.6870254,1.37029557 10.2676819,1.55555556 10.0474786,2 L9.71717378,2 C9.98588576,0.666666667 10.515331,0 11.3055094,0 Z M8.12883818,0 C8.9190166,0 9.4484618,0.666666667 9.71717378,2 L9.38686894,2 C9.16666571,1.55555556 8.74732212,1.37029557 8.12883818,1.44422004 C6.95638679,1.58435764 6.94357055,0 8.12883818,0 Z" id="形状结合"></path>
            </g>
        </g>
    </g>
</svg>