<svg xmlns="http://www.w3.org/2000/svg" viewBox="0 0 21 21" class="design-iconfont">
  <g fill="none" fill-rule="evenodd">
    <rect fill="#F0F5FF" fill-rule="nonzero" y="1" width="20" height="20" rx="2"/>
    <path d="M5.93694454,0 C9.21582847,0 11.8738891,2.65806061 11.8738891,5.93694454 C11.8738891,7.33884338 11.3879899,8.62725439 10.5754174,9.64295174 L12.8067899,11.8738891 C13.0644034,12.1315025 13.0644034,12.5491765 12.8067899,12.8067899 C12.5491765,13.0644034 12.1315025,13.0644034 11.8738891,12.8067899 L9.64295174,10.5754174 C8.62725439,11.3879899 7.33884338,11.8738891 5.93694454,11.8738891 C2.65806061,11.8738891 0,9.21582847 0,5.93694454 C0,2.65806061 2.65806061,0 5.93694454,0 Z M5.93694454,1.32732403 C3.39112143,1.32732403 1.32732403,3.39112143 1.32732403,5.93694454 C1.32732403,8.48276765 3.39112143,10.546565 5.93694454,10.546565 C6.92809758,10.546565 7.86839228,10.2342306 8.64898428,9.66487694 L8.8137699,9.53895877 L9.21627442,9.21627442 L9.53895877,8.8137699 C10.1447473,8.0565479 10.4974676,7.1318486 10.5418046,6.14851637 L10.546565,5.93694454 C10.546565,3.39112143 8.48276765,1.32732403 5.93694454,1.32732403 Z M6.10606061,2.95454545 C6.24555112,2.95468465 6.37926931,3.01024857 6.47778083,3.10900638 C6.57629235,3.20776418 6.63152223,3.34162068 6.63131313,3.48111111 L6.63131313,5.58080808 L8.7310101,5.58080808 C9.02173737,5.58080808 9.25757576,5.8140202 9.25757576,6.10606061 C9.25743656,6.24555112 9.20187264,6.37926931 9.10311484,6.47778083 C9.00435703,6.57629235 8.87050053,6.63152223 8.7310101,6.63131313 L6.63131313,6.63131313 L6.63131313,8.7310101 C6.63131313,9.02173737 6.39810101,9.25757576 6.10606061,9.25757576 C5.81585859,9.25757576 5.58080808,9.022 5.58080808,8.7310101 L5.58080808,6.63131313 L3.48111111,6.63131313 C3.19038384,6.63131313 2.95454545,6.39810101 2.95454545,6.10606061 C2.95468465,5.96657009 3.01024857,5.8328519 3.10900638,5.73434038 C3.20776418,5.63582886 3.34162068,5.58059899 3.48111111,5.58080808 L5.58080808,5.58080808 L5.58080808,3.48111111 C5.58080808,3.19038384 5.8140202,2.95454545 6.10606061,2.95454545 Z" transform="translate(3.5 4.5)" fill="#3A84FF" fill-rule="nonzero"/>
    <path fill="#F0F5FF" d="M15.5 0A5.5 5.5 0 1 0 15.5 11A5.5 5.5 0 1 0 15.5 0Z"/>
    <path d="M15.5,1 C17.9852814,1 20,3.01471863 20,5.5 C20,7.98528137 17.9852814,10 15.5,10 C13.0147186,10 11,7.98528137 11,5.5 C11,3.01471863 13.0147186,1 15.5,1 Z M17.0909903,3.11351461 L15.4992929,4.70521198 L13.9090097,3.11351461 L13.1135146,3.90900974 L14.7037978,5.50070711 L13.1135146,7.09099026 L13.9090097,7.88648539 L15.4992929,6.29620224 L17.0909903,7.88648539 L17.8864854,7.09099026 L16.294788,5.50070711 L17.8864854,3.90900974 L17.0909903,3.11351461 Z" fill="#EA3636"/>
  </g>
</svg>
