<?xml version="1.0" encoding="utf-8"?>
<!-- Generator: Adobe Illustrator 22.1.0, SVG Export Plug-In . SVG Version: 6.00 Build 0)  -->
<svg version="1.1" id="图层_1" xmlns="http://www.w3.org/2000/svg" xmlns:xlink="http://www.w3.org/1999/xlink" x="0px" y="0px"
	 viewBox="0 0 64 64" style="enable-background:new 0 0 64 64;" xml:space="preserve">
<style type="text/css">
	.st0{fill:#737987;}
</style>
<path id="_x32_" class="st0" d="M20.2,45h23.5c0.7,0,1.2-0.5,1.2-1.2c0,0,0,0,0,0V20.2c0-0.7-0.5-1.2-1.2-1.2c0,0,0,0,0,0H20.2
	c-0.7,0-1.2,0.5-1.2,1.2c0,0,0,0,0,0v23.5C19,44.4,19.5,45,20.2,45C20.2,45,20.2,45,20.2,45z M23,23h18v18H23V23z"/>
<path id="_x31_" class="st0" d="M60,22v-4h-7v-5c0-1.1-0.9-2-2-2h-5V4h-4v7h-4V4h-4v7h-4V4h-4v7h-4V4h-4v7h-5c-1.1,0-2,0.9-2,2v5H4
	v4h7v4H4v4h7v4H4v4h7v4H4v4h7v5c0,1.1,0.9,2,2,2h5v7h4v-7h4v7h4v-7h4v7h4v-7h4v7h4v-7h5c1.1,0,2-0.9,2-2v-5h7v-4h-7v-4h7v-4h-7v-4h7
	v-4h-7v-4H60z M49,49H15V15h34V49z"/>
</svg>
