<svg xmlns="http://www.w3.org/2000/svg" viewBox="0 0 16 16" class="design-iconfont">
  <g fill="none" fill-rule="evenodd">
    <path d="M12.4492254,2.5 C12.9102233,2.5 13.1664721,2.98525 12.8784734,3.31275 L10.834042,5.63667078 C8.63499387,6.1619475 7,8.14003711 7,10.5 C7,11.5726299 7.33775797,12.5663723 7.91271994,13.380673 L5.75000565,14.5 L5.75000565,8.57475 L5.73600571,8.56225 L1.12152657,3.31275 C0.833527867,2.98525 1.08977671,2.5 1.55077463,2.5 Z" fill="#3A84FF"/>
    <path d="M12,6.5 C14.209139,6.5 16,8.290861 16,10.5 C16,12.709139 14.209139,14.5 12,14.5 C9.790861,14.5 8,12.709139 8,10.5 C8,8.290861 9.790861,6.5 12,6.5 Z M13.4142136,8.37867966 L11.9992929,9.79360033 L10.5857864,8.37867966 L9.87867966,9.08578644 L11.2921861,10.5007071 L9.87867966,11.9142136 L10.5857864,12.6213203 L11.9992929,11.2078139 L13.4142136,12.6213203 L14.1213203,11.9142136 L12.7063997,10.5007071 L14.1213203,9.08578644 L13.4142136,8.37867966 Z" fill="#EA3636"/>
  </g>
</svg>
