<?xml version="1.0" standalone="no"?><!DOCTYPE svg PUBLIC "-//W3C//DTD SVG 1.1//EN" "http://www.w3.org/Graphics/SVG/1.1/DTD/svg11.dtd"><svg t="1732690328227" class="icon" viewBox="0 0 1024 1024" version="1.1" xmlns="http://www.w3.org/2000/svg" p-id="14656" xmlns:xlink="http://www.w3.org/1999/xlink" width="200" height="200"><path d="M814.545455 326.609455c4.840727-4.747636 10.24-10.146909 13.777454-16.29091a102.865455 102.865455 0 0 0 7.447273-116.782545C813.381818 157.789091 780.241455 139.636364 737.28 139.636364H205.591273c-10.24 0-20.945455 0-30.208 2.885818a107.985455 107.985455 0 0 0-58.507637 37.236363A105.658182 105.658182 0 0 0 93.090909 245.899636c0 30.626909 11.869091 57.762909 33.373091 76.474182a16267.450182 16267.450182 0 0 1 202.658909 197.399273v214.853818l0.139636 1.861818c3.584 28.253091 25.367273 43.706182 51.805091 32.535273l0.465455-0.232727c14.242909-6.981818 22.434909-21.178182 22.434909-38.865455v-220.858182c0-14.894545-4.654545-27.089455-13.870545-36.165818A5195.915636 5195.915636 0 0 1 293.236364 373.899636 5348.538182 5348.538182 0 0 0 192.232727 270.801455l-1.722182-1.675637-2.048-1.024a19.362909 19.362909 0 0 1-2.373818-2.792727 50.082909 50.082909 0 0 0-2.699636-3.165091c-6.050909-7.633455-7.307636-14.149818-4.514909-22.900364 4.933818-10.938182 14.754909-23.505455 26.717091-23.505454h536.482909c6.516364 0 12.846545 3.444364 17.733818 9.774545a33.047273 33.047273 0 0 1 6.097455 28.532364c-1.303273 5.213091-3.537455 7.586909-10.24 14.242909a18471.703273 18471.703273 0 0 0-219.136 213.597091l-0.41891 0.372364c-7.540364 7.447273-16.244364 18.292364-16.244363 36.165818v371.246545c0 4.561455 0 17.454545 9.541818 27.741091 0 0 2.885818 6.423273 15.36 11.124364 15.499636 5.771636 30.580364-0.791273 30.580364-0.791273l3.909818-2.932364c15.453091-11.403636 15.453091-29.184 15.453091-39.842909V533.876364a4891.927273 4891.927273 0 0 1 112.267636-105.797819 4489.495273 4489.495273 0 0 0 107.52-101.46909z m82.52509 475.694545h-202.658909a33.233455 33.233455 0 0 0-33.838545 33.326545v9.402182c0 20.898909 17.221818 33.373091 33.838545 33.373091h202.658909a33.233455 33.233455 0 0 0 33.838546-33.373091v-9.402182c0-19.968-13.591273-33.373091-33.838546-33.37309z m0-119.854545h-202.658909a33.28 33.28 0 0 0-33.838545 33.37309v6.981819c0 20.945455 17.221818 33.373091 33.838545 33.373091h202.658909A33.28 33.28 0 0 0 930.909091 722.850909v-7.028364a33.28 33.28 0 0 0-33.838546-33.37309z m0-115.153455h-202.658909a33.233455 33.233455 0 0 0-33.838545 33.373091v4.654545c0 20.898909 17.221818 33.373091 33.838545 33.373091h202.658909a33.233455 33.233455 0 0 0 33.838546-33.326545v-4.701091c0-19.968-13.591273-33.373091-33.838546-33.373091z" fill="#3A84FF" p-id="14657"></path><path d="M791.272727 232.727273m-232.727272 0a232.727273 232.727273 0 1 0 465.454545 0 232.727273 232.727273 0 1 0-465.454545 0Z" fill="#FFFFFF" p-id="14658"></path><path d="M791.272727 29.090909a203.636364 203.636364 0 1 1 0 407.272727 203.636364 203.636364 0 0 1 0-407.272727z m61.719273 121.344L791.272727 212.154182 729.553455 150.434909l-20.573091 20.573091L770.699636 232.727273 708.980364 294.446545l20.573091 20.573091L791.272727 253.300364l61.719273 61.719272 20.573091-20.573091L811.845818 232.727273l61.719273-61.719273-20.573091-20.573091z" fill="#E71818" p-id="14659"></path></svg>