<svg xmlns="http://www.w3.org/2000/svg" xmlns:xlink="http://www.w3.org/1999/xlink" viewBox="0 0 32 32" class="design-iconfont">
  <defs>
    <linearGradient x1="80.8634187%" y1="42.9122968%" x2="17.088772%" y2="60.5321508%" id="wfzb2zawh__r4nwp3bzfe">
      <stop stop-color="#FB0" stop-opacity=".6" offset="0%"/>
      <stop stop-color="#FFBD07" stop-opacity=".59324216" offset="24.8246053%"/>
      <stop stop-color="#FFEFD7" stop-opacity=".4" offset="100%"/>
    </linearGradient>
    <filter x="-23.7%" y="-38.9%" width="147.4%" height="200%" filterUnits="objectBoundingBox" id="wfzb2zawh__5lfrrt7s0c">
      <feMorphology radius="1" operator="dilate" in="SourceAlpha" result="shadowSpreadOuter1"/>
      <feOffset dy="1" in="shadowSpreadOuter1" result="shadowOffsetOuter1"/>
      <feGaussianBlur stdDeviation="1" in="shadowOffsetOuter1" result="shadowBlurOuter1"/>
      <feComposite in="shadowBlurOuter1" in2="SourceAlpha" operator="out" result="shadowBlurOuter1"/>
      <feColorMatrix values="0 0 0 0 0 0 0 0 0 0 0 0 0 0 0 0 0 0 0.04 0" in="shadowBlurOuter1"/>
    </filter>
    <rect id="wfzb2zawh__p59002tqea" x="0" y="0" width="32" height="32" rx="2"/>
    <path d="M26.5829824,8 C27.3655796,8 28,8.63599897 28,9.42054345 C28,10.1589383 27.4380221,10.7657495 26.7194507,10.8345841 L26.5829824,10.8410869 C25.6277186,10.8410869 24.8582703,11.2723173 23.9129296,12.248401 L23.6797464,12.4964547 L22.7013551,13.591795 C22.2407783,14.0880549 21.8642849,14.418536 21.4246424,14.6552513 C21.0501564,14.8568846 20.6524166,14.9701848 20.2308368,14.9701848 C19.1992035,14.9701848 18.5777341,14.6483902 17.5741612,13.8309914 L17.2325022,13.5484025 L17.0082499,13.3684932 L16.8239744,13.2304847 L16.6727329,13.1295974 C16.5128542,13.0316907 16.4062448,12.9998146 16.3032919,12.9998146 C16.1649203,12.9998146 15.9422058,13.0813991 15.6434654,13.2436624 L15.4052853,13.380473 C15.3632561,13.4057913 15.3200715,13.4323666 15.2757477,13.4601972 L14.996265,13.6422304 L14.6902219,13.8543058 L14.3583981,14.0963386 L14.0015733,14.3682439 L13.6205274,14.6699367 L13.2160399,15.001332 L12.7888906,15.3623451 L12.3398593,15.752891 L11.8697257,16.1728848 L11.3792694,16.6222415 C10.8047809,17.1549972 9.90825413,17.1200072 9.37682084,16.5440892 C8.84538755,15.9681713 8.88029069,15.0694137 9.45477919,14.5366581 L10.0363158,14.0036232 C10.1312377,13.9176986 10.2251688,13.8332302 10.3181241,13.7502164 L10.8642635,13.2695758 C13.2702569,11.1851252 14.9863709,10.1587277 16.3032919,10.1587277 C17.3391761,10.1587277 17.9609059,10.4807592 18.9694352,11.3023232 L19.4275817,11.6795291 L19.6292893,11.8365682 C19.8421678,11.9960314 19.9811155,12.0755857 20.0947865,12.1089666 L20.1363689,12.1186806 L20.2290542,12.0473124 L20.3643967,11.9248111 C20.3895556,11.9007338 20.4160234,11.8747941 20.4438121,11.8469437 L20.6703215,11.6084934 L21.5816222,10.586595 L21.6431902,10.5192687 C23.1624035,8.87663504 24.6052207,8 26.5829824,8 Z" id="wfzb2zawh__idl700i80d"/>
  </defs>
  <g fill="none" fill-rule="evenodd">
    <mask id="wfzb2zawh__1hzrliwijb" fill="#fff">
      <use xlink:href="#wfzb2zawh__p59002tqea"/>
    </mask>
    <use fill="#FFF" xlink:href="#wfzb2zawh__p59002tqea"/>
    <path d="M16.857233,2.81649532 C22.3800805,2.81649532 26.857233,7.29364782 26.857233,12.8164953 C26.857233,17.7058263 23.3483034,21.7756029 18.7113256,22.6449435 L18.7107864,29.3979708 C18.7107864,30.2263979 18.0392136,30.8979708 17.2107864,30.8979708 C16.3823593,30.8979708 15.7107864,30.2263979 15.7107864,29.3979708 L15.710337,22.7514424 C10.7276336,22.1825058 6.85723305,17.9514908 6.85723305,12.8164953 C6.85723305,7.29364782 11.3343855,2.81649532 16.857233,2.81649532 Z M16.857233,6.14982865 C13.1753347,6.14982865 10.1905664,9.13459699 10.1905664,12.8164953 C10.1905664,16.4983937 13.1753347,19.483162 16.857233,19.483162 C20.5391314,19.483162 23.5238997,16.4983937 23.5238997,12.8164953 C23.5238997,9.13459699 20.5391314,6.14982865 16.857233,6.14982865 Z" fill="#3A84FF" mask="url(#wfzb2zawh__1hzrliwijb)" transform="rotate(-45 16.857233 16.857233)"/>
    <g stroke-linecap="round" mask="url(#wfzb2zawh__1hzrliwijb)">
      <use fill="#000" filter="url(#wfzb2zawh__5lfrrt7s0c)" xlink:href="#wfzb2zawh__idl700i80d"/>
      <path stroke-opacity=".8" stroke="#FFF" d="M26.5829824,7.5 C27.1124941,7.5 27.5919333,7.71506595 27.9389576,8.06295374 C28.2855327,8.41039125 28.5,8.89034243 28.5,9.42054345 C28.5,9.9172473 28.3117422,10.3698309 28.0030444,10.710709 C27.6909568,11.0553303 27.2556625,11.2855072 26.7671292,11.3323056 C25.7644122,11.3402816 25.1007956,11.7420004 24.2782047,12.5899486 L24.2782047,12.5899486 L23.0678387,13.931927 C22.5615986,14.477388 22.1443899,14.8355895 21.6616804,15.0954932 C21.2128377,15.3371622 20.7356622,15.4701848 20.2308368,15.4701848 C19.0917448,15.4701848 18.3931761,15.1389152 17.2867204,14.2419488 C16.3650471,13.698484 16.1287249,13.5665078 15.9057365,13.6710685 L15.9057365,13.6710685 L13.5244514,15.3953284 L13.1170201,15.739613 L12.6729694,16.1257686 L12.2074948,16.5415473 L11.7192557,16.9888603 C11.3305131,17.3493632 10.8327915,17.5176768 10.3424001,17.4985376 C9.85205812,17.4794003 9.36893572,17.2728399 9.00936083,16.8831661 C8.65024985,16.493995 8.48238872,15.9957672 8.50145596,15.504785 C8.52052511,15.0137534 8.72655214,14.5300769 9.11693078,14.1680683 L9.11693078,14.1680683 L9.70461534,13.6294912 L10.5368649,12.8916734 C13.0876854,10.6817508 14.916239,9.65872774 16.3032919,9.65872774 C17.456451,9.65872774 18.1572413,9.99579418 19.287243,10.9163203 L19.287243,10.9163203 L19.7383007,11.2876897 L21.2144728,10.2471818 C22.9112991,8.41169386 24.4680691,7.5 26.5829824,7.5 Z" fill="url(#wfzb2zawh__r4nwp3bzfe)"/>
    </g>
  </g>
</svg>
