<?xml version="1.0" encoding="utf-8"?>
<!-- Generator: Adobe Illustrator 22.1.0, SVG Export Plug-In . SVG Version: 6.00 Build 0)  -->
<svg version="1.1" id="图层_2" xmlns="http://www.w3.org/2000/svg" xmlns:xlink="http://www.w3.org/1999/xlink" x="0px" y="0px"
	 viewBox="0 0 64 64" style="enable-background:new 0 0 64 64;" xml:space="preserve">
<style type="text/css">
	.st0{fill:#737987;}
</style>
<g id="Json">
	<path id="_2" class="st0" d="M35,39.8c-0.1-2.1-0.8-3.1-2.3-3.2c-1.4,0.1-2.1,1.2-2.2,3.2c0.1,2,0.8,3.1,2.2,3.2
		C34.2,43,35,41.9,35,39.8z"/>
	<path id="_1" class="st0" d="M44,4H12c-1.1,0-1.9,0.8-2,1.9V30H8c-1.1,0-2,0.9-2,2v16c0,1.1,0.9,2,2,2h2v8c0,1.1,0.9,1.9,2,1.9h44
		c1.1,0,2-0.9,2-2V18L44,4z M9.6,41.4l2.5-0.7c0.2,1.5,0.6,2.2,1.2,2.1s1.1-0.7,1.1-2.1v-6.1H17v6.2c0,2.9-1.3,4.3-3.8,4.3
		C11.2,45.2,10,43.9,9.6,41.4z M54,55.9H14V50h36c1.1,0,2-0.9,2-2V32c0-1.1-0.9-2-2-2H14V8h24v14c0,1.1,0.9,2,2,2h14V55.9z
		 M23.3,40.9c-0.6-0.2-1.2-0.4-1.9-0.6c-1.9-0.4-2.8-1.4-2.7-2.9c0.2-1.9,1.4-2.8,3.8-3s3.9,1,4.3,3l-2.5,0.6
		c-0.2-1.1-0.8-1.7-1.7-1.6c-0.7,0-1,0.3-1.1,0.8s0.4,0.9,1.5,1.1c0.8,0.2,1.6,0.4,2.3,0.8c1,0.5,1.7,1.6,1.6,2.8
		c-0.1,2-1.4,3.1-4,3.2c-2.3,0.3-4.3-1.3-4.6-3.6c0,0,0,0,0-0.1l2.5-0.5c0.2,1.4,0.9,2.1,2,2.1c0.9,0,1.3-0.4,1.4-1
		C24.2,41.5,23.8,41.1,23.3,40.9L23.3,40.9z M27.8,39.8c0.1-3.4,1.8-5.2,5-5.3c3.1,0.2,4.8,2,4.9,5.3c-0.1,3.4-1.8,5.2-4.9,5.3
		C29.6,45,27.9,43.3,27.8,39.8L27.8,39.8z M39,44.9V34.6h2.7l3.8,6.1v-6.1h2.6v10.3h-2.6L41.7,39v5.9H39z M42,19.9V8l12,12L42,19.9z
		"/>
</g>
</svg>
