<?xml version="1.0" encoding="utf-8"?>
<!-- Generator: Adobe Illustrator 22.1.0, SVG Export Plug-In . SVG Version: 6.00 Build 0)  -->
<svg version="1.1" id="图层_2" xmlns="http://www.w3.org/2000/svg" xmlns:xlink="http://www.w3.org/1999/xlink" x="0px" y="0px"
	 viewBox="0 0 64 64" style="enable-background:new 0 0 64 64;" xml:space="preserve">
<style type="text/css">
	.st0{opacity:0.1;fill:#737987;enable-background:new    ;}
	.st1{opacity:0.15;fill:#737987;enable-background:new    ;}
	.st2{opacity:0.3;fill:#737987;enable-background:new    ;}
	.st3{opacity:0.45;fill:#737987;enable-background:new    ;}
	.st4{opacity:0.6;fill:#737987;enable-background:new    ;}
	.st5{opacity:0.75;fill:#737987;enable-background:new    ;}
	.st6{opacity:0.9;fill:#737987;enable-background:new    ;}
	.st7{fill:#737987;}
</style>
<g id="LOADING">
	<path id="_8" class="st0" d="M20.7,15c1.6,1.6,1.6,4.1,0,5.7s-4.1,1.6-5.7,0l-2.8-2.8c-1.6-1.6-1.6-4.1,0-5.7s4.1-1.6,5.7,0
		L20.7,15z"/>
	<path id="_7" class="st1" d="M12,28c2.2,0,4,1.8,4,4s-1.8,4-4,4H8c-2.2,0-4-1.8-4-4s1.8-4,4-4H12z"/>
	<path id="_6" class="st2" d="M15,43.3c1.6-1.6,4.1-1.6,5.7,0c1.6,1.6,1.6,4.1,0,5.7l-2.8,2.8c-1.6,1.6-4.1,1.6-5.7,0
		s-1.6-4.1,0-5.7L15,43.3z"/>
	<path id="_5" class="st3" d="M28,52c0-2.2,1.8-4,4-4s4,1.8,4,4v4c0,2.2-1.8,4-4,4s-4-1.8-4-4V52z"/>
	<path id="_4" class="st4" d="M51.8,46.1c1.6,1.6,1.6,4.1,0,5.7s-4.1,1.6-5.7,0L43.3,49c-1.6-1.6-1.6-4.1,0-5.7s4.1-1.6,5.7,0
		L51.8,46.1z"/>
	<path id="_3" class="st5" d="M56,28c2.2,0,4,1.8,4,4s-1.8,4-4,4h-4c-2.2,0-4-1.8-4-4s1.8-4,4-4H56z"/>
	<path id="_2" class="st6" d="M46.1,12.2c1.6-1.6,4.1-1.6,5.7,0s1.6,4.1,0,5.7l0,0L49,20.7c-1.6,1.6-4.1,1.6-5.7,0
		c-1.6-1.6-1.6-4.1,0-5.7L46.1,12.2z"/>
	<path id="_1" class="st7" d="M28,8c0-2.2,1.8-4,4-4s4,1.8,4,4v4c0,2.2-1.8,4-4,4s-4-1.8-4-4V8z"/>
</g>
</svg>
