<svg id="图层_1" data-name="图层 1" xmlns="http://www.w3.org/2000/svg" viewBox="0 0 28 16"><defs><style>.cls-1{fill:#f0f1f5;}.cls-2{fill:#979ba5;}</style></defs><rect class="cls-1" width="28" height="16" rx="2"/><path class="cls-2" d="M10.45,11.78V7.19c0-.43,0-1,.06-1.6h0c-.1.48-.18.81-.23,1L8.37,11.78H7.09L5.2,6.61a7.78,7.78,0,0,1-.24-1h0C5,6.22,5,6.86,5,7.5v4.28H3.52V4.21H5.87L7.5,8.78a5.24,5.24,0,0,1,.27,1.07h0a10.49,10.49,0,0,1,.31-1.08L9.76,4.21H12v7.57Z"/><path class="cls-2" d="M13.78,6.7a3.84,3.84,0,0,1,1-.33,5.74,5.74,0,0,1,1.05-.13,2,2,0,0,1,2.26,2.27v3.27h-1.5V11h0a1.76,1.76,0,0,1-1.61.92,1.73,1.73,0,0,1-1.23-.44,1.55,1.55,0,0,1-.46-1.19c0-1,.62-1.63,1.85-1.8l1.48-.21c0-.62-.32-.94-1-.94a3.18,3.18,0,0,0-1.82.59Zm1.78,2.63c-.57.07-.85.33-.85.77a.64.64,0,0,0,.21.49.8.8,0,0,0,.56.18,1,1,0,0,0,.79-.34,1.19,1.19,0,0,0,.31-.85V9.2Z"/><path class="cls-2" d="M24.5,6.38,22.71,9l1.77,2.77H22.66l-.8-1.49a3.8,3.8,0,0,1-.23-.49h0a2.86,2.86,0,0,1-.22.47l-.82,1.51H18.76l1.82-2.69L18.86,6.38h1.83l.8,1.55a3.93,3.93,0,0,1,.22.5h0A3.07,3.07,0,0,1,22,7.92l.82-1.54Z"/></svg>