<svg id="图层_1" data-name="图层 1" xmlns="http://www.w3.org/2000/svg" viewBox="0 0 28 16"><defs><style>.cls-1{fill:#f0f1f5;}.cls-2{fill:#979ba5;}</style></defs><rect class="cls-1" width="28" height="16" rx="2"/><path class="cls-2" d="M11.82,11.78V7.19c0-.43,0-1,.07-1.6h0a8.25,8.25,0,0,1-.24,1L9.75,11.78H8.46L6.58,6.61a7.78,7.78,0,0,1-.24-1h0c0,.63.07,1.27.07,1.91v4.28H4.9V4.21H7.24L8.87,8.78a5.3,5.3,0,0,1,.28,1.07h0A10.49,10.49,0,0,1,9.5,8.77l1.64-4.56h2.28v7.57Z"/><path class="cls-2" d="M14.89,4.63A.76.76,0,0,1,15.14,4a1,1,0,0,1,.66-.22.92.92,0,0,1,.66.23.75.75,0,0,1,.26.58.79.79,0,0,1-.26.6,1,1,0,0,1-1.32,0A.76.76,0,0,1,14.89,4.63ZM15,11.78V6.38h1.58v5.4Z"/><path class="cls-2" d="M23.12,11.78H21.55v-3c0-.87-.31-1.31-.94-1.31a1,1,0,0,0-.75.35,1.33,1.33,0,0,0-.3.89v3.09H18V6.38h1.57v.85h0a1.92,1.92,0,0,1,1.74-1c1.2,0,1.8.75,1.8,2.23Z"/></svg>