<svg id="图层_1" data-name="图层 1" xmlns="http://www.w3.org/2000/svg" xmlns:xlink="http://www.w3.org/1999/xlink" viewBox="0 0 832 832"><defs><style>.cls-1{fill:url(#未命名的渐变);}.cls-2,.cls-3,.cls-4{fill:#fff;}.cls-2{opacity:0.7;}.cls-2,.cls-4{isolation:isolate;}.cls-4{opacity:0.8;}</style><linearGradient id="未命名的渐变" x1="416" y1="215.22" x2="416" y2="1007.87" gradientTransform="matrix(1, 0, 0, -1, 0, 1024)" gradientUnits="userSpaceOnUse"><stop offset="0" stop-color="#4ac0fb"/><stop offset="1" stop-color="#4297fb"/></linearGradient></defs><title>蓝鲸系列logo_监控平台1</title><g id="图层_5" data-name="图层 5"><path class="cls-1" d="M832,710.18C832,778,781.83,832,720,832h-608C50.12,832,0,778,0,710.18V122.75C0,55,50.12,0,112,0H720c61.82,0,112,55,112,122.75Z"/><polygon class="cls-2" points="351.98 640 471.98 192 548.97 192 428.98 640 351.98 640"/><rect class="cls-2" x="584.97" y="449" width="141.99" height="77"/><polygon class="cls-3" points="560.97 526 471.98 192 548.97 192 637.97 526 560.97 526"/><polygon class="cls-3" points="351.98 640 254.99 282 331.98 282 428.98 640 351.98 640"/><polygon class="cls-3" points="188.99 526 105 526 105 449 209.99 449 188.99 526"/><polygon class="cls-4" points="188.99 526 254.99 282 331.98 282 265.99 526 188.99 526"/></g></svg>