<?xml version="1.0" encoding="UTF-8"?>
<svg width="32px" height="32px" viewBox="0 0 32 32" version="1.1" xmlns="http://www.w3.org/2000/svg" xmlns:xlink="http://www.w3.org/1999/xlink">
    <title>Icon/算法/新维度值检测</title>
    <defs>
        <linearGradient x1="80.8634187%" y1="18.4115945%" x2="17.088772%" y2="96.9395858%" id="linearGradient-1">
            <stop stop-color="#FFBB00" stop-opacity="0.6" offset="0%"></stop>
            <stop stop-color="#FFBD07" stop-opacity="0.593242158" offset="24.8246053%"></stop>
            <stop stop-color="#FFEFD7" stop-opacity="0.4" offset="100%"></stop>
        </linearGradient>
        <path d="M31,13 L31,21 C31,23.209139 29.209139,25 27,25 L23,25 C20.790861,25 19,23.209139 19,21 L19,17 C19,14.790861 20.790861,13 23,13 L31,13 Z M24.1054688,15.9492188 L22.6992188,15.9492188 L22.6992188,22 L23.921875,22 L23.921875,18.5585938 C23.921875,18.1236979 23.9101562,17.8020833 23.8867188,17.59375 L23.90625,17.59375 C23.9661458,17.71875 24.0625,17.8828125 24.1953125,18.0859375 L26.7578125,22 L28.078125,22 L28.078125,15.9492188 L26.8554688,15.9492188 L26.8554688,19.3984375 C26.8554688,19.8098958 26.8684896,20.0885417 26.8945313,20.234375 L26.875,20.234375 C26.8628472,20.2118056 26.8436053,20.1789641 26.8172743,20.1358507 L26.7170139,19.9756944 C26.6765046,19.912037 26.6289062,19.8381076 26.5742188,19.7539062 L24.1054688,15.9492188 Z" id="path-2"></path>
        <filter x="-37.5%" y="-29.2%" width="175.0%" height="175.0%" filterUnits="objectBoundingBox" id="filter-3">
            <feMorphology radius="1" operator="dilate" in="SourceAlpha" result="shadowSpreadOuter1"></feMorphology>
            <feOffset dx="0" dy="1" in="shadowSpreadOuter1" result="shadowOffsetOuter1"></feOffset>
            <feGaussianBlur stdDeviation="1" in="shadowOffsetOuter1" result="shadowBlurOuter1"></feGaussianBlur>
            <feComposite in="shadowBlurOuter1" in2="SourceAlpha" operator="out" result="shadowBlurOuter1"></feComposite>
            <feColorMatrix values="0 0 0 0 0   0 0 0 0 0   0 0 0 0 0  0 0 0 0.04 0" type="matrix" in="shadowBlurOuter1"></feColorMatrix>
        </filter>
    </defs>
    <g id="Icon/算法/新维度值检测" stroke="none" stroke-width="1" fill="none" fill-rule="evenodd">
        <rect id="矩形" fill="#FFFFFF" x="0" y="0" width="32" height="32" rx="2"></rect>
        <path d="M16,4 C18.8205971,4 21.1071429,6.28654574 21.1071429,9.10714286 C21.1071429,11.4449839 19.5363181,13.4159392 17.3925487,14.0221285 L17.392,17.25 L20.2665732,19.4394696 C21.1919438,18.5064179 22.4749188,17.9285714 23.8928571,17.9285714 C26.7134543,17.9285714 29,20.2151172 29,23.0357143 C29,25.8563114 26.7134543,28.1428571 23.8928571,28.1428571 C21.07226,28.1428571 18.7857143,25.8563114 18.7857143,23.0357143 C18.7857143,22.6486788 18.8287669,22.2716988 18.9103443,21.9093021 L15.998,19.691 L13.0876102,21.9002536 C13.1551496,22.1977488 13.1967179,22.5051103 13.2098053,22.8198282 L13.2142857,23.0357143 C13.2142857,25.8563114 10.92774,28.1428571 8.10714286,28.1428571 C5.28654574,28.1428571 3,25.8563114 3,23.0357143 C3,20.2151172 5.28654574,17.9285714 8.10714286,17.9285714 C9.52253458,17.9285714 10.8034474,18.5043441 11.7284375,19.4344458 L14.60635,17.250061 L14.6074513,14.0221285 C12.4636819,13.4159392 10.8928571,11.4449839 10.8928571,9.10714286 C10.8928571,6.28654574 13.1794029,4 16,4 Z" id="形状结合" fill="#3A84FF"></path>
        <g id="编组" transform="translate(10.8214, 13.4273)"></g>
        <g id="形状结合" stroke-linecap="round">
            <use fill="black" fill-opacity="1" filter="url(#filter-3)" xlink:href="#path-2"></use>
            <path stroke-opacity="0.8" stroke="#FFFFFF" stroke-width="1" d="M31.5,12.5 L31.5,21 C31.5,22.2426407 30.9963203,23.3676407 30.1819805,24.1819805 C29.3676407,24.9963203 28.2426407,25.5 27,25.5 L23,25.5 C21.7573593,25.5 20.6323593,24.9963203 19.8180195,24.1819805 C19.0036797,23.3676407 18.5,22.2426407 18.5,21 L18.5,17 C18.5,15.7573593 19.0036797,14.6323593 19.8180195,13.8180195 C20.6323593,13.0036797 21.7573593,12.5 23,12.5 L31.5,12.5 Z M23.378,16.449 L23.1992188,16.4492188 L23.421875,21.5 L23.4211309,18.3727932 C23.4191881,18.1311404 23.4136097,17.9061418 23.4063942,17.6057569 L23.378,16.449 Z M27.319872,16.4492188 L26.9633489,21.2721837 L24.136,16.916 L24.357158,17.3776899 C24.4101282,17.4882365 24.4963784,17.632731 24.6137973,17.8123128 L27.0280916,21.5 L27.578125,21.5 L27.319872,16.4492188 Z" fill="url(#linearGradient-1)" fill-rule="evenodd"></path>
        </g>
    </g>
</svg>