<svg xmlns="http://www.w3.org/2000/svg" xmlns:xlink="http://www.w3.org/1999/xlink" viewBox="0 0 34 32" class="design-iconfont">
  <defs>
    <linearGradient x1="80.8634187%" y1="42.8370963%" x2="17.088772%" y2="60.643897%" id="qvxqod6e9__9vjrrqodbc">
      <stop stop-color="#FB0" stop-opacity=".6" offset="0%"/>
      <stop stop-color="#FFBD07" stop-opacity=".59324216" offset="24.8246053%"/>
      <stop stop-color="#FFEFD7" stop-opacity=".4" offset="100%"/>
    </linearGradient>
    <filter x="-21.4%" y="-35%" width="142.9%" height="190%" filterUnits="objectBoundingBox" id="qvxqod6e9__qe9nwley2a">
      <feMorphology radius="1" operator="dilate" in="SourceAlpha" result="shadowSpreadOuter1"/>
      <feOffset dy="1" in="shadowSpreadOuter1" result="shadowOffsetOuter1"/>
      <feGaussianBlur stdDeviation="1" in="shadowOffsetOuter1" result="shadowBlurOuter1"/>
      <feComposite in="shadowBlurOuter1" in2="SourceAlpha" operator="out" result="shadowBlurOuter1"/>
      <feColorMatrix values="0 0 0 0 0 0 0 0 0 0 0 0 0 0 0 0 0 0 0.04 0" in="shadowBlurOuter1"/>
    </filter>
    <path d="M29.4338227,10 C30.2987985,10 31,10.7066655 31,11.5783816 C31,12.3988203 30.3788665,13.073055 29.584656,13.1495378 L29.4338227,13.1567632 C28.3780047,13.1567632 27.5275619,13.6359081 26.4827116,14.7204455 L26.2249829,14.9960608 L25.143603,16.2131056 C24.6345445,16.7645055 24.2184202,17.1317066 23.7324995,17.3947237 C23.3185939,17.6187607 22.8789867,17.7446498 22.4130301,17.7446498 C21.2728039,17.7446498 20.5859166,17.3871002 19.4767045,16.4788794 L19.0990813,16.1648917 L18.8512235,15.9649925 L18.6475507,15.8116497 L18.480389,15.6995526 C18.303681,15.5907675 18.1858495,15.5553496 18.0720595,15.5553496 C17.9191224,15.5553496 17.6729643,15.645999 17.3427776,15.8262916 L17.0795258,15.9783033 C17.0330725,16.0064347 16.9853422,16.0359629 16.9363527,16.0668858 L16.6274508,16.2691449 L16.2891926,16.5047843 L15.92244,16.7737096 L15.5280547,17.0758265 L15.1068987,17.4110407 L14.6598336,17.7792578 L14.1877212,18.1803835 L13.6914235,18.6143234 L13.171802,19.0809831 L12.6297188,19.5802684 C11.9947578,20.1722191 11.0038598,20.1333413 10.4164862,19.4934325 C9.82911255,18.8535236 9.86768971,17.8549042 10.5026507,17.2629535 L11.1454017,16.6706925 C11.2503153,16.5752207 11.3541339,16.4813669 11.456874,16.3891293 L12.0605017,15.8550842 C14.7197576,13.539028 16.6165152,12.3985864 18.0720595,12.3985864 C19.2169841,12.3985864 19.9041592,12.7563991 21.0188495,13.6692479 L21.5252219,14.0883656 L21.7481618,14.2628535 C21.9834486,14.4400349 22.1370224,14.5284285 22.2626587,14.5655184 L22.3086183,14.5763118 L22.4110599,14.4970138 L22.560649,14.3609013 C22.5884562,14.3341487 22.6177101,14.3053268 22.6484239,14.2743819 L22.8987764,14.0094371 L23.9060035,12.8739945 L23.9740524,12.7991875 C25.6531828,10.9740389 27.2478755,10 29.4338227,10 Z" id="qvxqod6e9__q050j12c4b"/>
  </defs>
  <g fill="none" fill-rule="evenodd">
    <rect fill="#FFF" width="32" height="32" rx="2"/>
    <path fill="#3A84FF" d="M16 4A12 12 0 1 0 16 28A12 12 0 1 0 16 4Z"/>
    <path fill="#FFF" d="M16 8A8 8 0 1 0 16 24A8 8 0 1 0 16 8Z"/>
    <g stroke-linecap="round">
      <use fill="#000" filter="url(#qvxqod6e9__qe9nwley2a)" xlink:href="#qvxqod6e9__q050j12c4b"/>
      <path stroke-opacity=".8" stroke="#FFF" d="M29.4338227,9.5 C30.004823,9.5 30.5219451,9.73294732 30.8962002,10.1101187 C31.269056,10.4858799 31.5,11.004899 31.5,11.5783816 C31.5,12.1155843 31.2973172,12.60499 30.9652326,12.973633 C30.628723,13.3471883 30.1592996,13.5965125 29.6325845,13.6472354 C28.5149251,13.6559523 27.7706978,14.1056178 26.8488909,15.0610232 L26.8488909,15.0610232 L25.5109802,16.5522723 C24.9562968,17.1530919 24.4994562,17.548135 23.9705081,17.8344417 C23.4819413,18.0988909 22.9625625,18.2446498 22.4130301,18.2446498 C21.1651271,18.2446498 20.4008197,17.8777389 19.188606,16.8893496 C18.1192498,16.2558298 17.8588271,16.1288967 17.6043681,16.2537373 L17.6043681,16.2537373 L15.4107795,17.8085119 L14.9835782,18.1602951 L14.5168358,18.5567923 L14.0255103,18.986326 L13.5105392,19.4487563 L12.9706687,19.9459912 C12.5513864,20.3368726 12.014519,20.5191633 11.4856549,20.4984133 C10.9569461,20.4776695 10.4358907,20.2539779 10.0481359,19.831542 C9.66182543,19.4106796 9.48105229,18.8719219 9.50156562,18.3409078 C9.52208488,17.8097404 9.74398243,17.2866541 10.1638344,16.8952532 L10.1638344,16.8952532 L10.812722,16.2974309 L11.732117,15.4780385 C14.5366362,13.0354664 16.5462592,11.8985864 18.0720595,11.8985864 C19.3345565,11.8985864 20.101117,12.2714268 21.3376562,13.2840698 L21.3376562,13.2840698 L21.8369383,13.6973188 L23.5379627,12.535548 C25.4014688,10.5090939 27.110521,9.5 29.4338227,9.5 Z" fill="url(#qvxqod6e9__9vjrrqodbc)"/>
    </g>
  </g>
</svg>
