<svg xmlns="http://www.w3.org/2000/svg" xmlns:xlink="http://www.w3.org/1999/xlink" viewBox="0 0 33 32" class="design-iconfont">
  <defs>
    <linearGradient x1="86.0191288%" y1="35.1741346%" x2="50%" y2="66.3938792%" id="omb1xyhd5__qr5njhf5gc">
      <stop stop-color="#FB0" stop-opacity=".6" offset="0%"/>
      <stop stop-color="#FFEFD7" stop-opacity=".4" offset="100%"/>
    </linearGradient>
    <filter x="-14.8%" y="-25%" width="134.4%" height="164.3%" filterUnits="objectBoundingBox" id="omb1xyhd5__vyxz1k7g9a">
      <feMorphology radius="1" operator="dilate" in="SourceAlpha" result="shadowSpreadOuter1"/>
      <feOffset dy="1" in="shadowSpreadOuter1" result="shadowOffsetOuter1"/>
      <feGaussianBlur stdDeviation="1" in="shadowOffsetOuter1" result="shadowBlurOuter1"/>
      <feComposite in="shadowBlurOuter1" in2="SourceAlpha" operator="out" result="shadowBlurOuter1"/>
      <feColorMatrix values="0 0 0 0 0 0 0 0 0 0 0 0 0 0 0 0 0 0 0.04 0" in="shadowBlurOuter1"/>
    </filter>
    <path d="M4.45255962,18.7052424 C4.45255962,18.3639221 11.5661154,14.8587435 15.0070815,12.7309261 C17.3010589,11.3123812 19.4344475,9.8090185 21.4072473,8.22083813 L18.5807575,4.80452878 L28.9021829,4.80452878 L26.4748696,14.1665931 L23.9796797,11.0385532 C20.93881,13.7242083 17.9479439,15.644353 15.0070815,16.7989871 C10.5957878,18.5309382 4.45255962,19.0465627 4.45255962,18.7052424 Z" id="omb1xyhd5__1kadxmt71b"/>
  </defs>
  <g fill="none" fill-rule="evenodd">
    <rect fill="#FFF" width="32" height="32" rx="2"/>
    <rect fill="#3A84FF" x="22" y="7" width="4" height="20" rx="1"/>
    <rect fill="#3A84FF" x="14" y="15" width="4" height="12" rx="1"/>
    <rect fill="#3A84FF" x="6" y="20" width="4" height="7" rx="1"/>
    <g stroke-linecap="round">
      <use fill="#000" filter="url(#omb1xyhd5__vyxz1k7g9a)" xlink:href="#omb1xyhd5__1kadxmt71b"/>
      <path stroke-opacity=".8" stroke="#FFF" d="M29.5483506,4.30452878 L26.707805,15.2604155 L23.91474,11.7589508 C20.9601897,14.3079952 18.0507233,16.1411565 15.189811,17.2644008 C13.4038657,17.9655942 11.3390219,18.4718922 9.50008663,18.8040228 C8.21407625,19.0362895 7.0389135,19.1835534 6.14818436,19.2541948 C5.61885795,19.2961744 5.18704045,19.3110318 4.88706858,19.3018815 C4.05975143,19.0123949 3.92361928,19.4825805 5.66584256,18.4757434 L5.66584256,18.4757434 L5.1654833,17.6099256 C5.96212647,17.1495426 7.17614781,16.4982263 8.52085258,15.7769627 C10.6512265,14.6342872 13.1124518,13.3146475 14.7441101,12.3056661 C16.8672201,10.9927818 18.8517389,9.60674985 20.6975525,8.14740951 L20.6975525,8.14740951 L17.5181379,4.30452878 L29.5483506,4.30452878 Z" fill="url(#omb1xyhd5__qr5njhf5gc)"/>
    </g>
  </g>
</svg>
