<svg xmlns="http://www.w3.org/2000/svg" xmlns:xlink="http://www.w3.org/1999/xlink" viewBox="0 0 36 32" class="design-iconfont">
  <defs>
    <filter x="-16.7%" y="-43.6%" width="133.3%" height="212.1%" filterUnits="objectBoundingBox" id="1hn4hyp7j__fmrnyqh8ka">
      <feMorphology radius="1" operator="dilate" in="SourceAlpha" result="shadowSpreadOuter1"/>
      <feOffset dy="1" in="shadowSpreadOuter1" result="shadowOffsetOuter1"/>
      <feGaussianBlur stdDeviation="1" in="shadowOffsetOuter1" result="shadowBlurOuter1"/>
      <feComposite in="shadowBlurOuter1" in2="SourceAlpha" operator="out" result="shadowBlurOuter1"/>
      <feColorMatrix values="0 0 0 0 0 0 0 0 0 0 0 0 0 0 0 0 0 0 0.04 0" in="shadowBlurOuter1"/>
    </filter>
    <filter x="-16.7%" y="-43.6%" width="133.3%" height="212.1%" filterUnits="objectBoundingBox" id="1hn4hyp7j__txf6m2iimd">
      <feMorphology radius="1" operator="dilate" in="SourceAlpha" result="shadowSpreadOuter1"/>
      <feOffset dy="1" in="shadowSpreadOuter1" result="shadowOffsetOuter1"/>
      <feGaussianBlur stdDeviation="1" in="shadowOffsetOuter1" result="shadowBlurOuter1"/>
      <feComposite in="shadowBlurOuter1" in2="SourceAlpha" operator="out" result="shadowBlurOuter1"/>
      <feColorMatrix values="0 0 0 0 0 0 0 0 0 0 0 0 0 0 0 0 0 0 0.04 0" in="shadowBlurOuter1"/>
    </filter>
    <path d="M28.289565,7.80439915 C28.9908201,7.36334045 29.9168484,7.57427131 30.3579071,8.27552642 C30.7730212,8.93553122 30.6105943,9.79464308 30.005408,10.2611448 L29.8867799,10.3438685 L24.0243494,14.0310802 C22.3072273,15.1110746 20.1418746,15.1550154 18.3881909,14.1625987 L18.1711868,14.0331489 L14.4238803,11.6799528 C13.6653692,11.2036305 12.7148614,11.1717804 11.9306629,11.5844404 L11.7652965,11.6796713 L5.88561307,15.3702005 C5.18395308,15.8106148 4.25811894,15.5988333 3.81770463,14.8971733 C3.40319705,14.2367874 3.56641307,13.3778251 4.17202772,12.9118796 L4.29073179,12.8292649 L10.1704152,9.13873567 C11.8840654,8.06312062 14.0428213,8.01852433 15.7933544,9.00485646 L16.0192996,9.13935495 L19.7666061,11.4925511 C20.5257724,11.9692849 21.4772036,12.0007487 22.2617115,11.5870697 L22.4271345,11.4916108 L28.289565,7.80439915 Z" id="1hn4hyp7j__2bt4lio17b"/>
    <path d="M26.289565,18.8043992 C26.9908201,18.3633404 27.9168484,18.5742713 28.3579071,19.2755264 C28.7730212,19.9355312 28.6105943,20.7946431 28.005408,21.2611448 L27.8867799,21.3438685 L22.0243494,25.0310802 C20.3072273,26.1110746 18.1418746,26.1550154 16.3881909,25.1625987 L16.1711868,25.0331489 L12.4238803,22.6799528 C11.6653692,22.2036305 10.7148614,22.1717804 9.93066289,22.5844404 L9.76529648,22.6796713 L3.88561307,26.3702005 C3.18395308,26.8106148 2.25811894,26.5988333 1.81770463,25.8971733 C1.40319705,25.2367874 1.56641307,24.3778251 2.17202772,23.9118796 L2.29073179,23.8292649 L8.1704152,20.1387357 C9.88406537,19.0631206 12.0428213,19.0185243 13.7933544,20.0048565 L14.0192996,20.1393549 L17.7666061,22.4925511 C18.5257724,22.9692849 19.4772036,23.0007487 20.2617115,22.5870697 L20.4271345,22.4916108 L26.289565,18.8043992 Z" id="1hn4hyp7j__1o8gycfupe"/>
    <linearGradient x1="80.8634187%" y1="47.2088377%" x2="17.088772%" y2="54.1475979%" id="1hn4hyp7j__c8yut2n53c">
      <stop stop-color="#FB0" stop-opacity=".6" offset="0%"/>
      <stop stop-color="#FFBD07" stop-opacity=".59324216" offset="24.8246053%"/>
      <stop stop-color="#FFEFD7" stop-opacity=".4" offset="100%"/>
    </linearGradient>
  </defs>
  <g transform="translate(2)" fill="none" fill-rule="evenodd">
    <rect fill="#FFF" width="32" height="32" rx="2"/>
    <rect fill="#3A84FF" x="10" y="4" width="12" height="24" rx="1"/>
    <g stroke-linecap="round">
      <use fill="#000" filter="url(#1hn4hyp7j__fmrnyqh8ka)" xlink:href="#1hn4hyp7j__2bt4lio17b"/>
      <path stroke-opacity=".8" stroke="#FFF" d="M28.0233625,7.38115425 C28.4908659,7.08711512 29.0332937,7.01040584 29.5323555,7.12408219 C30.0314172,7.23775855 30.4871129,7.54182054 30.781152,8.00932394 C31.0566249,8.44730821 31.1413051,8.9510503 31.0574717,9.42328159 C30.9714323,9.90793929 30.7076121,10.3592264 30.2905545,10.6724494 L30.2905545,10.6724494 L24.2905518,14.454325 C23.3554222,15.0424806 22.2984342,15.3489662 21.2362925,15.3737511 C20.1670801,15.3987009 19.0926544,15.1381559 18.1320418,14.5921406 L18.1320418,14.5921406 L14.1579771,12.1033857 C13.5562727,11.7255334 12.8035233,11.6972506 12.1792373,12.0187261 L12.1792373,12.0187261 L6.15142662,15.7936897 C5.68365329,16.0872993 5.14115525,16.1635102 4.64219815,16.0493754 C4.14324105,15.9352407 3.6878249,15.6307602 3.39421537,15.1629869 C3.11914494,14.7247497 3.03492757,14.22093 3.11919474,13.748776 C3.20567938,13.2641973 3.46991416,12.8131526 3.88725969,12.5003129 L3.88725969,12.5003129 L9.90460165,8.7152464 C10.8377845,8.12951106 11.8919616,7.82404325 12.9513409,7.79881999 C14.0180569,7.77342205 15.0900381,8.03219566 16.049095,8.57506006 L16.049095,8.57506006 L20.0325093,11.0691182 C20.6347336,11.447297 21.3882138,11.4752789 22.0127535,11.153003 L22.0127535,11.153003 Z" fill="url(#1hn4hyp7j__c8yut2n53c)"/>
    </g>
    <g stroke-linecap="round">
      <use fill="#000" filter="url(#1hn4hyp7j__txf6m2iimd)" xlink:href="#1hn4hyp7j__1o8gycfupe"/>
      <path stroke-opacity=".8" stroke="#FFF" d="M26.0233625,18.3811543 C26.4908659,18.0871151 27.0332937,18.0104058 27.5323555,18.1240822 C28.0314172,18.2377585 28.4871129,18.5418205 28.781152,19.0093239 C29.0566249,19.4473082 29.1413051,19.9510503 29.0574717,20.4232816 C28.9714323,20.9079393 28.7076121,21.3592264 28.2905545,21.6724494 L28.2905545,21.6724494 L22.2905518,25.454325 C21.3554222,26.0424806 20.2984342,26.3489662 19.2362925,26.3737511 C18.1670801,26.3987009 17.0926544,26.1381559 16.1320418,25.5921406 L16.1320418,25.5921406 L12.1579771,23.1033857 C11.5562727,22.7255334 10.8035233,22.6972506 10.1792373,23.0187261 L10.1792373,23.0187261 L4.15142662,26.7936897 C3.68365329,27.0872993 3.14115525,27.1635102 2.64219815,27.0493754 C2.14324105,26.9352407 1.6878249,26.6307602 1.39421537,26.1629869 C1.11914494,25.7247497 1.03492757,25.22093 1.11919474,24.748776 C1.20567938,24.2641973 1.46991416,23.8131526 1.88725969,23.5003129 L1.88725969,23.5003129 L7.90460165,19.7152464 C8.83778446,19.1295111 9.89196159,18.8240433 10.9513409,18.79882 C12.0180569,18.773422 13.0900381,19.0321957 14.049095,19.5750601 L14.049095,19.5750601 L18.0325093,22.0691182 C18.6347336,22.447297 19.3882138,22.4752789 20.0127535,22.153003 L20.0127535,22.153003 Z" fill="url(#1hn4hyp7j__c8yut2n53c)"/>
    </g>
  </g>
</svg>
