<?xml version="1.0" encoding="utf-8"?>
<!-- Generator: Adobe Illustrator 24.2.1, SVG Export Plug-In . SVG Version: 6.00 Build 0)  -->
<svg version="1.1" id="图层_1" xmlns="http://www.w3.org/2000/svg" xmlns:xlink="http://www.w3.org/1999/xlink" x="0px" y="0px"
	 viewBox="0 0 20 20" style="enable-background:new 0 0 20 20;" xml:space="preserve">
<style type="text/css">
	.st0{fill:#979BA5;}
</style>
<path id="path-1_1_" class="st0" d="M15.8,15.8c0,0.3-0.2,0.4-0.4,0.4H4.5c-0.2,0-0.4-0.2-0.4-0.4V9.4l-2.6,2.5h1.3v4.3
	c0,0.7,0.6,1.2,1.3,1.2h11.7c0.7,0,1.2-0.6,1.2-1.2v-5.5l-1.2,1.2V15.8z M4.1,4.2c0-0.2,0.2-0.4,0.4-0.4h10.9c0.2,0,0.4,0.2,0.4,0.4
	V10l2.6-2.7H17V3.8c0-0.7-0.6-1.2-1.2-1.2H4.1c-0.7,0-1.3,0.6-1.3,1.2v4.9l1.3-1.3V4.2z M10.5,13.8v-2.4h1.7v0.5h1.1V7.6h-2.8V6.2
	H9.3v1.3H6.5v4.3h1.1v-0.5h1.7v2.4L10.5,13.8L10.5,13.8z M12.2,10.3h-1.7V8.6h1.7V10.3z M9.3,10.3H7.6V8.6h1.7V10.3z"/>
</svg>
