<svg t="1699949250745" class="icon" fill="#FFDDDD" viewBox="0 0 1024 1024" version="1.1" xmlns="http://www.w3.org/2000/svg" p-id="13454" width="200" height="200"><path d="M757.568 140.288l0.512-0.256h0.256L512 0 265.792 140.032H265.6l0.832 0.384L64 256v512l448 256 448-256V256l-202.432-115.712zM475.52 920.128l-177.856-101.696v-171.776L136.704 556.032V340.8L475.52 534.4v385.728zM171.712 277.568L339.2 181.76l172.608 98.112 172.864-98.304 168 96-340.352 194.432-340.48-194.432z m715.584 279.104l-160 89.984v171.2l-178.88 102.144V534.656l338.88-193.6v215.68z" p-id="13455"></path></svg>