<?xml version="1.0" encoding="utf-8"?>
<!-- Generator: Adobe Illustrator 24.2.1, SVG Export Plug-In . SVG Version: 6.00 Build 0)  -->
<svg version="1.1" id="图层_1" xmlns="http://www.w3.org/2000/svg" xmlns:xlink="http://www.w3.org/1999/xlink" x="0px" y="0px"
	 viewBox="0 0 20 20" style="enable-background:new 0 0 20 20;" xml:space="preserve">
<style type="text/css">
	.st0{fill:#979BA5;}
</style>
<polygon class="st0" points="8.7,8.3 8.7,7.2 5.5,7.2 5.5,12.8 8.8,12.8 8.8,11.7 6.8,11.7 6.8,10.5 8.6,10.5 8.6,9.4 6.8,9.4 
	6.8,8.3 "/>
<polygon class="st0" points="14.4,7.2 14.4,12.8 13.1,12.8 10.8,9.2 10.8,9.1 10.8,12.9 9.5,12.9 9.5,7.2 10.9,7.2 13.1,10.8 
	13.2,10.8 13.2,7.2 "/>
<path class="st0" d="M15.8,15.8c0,0.3-0.2,0.4-0.4,0.4H4.5c-0.2,0-0.4-0.2-0.4-0.4V9.4l-2.6,2.5h1.3v4.3c0,0.7,0.6,1.2,1.3,1.2h11.7
	c0.7,0,1.2-0.6,1.2-1.2v-5.5l-1.2,1.2V15.8z"/>
<path class="st0" d="M4.1,4.2c0-0.2,0.2-0.4,0.4-0.4h10.9c0.2,0,0.4,0.2,0.4,0.4V10l2.6-2.7H17V3.8c0-0.7-0.6-1.2-1.2-1.2H4.1
	c-0.7,0-1.3,0.6-1.3,1.2v4.9l1.3-1.3V4.2z"/>
</svg>
