<svg xmlns="http://www.w3.org/2000/svg" viewBox="0 0 24 24" class="design-iconfont">
  <g fill="none" fill-rule="evenodd">
    <rect stroke="#DCDEE5" fill="#FFF" x=".5" y=".5" width="23" height="23" rx="2"/>
    <path d="M16.6666719,8 C16.2984792,8 16,8.29847917 16,8.66667187 L16,11.3333281 C16,11.7015208 15.7015208,12 15.3333281,12 L8.94,12 L9.80667188,11.14 C10.0680881,10.8785838 10.0680881,10.4547443 9.80667188,10.1933281 C9.54525566,9.93191191 9.12141622,9.93191191 8.86,10.1933281 L6.86,12.1933281 C6.79930636,12.2567307 6.75172971,12.331494 6.72,12.4133281 C6.65332046,12.5756373 6.65332046,12.7576908 6.72,12.92 C6.75172971,13.0018341 6.79930636,13.0765974 6.86,13.14 L8.86,15.14 C8.98517863,15.2662087 9.15557673,15.3371993 9.33333594,15.3371993 C9.51109515,15.3371993 9.68149325,15.2662087 9.80667188,15.14 C9.93288062,15.0148214 10.0038712,14.8444233 10.0038712,14.6666641 C10.0038712,14.4889049 9.93288062,14.3185068 9.80667188,14.1933281 L8.94,13.3333281 L15.3333281,13.3333281 C16.4378976,13.3333281 17.3333281,12.4378976 17.3333281,11.3333281 L17.3333281,8.66667187 C17.3333281,8.29848527 17.0348585,8 16.6666719,8 Z" fill="#63656E"/>
  </g>
</svg>
