<svg xmlns="http://www.w3.org/2000/svg" viewBox="0 0 16 16" class="design-iconfont">
  <path d="M9.4625,5.9421875 C9.509375,6.0203125 9.5984375,6.0625 9.6890625,6.0515625 L10.0828125,6.003125 C10.2296875,5.9859375 10.321875,5.8359375 10.275,5.696875 L9.83125,4.403125 C9.7984375,4.309375 9.7109375,4.2453125 9.6109375,4.2453125 L4.8265625,4.2453125 C4.7296875,4.2453125 4.64375,4.3046875 4.609375,4.39375 L4.109375,5.6890625 C4.0546875,5.8328125 4.15,5.9890625 4.303125,6.0046875 L4.753125,6.05 C4.84375,6.059375 4.93125,6.015625 4.978125,5.9359375 L5.003125,5.8921875 C5.31875,5.3578125 5.490625,5.2234375 5.55,5.190625 C5.6109375,5.15625 5.809375,5.078125 6.3578125,5.078125 C6.409375,5.078125 6.4515625,5.078125 6.4875,5.0796875 L6.4875,9.21875 C6.4578125,9.221875 6.4171875,9.2265625 6.3578125,9.2265625 L5.834375,9.2265625 C5.70625,9.2265625 5.6015625,9.33125 5.6015625,9.459375 L5.6015625,9.8 C5.6015625,9.928125 5.70625,10.0328125 5.834375,10.0328125 L8.5515625,10.0328125 C8.6796875,10.0328125 8.784375,9.928125 8.784375,9.8 L8.784375,9.459375 C8.784375,9.33125 8.6796875,9.2265625 8.5515625,9.2265625 L8.028125,9.2265625 C7.9703125,9.2265625 7.9265625,9.221875 7.8984375,9.2140625 L7.8984375,5.084375 C7.965625,5.0828125 8.0546875,5.08125 8.1765625,5.08125 C8.74375,5.08125 8.884375,5.1734375 8.8984375,5.184375 C8.9515625,5.2234375 9.1078125,5.371875 9.4359375,5.9 L9.4625,5.9421875 Z M14,2 L2.5,2 C2.225,2 2,2.225 2,2.5 L2,14 C2,14.275 2.225,14.5 2.5,14.5 L9.0953125,14.5 C9.2328125,14.5 9.3453125,14.3875 9.3453125,14.25 L9.3453125,13.625 C9.3453125,13.4875 9.2328125,13.375 9.0953125,13.375 L3.125,13.375 L3.125,3.125 L13.375,3.125 L13.375,9.2125 C13.375,9.35 13.4875,9.4625 13.625,9.4625 L14.25,9.4625 C14.3875,9.4625 14.5,9.35 14.5,9.2125 L14.5,2.5 C14.5,2.225 14.275,2 14,2 Z M14.24375,11.240625 L12.715625,11.240625 L12.715625,9.7125 C12.715625,9.575 12.603125,9.4625 12.465625,9.4625 L11.53125,9.4625 C11.39375,9.4625 11.28125,9.575 11.28125,9.7125 L11.28125,11.240625 L9.753125,11.240625 C9.615625,11.240625 9.503125,11.353125 9.503125,11.490625 L9.503125,12.425 C9.503125,12.5625 9.615625,12.675 9.753125,12.675 L11.28125,12.675 L11.28125,14.203125 C11.28125,14.340625 11.39375,14.453125 11.53125,14.453125 L12.465625,14.453125 C12.603125,14.453125 12.715625,14.340625 12.715625,14.203125 L12.715625,12.675 L14.24375,12.675 C14.38125,12.675 14.49375,12.5625 14.49375,12.425 L14.49375,11.490625 C14.49375,11.353125 14.38125,11.240625 14.24375,11.240625 L14.24375,11.240625 Z" fill="#63656E" fill-rule="evenodd"/>
</svg>
