<?xml version="1.0" encoding="UTF-8"?>
<svg width="18px" height="18px" viewBox="0 0 18 18" version="1.1" xmlns="http://www.w3.org/2000/svg" xmlns:xlink="http://www.w3.org/1999/xlink">
    <title>icon/总告警数</title>
    <g id="首页" stroke="none" stroke-width="1" fill="none" fill-rule="evenodd">
        <g transform="translate(-500.000000, -191.000000)" id="编组-4">
            <g transform="translate(117.000000, 122.000000)">
                <g id="编组-12备份" transform="translate(51.000000, 69.000000)">
                    <g id="icon/总告警数" transform="translate(332.000000, 0.000000)">
                        <rect id="矩形" x="0" y="0" width="18" height="18"></rect>
                        <path d="M9.62981818,2.72727273 L16.5578182,14.7272727 C16.6877313,14.9522888 16.6877331,15.2295197 16.5578228,15.4545375 C16.4279125,15.6795552 16.1878262,15.8181818 15.928,15.8181818 L2.072,15.8181818 C1.81217378,15.8181818 1.57208745,15.6795552 1.4421772,15.4545375 C1.31226695,15.2295197 1.31226871,14.9522888 1.44218182,14.7272727 L8.37018182,2.72727273 C8.50010141,2.50227179 8.74018368,2.36366836 9,2.36366836 C9.25981632,2.36366836 9.49989859,2.50227179 9.62981818,2.72727273 Z M3.33163636,14.3636364 L14.6683636,14.3636364 L9,4.54545455 L3.33163636,14.3636364 Z M8.27272727,12.1818182 L9.72727273,12.1818182 L9.72727273,13.6363636 L8.27272727,13.6363636 L8.27272727,12.1818182 Z M8.27272727,7.09090909 L9.72727273,7.09090909 L9.72727273,10.7272727 L8.27272727,10.7272727 L8.27272727,7.09090909 Z" id="形状" fill="#3A84FF" fill-rule="nonzero"></path>
                    </g>
                </g>
            </g>
        </g>
    </g>
</svg>