<?xml version="1.0" encoding="utf-8"?>
<!-- Generator: Adobe Illustrator 22.1.0, SVG Export Plug-In . SVG Version: 6.00 Build 0)  -->
<svg version="1.1" id="图层_2" xmlns="http://www.w3.org/2000/svg" xmlns:xlink="http://www.w3.org/1999/xlink" x="0px" y="0px"
	 viewBox="0 0 64 64" style="enable-background:new 0 0 64 64;" xml:space="preserve">
<style type="text/css">
	.st0{fill:#737987;}
	.st1{fill:#FFFFFF;}
</style>
<g id="AIX">
	<path fill="#737987" d="M58,51.1H6c-1.1,0-2-0.9-2-2V8c0-1.1,0.9-2,2-2h52c1.1,0,2,0.9,2,2v41.1C60,50.2,59.1,51.1,58,51.1z"/>
			<path class="st1" d="M15.7,20.9h5.8l1.9,4.8c0,0,22.4-19.5,35-4.8c-8.3-5-14.7-4.4-24,0.5v16.3h-4.8v-13h-1l-4.3,3.8l2.9,9.1h-5.3l-1-5.3l-3.8,5.3h-6.7L15.7,20.9z M18.6,25.2l-1.9,7.2l3.4-3.4L18.6,25.2z M36.3,21.4h5.8l2.4,3.8l2.4-3.8h5.8l-5.3,7.2V30l5.3,7.7h-5.8L44,32.9l-2.9,4.8h-5.8l5.8-8.2v-1L36.3,21.4z"/>
	<path class="st0" d="M45,54H19c-1.1,0-2,0.9-2,2l0,0c0,1.1,0.9,2,2,2h26c1.1,0,2-0.9,2-2l0,0C47,54.9,46.1,54,45,54z"/>
</g>
</svg>
