<?xml version="1.0" encoding="utf-8"?>
<!-- Generator: Adobe Illustrator 22.1.0, SVG Export Plug-In . SVG Version: 6.00 Build 0)  -->
<svg version="1.1" id="图层_2" xmlns="http://www.w3.org/2000/svg" xmlns:xlink="http://www.w3.org/1999/xlink" x="0px" y="0px"
	 viewBox="0 0 64 64" style="enable-background:new 0 0 64 64;" xml:space="preserve">
<style type="text/css">
	.st0{fill:#737987;}
</style>
<g id="Apache">
	<path class="st0" d="M10.4,18c0.7-0.4,1.5-0.1,1.9,0.6l0,0c0.1,0.2,8.2,15.7,22.3,24.2c9.8,5.9,19.8,10.5,25.2,13
		c0.5-1.9-1-2.7-5.2-7c-2.5-2.5-6.1-7-9.9-11.7c-3.9,1.3-8.6,1.4-9.6,1.4H35c-0.8,0-1.4-0.6-1.4-1.4c0-0.8,0.6-1.4,1.4-1.4l0,0l0,0
		c1.6,0,3.3-0.2,4.9-0.4c0.9-0.1,1.9-0.3,2.8-0.6c-1-1.1-1.9-2.3-2.9-3.4c-2,0.2-4,0.3-5.8,0.3c-3.4,0-6-0.2-6.3-0.3
		c-0.8-0.1-1.3-0.7-1.3-1.5l0,0c0.1-0.8,0.8-1.3,1.5-1.3c0.1,0,4.8,0.4,9.5,0.2c-1.6-1.7-3.1-3.2-4.5-4.3c-6.7-5.4-16.5-9.6-23-9.3
		L6.4,5.8C6.1,5.2,5.5,4.9,4.8,5.1C4.2,5.3,3.9,6,4.1,6.6c0,0,0,0,0,0.1l3.7,9.5c0,0-10.2,14.8,9.8,29.9c17.5,13.2,35.4,14,40.4,12
		c-5.7-2.5-15.3-7.1-24.8-12.8C18.3,36.4,10.1,20.6,9.8,19.9C9.5,19.2,9.8,18.4,10.4,18z"/>
</g>
</svg>
