<?xml version="1.0" encoding="utf-8"?>
<!-- Generator: Adobe Illustrator 22.1.0, SVG Export Plug-In . SVG Version: 6.00 Build 0)  -->
<svg version="1.1" id="图层_2" xmlns="http://www.w3.org/2000/svg" xmlns:xlink="http://www.w3.org/1999/xlink" x="0px" y="0px"
	 viewBox="0 0 64 64" style="enable-background:new 0 0 64 64;" xml:space="preserve">
<style type="text/css">
	.st0{fill:#737987;}
</style>
<g id="Ceph">
	<path class="st0" d="M31.9,4C28.1,4,24.5,4.7,21,6.2c-3.3,1.4-6.3,3.4-8.9,6c-2.5,2.5-4.6,5.6-6,8.9C4.7,24.5,4,28.2,4,31.9
		c0,2.2,0.2,4.3,0.7,6.4c0.5,2,1.2,4,2.1,5.9c1.7,3.4,4.4,6.9,7.5,9.4c2-1.1,3.1-2.3,3.4-3.6c0.2-1.2-0.3-2.6-1.7-4.2
		c-3.3-3.8-5.2-8.8-5.2-13.9c0-11.6,9.5-21.1,21.1-21.1h0.2c11.6,0,21.1,9.5,21.1,21.1c0,5.1-1.8,10-5.2,13.9c-1.4,1.6-2,3-1.7,4.3
		s1.4,2.5,3.4,3.6c3.1-2.6,5.8-6,7.5-9.4c0.9-1.9,1.6-3.8,2.1-5.9c0.5-2.1,0.7-4.2,0.7-6.4c0-3.8-0.7-7.4-2.2-10.9
		c-1.4-3.3-3.4-6.3-6-8.9c-2.5-2.5-5.6-4.6-8.9-6C39.5,4.7,35.8,4,32.1,4H31.9z"/>
	<path class="st0" d="M31.9,15.3c-0.8,0-1.6,0.1-2.3,0.2c-2.3,0.3-4.5,1.1-6.4,2.3c-1.9,1.2-3.5,2.7-4.8,4.5c-1.3,1.9-2.2,4-2.7,6.2
		c-0.5,2.4-0.5,4.9,0.1,7.3c0.5,2.2,1.5,4.3,2.8,6.1c0.4,0.5,0.8,0.9,1.2,1.4l0.4,0.5l0.1,0.1c1.5,1.7,2.2,3.6,2.2,5.5
		c0,2.9-1.6,5.6-4.2,7c1.5,0.8,3,1.5,4.6,2c0.5,0.2,1.1,0.3,1.6,0.5c0.3-0.2,1.4-1,2.5-2.5c1-1.4,2.3-3.8,2.2-7
		c-0.1-1.9-0.4-3.8-1.1-5.5s-1.7-3.3-3-4.7l-0.3-0.3c-0.5-0.6-1-1.2-1.4-1.8c-0.5-0.8-0.9-1.7-1.1-2.6c-0.3-1.4-0.4-2.9-0.1-4.3
		c0.3-1.3,0.8-2.6,1.6-3.7c0.7-1.1,1.7-2,2.8-2.7c1.1-0.7,2.5-1.2,3.8-1.4c0.4-0.1,0.9-0.1,1.4-0.1H32c0.5,0,0.9,0.1,1.4,0.1
		c1.3,0.2,2.7,0.7,3.8,1.4c1.1,0.7,2.1,1.6,2.8,2.7c0.8,1.1,1.3,2.3,1.6,3.7c0.3,1.4,0.3,2.9-0.1,4.3c-0.2,0.9-0.6,1.8-1.1,2.6
		c-0.4,0.7-0.9,1.3-1.4,1.8L38.9,39c-1.3,1.4-2.3,3-3,4.7c-0.7,1.8-1.1,3.6-1.1,5.5c-0.1,3.2,1.2,5.5,2.2,7c1.1,1.5,2.2,2.3,2.5,2.5
		c0.5-0.1,1.1-0.3,1.6-0.5c1.6-0.5,3.2-1.2,4.6-2c-2.6-1.4-4.2-4.1-4.2-7c0-1.9,0.7-3.7,2.2-5.5c0-0.1,0.1-0.1,0.1-0.1l0.4-0.5
		c0.4-0.5,0.8-0.9,1.2-1.4c1.3-1.8,2.3-3.9,2.8-6.1c0.6-2.4,0.6-4.9,0.1-7.3c-0.5-2.2-1.4-4.3-2.7-6.2c-1.3-1.8-2.9-3.3-4.8-4.5
		c-2-1.2-4.2-2-6.4-2.3c-0.8-0.1-1.6-0.2-2.3-0.2h-0.2V15.3z"/>
	<path class="st0" d="M32,26.7c-3,0-5.5,2.5-5.5,5.5s2.5,5.5,5.5,5.5s5.5-2.5,5.5-5.5C37.5,29.1,35,26.7,32,26.7L32,26.7z"/>
</g>
</svg>
