<?xml version="1.0" encoding="utf-8"?>
<!-- Generator: Adobe Illustrator 22.1.0, SVG Export Plug-In . SVG Version: 6.00 Build 0)  -->
<svg version="1.1" id="图层_2" xmlns="http://www.w3.org/2000/svg" xmlns:xlink="http://www.w3.org/1999/xlink" x="0px" y="0px"
	 viewBox="0 0 64 64" style="enable-background:new 0 0 64 64;" xml:space="preserve">
<style type="text/css">
	.st0{fill:#737987;}
</style>
<g id="对号">
	<path id="path-1_2_" class="st0" d="M32,4c15.5,0,28,12.5,28,28S47.5,60,32,60S4,47.5,4,32S16.5,4,32,4z M32,8
		c-3.2,0-6.4,0.6-9.3,1.9c-2.9,1.2-5.4,2.9-7.6,5.1s-3.9,4.8-5.1,7.6c-1.4,3-2,6.2-2,9.4s0.6,6.4,1.9,9.3c1.2,2.9,2.9,5.4,5.1,7.6
		s4.8,3.9,7.6,5.1c3,1.3,6.1,1.9,9.3,1.9s6.4-0.6,9.3-1.9c2.9-1.2,5.4-2.9,7.6-5.1s3.9-4.8,5.1-7.6c1.3-3,1.9-6.1,1.9-9.3
		s-0.6-6.4-1.9-9.3c-1.2-2.9-2.9-5.4-5.1-7.6S44,11.2,41.2,10C38.4,8.6,35.2,8,32,8z"/>
	<polygon id="path-3_1_" class="st0" points="44,22 47,25 28,44 17,33 20,30 28,38 	"/>
</g>
</svg>
