<?xml version="1.0" encoding="utf-8"?>
<!-- Generator: Adobe Illustrator 22.1.0, SVG Export Plug-In . SVG Version: 6.00 Build 0)  -->
<svg version="1.1" id="图层_2" xmlns="http://www.w3.org/2000/svg" xmlns:xlink="http://www.w3.org/1999/xlink" x="0px" y="0px"
	 viewBox="0 0 64 64" style="enable-background:new 0 0 64 64;" xml:space="preserve">
<style type="text/css">
	.st0{fill:#737987;}
</style>
<g id="集群">
	<g>
		<path class="st0" d="M26,15.5h15v-4H26V6H8C6.9,6,6,6.9,6,8v13h20V15.5z"/>
		<path class="st0" d="M15.5,23h-4v15H6v18c0,1.1,0.9,2,2,2h13V38h-5.5V23z"/>
		<path class="st0" d="M38,48.5H23v4h15V58h18c1.1,0,2-0.9,2-2V43H38V48.5z"/>
		<path class="st0" d="M56,6H43v20h5.5v15h4V26H58V8C58,6.9,57.1,6,56,6z"/>
	</g>
</g>
</svg>
