<?xml version="1.0" encoding="utf-8"?>
<!-- Generator: Adobe Illustrator 22.1.0, SVG Export Plug-In . SVG Version: 6.00 Build 0)  -->
<svg version="1.1" id="图层_2" xmlns="http://www.w3.org/2000/svg" xmlns:xlink="http://www.w3.org/1999/xlink" x="0px" y="0px"
	 viewBox="0 0 64 64" style="enable-background:new 0 0 64 64;" xml:space="preserve">
<style type="text/css">
	.st0{fill:#737987;}
</style>
<g id="consul">
	<g>
		<path class="st0" d="M31,37.7c-3.3,0-5.8-2.5-5.8-5.8s2.5-5.8,5.8-5.8s5.8,2.5,5.8,5.8S34.2,37.7,31,37.7"/>
		<path class="st0" d="M42.3,34.6c-1.5,0-2.7-1.2-2.7-2.7s1.2-2.7,2.7-2.7s2.7,1.2,2.7,2.7C45.1,33.5,43.8,34.6,42.3,34.6
			 M52.2,37.2c-0.4,1.5-1.8,2.3-3.3,1.9c-1.5-0.4-2.3-1.8-1.9-3.3c0.4-1.5,1.8-2.3,3.3-1.9c1.4,0.4,2.3,1.6,2,3.1
			C52.3,37,52.3,37.1,52.2,37.2 M50.3,30.3c-1.5,0.4-2.9-0.5-3.3-2c-0.4-1.5,0.5-2.9,2-3.3s2.9,0.5,3.3,2c0.1,0.4,0.1,0.7,0,1.1
			C52.2,29.1,51.4,30,50.3,30.3 M59.9,36.8c-0.3,1.5-1.6,2.5-3.1,2.2s-2.5-1.6-2.2-3.1s1.6-2.5,3.1-2.2c1.4,0.3,2.4,1.5,2.3,2.9
			C59.9,36.7,59.9,36.7,59.9,36.8 M57.7,30.1c-1.5,0.3-2.8-0.7-3.1-2.2s0.7-2.8,2.2-3.1c1.5-0.3,2.8,0.7,3.1,2.2
			c0,0.3,0.1,0.5,0,0.7C59.8,28.9,58.9,29.9,57.7,30.1 M55.8,46.2c-0.7,1.3-2.4,1.7-3.6,1c-1.3-0.7-1.7-2.4-1-3.6
			c0.7-1.3,2.4-1.7,3.6-1c0.9,0.5,1.5,1.5,1.4,2.5C56.1,45.5,56,45.8,55.8,46.2 M54.8,21.4c-1.3,0.7-2.9,0.3-3.6-1
			c-0.7-1.3-0.3-2.9,1-3.6s2.9-0.3,3.6,1c0.3,0.5,0.4,1,0.4,1.5C56.1,20.2,55.6,21,54.8,21.4"/>
		<path class="st0" d="M31,59.1c-7.3,0-14-2.8-19.2-7.9C6.8,46,4,39.2,4,32c0-7.3,2.8-14,7.9-19.2C17,7.7,23.8,4.9,31,4.9
			c6,0,11.7,1.9,16.5,5.6l-3.4,4.4c-3.8-2.9-8.4-4.5-13.1-4.5c-5.7,0-11.2,2.3-15.3,6.4s-6.3,9.5-6.3,15.3c0,5.7,2.3,11.2,6.4,15.3
			s9.5,6.3,15.3,6.3c4.8,0,9.4-1.5,13.1-4.5l3.3,4.4C42.8,57.1,37.1,59.1,31,59.1L31,59.1z"/>
	</g>
</g>
</svg>
