<?xml version="1.0" encoding="utf-8"?>
<!-- Generator: Adobe Illustrator 22.1.0, SVG Export Plug-In . SVG Version: 6.00 Build 0)  -->
<svg version="1.1" id="图层_2" xmlns="http://www.w3.org/2000/svg" xmlns:xlink="http://www.w3.org/1999/xlink" x="0px" y="0px"
	 viewBox="0 0 64 64" style="enable-background:new 0 0 64 64;" xml:space="preserve">
<style type="text/css">
	.st0{fill:#737987;}
</style>
<g id="自定义">
	<path class="st0" d="M30,52c-3.3,0-6-2.7-6-6c0-3,2.2-5.5,5.1-5.9c0.7-0.1,1.3-0.1,1.9,0V33h-9.3c-0.4,0-0.6-0.4-0.4-0.8
		c0.6-0.9,0.9-2,0.6-3.2c-0.3-1.4-1.5-2.6-2.9-2.9c-2.7-0.6-5,1.4-5,3.9c0,0.8,0.3,1.6,0.7,2.2c0.2,0.3,0,0.8-0.4,0.8H6v23
		c0,1.1,0.9,2,2,2h23v-6.1C30.7,52,30.3,52,30,52z"/>
	<path class="st0" d="M12,30c0-3.3,2.7-6,6-6c3,0,5.5,2.2,5.9,5.1c0.1,0.7,0.1,1.3,0,1.9H31v-9.3c0-0.4,0.4-0.6,0.8-0.4
		c0.9,0.6,2,0.9,3.2,0.6c1.4-0.3,2.6-1.5,2.9-2.9c0.6-2.6-1.4-4.9-3.9-4.9c-0.8,0-1.6,0.3-2.2,0.7c-0.3,0.2-0.8,0-0.8-0.4V6H8
		C6.9,6,6,6.9,6,8v23h6.1C12,30.7,12,30.3,12,30z"/>
	<path class="st0" d="M52,34c0,3.3-2.7,6-6,6c-3,0-5.5-2.2-5.9-5.1c-0.1-0.7-0.1-1.3,0-1.9H33v9.3c0,0.4-0.4,0.6-0.8,0.4
		c-0.9-0.6-2-0.9-3.2-0.6c-1.4,0.3-2.6,1.5-2.9,2.9c-0.6,2.7,1.4,5,3.9,5c0.8,0,1.6-0.3,2.2-0.7c0.3-0.2,0.8,0,0.8,0.4V58h23
		c1.1,0,2-0.9,2-2V33h-6.1C52,33.3,52,33.7,52,34z"/>
</g>
</svg>
