<?xml version="1.0" encoding="utf-8"?>
<!-- Generator: Adobe Illustrator 22.1.0, SVG Export Plug-In . SVG Version: 6.00 Build 0)  -->
<svg version="1.1" id="图层_2" xmlns="http://www.w3.org/2000/svg" xmlns:xlink="http://www.w3.org/1999/xlink" x="0px" y="0px"
	 viewBox="0 0 64 64" style="enable-background:new 0 0 64 64;" xml:space="preserve">
<style type="text/css">
	.st0{fill:#737987;}
</style>
<g id="数据库">
	<path class="st0" d="M56,6H8C6.9,6,6,6.9,6,8v11c0,1.1,0.9,2,2,2h48c1.1,0,2-0.9,2-2V8C58,6.9,57.1,6,56,6z M14,17.5h-3v-8h3V17.5z
		 M20,17.5h-3v-8h3V17.5z M26,17.5h-3v-8h3V17.5z"/>
	<path class="st0" d="M8,39.5h48c1.1,0,2-0.9,2-2v-11c0-1.1-0.9-2-2-2H8c-1.1,0-2,0.9-2,2v11C6,38.6,6.9,39.5,8,39.5z M50,28h3v8h-3
		V28z M44,28h3v8h-3V28z M38,28h3v8h-3V28z"/>
	<path class="st0" d="M56,43H8c-1.1,0-2,0.9-2,2v11c0,1.1,0.9,2,2,2h48c1.1,0,2-0.9,2-2V45C58,43.9,57.1,43,56,43z M14,54.5h-3v-8h3
		V54.5z M20,54.5h-3v-8h3V54.5z M26,54.5h-3v-8h3V54.5z"/>
</g>
</svg>
