<?xml version="1.0" encoding="utf-8"?>
<!-- Generator: Adobe Illustrator 22.1.0, SVG Export Plug-In . SVG Version: 6.00 Build 0)  -->
<svg version="1.1" id="图层_2" xmlns="http://www.w3.org/2000/svg" xmlns:xlink="http://www.w3.org/1999/xlink" x="0px" y="0px"
	 viewBox="0 0 64 64" style="enable-background:new 0 0 64 64;" xml:space="preserve">
<style type="text/css">
	.st0{fill:#737987;}
</style>
<g id="其他">
	<g id="应用_2_">

			<path class="st0" d="M27.1,34.8h-19C7,34.8,6,35.7,6,36.9V56c0,1.1,0.9,2,2.1,2h19.1c1.1,0,2.1-0.9,2.1-2.1v-19
				C29.2,35.7,28.3,34.8,27.1,34.8L27.1,34.8z"/>
		<g>
			<path class="st0" d="M53.9,34.8h-19c-1.1,0-2.1,0.9-2.1,2.1V56c0,1.1,0.9,2.1,2.1,2.1H54c1.1,0,2.1-0.9,2.1-2.1V36.9
				C56,35.7,55.1,34.8,53.9,34.8L53.9,34.8z"/>
		</g>
		<g>
			<path class="st0" d="M44.9,4.4c-0.5,0-1.1,0.2-1.5,0.6L30.9,17.6c-0.8,0.8-0.8,2.1,0,2.9l12.6,12.6c0.4,0.4,0.9,0.6,1.5,0.6
				s1.1-0.2,1.5-0.6L59,20.5c0.8-0.8,0.8-2.1,0-2.9L46.4,5C46,4.6,45.5,4.4,44.9,4.4L44.9,4.4z"/>
		</g>
		<g>
			<path class="st0" d="M27.1,8h-19C6.9,8,6,8.9,6,10.1v19.1c0,1.1,0.9,2.1,2.1,2.1h19.1c1.1,0,2.1-0.9,2.1-2.1V10.1
				C29.2,8.9,28.3,8,27.1,8L27.1,8z"/>
		</g>
	</g>
</g>
</svg>
