<?xml version="1.0" encoding="utf-8"?>
<!-- Generator: Adobe Illustrator 22.1.0, SVG Export Plug-In . SVG Version: 6.00 Build 0)  -->
<svg version="1.1" id="图层_2" xmlns="http://www.w3.org/2000/svg" xmlns:xlink="http://www.w3.org/1999/xlink" x="0px" y="0px"
	 viewBox="0 0 64 64" style="enable-background:new 0 0 64 64;" xml:space="preserve">
<style type="text/css">
	.st0{fill:#737987;}
</style>
<g id="图层_26_1_">
	<path class="st0" d="M24.2,28.2c11.1,0,20.2-3.3,20.2-7.4v-5.9c0-4.1-9-7.4-20.2-7.4S4,10.7,4,14.8v5.9C4,24.9,13,28.2,24.2,28.2z"
		/>
	<path class="st0" d="M33.4,48.9c0-0.6,0.1-1.2,0.2-1.8c-0.9-0.3-1.7-0.8-2.4-1.5c0,0,0,0-0.1,0c-2.3,0.3-5.3,0.4-7,0.4
		C13,46.1,4,42.7,4,38.6v8.9c0,4.1,9,7.4,20.2,7.4c6.4-0.1,9.3-0.6,10.7-0.9C34,52.6,33.4,50.8,33.4,48.9z"/>
	<path class="st0" d="M29.2,40.9c0-2.8,1.8-5.3,4.4-6.3c-0.2-0.6-0.3-1.2-0.3-1.8c0-0.3,0-0.7,0.1-1c-2.8,0.5-5.9,0.8-9.2,0.8
		C13,32.7,4,29.4,4,25.2v8.9c0,4.1,9,7.4,20.2,7.4c1.9,0,3.6,0,5-0.2C29.2,41.2,29.2,41.1,29.2,40.9z"/>
	<path class="st0" d="M42.8,39.6l6.6,3l6.7-5.9c0.1-0.5,0.1-1,0.1-1.5c0-4.1-3.4-7.5-7.5-7.5c-2.5,0-4.8,1.2-6.2,3.3l-1.1,5.8
		L42.8,39.6z"/>
	<path class="st0" d="M35.9,46.6c-0.1,0.5-0.1,1-0.1,1.5c0,4.1,3.4,7.5,7.5,7.5c2.5,0,4.8-1.2,6.2-3.3l1.1-5.8l-1.5-2.8l-6.7-3
		L35.9,46.6z"/>
	<path class="st0" d="M35.8,35.1l4.6,1.1l1-5.2c-0.6-0.5-1.4-0.7-2.2-0.7c-2,0-3.6,1.6-3.6,3.6C35.6,34.3,35.7,34.7,35.8,35.1"/>
	<path class="st0" d="M35.5,36.2c-2,0.7-3.5,2.6-3.5,4.8c0,2.1,1.3,4,3.2,4.7l6.4-5.8l-1.2-2.5L35.5,36.2z"/>
	<path class="st0" d="M50.6,52.3c0.6,0.5,1.4,0.7,2.2,0.7c2,0,3.6-1.6,3.6-3.6c0-0.4-0.1-0.9-0.2-1.2l-4.5-1.1L50.6,52.3z"/>
	<path class="st0" d="M51.5,46l5,1.2c2-0.7,3.5-2.6,3.5-4.8c0-2.1-1.3-4-3.2-4.7l-6.5,5.7L51.5,46z"/>
</g>
</svg>
