<?xml version="1.0" encoding="utf-8"?>
<!-- Generator: Adobe Illustrator 22.1.0, SVG Export Plug-In . SVG Version: 6.00 Build 0)  -->
<svg version="1.1" id="图层_2" xmlns="http://www.w3.org/2000/svg" xmlns:xlink="http://www.w3.org/1999/xlink" x="0px" y="0px"
	 viewBox="0 0 64 64" style="enable-background:new 0 0 64 64;" xml:space="preserve">
<style type="text/css">
	.st0{fill:#737987;}
</style>
<g id="Hadoop">
	<path class="st0" d="M12.2,45.5c0,0-2.4-3.8-3.8-7.7c-0.2,1.4-2.7,2.8-2.8,4.2s1,4.5,5.6,5.2C11.5,46.6,12.2,45.5,12.2,45.5z"/>
	<path class="st0" d="M34.5,49.4c0.7,0.3,1.7,0.3,2.8,0.3c2.1,0,3.5-0.3,3.8-1s-0.7-8.4-1.7-10.1C39,40,35.7,48,34.5,49.4z"/>
	<path class="st0" d="M60,24.6c0-3.5-1.6-7.4-3.3-7.3s-3.3,2.6-3.8,2.4s-0.7-1.5-1.2-2.1s-3-1.6-4.2-2.8C46,13.4,43.7,10.2,37,11
		s-9.1,3.8-9.4,4.9c0,0,4.8-0.2,5.2,0.3c-1.8-0.2-5.5,0.3-6.3,1c-0.7,0.7-8.7,8.7-8.7,11.2c0,1.4,0.7,2.1,1.4,2.8c0.3,0.3,1,1,1,1.7
		c1-2.1,3.5-3.8,3.5-3.8s-4.8,5.2-3.8,7c0.5,0.9,1.4,2.1,3.5,2.1c1,0,2.4-0.7,3.8-1.4c1-0.7,5.4-0.7,5.2-5.2c0-1-0.7-9.4-0.7-9.4
		s1.1,7,1.4,9.4s-0.3,3.4-1,4.2s-3.5,1-4.9,2.1c-1.4,0.7-2.8,1.4-4.2,1.4c-2.8,0-4.9-3.7-4.1-4.7s0-1.9-0.7-2.6
		c-0.7-0.7-1.4-1.7-1.4-3.5c0-2.1,3.5-6.6,6.3-9.4c-1,0-6.6,0-10.8,4.5c-1,1.4-2.1,2.4-2.8,3.5c-0.3,0.7-1.7,1.4-2.1,1.4
		c0,0,0.3-0.3,0.3-1C8,25.6,8,23.9,8.3,23.9L9,22.5l-1,0.3c0,0-3.1,1.4-3.8,3.5c-0.3,1,0,1.7,0.3,2.1l0.3,0.3V29c0,0.3,0,1.4,1,1.7
		C6.1,31,6.5,31,7.2,31H8c-0.9,5.5,4.5,13.6,4.9,14c0,0.7-2.6,3.6-1.7,4.9s6.3,2.8,7.7,2.4s2.2-4.3,1.7-7c0,0,3.2,0.2,5.6-0.3
		c-1,0.5-3,2.8-2.4,3.8c0.4,0.7,0.3,0.7,0.7,1.4c1,1.7,2.9,2.6,3.8,2.8s1.7-1.4,2.4-1.7c1.4-0.7,2.4-1.4,3.1-2.4
		c1.4-2.1,3.5-6.6,5.2-11.2c-0.7-0.3-1.6-1.5-3.8-2.8c0,0,3.1,0.8,4.5,2.4s3.5,2.8,5.6,2.1s2.3-3.5,2.3-3.5s3.4,0.7,6.7,0
		S60.3,30.5,60,24.6z M29.6,18.7c0,0-1,0.3-1.4,1.4l-0.7,2.1c0,0-0.3-1.7,0-2.4c-1,1-2.4,4.9-2.4,4.9s1-5.2,2.8-5.9
		c1.7-0.7,4.2-0.3,4.2-0.3S31,18.3,29.6,18.7z M37.6,19.7c-0.3,1-0.3,3.1-0.3,3.1s-0.3-2.4,0-3.5c0.3-1,2.4-1.4,2.4-1.4
		S38,19,37.6,19.7z M39.7,27c0,0,0.3-1,1-2.1v-0.3l0.3,0.3c0.3,0,0.7-0.3,0.7-0.7c0-0.3-0.3-0.7-0.7-0.7c-0.3,0-0.6,0.3-0.7,0.6
		c-0.2-0.3-0.4-0.7-0.4-1l-1.4,1.4c0,0,1.4-1.7,2.1-2.4c0.7-0.7,2.8-0.7,2.8-0.7s-0.7,0-1.4,0.7c0.7,0,1.4,1,1.7,1.4
		c0.7-0.3,1.4-0.3,1.4-0.3C43,24,41.2,25.3,39.7,27z M41.5,35.4c0,0,0-1.4,0.3-2.1c0.3-0.3,2.1-0.7,2.1-0.7s-1.4,0.7-1.7,1
		C41.8,34.4,41.5,35.4,41.5,35.4z M43.6,39.6c-2.4-0.3-0.7-5.2-0.7-5.2l3.8,1.7C46.7,36.1,46,39.9,43.6,39.6z M47.8,20.8
		c0,0,1.4-0.7,2.4-0.7c0.3,0,0.7,0,0.7,0.3c0.3,0.7,0.3,1.4,0.3,2.1h-1l0.3-0.3c-0.3-1-0.3-1-0.7-1c-0.3,0-0.7,0-0.7,0.7
		c0,0.3,0,0.3,0.3,0.7h-1c0,0,0.3,0,0.7-0.3c0-0.3-0.7-1,0-1.7C48.4,20.4,47.8,20.8,47.8,20.8z M52.9,22c0.1,0.4,0.1,0.9,0.1,1.6
		c0,1.7-1.7,4.5-1.7,4.5c0.1-1.9,0.4-3.6,1-4.9c0,0-0.7,0.4-1.1,1c-0.5,0.6-1.3,2.8-1.3,2.8s0-1.4,0.3-2.4c0.3-0.8,0.9-1.4,1.1-1.4
		c-0.3,0-0.7,0-1,0.3c-0.7,0.3-1.7,2.4-1.7,2.4s0.7-2.4,1.4-2.8c1-0.7,2.8,0,2.8,0c-0.4-0.8-0.5-1.7-0.3-2.4c0,0,0.1,0.5,0.5,0.7
		c0.3,0.2,2.9-1.6,3.7-3.1C56.2,19.9,54.5,22.5,52.9,22z"/>
</g>
</svg>
