<?xml version="1.0" encoding="utf-8"?>
<!-- Generator: Adobe Illustrator 22.1.0, SVG Export Plug-In . SVG Version: 6.00 Build 0)  -->
<svg version="1.1" id="图层_2" xmlns="http://www.w3.org/2000/svg" xmlns:xlink="http://www.w3.org/1999/xlink" x="0px" y="0px"
	 viewBox="0 0 64 64" style="enable-background:new 0 0 64 64;" xml:space="preserve">
<style type="text/css">
	.st0{fill:#737987;}
</style>
<g id="提示">
	<path id="path-1_1_" class="st0" d="M32,4C16.5,4,4,16.5,4,32s12.5,28,28,28s28-12.5,28-28S47.5,4,32,4z M32,8
		c3.2,0,6.4,0.6,9.3,1.9c2.9,1.2,5.4,2.9,7.6,5.1s3.9,4.8,5.1,7.6c1.2,3,1.9,6.1,1.9,9.3s-0.6,6.4-1.9,9.3c-1.2,2.9-2.9,5.4-5.1,7.6
		s-4.8,3.9-7.6,5.1c-3,1.2-6.1,1.9-9.3,1.9s-6.4-0.6-9.3-1.9c-2.9-1.2-5.4-2.9-7.6-5.1S11.2,44,10,41.2c-1.4-2.8-2-6-2-9.2
		s0.6-6.4,1.9-9.3c1.2-2.9,2.9-5.4,5.1-7.6s4.8-3.9,7.6-5.1C25.6,8.6,28.8,8,32,8z M30.9,25.2c-1.7,0.3-3.3,1.2-4.8,2.6
		c-1.5,1.4,0.1,2.8,1,1.7c0.9-1,1.8-1.6,2.5-1.8c0.7-0.1,1.1,0.1,1.2,0.7c0.1,0.5,0,1.3-0.3,2.6c-0.3,1.3-0.8,3.2-1.6,5.9
		c-1.5,4.8-2.1,7.8-1.9,8.8c0.2,1.2,0.8,2.1,1.8,2.6s2.2,0.6,3.7,0.3c1.8-0.3,3.4-1.3,5-2.8c1.6-1.6-0.2-2.7-1.1-1.7
		c-0.9,0.9-1.7,1.5-2.5,1.6c-0.9,0.2-1.4-0.1-1.6-1c-0.1-0.5,0-1.4,0.3-2.6c2.5-8.5,3.6-13.3,3.3-14.5c-0.2-1-0.7-1.7-1.6-2.1
		C33.5,24.9,32.4,24.9,30.9,25.2z M35,22c1.7,0,3-1.3,3-3s-1.3-3-3-3s-3,1.3-3,3S33.3,22,35,22z"/>
</g>
</svg>
