<?xml version="1.0" encoding="utf-8"?>
<!-- Generator: Adobe Illustrator 22.1.0, SVG Export Plug-In . SVG Version: 6.00 Build 0)  -->
<svg version="1.1" id="图层_2" xmlns="http://www.w3.org/2000/svg" xmlns:xlink="http://www.w3.org/1999/xlink" x="0px" y="0px"
	 viewBox="0 0 64 64" style="enable-background:new 0 0 64 64;" xml:space="preserve">
<style type="text/css">
	.st0{fill:#737987;}
</style>
<g id="IIS">
	<path class="st0" d="M58,8H6c-1.1,0-2,0.9-2,2v44c0,1.1,0.9,2,2,2h52c1.1,0,2-0.9,2-2V10C60,8.9,59.1,8,58,8z M55.9,52H8.1V12H56
		L55.9,52L55.9,52z"/>
	<path class="st0" d="M14,48h36.1c1.2,0,2-0.9,2-2.2V18.2c0-1.3-0.8-2.2-2-2.2H14c-1.2,0-2,0.9-2,2.2v27.6C12,47.1,12.8,48,14,48z
		 M35.8,24.7c1.2-0.9,2.7-1.3,4.7-1.3c1.6,0,3,0.2,4.1,0.6v3.3c-1.1-0.8-2.4-1.1-3.9-1.1c-0.9,0-1.6,0.2-2.1,0.5
		C38,27,37.8,27.5,37.8,28c0,0.4,0.2,0.8,0.5,1.2c0.4,0.4,1.2,0.8,2.6,1.5c1.7,0.7,2.8,1.5,3.4,2.2c0.6,0.8,0.9,1.7,0.9,2.8
		c0,1.6-0.6,2.8-1.7,3.6c-1.1,0.8-2.7,1.3-4.8,1.3c-1.9,0-3.5-0.3-4.7-0.9v-3.5c1.3,1.1,2.9,1.7,4.6,1.7c1,0,1.7-0.2,2.2-0.5
		s0.7-0.8,0.7-1.3s-0.2-0.9-0.6-1.3c-0.4-0.4-1.4-0.9-3.1-1.6C35.3,32,34,30.4,34,28.3C34,26.7,34.6,25.5,35.8,24.7z M26.1,37.5h1.4
		V26.4h-1.4v-2.8h6.4v2.8H31v11.1h1.4v2.8H26L26.1,37.5L26.1,37.5z M18.7,37.5h1.4V26.4h-1.4v-2.8h6.4v2.8h-1.4v11.1h1.4v2.8h-6.4
		V37.5z"/>
</g>
</svg>
