<?xml version="1.0" encoding="utf-8"?>
<!-- Generator: Adobe Illustrator 22.1.0, SVG Export Plug-In . SVG Version: 6.00 Build 0)  -->
<svg version="1.1" id="图层_2" xmlns="http://www.w3.org/2000/svg" xmlns:xlink="http://www.w3.org/1999/xlink" x="0px" y="0px"
	 viewBox="0 0 64 64" style="enable-background:new 0 0 64 64;" xml:space="preserve">
<style type="text/css">
	.st0{fill:#737987;}
</style>
<g id="InfluxDB">
	<g>
		<path class="st0" d="M24.2,28.2c11.1,0,20.2-3.3,20.2-7.4v-5.9c0-4.1-9-7.4-20.2-7.4S4,10.7,4,14.8v5.9C4,24.9,13,28.2,24.2,28.2z
			"/>
		<path class="st0" d="M24.2,41.6c4.3,0.1,5.9-0.2,5.9-0.2s-0.2-0.5-0.4-1.5c-0.6-2.3,0.4-3.1,0.4-3.1l5.3-5.4
			c-3.2,0.8-7.1,1.3-11.3,1.3C13,32.7,4,29.4,4,25.2v8.9C4,38.2,13,41.6,24.2,41.6z"/>
		<path class="st0" d="M32.5,51.2l-1.3-5.6c-1.6,0.1-5.3,0.4-7,0.4C13,46.1,4,42.7,4,38.6v8.9c0,4.1,9,7.4,20.2,7.4
			c8-0.1,10.7-0.8,11.6-1.1l-1.3-0.4C32.6,52.7,32.5,51.2,32.5,51.2z"/>
		<path class="st0" d="M59.9,44.6C59.3,42.2,57.4,34,57.4,34s-0.1-1.4-2.2-2C52.9,31.4,44,28.6,44,28.6S42.5,28,41.5,29
			c-1.1,1-8.5,7.8-8.5,7.8s-1.2,0.8-0.9,2.4l2.8,12c0,0,0.1,1.4,1.8,2c1.9,0.6,10.8,3.3,10.8,3.3s1.5,0.6,2.6-0.5s8.8-8.3,8.8-8.3
			S60.4,46.6,59.9,44.6z M53.6,34l-5.4,1.2l-3.7-4L53.6,34z M50.1,46.8L40,43.9l7.6-7.2L50.1,46.8z M35.2,37.8
			C36,37,42,31.6,42,31.6s0.9-0.9,1.7,0.1c0.8,0.9,3.2,3.4,3.2,3.4s0.6,0.7-0.2,1.4S40,42.7,40,42.7s-0.8,0.9-1.8-0.3
			s-2.9-3.1-2.9-3.1S34.5,38.6,35.2,37.8z M34.8,40.3l3.9,3.9L37,49.5L34.8,40.3z M46.8,53.7c0,0-7.1-2.1-8.5-2.6
			c-1.3-0.4-0.6-1.4-0.6-1.4s1.2-3.9,1.5-4.7s1.3-0.2,1.3-0.2s7.5,2.2,8.7,2.6c1.1,0.3,0.7,1.2,0.7,1.2S49,52,48.6,53.4
			C48.2,54.5,46.8,53.7,46.8,53.7L46.8,53.7z M52.9,50.3l-3.4,2.8l1.5-5l5.3-1.3L52.9,50.3z M56.2,45.9c-1.8,0.4-4,0.9-4,0.9
			s-1.2,0.4-1.5-0.7c-0.3-1.2-2.2-9.2-2.2-9.2s-0.4-1,0.7-1.1c0.7-0.1,4.5-0.9,4.5-0.9s1.3-0.6,1.6,0.6c0.3,1.3,2.1,9.3,2.1,9.3
			S57.8,45.5,56.2,45.9L56.2,45.9z"/>
	</g>
</g>
</svg>
