<?xml version="1.0" encoding="utf-8"?>
<!-- Generator: Adobe Illustrator 22.1.0, SVG Export Plug-In . SVG Version: 6.00 Build 0)  -->
<svg version="1.1" id="图层_2" xmlns="http://www.w3.org/2000/svg" xmlns:xlink="http://www.w3.org/1999/xlink" x="0px" y="0px"
	 viewBox="0 0 64 64" style="enable-background:new 0 0 64 64;" xml:space="preserve">
<style type="text/css">
	.st0{fill:#737987;}
</style>
<g id="告警_x2F_通知">
	<path id="path-1_4_" class="st0" d="M32,55.7c-1.5,0-2.8-0.7-3.6-1.7h-4.8c0.6,1.5,1.5,2.9,2.8,4c1.6,1.3,3.6,2,5.7,2
		s4.1-0.7,5.7-2c1.3-1,2.2-2.4,2.8-4h-4.8C34.8,55.1,33.5,55.7,32,55.7z M55.4,48.4l-4.1-8.1V27.7c0-5.1-2-10-5.7-13.6
		c-2.6-2.6-5.9-4.4-9.4-5.2V8.3C36.3,5.9,34.4,4,32,4s-4.3,1.9-4.3,4.3V9c-3.5,0.8-6.8,2.6-9.4,5.2c-3.7,3.6-5.7,8.4-5.7,13.6v12.6
		l-4.1,8.1c-0.3,0.7-0.3,1.4,0.1,2.1s1.1,1,1.8,1h43c0.7,0,1.4-0.4,1.8-1C55.7,49.8,55.8,49,55.4,48.4z M14,47.2l2.7-5.4
		c0.1-0.3,0.2-0.6,0.2-1V27.7c0-8.2,6.7-14.9,15-14.9s15,6.7,15,14.9v13.1c0,0.3,0.1,0.7,0.2,1l2.7,5.4C49.8,47.2,14,47.2,14,47.2z"
		/>
</g>
</svg>
