<?xml version="1.0" encoding="UTF-8"?>
<svg width="205px" height="177px" viewBox="0 0 205 177" version="1.1" xmlns="http://www.w3.org/2000/svg" xmlns:xlink="http://www.w3.org/1999/xlink">
    <title>image/1</title>
    <defs>
        <linearGradient x1="126.959894%" y1="50.6539029%" x2="-26.591313%" y2="49.5448096%" id="linearGradient-1">
            <stop stop-color="#E1ECFF" offset="0%"></stop>
            <stop stop-color="#FFFFFF" offset="100%"></stop>
        </linearGradient>
        <linearGradient x1="-0.0363390878%" y1="50.0522739%" x2="100.036317%" y2="50.0522739%" id="linearGradient-2">
            <stop stop-color="#BBD0FE" offset="0%"></stop>
            <stop stop-color="#E0EBFF" offset="30%"></stop>
            <stop stop-color="#BBD0FE" offset="71%"></stop>
        </linearGradient>
        <linearGradient x1="119.742654%" y1="49.6683029%" x2="71.52641%" y2="49.9010929%" id="linearGradient-3">
            <stop stop-color="#253C6F" offset="0%"></stop>
            <stop stop-color="#3068E8" offset="100%"></stop>
        </linearGradient>
        <linearGradient x1="152.010467%" y1="49.5046526%" x2="44.1653999%" y2="50.0206201%" id="linearGradient-4">
            <stop stop-color="#253C6F" offset="0%"></stop>
            <stop stop-color="#3068E8" offset="100%"></stop>
        </linearGradient>
        <linearGradient x1="58.423104%" y1="44.6283728%" x2="68.5239306%" y2="38.3617786%" id="linearGradient-5">
            <stop stop-color="#3158D3" offset="0%"></stop>
            <stop stop-color="#306EF3" offset="100%"></stop>
        </linearGradient>
        <linearGradient x1="145.309149%" y1="28.9498633%" x2="-24.9829994%" y2="66.5666867%" id="linearGradient-6">
            <stop stop-color="#253C6F" offset="0%"></stop>
            <stop stop-color="#3068E8" offset="100%"></stop>
        </linearGradient>
        <linearGradient x1="0%" y1="49.9967864%" x2="100%" y2="49.9967864%" id="linearGradient-7">
            <stop stop-color="#E1ECFF" offset="0%"></stop>
            <stop stop-color="#FFFFFF" offset="100%"></stop>
        </linearGradient>
        <linearGradient x1="51.6304158%" y1="58.8867619%" x2="43.9213931%" y2="78.7660138%" id="linearGradient-8">
            <stop stop-color="#BBD0FE" offset="0%"></stop>
            <stop stop-color="#E0EBFF" offset="39%"></stop>
        </linearGradient>
        <linearGradient x1="49.8537901%" y1="81.0275585%" x2="49.3969198%" y2="102.49273%" id="linearGradient-9">
            <stop stop-color="#3158D3" offset="0%"></stop>
            <stop stop-color="#306EF3" offset="100%"></stop>
        </linearGradient>
        <linearGradient x1="63.1007969%" y1="33.6759696%" x2="68.7637823%" y2="26.7083086%" id="linearGradient-10">
            <stop stop-color="#BBD0FE" offset="0%"></stop>
            <stop stop-color="#E0EBFF" offset="39%"></stop>
        </linearGradient>
        <linearGradient x1="72.4830298%" y1="89.060028%" x2="23.2866727%" y2="3.59149679%" id="linearGradient-11">
            <stop stop-color="#3158D3" offset="0%"></stop>
            <stop stop-color="#308AF3" offset="100%"></stop>
        </linearGradient>
        <linearGradient x1="88.6319722%" y1="99.2932234%" x2="3.10611852%" y2="-9.83807759%" id="linearGradient-12">
            <stop stop-color="#BBD0FE" offset="0%"></stop>
            <stop stop-color="#E0EBFF" offset="39%"></stop>
        </linearGradient>
        <linearGradient x1="38.4936477%" y1="14.9669421%" x2="123.408453%" y2="273.688284%" id="linearGradient-13">
            <stop stop-color="#28C4FF" offset="0%"></stop>
            <stop stop-color="#34EDCB" offset="100%"></stop>
        </linearGradient>
        <linearGradient x1="6.76044346%" y1="-81.7249717%" x2="91.6812504%" y2="177.005671%" id="linearGradient-14">
            <stop stop-color="#28C4FF" offset="0%"></stop>
            <stop stop-color="#34EDCB" offset="100%"></stop>
        </linearGradient>
        <linearGradient x1="-25.1906753%" y1="-179.115035%" x2="59.7039728%" y2="79.593974%" id="linearGradient-15">
            <stop stop-color="#28C4FF" offset="0%"></stop>
            <stop stop-color="#34EDCB" offset="100%"></stop>
        </linearGradient>
        <linearGradient x1="0%" y1="49.998815%" x2="100%" y2="49.998815%" id="linearGradient-16">
            <stop stop-color="#BBD0FE" offset="0%"></stop>
            <stop stop-color="#E0EBFF" offset="39%"></stop>
        </linearGradient>
        <linearGradient x1="52.7052794%" y1="99.2548399%" x2="47.8497362%" y2="10.846751%" id="linearGradient-17">
            <stop stop-color="#253C6F" offset="0%"></stop>
            <stop stop-color="#3068E8" offset="100%"></stop>
        </linearGradient>
        <linearGradient x1="54.5099353%" y1="51.1641496%" x2="286.704622%" y2="109.672383%" id="linearGradient-18">
            <stop stop-color="#28C4FF" offset="0%"></stop>
            <stop stop-color="#34EDCB" offset="100%"></stop>
        </linearGradient>
        <linearGradient x1="39.0935477%" y1="47.2743666%" x2="271.288234%" y2="105.789622%" id="linearGradient-19">
            <stop stop-color="#28C4FF" offset="0%"></stop>
            <stop stop-color="#34EDCB" offset="100%"></stop>
        </linearGradient>
        <linearGradient x1="23.6771601%" y1="43.3916049%" x2="255.871846%" y2="101.90686%" id="linearGradient-20">
            <stop stop-color="#28C4FF" offset="0%"></stop>
            <stop stop-color="#34EDCB" offset="100%"></stop>
        </linearGradient>
        <linearGradient x1="-7.15561509%" y1="35.6260815%" x2="225.039071%" y2="94.1343153%" id="linearGradient-21">
            <stop stop-color="#28C4FF" offset="0%"></stop>
            <stop stop-color="#34EDCB" offset="100%"></stop>
        </linearGradient>
        <linearGradient x1="-22.5720027%" y1="31.7362986%" x2="209.622684%" y2="90.2515536%" id="linearGradient-22">
            <stop stop-color="#28C4FF" offset="0%"></stop>
            <stop stop-color="#34EDCB" offset="100%"></stop>
        </linearGradient>
        <linearGradient x1="-37.9883903%" y1="27.8535369%" x2="194.206296%" y2="86.3687919%" id="linearGradient-23">
            <stop stop-color="#28C4FF" offset="0%"></stop>
            <stop stop-color="#34EDCB" offset="100%"></stop>
        </linearGradient>
        <linearGradient x1="17.4117863%" y1="37.9835345%" x2="80.0404431%" y2="61.0642402%" id="linearGradient-24">
            <stop stop-color="#E1ECFF" offset="0%"></stop>
            <stop stop-color="#FFFFFF" offset="100%"></stop>
        </linearGradient>
        <linearGradient x1="49.8763548%" y1="37.4515674%" x2="50.5967599%" y2="59.1768303%" id="linearGradient-25">
            <stop stop-color="#5781DB" offset="0%"></stop>
            <stop stop-color="#A0BDFD" offset="100%"></stop>
        </linearGradient>
        <linearGradient x1="41.9604786%" y1="69.5341852%" x2="56.7718404%" y2="33.4901841%" id="linearGradient-26">
            <stop stop-color="#3158D3" offset="0%"></stop>
            <stop stop-color="#306EF3" offset="100%"></stop>
        </linearGradient>
        <linearGradient x1="-0.108877011%" y1="49.9933923%" x2="99.9714871%" y2="49.9933923%" id="linearGradient-27">
            <stop stop-color="#CBDDFE" offset="0%"></stop>
            <stop stop-color="#EFF5FF" offset="100%"></stop>
        </linearGradient>
        <linearGradient x1="0%" y1="49.9819389%" x2="100.174952%" y2="49.9819389%" id="linearGradient-28">
            <stop stop-color="#CBDDFE" offset="0%"></stop>
            <stop stop-color="#EFF5FF" offset="100%"></stop>
        </linearGradient>
        <linearGradient x1="17.4117863%" y1="38.1233048%" x2="80.0404431%" y2="60.9355458%" id="linearGradient-29">
            <stop stop-color="#E1ECFF" offset="0%"></stop>
            <stop stop-color="#FFFFFF" offset="100%"></stop>
        </linearGradient>
        <linearGradient x1="-0.023176011%" y1="50%" x2="100.011613%" y2="50%" id="linearGradient-30">
            <stop stop-color="#28C4FF" offset="0%"></stop>
            <stop stop-color="#34EDCB" offset="100%"></stop>
        </linearGradient>
        <linearGradient x1="41.9900367%" y1="69.5194765%" x2="56.7929898%" y2="33.5052913%" id="linearGradient-31">
            <stop stop-color="#28C4FF" offset="0%"></stop>
            <stop stop-color="#34EDCB" offset="100%"></stop>
        </linearGradient>
        <linearGradient x1="126.959894%" y1="50.1775406%" x2="-26.591313%" y2="49.8764117%" id="linearGradient-32">
            <stop stop-color="#E1ECFF" offset="0%"></stop>
            <stop stop-color="#FFFFFF" offset="100%"></stop>
        </linearGradient>
        <linearGradient x1="50%" y1="0%" x2="50%" y2="100%" id="linearGradient-33">
            <stop stop-color="#5EA5F9" offset="0%"></stop>
            <stop stop-color="#306CF0" offset="100%"></stop>
        </linearGradient>
        <linearGradient x1="37.4724395%" y1="-18.0499145%" x2="50%" y2="100%" id="linearGradient-34">
            <stop stop-color="#5EA5F9" offset="0%"></stop>
            <stop stop-color="#306CF0" offset="100%"></stop>
        </linearGradient>
        <linearGradient x1="28.9616205%" y1="31.8281255%" x2="50%" y2="63.3518717%" id="linearGradient-35">
            <stop stop-color="#5EA5F9" offset="0%"></stop>
            <stop stop-color="#306CF0" offset="100%"></stop>
        </linearGradient>
        <linearGradient x1="45.8859321%" y1="-18.0499145%" x2="50%" y2="100%" id="linearGradient-36">
            <stop stop-color="#5EA5F9" offset="0%"></stop>
            <stop stop-color="#306CF0" offset="100%"></stop>
        </linearGradient>
        <linearGradient x1="60.8098049%" y1="66.6972662%" x2="50.2727085%" y2="50.4227442%" id="linearGradient-37">
            <stop stop-color="#3158D3" offset="0%"></stop>
            <stop stop-color="#306EF3" offset="100%"></stop>
        </linearGradient>
        <linearGradient x1="-0.000668317872%" y1="50%" x2="100.000668%" y2="50%" id="linearGradient-38">
            <stop stop-color="#28C4FF" offset="0%"></stop>
            <stop stop-color="#34EDCB" offset="100%"></stop>
        </linearGradient>
        <linearGradient x1="-0.0230807674%" y1="50.0534988%" x2="99.9921945%" y2="50.0534988%" id="linearGradient-39">
            <stop stop-color="#5781DB" offset="0%"></stop>
            <stop stop-color="#A0BDFD" offset="100%"></stop>
        </linearGradient>
        <linearGradient x1="-0.0229723111%" y1="50.0534988%" x2="99.9921945%" y2="50.0534988%" id="linearGradient-40">
            <stop stop-color="#3158D3" offset="0%"></stop>
            <stop stop-color="#306EF3" offset="100%"></stop>
        </linearGradient>
    </defs>
    <g id="场景框架" stroke="none" stroke-width="1" fill="none" fill-rule="evenodd" opacity="0.904289609">
        <g id="引导页" transform="translate(-201.000000, -400.000000)">
            <g id="编组-3" transform="translate(144.000000, 400.106787)">
                <g id="image/1" transform="translate(57.000000, 0.000000)">
                    <g id="laptop" transform="translate(0.000000, 50.131813)">
                        <polygon id="Path" fill="url(#linearGradient-1)" points="52.473 44.37 30.258 57.282 5.835 43.182 28.053 30.27"></polygon>
                        <path d="M57.96,33.018 C57.96,33.018 57.96,33.018 57.96,33.033 C57.942915,33.0802409 57.9207871,33.1255024 57.894,33.168 L57.876,33.192 C57.8422172,33.2376314 57.8040339,33.279834 57.762,33.318 C57.735,33.342 57.696,33.366 57.663,33.39 C57.63,33.414 57.606,33.435 57.573,33.456 L37.386,45.186 C37.2471616,45.2621498 37.0988817,45.3196461 36.945,45.357 L36.876,45.372 C36.7126243,45.4093906 36.5455991,45.428508 36.378,45.429 L36.36,45.429 C36.1842903,45.4288147 36.0091694,45.4086859 35.838,45.369 L35.817,45.369 C35.6533661,45.3311286 35.495838,45.2705408 35.349,45.189 L0.6,25.119 C0.358803876,25.0121453 0.195357963,24.7819398 0.174,24.519 L0.174,26.589 C0.195357963,26.8519398 0.358803876,27.0821453 0.6,27.189 L35.358,47.256 C35.4252276,47.2925848 35.4943219,47.3256299 35.565,47.355 L35.742,47.415 L35.826,47.436 L35.847,47.436 L35.892,47.436 L36.033,47.46 L36.174,47.475 L36.174,47.475 L36.174,47.475 L36.174,47.475 L36.315,47.475 L36.465,47.475 L36.624,47.475 L36.807,47.451 L36.885,47.43 L36.954,47.415 L37.08,47.382 C37.1894819,47.3469962 37.2950448,47.3007495 37.395,47.244 L57.582,35.511 L57.6,35.511 L57.672,35.457 C57.7072943,35.4351823 57.7404424,35.4100701 57.771,35.382 L57.771,35.382 C57.8048221,35.3538106 57.835049,35.3215686 57.861,35.286 C57.8624668,35.2780672 57.8624668,35.2699328 57.861,35.262 L57.879,35.241 C57.8881175,35.2276689 57.8961436,35.2136232 57.903,35.199 C57.9196016,35.173887 57.9327211,35.1466387 57.942,35.118 C57.942,35.118 57.942,35.118 57.942,35.118 C57.9401534,35.1131705 57.9401534,35.1078295 57.942,35.103 C57.9483841,35.0854135 57.9533991,35.0673597 57.957,35.049 C57.9599483,35.0220805 57.9599483,34.9949195 57.957,34.968 L57.957,34.953 L57.957,32.883 C57.9638407,32.9276803 57.9648492,32.9730599 57.96,33.018 L57.96,33.018 Z" id="Path" fill="url(#linearGradient-2)"></path>
                        <path d="M57.561,32.277 C58.125,32.601 58.128,33.129 57.561,33.456 L37.374,45.186 C36.733649,45.5099918 35.977351,45.5099918 35.337,45.186 L0.6,25.119 C0.033,24.792 0.03,24.261 0.6,23.937 L20.787,12.204 C21.4280501,11.87851 22.1859499,11.87851 22.827,12.204 L57.561,32.277 Z" id="Path" fill="#EAF0FE"></path>
                        <path d="M16.872,19.524 C16.2770217,19.1804891 15.5439783,19.1804891 14.949,19.524 L6.651,24.348 C6.21,24.603 6.213,25.02 6.651,25.278 L33.999,41.067 C34.5008107,41.3204616 35.0931893,41.3204616 35.595,41.067 L43.5,36.474 C43.7864842,36.315493 43.9642894,36.0139106 43.9642894,35.6865 C43.9642894,35.3590894 43.7864842,35.057507 43.5,34.899 L16.872,19.524 Z" id="Path" fill="url(#linearGradient-3)"></path>
                        <path d="M42.468,25.014 C42.5418674,25.038279 42.591795,25.1072448 42.591795,25.185 C42.591795,25.2627552 42.5418674,25.331721 42.468,25.356 L36.6,28.77 C36.4123025,28.8692068 36.1876975,28.8692068 36,28.77 L25.884,22.932 C25.8109327,22.906121 25.7620962,22.8370148 25.7620962,22.7595 C25.7620962,22.6819852 25.8109327,22.612879 25.884,22.587 L31.758,19.173 C31.946673,19.0778077 32.169327,19.0778077 32.358,19.173 L42.468,25.014 Z" id="Path" fill="url(#linearGradient-4)"></path>
                        <path d="M36.9,19.689 L3.174,0.222 C2.88914087,0.0160404926 2.51547001,-0.0206388557 2.196,0.126 L0.621,1.044 C0.939603104,0.894541214 1.31427714,0.930169727 1.599,1.137 L35.316,20.604 C36.1266018,21.1312437 36.6361726,22.0143512 36.687,22.98 L36.621,47.028 C36.6536067,47.3726068 36.5004887,47.7085523 36.219,47.91 L37.794,46.995 C38.0754887,46.7935523 38.2286067,46.4576068 38.196,46.113 L38.262,22.065 C38.2132073,21.1010227 37.707173,20.2182492 36.9,19.689 L36.9,19.689 Z" id="Path" fill="url(#linearGradient-5)"></path>
                        <path d="M35.316,20.604 C36.1266018,21.1312437 36.6361726,22.0143512 36.687,22.98 L36.621,47.028 C36.621,47.901 36,48.252 35.238,47.814 L1.524,28.347 C0.713861392,27.8207145 0.204285214,26.9387128 0.153,25.974 L0.219,1.926 C0.219,1.053 0.84,0.699 1.599,1.137 L35.316,20.604 Z" id="Path" fill="url(#linearGradient-6)"></path>
                    </g>
                    <g id="computer" transform="translate(112.371632, 0.000000)">
                        <polygon id="Path" fill="url(#linearGradient-7)" points="53.9338648 122.23456 21.7263208 103.638094 39.7247638 93.2481431 71.9323078 111.842746"></polygon>
                        <path d="M49.7607448,70.6294601 L30.0129448,59.1496541 L30.0874648,86.0551001 C30.0874648,88.3689461 28.4685178,91.1858021 26.4546148,92.3483141 L16.1801698,98.2782431 L35.9279698,109.756186 L46.2005518,103.826257 C48.2125918,102.663745 49.8389908,99.8468891 49.8334162,97.5330431 L49.7607448,70.6294601 Z" id="Path" fill="url(#linearGradient-8)"></path>
                        <path d="M51.6162928,69.5582351 L31.8684928,58.0784291 L30.0054928,59.1496541 L49.7532928,70.6294601 L49.8296758,97.5330431 C49.8296758,99.8468891 48.2088658,102.663745 46.1968258,103.826257 L35.9242438,109.756186 L35.9242438,111.036067 L35.9242438,109.756186 L16.1764438,98.2782431 L16.1764438,100.411378 L35.9242438,111.889321 L35.9242438,111.889321 L46.7054248,105.665038 C49.4626648,104.074036 51.6889498,100.2139 51.6815165,97.0468001 L51.6162928,69.5582351 Z" id="Path" fill="url(#linearGradient-9)"></path>
                        <path d="M90.3834598,50.3544311 L3.53971483,0.21551209 C3.10377283,-0.0359929105 2.70881683,-0.0602119105 2.42191483,0.10559509 L0.624119835,1.18427209 C0.909158835,1.01846509 1.30411483,1.04268409 1.74191983,1.29418909 L88.5838018,51.4331081 C89.4500968,51.9323921 90.1487218,53.1452051 90.1468588,54.1381841 L89.9773258,113.966566 C89.9773258,114.462124 89.8003408,114.808642 89.5190278,114.972586 L91.3186858,113.893909 C91.5999988,113.729965 91.7732578,113.383447 91.7751208,112.887889 L91.9446686,53.0595071 C91.9483798,52.0665281 91.2478918,50.8537151 90.3834598,50.3544311 Z" id="Path" fill="url(#linearGradient-10)"></path>
                        <path d="M88.5838018,51.4331081 C89.4500968,51.9323921 90.1487218,53.1452051 90.1468626,54.1381841 L89.9773258,113.966566 C89.9773258,114.963271 89.2712488,115.363816 88.4049538,114.862669 L1.56120883,64.7256131 C0.694913835,64.2244661 -0.00371116507,63.0135161 0,62.0186741 L0.169547835,2.19029209 C0.169547835,1.19545009 0.875624835,0.79490509 1.74191983,1.29418909 L88.5838018,51.4331081 Z" id="Path" fill="#EAF0FE"></path>
                        <polygon id="Path" fill="url(#linearGradient-11)" points="86.5643098 109.037068 3.58256383 61.1262971 3.58256383 6.58883509 86.5643098 54.4977431"></polygon>
                        <path d="M51.8957428,70.4822831 L8.97035983,45.7043831 C8.05019234,45.1731278 7.48237908,44.1922304 7.47995983,43.1297171 L7.47995983,16.2466271 C7.48049987,15.9615535 7.63284194,15.6983492 7.87976266,15.5558801 C8.12668337,15.4134111 8.43079616,15.4132488 8.67786883,15.5554541 L51.6032518,40.3333541 C52.5234193,40.8646094 53.0912326,41.8455068 53.0936518,42.9080201 L53.0936518,69.7911101 C53.0931118,70.0761837 52.9407697,70.339388 52.693849,70.481857 C52.4469283,70.6243261 52.1428155,70.6244884 51.8957428,70.4822831 Z" id="Path" fill="url(#linearGradient-12)"></path>
                        <path d="M19.2299008,64.5076421 L8.08170883,58.0691141 C7.8420876,57.9316577 7.69427825,57.6765444 7.69420483,57.4002971 L7.69420483,50.4196361 C7.69134221,50.3441839 7.72983087,50.2731696 7.79461132,50.2343789 C7.85939176,50.1955882 7.94016463,50.1951885 8.00532583,50.2333361 L19.1553808,56.6700011 C19.3940035,56.8082131 19.5409478,57.0630585 19.5411221,57.3388181 L19.5411221,64.3194791 C19.5433525,64.3947798 19.5049107,64.4654895 19.4404466,64.5044768 C19.3759824,64.543464 19.2955078,64.5446739 19.2299008,64.5076421 Z" id="Path" fill="url(#linearGradient-13)"></path>
                        <path d="M35.7304918,73.9940381 L24.5804368,67.5573731 C24.3418142,67.4191611 24.1948699,67.1643157 24.1947958,66.8885561 L24.1947958,59.9078951 C24.1919332,59.8324429 24.2304219,59.7614286 24.2952023,59.7226379 C24.3599828,59.6838472 24.4407556,59.6834475 24.5059168,59.7215951 L35.6559718,66.1601231 C35.8945807,66.2974398 36.0416985,66.5517772 36.0416985,66.8270771 L36.0416985,73.8096011 C36.0437715,73.8847229 36.0050049,73.9551023 35.9403579,73.993426 C35.8757109,74.0317497 35.7953613,74.031984 35.7304918,73.9940381 Z" id="Path" fill="url(#linearGradient-14)"></path>
                        <path d="M52.4509168,83.5158311 L41.3008618,77.0773031 C41.0622392,76.9390911 40.9152949,76.6842457 40.9152208,76.4084861 L40.9152208,69.4278251 C40.9115166,69.3524624 40.9495251,69.2811605 41.0141573,69.2422254 C41.0787895,69.2032904 41.1595888,69.2030213 41.2244788,69.2415251 L52.3745338,75.6781901 C52.6131565,75.8164021 52.7601008,76.0712475 52.7601748,76.3470071 L52.7601748,83.3276681 C52.7633211,83.4028739 52.7253546,83.4738496 52.6610502,83.5129746 C52.5967458,83.5520995 52.516261,83.5531936 52.4509168,83.5158311 Z" id="Path" fill="url(#linearGradient-15)"></path>
                    </g>
                    <g id="computer_dialog" transform="translate(171.145400, 24.731413)">
                        <polygon id="Path" fill="url(#linearGradient-16)" points="0.013041 0.909144 1.514619 0.057753 23.475663 12.586428 23.475663 77.759757 21.897702 78.663312 21.897702 13.54401"></polygon>
                        <polygon id="Path" fill="url(#linearGradient-17)" points="21.897702 78.663312 0.013041 66.028446 0.013041 0.909144 21.897702 13.54401"></polygon>
                        <path d="M18.8163,18.208962 L3.094443,9.1287 C2.79398038,8.91294619 2.61412978,8.56707965 2.610063,8.1972 L2.610063,8.1972 C2.610063,7.841367 2.828034,7.677423 3.094443,7.8246 L18.8163,16.919766 C19.1162915,17.1357173 19.2954827,17.4816463 19.298817,17.851266 L19.298817,17.851266 C19.298817,18.199647 19.082709,18.363591 18.8163,18.208962 Z" id="Path" fill="url(#linearGradient-18)"></path>
                        <path d="M18.8163,25.660962 L3.094443,16.5807 C2.79398038,16.3649462 2.61412978,16.0190796 2.610063,15.6492 L2.610063,15.6492 C2.610063,15.293367 2.828034,15.129423 3.094443,15.2766 L18.8163,24.371766 C19.1162915,24.5877173 19.2954827,24.9336463 19.298817,25.303266 L19.298817,25.303266 C19.298817,25.651647 19.082709,25.815591 18.8163,25.660962 Z" id="Path" fill="url(#linearGradient-19)"></path>
                        <path d="M18.8163,33.112962 L3.094443,24.0327 C2.79398038,23.8169462 2.61412978,23.4710796 2.610063,23.1012 L2.610063,23.1012 C2.610063,22.745367 2.828034,22.581423 3.094443,22.7286 L18.8163,31.823766 C19.1162915,32.0397173 19.2954827,32.3856463 19.298817,32.755266 L19.298817,32.755266 C19.298817,33.103647 19.082709,33.267591 18.8163,33.112962 Z" id="Path" fill="url(#linearGradient-20)"></path>
                        <path d="M18.8163,48.016962 L3.094443,38.9367 C2.79398038,38.7209462 2.61412978,38.3750796 2.610063,38.0052 L2.610063,38.0052 C2.610063,37.649367 2.828034,37.485423 3.094443,37.6326 L18.8163,46.727766 C19.1162915,46.9437173 19.2954827,47.2896463 19.298817,47.659266 L19.298817,47.659266 C19.298817,48.007647 19.082709,48.171591 18.8163,48.016962 Z" id="Path" fill="url(#linearGradient-21)"></path>
                        <path d="M18.8163,55.468962 L3.094443,46.3887 C2.79398038,46.1729462 2.61412978,45.8270796 2.610063,45.4572 L2.610063,45.4572 C2.610063,45.101367 2.828034,44.937423 3.094443,45.0846 L18.8163,54.179766 C19.1162915,54.3957173 19.2954827,54.7416463 19.298817,55.111266 L19.298817,55.111266 C19.298817,55.459647 19.082709,55.623591 18.8163,55.468962 Z" id="Path" fill="url(#linearGradient-22)"></path>
                        <path d="M18.8163,62.920962 L3.094443,53.8407 C2.79398038,53.6249462 2.61412978,53.2790796 2.610063,52.9092 L2.610063,52.9092 C2.610063,52.553367 2.828034,52.389423 3.094443,52.5366 L18.8163,61.631766 C19.1162915,61.8477173 19.2954827,62.1936463 19.298817,62.563266 L19.298817,62.563266 C19.298817,62.911647 19.082709,63.075591 18.8163,62.920962 Z" id="Path" fill="url(#linearGradient-23)"></path>
                    </g>
                    <g id="box_code" transform="translate(33.631500, 137.556713)">
                        <path d="M23.619114,20.058921 C23.954454,20.245221 23.956317,20.565657 23.619114,20.759409 L14.889096,25.832358 C14.5093532,26.0261105 14.0597518,26.0261105 13.680009,25.832358 L4.892238,20.759409 C4.556898,20.573109 4.555035,20.252673 4.892238,20.058921 L13.622256,14.984109 C14.0024318,14.7921663 14.4511672,14.7921663 14.831343,14.984109 L23.619114,20.058921 Z" id="Path" fill="url(#linearGradient-24)"></path>
                        <path d="M20.1204,5.83119 C20.1204,5.840505 20.1204,5.84982 20.1204,5.859135 L20.1204,5.881491 C20.1204,5.881491 20.1204,5.900121 20.1204,5.909436 L20.1204,5.929929 C20.1168327,5.93958839 20.1124708,5.9489354 20.107359,5.957874 L20.094318,5.978367 L20.073825,6.008175 L20.051469,6.037983 L20.051469,6.037983 L20.014209,6.075243 L19.988127,6.097599 L19.962045,6.116229 L19.930374,6.138585 C19.9198915,6.14649392 19.9086599,6.15335765 19.89684,6.159078 L10.820304,11.435094 L10.736469,11.477943 L10.710387,11.489121 L10.641456,11.515203 L10.615374,11.515203 L10.568799,11.528244 L10.535265,11.528244 L10.484964,11.539422 L10.45143,11.539422 L10.350828,11.552463 L10.319157,11.552463 L10.259541,11.552463 L10.0602,11.552463 L10.019214,11.552463 L9.974502,11.552463 L9.935379,11.552463 L9.886941,11.552463 L9.849681,11.552463 L9.795654,11.539422 L9.765846,11.530107 L9.66897,11.498436 L9.624258,11.479806 L9.601902,11.468628 C9.57960808,11.4585719 9.5578445,11.4473792 9.536697,11.435094 L0.407997,6.159078 C0.277974029,6.09842331 0.182657106,5.98184866 0.14904,5.842368 C0.147255773,5.82627129 0.147255773,5.81002671 0.14904,5.79393 L0.135999,17.700363 C0.148911216,17.8632268 0.249624032,18.0060819 0.398682,18.072963 L9.527382,23.348979 L9.592587,23.382513 L9.616806,23.391828 L9.655929,23.410458 L9.655929,23.410458 C9.68688241,23.4235737 9.71861333,23.4347729 9.750942,23.443992 L9.750942,23.443992 L9.773298,23.443992 L9.829188,23.457033 L9.844092,23.457033 L9.866448,23.457033 L9.913023,23.457033 L9.931653,23.457033 L9.952146,23.457033 L9.996858,23.457033 L10.019214,23.457033 L10.037844,23.457033 L10.082556,23.457033 L10.211103,23.457033 L10.270719,23.457033 L10.30239,23.457033 L10.404855,23.442129 L10.404855,23.442129 L10.434663,23.442129 L10.483101,23.430951 L10.518498,23.430951 L10.56321,23.41791 L10.574388,23.41791 C10.574388,23.41791 10.583703,23.41791 10.589292,23.41791 L10.660086,23.391828 L10.684305,23.38065 C10.7129572,23.3684847 10.7409418,23.3548033 10.76814,23.339664 L19.85958,18.0711 L19.868895,18.0711 L19.893114,18.054333 L19.924785,18.03384 L19.949004,18.013347 L19.976949,17.990991 L19.976949,17.990991 L20.00862,17.957457 L20.00862,17.957457 L20.02725,17.936964 L20.02725,17.927649 C20.035135,17.9178126 20.0420012,17.9072012 20.047743,17.895978 L20.047743,17.882937 L20.047743,17.882937 C20.0528548,17.8739984 20.0572167,17.8646514 20.060784,17.854992 C20.0614854,17.849425 20.0614854,17.843792 20.060784,17.838225 C20.0618557,17.829564 20.0618557,17.820804 20.060784,17.812143 L20.060784,17.793513 L20.060784,17.793513 C20.0616935,17.7842202 20.0616935,17.7748608 20.060784,17.765568 C20.060784,17.765568 20.060784,17.752527 20.060784,17.746938 L20.060784,17.746938 L20.073825,5.838642 C20.129715,5.814423 20.1204,5.823738 20.1204,5.83119 Z" id="Path" fill="#EAF0FE"></path>
                        <path d="M20.1204,5.859135 L20.1204,5.881491 C20.1204,5.881491 20.1204,5.900121 20.1204,5.909436 L20.1204,5.929929 C20.1168327,5.93958839 20.1124708,5.9489354 20.107359,5.957874 L20.094318,5.978367 L20.073825,6.008175 L20.051469,6.037983 L20.051469,6.037983 L20.014209,6.075243 L19.988127,6.097599 L19.962045,6.116229 L19.930374,6.138585 C19.9198915,6.14649392 19.9086599,6.15335765 19.89684,6.159078 L10.820304,11.435094 L10.736469,11.477943 L10.710387,11.489121 L10.641456,11.515203 L10.615374,11.515203 L10.568799,11.528244 L10.535265,11.528244 L10.484964,11.539422 L10.45143,11.539422 L10.350828,11.552463 L10.319157,11.552463 L10.259541,11.552463 L10.147761,11.552463 L10.147761,23.460759 L10.2465,23.460759 L10.306116,23.460759 L10.337787,23.460759 L10.440252,23.445855 L10.440252,23.445855 L10.47006,23.445855 L10.518498,23.434677 L10.553895,23.434677 L10.598607,23.421636 L10.609785,23.421636 C10.609785,23.421636 10.6191,23.421636 10.624689,23.421636 L10.695483,23.395554 L10.719702,23.384376 C10.7483542,23.3722107 10.7763388,23.3585293 10.803537,23.34339 L19.85958,18.0711 L19.868895,18.0711 L19.893114,18.054333 L19.924785,18.03384 L19.949004,18.013347 L19.976949,17.990991 L19.976949,17.990991 L20.00862,17.957457 L20.00862,17.957457 L20.02725,17.936964 L20.02725,17.927649 C20.035135,17.9178126 20.0420012,17.9072012 20.047743,17.895978 L20.047743,17.882937 L20.047743,17.882937 C20.0528548,17.8739984 20.0572167,17.8646514 20.060784,17.854992 C20.0614854,17.849425 20.0614854,17.843792 20.060784,17.838225 C20.0618557,17.829564 20.0618557,17.820804 20.060784,17.812143 L20.060784,17.793513 L20.060784,17.793513 C20.0616935,17.7842202 20.0616935,17.7748608 20.060784,17.765568 C20.060784,17.765568 20.060784,17.752527 20.060784,17.746938 L20.060784,17.746938 L20.073825,5.838642 C20.073825,5.847957 20.073825,5.857272 20.073825,5.864724 C20.073825,5.872176 20.1204,5.84982 20.1204,5.859135 Z" id="Path" fill="#DEE7FF"></path>
                        <path d="M10.8054,17.001738 C10.7771887,17.0184802 10.7479429,17.0334142 10.717839,17.04645 L10.691757,17.057628 C10.6676821,17.0688682 10.6427664,17.0782116 10.617237,17.085573 L10.602333,17.085573 L10.591155,17.085573 L10.542717,17.098614 L10.50732,17.109792 L10.455156,17.12097 L10.425348,17.12097 L10.425348,17.12097 L10.319157,17.134011 L10.285623,17.134011 L10.224144,17.134011 L9.998721,17.134011 L9.952146,17.134011 L9.92979,17.134011 L9.91116,17.134011 L9.860859,17.134011 L9.838503,17.134011 L9.823599,17.134011 L9.765846,17.12097 L9.741627,17.12097 L9.741627,17.12097 C9.70807961,17.1117551 9.67510865,17.1005574 9.642888,17.087436 L9.642888,17.087436 L9.600039,17.068806 L9.577683,17.068806 C9.553464,17.057628 9.531108,17.044587 9.508752,17.031546 L0.139725,11.628846 L0.139725,12.683304 C0.151841457,12.8464541 0.252813026,12.9896762 0.402408,13.055904 L9.531108,18.33192 L9.596313,18.365454 L9.620532,18.365454 L9.659655,18.384084 L9.659655,18.384084 L9.754668,18.415755 L9.754668,18.415755 L9.777024,18.415755 L9.832914,18.430659 L9.847818,18.430659 L9.870174,18.430659 L9.916749,18.430659 L9.935379,18.430659 L9.955872,18.430659 L10.000584,18.430659 L10.04157,18.430659 L10.086282,18.430659 L10.214829,18.430659 L10.274445,18.430659 L10.306116,18.430659 L10.408581,18.417618 L10.408581,18.417618 L10.438389,18.417618 L10.486827,18.40644 L10.522224,18.40644 L10.566936,18.393399 L10.578114,18.393399 L10.593018,18.393399 L10.663812,18.367317 C10.672223,18.3643719 10.6803329,18.3606288 10.688031,18.356139 C10.7166832,18.3439737 10.7446678,18.3302923 10.771866,18.315153 L19.850265,13.039137 L19.85958,13.039137 L19.883799,13.024233 L19.91547,13.001877 L19.939689,12.983247 L19.967634,12.959028 L19.967634,12.959028 L19.999305,12.927357 L19.999305,12.927357 L20.017935,12.906864 L20.017935,12.906864 L20.038428,12.877056 C20.0375746,12.8727509 20.0375746,12.8683201 20.038428,12.864015 C20.038428,12.864015 20.038428,12.864015 20.038428,12.864015 C20.0435398,12.8550764 20.0479017,12.8457294 20.051469,12.83607 C20.0522728,12.830503 20.0522728,12.82487 20.051469,12.819303 C20.0525407,12.810642 20.0525407,12.801882 20.051469,12.793221 L20.051469,12.776454 L20.051469,12.776454 C20.0522728,12.7671612 20.0522728,12.7578018 20.051469,12.748509 C20.051469,12.748509 20.051469,12.735468 20.051469,12.729879 L20.051469,11.664243 L10.8054,17.001738 Z" id="Path" fill="url(#linearGradient-25)"></path>
                        <path d="M19.867032,5.43996 C20.215413,5.639301 20.217276,5.965326 19.867032,6.16653 L10.790496,11.442546 C10.3954382,11.6436362 9.92802882,11.6436362 9.532971,11.442546 L0.404271,6.16653 C0.05589,5.965326 0.054027,5.639301 0.404271,5.43996 L9.48267,0.163944 C9.87772782,-0.0371462008 10.3451372,-0.0371462008 10.740195,0.163944 L19.867032,5.43996 Z" id="Path" fill="url(#linearGradient-26)"></path>
                        <path d="M7.506027,4.50846 L7.878627,4.294215 C8.34624,4.480515 8.702073,4.437666 8.964756,4.294215 C9.372753,4.059477 9.83664,3.668247 10.281897,3.413016 C10.7626189,3.13050367 11.3586431,3.13050367 11.839365,3.413016 L12.144897,3.588138 L11.731311,3.826602 L11.515203,3.701781 C11.273445,3.54420816 10.96146,3.54420816 10.719702,3.701781 C10.32102,3.93093 9.845955,4.320297 9.415602,4.571802 C9.02459492,4.79553974 8.55207558,4.82580299 8.135721,4.653774 L8.126406,4.653774 C8.435664,4.93695 8.333199,5.190318 7.977366,5.398974 C7.543287,5.650479 6.859566,5.92434 6.470199,6.144174 C6.188886,6.308118 6.220557,6.453432 6.48324,6.604335 L6.699348,6.729156 L6.285762,6.96762 L5.98023,6.792498 C5.518206,6.524226 5.45859,6.188886 5.98023,5.892669 C6.425487,5.635575 7.09803,5.367303 7.50789,5.132565 C7.753806,4.983525 7.8246,4.778595 7.506027,4.50846 Z" id="Path" fill="url(#linearGradient-27)"></path>
                        <path d="M11.280465,7.314138 C10.872468,7.548876 10.408581,7.940106 9.963324,8.195337 C9.48260212,8.47784933 8.88657788,8.47784933 8.405856,8.195337 L8.100324,8.020215 L8.51391,7.781751 L8.730018,7.906572 C8.97345382,8.060727 9.28394618,8.060727 9.527382,7.906572 C9.924201,7.67556 10.399266,7.286193 10.831482,7.036551 C11.223881,6.81145147 11.6981451,6.77983386 12.116952,6.950853 L12.116952,6.950853 C11.802105,6.673266 11.90457,6.418035 12.260403,6.205653 C12.694482,5.954148 13.378203,5.680287 13.76757,5.451138 C14.050746,5.287194 14.017212,5.14188 13.754529,4.990977 L13.538421,4.866156 L13.952007,4.627692 L14.257539,4.802814 C14.719563,5.071086 14.779179,5.406426 14.266854,5.702643 C13.82346,5.959737 13.149054,6.228009 12.739194,6.46461 C12.478374,6.615513 12.405717,6.820443 12.726153,7.090578 L12.353553,7.304823 C11.898981,7.122249 11.5506,7.163235 11.280465,7.314138 Z" id="Path" fill="url(#linearGradient-28)"></path>
                    </g>
                    <g id="box_code" transform="translate(58.000000, 49.131813)">
                        <path d="M41.1828714,24.4716945 C41.7582995,24.7895121 41.7614963,25.3361583 41.1828714,25.6666886 L26.2025617,34.3208619 C25.5509405,34.651393 24.7794452,34.651393 24.127824,34.3208619 L9.04841277,25.6666886 C8.47298474,25.348871 8.46978792,24.8022248 9.04841277,24.4716945 L24.0287225,15.8143431 C24.6810867,15.4868993 25.451096,15.4868993 26.1034602,15.8143431 L41.1828714,24.4716945 Z" id="Path" fill="url(#linearGradient-29)"></path>
                        <path d="M33.912,9.8856 C33.9128835,9.90157832 33.9128835,9.91762168 33.912,9.9336 C33.912,9.9456 33.912,9.9576 33.912,9.972 C33.912,9.9864 33.912,10.0008 33.912,10.0152 C33.912,10.0296 33.9,10.0416 33.8952,10.0536 L33.8736,10.0992 C33.866306,10.1098649 33.8598851,10.1211014 33.8544,10.1328 L33.8184,10.1856 C33.8061125,10.2026708 33.7924683,10.2187228 33.7776,10.2336 C33.7786161,10.2375355 33.7786161,10.2416645 33.7776,10.2456 L33.7152,10.308 L33.6696,10.3464 L33.6264,10.38 L33.5736,10.416 L33.516,10.452 L18.2064,19.3488 C18.160708,19.3756571 18.1134202,19.3997017 18.0648,19.4208 L18.0216,19.4376 L17.904,19.4832 L17.8608,19.4976 L17.784,19.5192 L17.7264,19.536 L17.6424,19.5528 L17.5872,19.5528 L17.4168,19.5768 L17.3616,19.5768 L17.2608,19.5768 L17.0448,19.5768 L16.9704,19.5768 L16.9008,19.5768 L16.824,19.5768 L16.7568,19.5768 L16.6776,19.5624 L16.6152,19.5624 L16.524,19.5408 L16.4712,19.5264 C16.416,19.5096 16.3632,19.4928 16.3104,19.4712 L16.236,19.44 L16.1976,19.4232 C16.1592,19.404 16.1232,19.3872 16.0872,19.3656 L0.6768,10.4688 C0.458502849,10.3646815 0.298255967,10.1683351 0.24,9.9336 C0.237545293,9.9056538 0.237545293,9.8775462 0.24,9.8496 L0.2184,20.0856 C0.243314743,20.3566091 0.413308807,20.592763 0.6624,20.7024 L16.0704,29.5992 C16.1059147,29.620769 16.1427922,29.6400094 16.1808,29.6568 L16.2192,29.6736 L16.2864,29.7048 L16.2864,29.7048 C16.3392,29.724 16.392,29.7432 16.4472,29.7576 L16.4592,29.7576 L16.4976,29.7576 L16.5912,29.7816 L16.6152,29.7816 L16.6536,29.7816 L16.7328,29.796 L16.764,29.796 L16.8,29.796 L16.8744,29.796 L16.9104,29.796 L16.944,29.796 L17.0208,29.796 L17.2368,29.796 L17.3376,29.796 L17.3904,29.796 C17.4476601,29.7917013 17.5045801,29.7836844 17.5608,29.772 L17.5608,29.772 L17.6088,29.772 L17.6904,29.7528 L17.7504,29.7384 L17.8272,29.7168 L17.844,29.7168 L17.8704,29.7168 C17.9112,29.7048 17.9496,29.688 17.988,29.6736 L18.0312,29.6544 C18.079585,29.6328054 18.1268455,29.6087746 18.1728,29.5824 L33.4824,20.6856 L33.4992,20.6856 L33.5376,20.6592 L33.5928,20.6232 L33.6336,20.5896 C33.6506255,20.5781373 33.6666796,20.565294 33.6816,20.5512 L33.6816,20.5512 L33.7368,20.4984 L33.7368,20.4864 L33.7656,20.4528 L33.7776,20.436 C33.7901837,20.4193197 33.8014192,20.4016639 33.8112,20.3832 C33.8168153,20.3765782 33.8216473,20.3693302 33.8256,20.3616 L33.8256,20.3616 L33.8472,20.316 C33.8507426,20.3069992 33.854748,20.2981874 33.8592,20.2896 C33.8592,20.2896 33.8592,20.2896 33.8592,20.2896 C33.8602871,20.2744194 33.8602871,20.2591806 33.8592,20.244 C33.8605578,20.2336443 33.8605578,20.2231557 33.8592,20.2128 L33.8592,20.2128 C33.8605357,20.1968279 33.8605357,20.1807721 33.8592,20.1648 C33.8592,20.1648 33.8592,20.1456 33.8592,20.136 L33.8592,20.1216 L33.8808,9.888 C33.8911434,9.8865838 33.9015617,9.88578239 33.912,9.8856 L33.912,9.8856 Z" id="Path" fill="#EAF0FE"></path>
                        <path d="M33.912,16.8192 L33.912,14.964 C33.9128851,14.9783758 33.9128851,14.9928242 33.912,15.0072 C33.9128851,15.0231822 33.9128851,15.0392178 33.912,15.0552 C33.912,15.0552 33.912,15.0792 33.912,15.0936 C33.912,15.108 33.912,15.1224 33.912,15.1368 L33.8952,15.1728 L33.8736,15.2208 C33.866306,15.2314649 33.8598851,15.2427014 33.8544,15.2544 L33.8184,15.3072 C33.8184,15.324 33.792,15.3384 33.7776,15.3552 L33.7776,15.3552 L33.7152,15.4176 L33.6696,15.456 L33.6264,15.4896 L33.5736,15.5256 L33.516,15.5616 L18.1704,24.48 C18.1248,24.5064 18.0792,24.528 18.0288,24.552 L17.9856,24.5688 L17.868,24.6144 L17.8248,24.6288 L17.748,24.6504 L17.6904,24.6672 L17.6064,24.684 L17.5512,24.696 L17.3808,24.72 L17.3256,24.72 L17.2248,24.72 L17.0088,24.72 L16.9344,24.72 L16.8648,24.72 L16.788,24.72 L16.7208,24.72 L16.6416,24.7056 L16.5792,24.6936 L16.488,24.672 L16.4352,24.6576 C16.38,24.6408 16.3272,24.624 16.2744,24.6024 L16.2,24.5712 L16.1616,24.5544 L16.0512,24.4968 L0.6408,15.6 C0.422502849,15.4958815 0.262255967,15.2995351 0.204,15.0648 C0.201617052,15.0368507 0.201617052,15.0087493 0.204,14.9808 L0.204,16.836 L16.0152,25.956 C16.0525711,25.9779164 16.0910195,25.9979417 16.1304,26.016 L16.1688,26.0328 L16.248,26.0664 C16.3032,26.088 16.3608,26.1072 16.4184,26.124 L16.4712,26.1384 L16.5672,26.1624 L16.6344,26.1768 L16.716,26.1912 L16.788,26.1912 L16.8648,26.1912 L16.9368,26.1912 L17.016,26.1912 L17.244,26.1912 L17.3496,26.1912 L17.4048,26.1912 C17.4648,26.1912 17.5248,26.1768 17.5824,26.1648 L17.6424,26.1648 L17.7288,26.148 L17.7912,26.1312 L17.8704,26.1072 L17.916,26.0928 L18.0408,26.0448 L18.084,26.0256 C18.1344,26.004 18.1848,25.9776 18.2328,25.9512" id="Path" fill="url(#linearGradient-30)"></path>
                        <path d="M33.4728,9.2232 C34.0608,9.5616 34.0632,10.1136 33.4728,10.452 L18.1632,19.3488 C17.4973736,19.6873922 16.7098264,19.6873922 16.044,19.3488 L0.6336,10.452 C0.0456,10.1136 0.0432,9.564 0.6336,9.2232 L15.9432,0.3264 C16.6099572,-0.0118375944 17.3980428,-0.0118375944 18.0648,0.3264 L33.4728,9.2232 Z" id="Path" fill="url(#linearGradient-31)"></path>
                        <polygon id="Path" fill="#EAF0FE" points="12.4632 9.7752 11.4408 9.1848 11.3304 6.7848 15.4944 6.8544 16.5168 7.4448 12.3432 7.3704"></polygon>
                        <polygon id="Path" fill="#EAF0FE" points="23.5032 7.92 24.3096 8.3856 12.0552 12.6504 11.256 12.1896"></polygon>
                        <polygon id="Path" fill="#EAF0FE" points="22.7376 13.3608 22.608 10.9608 23.6304 11.5512 23.7576 13.9512 19.5768 13.8816 18.5544 13.2912"></polygon>
                    </g>
                    <g id="编组-7" transform="translate(37.816470, 77.195539)">
                        <path d="M124.908421,89.9304261 C115.742136,92.0613932 104.628599,91.6596013 92.5619548,84.5279653 C88.1175071,81.9012048 85.4026729,80.4281399 82.0635296,78.288274 C82.0235296,77.984274 81.8015296,77.688274 81.3995296,77.454274 L57.9835296,63.936274 C57.0895296,63.420274 55.6475296,63.420274 54.7595296,63.936274 L31.4895296,77.456274 C30.6035296,77.972274 30.6075296,78.808274 31.5015296,79.324274 L54.9235296,92.846274 C55.8155296,93.360274 57.2575296,93.360274 58.1455296,92.846274 L80.6575296,79.764274 C84.0092179,81.8818914 86.3304179,83.4058544 91.1699548,85.9759653 C102.098889,91.7799447 107.207123,92.4281332 114.375888,92.6815989 C118.055573,92.8117014 121.837561,92.0613932 125.208421,91.5430394 C130.30477,90.4295302 130.807069,88.5591154 124.908421,89.9304261 Z" id="Path" fill="url(#linearGradient-32)"></path>
                        <path d="M77.6835296,66.436274 C81.0456529,74.0695395 88.6411879,80.804072 100.470135,86.6398714 C112.145082,92.3996955 126.214312,90.7125175 133.333594,79.2181373 C140.452877,67.7237571 136.187807,60.6580104 137.627747,50.3533085 C138.587706,43.4835072 141.154767,36.2254991 145.32893,28.5792841" id="直线" stroke="url(#linearGradient-33)" stroke-width="2" stroke-linecap="square"></path>
                        <path d="M0,23 C2.66548715,27.5966672 6.56781192,32.4133455 12.9987449,42.364274 C17.0188905,48.5848615 25.8039265,50.6471533 39.353853,48.5511495" id="直线-2备份-3" stroke="#EEF4FF" stroke-linecap="square"></path>
                        <path d="M6,17 C8.66548715,21.5966672 10.6999475,27.2012811 14.2615397,37.777047 C16.5269248,44.503865 22.0389214,48.2899233 30.7975296,49.135222" id="直线-2" stroke="url(#linearGradient-34)" stroke-linecap="square"></path>
                        <path d="M12.3685464,80.9462025 C14.8288166,85.301696 26.0047139,83.818207 33.3742321,75.9080511 C36.3935281,72.6672555 38.8340013,70.2695725 40.6956516,68.7150022" id="直线-2备份-2" stroke="url(#linearGradient-35)" stroke-linecap="square"></path>
                        <path d="M42,0 C44.6654871,4.5966672 49.6844333,1.21114832 53.2460255,11.7869142 C55.5114106,18.5137322 51.4905786,24.1388597 41.1835296,28.6622966" id="直线-2备份" stroke="url(#linearGradient-36)" stroke-linecap="square"></path>
                        <path d="M82.0715296,33.098274 C82.0715296,33.122274 82.0715296,33.146274 82.0715296,33.168274 C82.0715296,33.190274 82.0715296,33.208274 82.0555296,33.228274 C82.0504418,33.2513755 82.0437591,33.2740966 82.0355296,33.296274 C82.0355296,33.314274 82.0215296,33.332274 82.0135296,33.350274 C82.0055296,33.368274 81.9915296,33.398274 81.9795296,33.422274 C81.9707172,33.439625 81.9606923,33.4563331 81.9495296,33.472274 C81.9333863,33.500148 81.9153437,33.5268778 81.8955296,33.552274 C81.8775296,33.578274 81.8575296,33.602274 81.8355296,33.628274 L81.8195296,33.644274 C81.7895631,33.6782448 81.7575004,33.7103075 81.7235296,33.740274 L81.6535296,33.796274 L81.5915296,33.848274 L81.5095296,33.902274 C81.4795296,33.920274 81.4535296,33.940274 81.4215296,33.958274 L58.1455296,47.480274 C58.0757965,47.5206398 58.0036621,47.556707 57.9295296,47.588274 L57.8655296,47.616274 C57.806816,47.6422097 57.746726,47.6649103 57.6855296,47.684274 L57.6195296,47.706274 C57.5815104,47.7197097 57.5427861,47.7310599 57.5035296,47.740274 L57.4135296,47.764274 L57.2875296,47.792274 L57.2015296,47.808274 C57.1175296,47.824274 57.0295296,47.836274 56.9435296,47.844274 L56.8615296,47.844274 L56.7075296,47.844274 L56.4835296,47.844274 L56.3795296,47.844274 L56.2635296,47.844274 L56.1595296,47.844274 L56.0455296,47.830274 L55.9435296,47.816274 L55.8215296,47.796274 L55.7275296,47.776274 L55.5855296,47.742274 L55.5075296,47.720274 C55.4255296,47.696274 55.3435296,47.668274 55.2635296,47.638274 L55.1495296,47.590274 L55.0895296,47.564274 C55.0327461,47.537762 54.9773418,47.508391 54.9235296,47.476274 L31.5015296,33.958274 C31.1699172,33.8005064 30.9263161,33.5026086 30.8375296,33.146274 C30.8346336,33.1036565 30.8346336,33.0608915 30.8375296,33.018274 L30.7975296,63.536274 C30.7975296,63.876274 31.0215296,64.216274 31.4695296,64.476274 L54.8915296,77.998274 C54.9455296,78.030274 55.0015296,78.058274 55.0595296,78.086274 L55.1175296,78.110274 L55.2195296,78.156274 L55.2335296,78.156274 C55.3115296,78.186274 55.3935296,78.214274 55.4775296,78.238274 L55.4975296,78.238274 L55.5555296,78.252274 L55.6975296,78.286274 L55.7355296,78.296274 L55.7915296,78.296274 L55.9115296,78.316274 L55.9615296,78.316274 C55.9788456,78.3173689 55.9962135,78.3173689 56.0135296,78.316274 L56.1275296,78.330274 L56.1815296,78.330274 L56.2335296,78.330274 L56.3475296,78.330274 L56.4075296,78.330274 L56.6775296,78.330274 L56.8315296,78.330274 L56.8935296,78.330274 L56.9115296,78.330274 C56.9995296,78.330274 57.0855296,78.310274 57.1715296,78.294274 L57.1835296,78.294274 L57.2575296,78.278274 L57.3835296,78.250274 L57.4735296,78.226274 L57.5895296,78.192274 L57.6155296,78.192274 L57.6555296,78.176274 C57.7175296,78.156274 57.7755296,78.132274 57.8335296,78.108274 L57.8995296,78.080274 C57.9730123,78.0487012 58.044481,78.0126329 58.1135296,77.972274 L81.3835296,64.482274 L81.4115296,64.466274 L81.4695296,64.426274 L81.5515296,64.372274 L81.6155296,64.320274 L81.6855296,64.264274 L81.6995296,64.252274 C81.7295296,64.224274 81.7555296,64.196274 81.7815296,64.168274 L81.7975296,64.152274 L81.8415296,64.100274 L81.8575296,64.076274 C81.8755296,64.050274 81.8935296,64.024274 81.9095296,63.996274 L81.9335296,63.964274 C81.9327766,63.9582976 81.9327766,63.9522504 81.9335296,63.946274 C81.9455296,63.922274 81.9555296,63.898274 81.9655296,63.874274 L81.9855296,63.834274 C81.9852742,63.8296108 81.9852742,63.8249372 81.9855296,63.820274 C81.9855296,63.796274 81.9995296,63.774274 82.0055296,63.752274 C82.0115296,63.730274 82.0155296,63.720274 82.0175296,63.706274 C82.0185008,63.7016578 82.0185008,63.6968901 82.0175296,63.692274 C82.0175296,63.670274 82.0175296,63.646274 82.0175296,63.622274 C82.0184905,63.6062884 82.0184905,63.5902596 82.0175296,63.574274 L82.0175296,63.554274 L82.0495296,33.030274 L82.0715296,33.098274 Z" id="Path" fill="#EAF0FE"></path>
                        <path d="M82.0635296,33.168274 C82.0635296,33.188274 82.0635296,33.208274 82.0475296,33.228274 C82.0424418,33.2513755 82.0357591,33.2740966 82.0275296,33.296274 C82.0275296,33.314274 82.0135296,33.332274 82.0055296,33.350274 C81.9975296,33.368274 81.9835296,33.398274 81.9715296,33.422274 C81.9627172,33.439625 81.9526923,33.4563331 81.9415296,33.472274 C81.9253863,33.500148 81.9073437,33.5268778 81.8875296,33.552274 C81.8695296,33.578274 81.8495296,33.602274 81.8275296,33.628274 L81.8115296,33.644274 C81.7815631,33.6782448 81.7495004,33.7103075 81.7155296,33.740274 L81.6455296,33.796274 L81.5835296,33.848274 L81.5015296,33.902274 C81.4715296,33.920274 81.4455296,33.940274 81.4135296,33.958274 L58.1455296,47.480274 C58.0757965,47.5206398 58.0036621,47.556707 57.9295296,47.588274 L57.8655296,47.616274 C57.806816,47.6422097 57.746726,47.6649103 57.6855296,47.684274 L57.6195296,47.706274 C57.5815104,47.7197097 57.5427861,47.7310599 57.5035296,47.740274 L57.4135296,47.764274 L57.2875296,47.792274 L57.2015296,47.808274 C57.1175296,47.824274 57.0295296,47.836274 56.9435296,47.844274 L56.8615296,47.844274 L56.7075296,47.844274 L56.4515296,47.844274 L56.4515296,78.370274 L56.6775296,78.370274 L56.8315296,78.370274 L56.8935296,78.370274 L56.9115296,78.370274 C56.9995296,78.370274 57.0855296,78.350274 57.1715296,78.334274 L57.1835296,78.334274 L57.2575296,78.318274 L57.3835296,78.290274 L57.4735296,78.266274 L57.5895296,78.232274 L57.6155296,78.232274 L57.6555296,78.216274 C57.7175296,78.196274 57.7755296,78.172274 57.8335296,78.148274 L57.8995296,78.120274 C57.9730123,78.0887012 58.044481,78.0526329 58.1135296,78.012274 L81.3835296,64.482274 L81.4115296,64.466274 L81.4695296,64.426274 L81.5515296,64.372274 L81.6155296,64.320274 L81.6855296,64.264274 L81.6995296,64.252274 C81.7295296,64.224274 81.7555296,64.196274 81.7815296,64.168274 L81.7975296,64.152274 L81.8415296,64.100274 L81.8575296,64.076274 C81.8755296,64.050274 81.8935296,64.024274 81.9095296,63.996274 L81.9335296,63.964274 C81.9327766,63.9582976 81.9327766,63.9522504 81.9335296,63.946274 C81.9455296,63.922274 81.9555296,63.898274 81.9655296,63.874274 L81.9855296,63.834274 C81.9852742,63.8296108 81.9852742,63.8249372 81.9855296,63.820274 C81.9855296,63.796274 81.9995296,63.774274 82.0055296,63.752274 C82.0115296,63.730274 82.0155296,63.720274 82.0175296,63.706274 C82.0185008,63.7016578 82.0185008,63.6968901 82.0175296,63.692274 C82.0175296,63.668274 82.0175296,63.646274 82.0175296,63.622274 C82.0184905,63.6062884 82.0184905,63.5902596 82.0175296,63.574274 L82.0175296,63.554274 L82.0495296,33.030274 L82.0495296,33.098274 C82.0695296,33.122274 82.0675296,33.146274 82.0635296,33.168274 Z" id="Path" fill="#DEE7FF"></path>
                        <path d="M81.4035296,32.090274 C82.2975296,32.606274 82.3015296,33.442274 81.4035296,33.958274 L58.1455296,47.480274 C57.2575296,47.996274 55.8155296,47.996274 54.9235296,47.480274 L31.5015296,33.958274 C30.6075296,33.442274 30.6035296,32.606274 31.4895296,32.092274 L54.7595296,18.568274 C55.6475296,18.052274 57.0895296,18.052274 57.9835296,18.568274 L81.4035296,32.090274 Z" id="Path" fill="url(#linearGradient-37)"></path>
                        <path d="M64.0115296,35.252274 C64.4535296,34.748274 66.1935296,34.486274 66.3395296,33.938274 C66.4855296,33.390274 64.9655296,32.820274 64.8115296,32.268274 C64.6575296,31.716274 65.8115296,30.916274 65.3555296,30.410274 C64.8995296,29.904274 63.1275296,29.980274 62.4215296,29.572274 C61.7155296,29.164274 61.8115296,28.128274 60.9675296,27.878274 C60.1235296,27.628274 58.6995296,28.278274 57.7515296,28.192274 C56.8035296,28.106274 55.8135296,27.224274 54.8575296,27.310274 C53.9015296,27.396274 53.4575296,28.398274 52.5835296,28.654274 C51.7435296,28.900274 50.0575296,28.514274 49.3555296,28.920274 C48.6535296,29.326274 49.3215296,30.298274 48.8935296,30.784274 C48.4655296,31.270274 46.7115296,31.550274 46.5655296,32.096274 C46.4195296,32.642274 47.9395296,33.214274 48.0935296,33.768274 C48.2475296,34.322274 47.1035296,35.120274 47.5495296,35.624274 C47.9955296,36.128274 49.7775296,36.056274 50.4835296,36.464274 C51.1895296,36.872274 51.0835296,37.908274 51.9375296,38.158274 C52.7915296,38.408274 54.2055296,37.758274 55.1535296,37.844274 C56.1015296,37.930274 57.0915296,38.812274 58.0475296,38.726274 C59.0035296,38.640274 59.4475296,37.636274 60.3215296,37.382274 C61.1615296,37.136274 62.8475296,37.520274 63.5495296,37.114274 C64.2515296,36.708274 63.5835296,35.736274 64.0115296,35.252274 Z M52.3755296,35.372274 C50.1095296,34.064274 50.0975296,31.948274 52.3495296,30.648274 C54.6015296,29.348274 58.2635296,29.356274 60.5295296,30.664274 C62.7955296,31.972274 62.8075296,34.086274 60.5555296,35.386274 C58.3035296,36.686274 54.6415296,36.680274 52.3835296,35.372274 L52.3755296,35.372274 Z" id="Shape" fill="url(#linearGradient-38)" fill-rule="nonzero"></path>
                        <path d="M54.8275296,51.320274 C54.8855296,51.354274 54.9435296,51.384274 55.0055296,51.414274 L55.0675296,51.440274 L55.1895296,51.492274 C55.2735296,51.526274 55.3615296,51.554274 55.4495296,51.580274 L55.5335296,51.602274 L55.6835296,51.640274 L55.7835296,51.660274 L55.9115296,51.682274 L56.0195296,51.698274 L56.1415296,51.710274 L56.2535296,51.710274 C56.2935296,51.710274 56.3355296,51.710274 56.3755296,51.710274 L56.4875296,51.710274 L56.6195296,51.710274 L56.7255296,51.710274 L56.8875296,51.700274 L56.9735296,51.700274 C57.0675296,51.690274 57.1595296,51.678274 57.2495296,51.662274 L57.3415296,51.644274 C57.3855296,51.634274 57.4315296,51.626274 57.4755296,51.614274 C57.5195296,51.602274 57.5375296,51.598274 57.5695296,51.590274 L57.6955296,51.554274 L57.7635296,51.530274 C57.8295296,51.508274 57.8935296,51.484274 57.9635296,51.458274 L58.0335296,51.428274 C58.1115296,51.392274 58.1895296,51.354274 58.2615296,51.312274 L82.0815296,37.470274 L82.0815296,33.022274 L82.0815296,33.090274 C82.0815296,33.114274 82.0815296,33.138274 82.0815296,33.160274 C82.0815296,33.182274 82.0815296,33.200274 82.0655296,33.220274 C82.0604418,33.2433755 82.0537591,33.2660966 82.0455296,33.288274 C82.0455296,33.306274 82.0315296,33.324274 82.0235296,33.342274 C82.0155296,33.360274 82.0015296,33.390274 81.9895296,33.414274 C81.9807172,33.431625 81.9706923,33.4483331 81.9595296,33.464274 C81.9433863,33.492148 81.9253437,33.5188778 81.9055296,33.544274 C81.8875296,33.570274 81.8675296,33.594274 81.8455296,33.620274 L81.8295296,33.636274 C81.7995631,33.6702448 81.7675004,33.7023075 81.7335296,33.732274 L81.6635296,33.788274 L81.6015296,33.840274 L81.5195296,33.894274 C81.4895296,33.912274 81.4635296,33.932274 81.4315296,33.950274 L58.1455296,47.480274 C58.0757965,47.5206398 58.0036621,47.556707 57.9295296,47.588274 L57.8655296,47.616274 C57.806816,47.6422097 57.746726,47.6649103 57.6855296,47.684274 L57.6195296,47.706274 C57.5815104,47.7197097 57.5427861,47.7310599 57.5035296,47.740274 L57.4135296,47.764274 L57.2875296,47.792274 L57.2015296,47.808274 C57.1175296,47.824274 57.0295296,47.836274 56.9435296,47.844274 L56.8615296,47.844274 L56.7075296,47.844274 L56.4835296,47.844274 L56.3795296,47.844274 L56.2635296,47.844274 L56.1595296,47.844274 L56.0455296,47.830274 L55.9435296,47.816274 L55.8215296,47.796274 L55.7275296,47.776274 L55.5855296,47.742274 L55.5075296,47.720274 C55.4255296,47.696274 55.3435296,47.668274 55.2635296,47.638274 L55.1495296,47.590274 L55.0895296,47.564274 C55.0327461,47.537762 54.9773418,47.508391 54.9235296,47.476274 L31.5015296,33.958274 C31.1699172,33.8005064 30.9263161,33.5026086 30.8375296,33.146274 C30.8346336,33.1036565 30.8346336,33.0608915 30.8375296,33.018274 L30.8375296,37.462274 L54.8275296,51.320274 Z" id="Path" fill="url(#linearGradient-39)"></path>
                        <path d="M54.8275296,74.006274 C54.8855296,74.040274 54.9435296,74.070274 55.0055296,74.100274 L55.0675296,74.126274 L55.1895296,74.178274 C55.2735296,74.212274 55.3615296,74.240274 55.4495296,74.266274 L55.5335296,74.288274 L55.6835296,74.326274 L55.7835296,74.346274 L55.9115296,74.368274 L56.0195296,74.384274 L56.1415296,74.396274 L56.2535296,74.396274 C56.2935296,74.396274 56.3355296,74.396274 56.3755296,74.396274 L56.4875296,74.396274 L56.6195296,74.396274 L56.7255296,74.396274 L56.8875296,74.386274 L56.9735296,74.386274 C57.0675296,74.386274 57.1595296,74.364274 57.2495296,74.348274 L57.3415296,74.330274 C57.3855296,74.330274 57.4315296,74.312274 57.4755296,74.300274 C57.5195296,74.288274 57.5375296,74.284274 57.5695296,74.276274 L57.6955296,74.240274 L57.7635296,74.216274 C57.8295296,74.194274 57.8935296,74.170274 57.9635296,74.144274 L58.0335296,74.114274 C58.1115296,74.078274 58.1895296,74.040274 58.2615296,73.998274 L82.0815296,60.156274 L82.0815296,55.708274 L82.0815296,55.776274 C82.0815296,55.800274 82.0815296,55.824274 82.0815296,55.846274 C82.0815296,55.868274 82.0815296,55.886274 82.0655296,55.906274 C82.0604418,55.9293755 82.0537591,55.9520966 82.0455296,55.974274 C82.0455296,55.992274 82.0315296,56.010274 82.0235296,56.028274 C82.0155296,56.046274 82.0015296,56.076274 81.9895296,56.100274 C81.9775296,56.124274 81.9695296,56.134274 81.9595296,56.150274 C81.9433863,56.178148 81.9253437,56.2048778 81.9055296,56.230274 C81.8875296,56.256274 81.8675296,56.280274 81.8455296,56.306274 L81.8295296,56.322274 C81.7995631,56.3562448 81.7675004,56.3883075 81.7335296,56.418274 L81.6635296,56.474274 L81.5835296,56.536274 L81.5015296,56.590274 C81.4715296,56.608274 81.4455296,56.628274 81.4135296,56.646274 L58.1455296,70.168274 C58.0757965,70.2086398 58.0036621,70.244707 57.9295296,70.276274 L57.8655296,70.304274 C57.8075296,70.328274 57.7475296,70.352274 57.6855296,70.372274 L57.6195296,70.394274 C57.5815104,70.4077097 57.5427861,70.4190599 57.5035296,70.428274 L57.4135296,70.452274 L57.2875296,70.480274 L57.2015296,70.496274 C57.1175296,70.512274 57.0295296,70.524274 56.9435296,70.532274 L56.8615296,70.532274 L56.7075296,70.532274 L56.4835296,70.532274 L56.3795296,70.532274 L56.2635296,70.532274 L56.1595296,70.532274 L56.0455296,70.518274 L55.9435296,70.504274 L55.8215296,70.484274 L55.7275296,70.464274 L55.5855296,70.430274 L55.5075296,70.408274 C55.4255296,70.384274 55.3435296,70.356274 55.2635296,70.326274 L55.1495296,70.278274 L55.0895296,70.252274 C55.0327461,70.225762 54.9773418,70.196391 54.9235296,70.164274 L31.5015296,56.644274 C31.1694557,56.4860801 30.9257818,56.1873593 30.8375296,55.830274 C30.8345595,55.7883265 30.8345595,55.7462215 30.8375296,55.704274 L30.8375296,60.148274 L54.8275296,74.006274 Z" id="Path" fill="url(#linearGradient-40)"></path>
                    </g>
                </g>
            </g>
        </g>
    </g>
</svg>