<?xml version="1.0" encoding="UTF-8"?>
<svg width="190px" height="124px" viewBox="0 0 190 124" version="1.1" xmlns="http://www.w3.org/2000/svg" xmlns:xlink="http://www.w3.org/1999/xlink">
    <title>image/3</title>
    <defs>
        <linearGradient x1="17.4191165%" y1="32.3524238%" x2="77.8034746%" y2="65.4718148%" id="linearGradient-1">
            <stop stop-color="#E1ECFF" offset="0%"></stop>
            <stop stop-color="#FFFFFF" offset="100%"></stop>
        </linearGradient>
        <linearGradient x1="50.7071092%" y1="53.6326907%" x2="51.2210055%" y2="59.2471648%" id="linearGradient-2">
            <stop stop-color="#BBD0FE" offset="0%"></stop>
            <stop stop-color="#E0EBFF" offset="39%"></stop>
        </linearGradient>
        <linearGradient x1="53.1666168%" y1="72.3496253%" x2="49.456567%" y2="46.1661437%" id="linearGradient-3">
            <stop stop-color="#BBD0FE" offset="0%"></stop>
            <stop stop-color="#E0EBFF" offset="100%"></stop>
        </linearGradient>
        <linearGradient x1="77.4679217%" y1="55.5784446%" x2="-42.1954614%" y2="31.2743127%" id="linearGradient-4">
            <stop stop-color="#253C6F" offset="0%"></stop>
            <stop stop-color="#3068E8" offset="100%"></stop>
        </linearGradient>
        <linearGradient x1="89.8492478%" y1="49.0376101%" x2="-70.5826827%" y2="54.9098691%" id="linearGradient-5">
            <stop stop-color="#253C6F" offset="0%"></stop>
            <stop stop-color="#3068E8" offset="100%"></stop>
        </linearGradient>
        <linearGradient x1="77.4679217%" y1="55.5790789%" x2="-42.1954614%" y2="31.274947%" id="linearGradient-6">
            <stop stop-color="#28C4FF" offset="0%"></stop>
            <stop stop-color="#34EDCB" offset="100%"></stop>
        </linearGradient>
        <linearGradient x1="49.8440459%" y1="37.4697837%" x2="50.5569789%" y2="59.1661059%" id="linearGradient-7">
            <stop stop-color="#5781DB" offset="0%"></stop>
            <stop stop-color="#A0BDFD" offset="100%"></stop>
        </linearGradient>
        <linearGradient x1="41.9852156%" y1="69.5190276%" x2="56.7920018%" y2="33.5058752%" id="linearGradient-8">
            <stop stop-color="#3158D3" offset="0%"></stop>
            <stop stop-color="#306EF3" offset="100%"></stop>
        </linearGradient>
        <linearGradient x1="-0.00342697193%" y1="49.9822364%" x2="100.033997%" y2="49.9822364%" id="linearGradient-9">
            <stop stop-color="#CBDDFE" offset="0%"></stop>
            <stop stop-color="#EFF5FF" offset="100%"></stop>
        </linearGradient>
        <linearGradient x1="-0.0339916473%" y1="49.8366018%" x2="99.9694347%" y2="49.8366018%" id="linearGradient-10">
            <stop stop-color="#CBDDFE" offset="0%"></stop>
            <stop stop-color="#EFF5FF" offset="100%"></stop>
        </linearGradient>
        <linearGradient x1="93.9789596%" y1="80.6531019%" x2="38.4093775%" y2="41.9196215%" id="linearGradient-11">
            <stop stop-color="#3158D3" offset="0%"></stop>
            <stop stop-color="#306EF3" offset="100%"></stop>
        </linearGradient>
        <linearGradient x1="0.002394464%" y1="50.0032577%" x2="100.007183%" y2="50.0032577%" id="linearGradient-12">
            <stop stop-color="#3158D3" offset="0%"></stop>
            <stop stop-color="#306EF3" offset="100%"></stop>
        </linearGradient>
        <linearGradient x1="-0.00611421351%" y1="49.9983561%" x2="100%" y2="49.9983561%" id="linearGradient-13">
            <stop stop-color="#3158D3" offset="0%"></stop>
            <stop stop-color="#306EF3" offset="100%"></stop>
        </linearGradient>
        <linearGradient x1="96.6713634%" y1="88.2970738%" x2="37.6995619%" y2="39.9036918%" id="linearGradient-14">
            <stop stop-color="#BBD0FE" offset="0%"></stop>
            <stop stop-color="#E0EBFF" offset="39%"></stop>
        </linearGradient>
        <linearGradient x1="39.1219635%" y1="-30.8066172%" x2="53.2232799%" y2="76.0022818%" id="linearGradient-15">
            <stop stop-color="#3158D3" offset="0%"></stop>
            <stop stop-color="#306EF3" offset="100%"></stop>
        </linearGradient>
        <linearGradient x1="20.8462396%" y1="40.0297651%" x2="60.2417582%" y2="55.5623379%" id="linearGradient-16">
            <stop stop-color="#3068E8" offset="0%"></stop>
            <stop stop-color="#253C6F" offset="100%"></stop>
        </linearGradient>
    </defs>
    <g id="场景框架" stroke="none" stroke-width="1" fill="none" fill-rule="evenodd" opacity="0.899323963">
        <g id="引导页" transform="translate(-1273.000000, -435.000000)">
            <g id="编组-3" transform="translate(144.000000, 400.106787)">
                <g id="编组-6" transform="translate(1038.000000, 35.131813)">
                    <g id="image/3" transform="translate(91.000000, 0.000000)">
                        <g id="phone" transform="translate(5.400000, 0.160000)">
                            <path d="M180.4734,80.6256 L170.2692,74.7342 L170.0892,74.8386 L103.2372,113.6934 C102.70668,113.999128 102.15298,114.262737 101.5812,114.4818 L111.9312,120.4578 C115.488,122.5116 121.2408,122.5116 124.776,120.4578 L180.5148,88.0578 C184.05,86.0112 184.0302,82.6794 180.4734,80.6256 Z" id="Path" fill="url(#linearGradient-1)"></path>
                            <path d="M176.769,82.3014 L121.0302,114.6924 C117.495,116.7462 111.7422,116.7462 108.1854,114.6924 L2.772,53.8326 C0.972,52.7976 0.0864,51.4404 0.09,50.085 L0.072,53.8506 C0.072,55.2042 0.9612,56.5614 2.7522,57.5964 L108.1656,118.4562 C111.7242,120.51 117.477,120.51 121.0122,118.4562 L176.751,86.0562 C178.506,85.0356 179.3862,83.7 179.3898,82.3608 L179.4078,78.597 C179.4042,79.9434 178.524,81.2808 176.769,82.3014 Z" id="Path" fill="url(#linearGradient-2)"></path>
                            <path d="M176.7276,74.8602 C180.2844,76.914 180.3042,80.2458 176.769,82.3014 L121.0302,114.6924 C117.495,116.7462 111.7422,116.7462 108.1854,114.6924 L2.772,53.8326 C-0.7884,51.777 -0.8064,48.4452 2.7288,46.3914 L58.4676,13.9914 C62.0028,11.9358 67.7538,11.9358 71.3142,13.9914 L176.7276,74.8602 Z" id="Path" fill="url(#linearGradient-3)"></path>
                            <polygon id="Path" fill="url(#linearGradient-4)" points="72.3006 16.8966 7.398 54.6138 106.7634 111.9834 171.6678 74.2644"></polygon>
                            <path d="M43.9704,29.1924 L29.6136,37.4814 C29.088,37.7856 28.2906,37.818 27.8334,37.5552 L27.7038,37.4814 C27.2484,37.2168 27.306,36.7614 27.8334,36.4518 L42.1884,28.1718 C42.7158,27.8676 43.5132,27.8334 43.9686,28.098 L44.0982,28.1718 C44.5554,28.4292 44.4978,28.8882 43.9704,29.1924 Z" id="Path" fill="url(#linearGradient-5)"></path>
                            <polygon id="Path" fill="url(#linearGradient-6)" opacity="0.502038574" points="72.3006 10.4634 7.398 48.1824 106.7634 105.5502 171.6678 67.833"></polygon>
                            <polygon id="Path" fill="url(#linearGradient-6)" opacity="0.80397862" points="72.3006 0.108 7.398 37.827 106.7634 95.1948 171.6678 57.4776"></polygon>
                        </g>
                        <g id="box_code2" transform="translate(84.000000, 34.000000)">
                            <path d="M25.92,7.66304193 C25.9207115,7.67141609 25.9207115,7.67981235 25.92,7.68818651 L25.91136,7.70830218 L25.90272,7.73244098 L25.88976,7.75255664 C25.8850862,7.76111816 25.8797995,7.76951026 25.87392,7.77770122 L25.85808,7.79580532 L25.83072,7.82296147 C25.8215506,7.83249072 25.8114463,7.84156452 25.80048,7.85011762 L25.75152,7.88934316 C25.7401661,7.89659383 25.72814,7.90331364 25.71552,7.90945883 L25.68384,7.92756293 C25.6704781,7.93450888 25.6565332,7.94089024 25.64208,7.94667281 C25.6282453,7.95395224 25.6138214,7.9606686 25.59888,7.96678847 L13.83696,14.7412416 C13.8024,14.7543168 13.7664,14.7673919 13.72896,14.7794613 L13.69584,14.7885134 C13.66512,14.7972302 13.63488,14.8052764 13.60512,14.8126522 L13.572,14.8206985 L13.51296,14.8327679 L13.46688,14.8408141 L13.40352,14.850872 L13.36032,14.8569067 L13.22928,14.8699818 L13.18896,14.8699818 L13.1112,14.8699818 L12.94416,14.8699818 L12.88656,14.8699818 C12.8688309,14.8710174 12.8510091,14.8710174 12.83328,14.8699818 L12.77568,14.8699818 L12.72384,14.8649529 L12.66336,14.8579124 L12.61584,14.850872 L12.54384,14.8388026 L12.50496,14.8307563 C12.4628462,14.8228548 12.4214847,14.813113 12.38112,14.8015886 L12.32208,14.7844903 L12.29328,14.7754382 C12.26304,14.7663862 12.23568,14.7553225 12.20832,14.7452647 L0.37008,7.97081161 C0.202376598,7.91522055 0.0792284345,7.81001013 0.03456,7.68416338 C0.0331374064,7.66909299 0.0331374064,7.65397352 0.03456,7.63890313 L0.02016,16.4148649 C0.02016,16.5355589 0.13248,16.6552471 0.36,16.7467734 L12.19824,23.5212265 C12.2256,23.5322901 12.2544,23.5423479 12.2832,23.5524058 L12.312,23.560452 L12.36384,23.5765446 C12.40416,23.5866024 12.44448,23.5966602 12.48768,23.6057123 L12.49776,23.6057123 L12.52656,23.6107412 C12.55104,23.6107412 12.57408,23.6197933 12.59856,23.6228106 L12.61728,23.6228106 L12.64608,23.6228106 L12.70656,23.6298511 L12.73104,23.6298511 L12.7584,23.6298511 L12.816,23.63488 L12.84336,23.63488 L12.86928,23.63488 L12.92688,23.63488 L13.09392,23.63488 L13.17168,23.63488 L13.212,23.63488 C13.2559686,23.6320731 13.2997049,23.6277091 13.34304,23.6218048 L13.37904,23.6157701 L13.44384,23.6067181 L13.48848,23.597666 C13.50864,23.597666 13.5288,23.5906255 13.54752,23.5855966 L13.56048,23.5855966 L13.58064,23.5805677 L13.67136,23.5564289 L13.70448,23.5463711 C13.74192,23.5343017 13.77792,23.5222323 13.81248,23.5081513 L25.5744,16.7336982 L25.5888,16.7276635 L25.6176,16.7145883 L25.65936,16.6954784 L25.69248,16.6773743 L25.72704,16.6572587 C25.7416649,16.6480413 25.7556032,16.6383059 25.7688,16.628091 L25.79184,16.6039522 L25.79184,16.5959059 C25.80192,16.5868538 25.81056,16.576796 25.8192,16.567744 C25.8235341,16.5639619 25.8273887,16.5599235 25.83072,16.5556746 L25.83072,16.5496399 L25.848,16.5244953 C25.8514846,16.5199941 25.8543765,16.515281 25.85664,16.5104143 C25.85664,16.5104143 25.85664,16.5104143 25.85664,16.5053854 C25.8606614,16.4974811 25.8640269,16.4894215 25.86672,16.4812466 C25.86672,16.4752119 25.86672,16.470183 25.86672,16.4651541 L25.86672,16.4349806 C25.8660204,16.4296275 25.8660204,16.4242411 25.86672,16.418888 L25.88112,7.63488 C25.895398,7.64333384 25.9084235,7.65276856 25.92,7.66304193 Z" id="Path" fill="#EAF0FE"></path>
                            <path d="M25.91136,7.71611808 L25.90272,7.74025688 L25.88976,7.76037254 C25.8850862,7.76893406 25.8797995,7.77732616 25.87392,7.78551712 L25.85808,7.80362122 L25.83072,7.83077737 C25.8215506,7.84030662 25.8114463,7.84938042 25.80048,7.85793352 L25.75152,7.89715906 C25.7401661,7.90440974 25.72814,7.91112954 25.71552,7.91727473 L25.68384,7.93537883 C25.6704781,7.94232478 25.6565332,7.94870614 25.64208,7.95448871 C25.6282453,7.96176814 25.6138214,7.9684845 25.59888,7.97460438 L13.83696,14.7490575 C13.8024,14.7621327 13.7664,14.7752078 13.72896,14.7872772 L13.69584,14.7963293 C13.66512,14.8050461 13.63488,14.8130923 13.60512,14.8204681 L13.572,14.8285144 L13.51296,14.8405838 L13.46688,14.84863 L13.40352,14.8586879 L13.36032,14.8647226 L13.22928,14.8777977 L13.18896,14.8777977 L13.1112,14.8777977 L12.9672,14.8777977 L12.9672,23.6608 L13.09536,23.6608 L13.17312,23.6608 L13.21344,23.6608 C13.2574086,23.6579931 13.3011449,23.6536291 13.34448,23.6477248 L13.38048,23.6416901 L13.44528,23.6326381 L13.48992,23.623586 C13.51008,23.623586 13.53024,23.6165455 13.54896,23.6115166 L13.56192,23.6115166 L13.58208,23.6064877 L13.6728,23.5823489 L13.70592,23.5722911 C13.74336,23.5602217 13.77936,23.5481523 13.81392,23.5340713 L25.57584,16.7596182 L25.59024,16.7535835 L25.61904,16.7405083 L25.6608,16.7213984 L25.69392,16.7032943 L25.72848,16.6831787 C25.7431049,16.6739613 25.7570432,16.6642259 25.77024,16.654011 L25.79328,16.6298722 L25.79328,16.6218259 C25.80336,16.6127738 25.812,16.602716 25.82064,16.593664 C25.8249741,16.5898819 25.8288287,16.5858435 25.83216,16.5815946 L25.83216,16.5755599 L25.84944,16.5504153 C25.8529246,16.5459141 25.8558165,16.541201 25.85808,16.5363343 C25.85808,16.5363343 25.85808,16.5363343 25.85808,16.5313054 C25.8621014,16.5234011 25.8654669,16.5153415 25.86816,16.5071666 C25.86816,16.5011319 25.86816,16.496103 25.86816,16.4910741 L25.86816,16.4609006 C25.8674604,16.4555475 25.8674604,16.4501611 25.86816,16.444808 L25.88256,7.6608 C25.8832733,7.66883855 25.8832733,7.67690024 25.88256,7.6849388 C25.8953796,7.68803874 25.9078876,7.69173488 25.92,7.69600241 L25.91136,7.71611808 Z" id="Path" fill="#DEE7FF"></path>
                            <path d="M13.85856,22.14864 C13.8218388,22.1701212 13.7838491,22.1893565 13.7448,22.20624 L13.71024,22.22208 L13.6152,22.25808 L13.5936,22.26528 L13.58064,22.26528 L13.51872,22.28256 L13.4712,22.29552 L13.40352,22.30992 L13.36464,22.31856 L13.36464,22.31856 C13.31856,22.3272 13.27248,22.33296 13.22064,22.33872 L13.17744,22.33872 L13.0968,22.33872 L12.92256,22.33872 L12.86208,22.33872 L12.83472,22.33872 L12.80592,22.33872 L12.74544,22.33872 L12.71664,22.33872 L12.69072,22.33872 L12.62736,22.3272 L12.59712,22.3272 L12.57696,22.3272 L12.50208,22.30848 L12.47184,22.30848 L12.46032,22.30848 C12.41712,22.29552 12.37392,22.28112 12.33216,22.26528 L12.32496,22.26528 L12.27024,22.24224 L12.23856,22.22928 C12.20832,22.21488 12.17952,22.19904 12.15072,22.18176 L0.01152,15.17328 L0.01152,16.54128 C0.01152,16.71264 0.12384,16.88544 0.35136,17.01648 L12.1896,23.85072 C12.21696,23.86656 12.24576,23.88096 12.27456,23.89536 L12.30336,23.90832 L12.3552,23.93136 L12.3552,23.93136 C12.3956445,23.9476446 12.4369929,23.9615877 12.47904,23.97312 L12.48912,23.97312 L12.51792,23.98032 L12.58992,23.99904 L12.60864,23.99904 L12.63744,23.99904 L12.69792,24.01056 L12.7224,24.01056 L12.74976,24.01056 L12.80736,24.01056 L12.83472,24.01056 L12.86064,24.01056 L12.91824,24.01056 L12.94848,24.01056 L13.09248,24.01056 L13.17024,24.01056 L13.20192,24.01056 L13.21056,24.01056 C13.2552,24.01056 13.2984,24.00048 13.3416,23.99328 L13.3416,23.99328 L13.3776,23.98608 L13.4424,23.97168 L13.48704,23.96016 L13.54608,23.94288 L13.55904,23.94288 L13.5792,23.94288 C13.6100771,23.9331075 13.6403671,23.9215684 13.66992,23.90832 L13.70304,23.89392 C13.740168,23.8779974 13.7762414,23.8597202 13.81104,23.8392 L25.57296,17.00496 L25.58736,16.99632 L25.61616,16.97616 C25.6306132,16.967881 25.6445581,16.9587447 25.65792,16.9488 L25.69104,16.92288 C25.7031967,16.9140709 25.7147431,16.9044489 25.7256,16.89408 L25.7256,16.89408 C25.74,16.87968 25.7544,16.86672 25.76736,16.85232 L25.76736,16.84368 L25.7904,16.81776 L25.7904,16.8048 C25.800339,16.7919344 25.8094763,16.7784689 25.81776,16.76448 C25.8220657,16.7595549 25.8259211,16.7542537 25.82928,16.74864 L25.82928,16.74 L25.84656,16.704 C25.8500545,16.6970613 25.8529452,16.6898346 25.8552,16.6824 C25.8552,16.6824 25.8552,16.6824 25.8552,16.6824 C25.8592214,16.6710833 25.8625869,16.6595441 25.86528,16.64784 C25.86528,16.64064 25.86528,16.63344 25.86528,16.6248 L25.86528,16.5888 C25.8645851,16.5806548 25.8645851,16.5724652 25.86528,16.56432 L25.86528,15.18336 L13.85856,22.14864 Z" id="Path" fill="url(#linearGradient-7)"></path>
                            <path d="M25.5888,7.16688 C26.04096,7.42608 26.0424,7.84944 25.5888,8.11008 L13.82688,14.94576 C13.3149339,15.2049387 12.7101861,15.2049387 12.19824,14.94576 L0.36,8.11008 C-0.09216,7.84944 -0.0936,7.42752 0.36,7.16688 L12.12192,0.3312 C12.633531,0.0706211205 13.238949,0.0706211205 13.75056,0.3312 L25.5888,7.16688 Z" id="Path" fill="url(#linearGradient-8)"></path>
                            <path d="M9.57168,5.96016 L10.05408,5.68224 C10.66032,5.92272 11.12112,5.86944 11.45952,5.6736 C11.988,5.36832 12.59136,4.86288 13.16736,4.53024 C13.7915216,4.16903857 14.5617943,4.17178954 15.18336,4.53744 L15.57936,4.7664 L15.04368,5.076 L14.76432,4.91472 C14.4520443,4.70704393 14.0466654,4.70309177 13.7304,4.90464 C13.21632,5.20128 12.6,5.70672 12.03696,6.03216 C11.5304894,6.32142477 10.9188625,6.36074744 10.37952,6.13872 L10.36512,6.14592 C10.76832,6.51168 10.6344,6.84144 10.1736,7.10784 C9.61056,7.43184 8.7336,7.78752 8.22096,8.0856 C7.8552,8.29728 7.89696,8.48448 8.23824,8.68176 L8.5176,8.84304 L7.98192,9.15264 L7.5888,8.928 C6.98976,8.5824 6.912,8.14608 7.57584,7.76304 C8.15184,7.4304 9.02736,7.08192 9.55584,6.77664 C9.89424,6.57792 9.98928,6.31008 9.57168,5.96016 Z" id="Path" fill="url(#linearGradient-9)"></path>
                            <path d="M14.4648,9.59616 C13.93632,9.90144 13.33296,10.40544 12.75696,10.73808 C12.1345079,11.1030247 11.3634121,11.1030247 10.74096,10.73808 L10.3464,10.51056 L10.88064,10.20096 L11.16864,10.36224 C11.4803543,10.5700329 11.8854081,10.5739874 12.20112,10.37232 C12.71664,10.07424 13.33296,9.57024 13.89456,9.2448 C14.4032167,8.95498719 15.0165992,8.9141304 15.5592,9.13392 L15.5736,9.13392 C15.1632,8.77104 15.29712,8.44272 15.75792,8.17632 C16.32096,7.85088 17.19792,7.4952 17.71056,7.19856 C18.07632,6.98688 18.03456,6.79824 17.69472,6.6024 L17.40672,6.43968 L17.9424,6.13152 L18.3384,6.35904 C18.93744,6.70608 19.0152,7.1424 18.35136,7.52544 C17.77536,7.85808 16.89984,8.20512 16.37136,8.5104 C16.03296,8.70624 15.93936,8.97264 16.35552,9.32256 L15.87456,9.60048 C15.264,9.3456 14.8032,9.40032 14.4648,9.59616 Z" id="Path" fill="url(#linearGradient-10)"></path>
                        </g>
                        <g id="magnifier" transform="translate(0.000000, 11.000000)">
                            <g id="Group" opacity="0.2" transform="translate(60.120000, 19.008000)" fill="url(#linearGradient-11)" fill-rule="nonzero">
                                <path d="M70.65216,26.47728 C70.95024,41.27616 55.38816,53.424 35.89488,53.60976 C26.14752,53.70336 17.26416,50.7888 10.77984,46.0008 C4.29552,41.2128 0.21024,34.55136 0.06192,27.15264 C-0.23472,12.35376 15.32592,0.20592 34.82064,0.02016 C44.56656,-0.07344 53.45136,2.84112 59.93568,7.62912 C66.42,12.41712 70.50384,19.07856 70.65216,26.47728 Z M35.8128,49.68 C52.3728,49.5216 65.60064,39.19968 65.3472,26.62416 C65.22192,20.33712 61.7472,14.67216 56.24208,10.60848 C50.73696,6.5448 43.18272,4.06368 34.89984,4.14288 C18.33984,4.30128 5.11344,14.62464 5.36544,27.19728 C5.49216,33.48576 8.96544,39.14928 14.47344,43.21296 C19.98144,47.27664 27.53136,49.75488 35.8128,49.68 L35.8128,49.68 Z" id="Shape"></path>
                            </g>
                            <path d="M94.95216,9.19152 C103.24512,9.09792 110.80512,12.01824 116.32176,16.81488 C121.8384,21.61152 125.31456,28.28304 125.43984,35.69472 C125.43984,35.92944 125.43984,36.16416 125.43984,36.39744 L125.51328,30.09456 C125.51328,29.86128 125.51328,29.62656 125.51328,29.39184 C125.388,21.98016 121.91328,15.3072 116.3952,10.512 C110.87712,5.7168 103.32,2.79504 95.0256,2.88864 C78.696,3.07296 65.61792,14.86224 65.448,29.36592 L65.37456,35.6688 C65.54448,21.168 78.62832,9.37584 94.95216,9.19152 Z" id="Path" fill="url(#linearGradient-12)"></path>
                            <path d="M96.01488,63.22896 C86.26752,63.3384 77.38416,59.90688 70.89984,54.27072 C64.41552,48.63456 60.33024,40.79088 60.18192,32.08032 C60.18192,31.80528 60.18192,31.53024 60.18192,31.25664 L60.12,36.59184 C60.12,36.86688 60.12,37.14048 60.12,37.41696 C60.264,46.12752 64.3536,53.97696 70.83792,59.60592 C77.32224,65.23488 86.2056,68.67792 95.95152,68.5656 C115.13664,68.3496 130.51152,54.49392 130.71312,37.4472 L130.77504,32.11056 C130.57632,49.15728 115.2,63.01296 96.01488,63.22896 Z" id="Path" fill="url(#linearGradient-13)"></path>
                            <ellipse id="Oval" fill="#FFFFFF" opacity="0.2" cx="95.58144" cy="33.37056" rx="30.4704" ry="26.11296"></ellipse>
                            <ellipse id="Oval" fill="#FFFFFF" opacity="0.5" transform="translate(85.549262, 19.011269) rotate(-18.615692) translate(-85.549262, -19.011269) " cx="85.5492624" cy="19.0112688" rx="8.561539" ry="5.06676815"></ellipse>
                            <path d="M130.77216,31.28688 C131.07024,48.71088 115.50816,63.01008 96.01488,63.22896 C86.26752,63.3384 77.38416,59.90688 70.89984,54.27072 C64.41552,48.63456 60.33024,40.79232 60.18192,32.08032 C59.88528,14.65632 75.44592,0.35712 94.94064,0.13824 C104.68656,0.0288 113.57136,3.456 120.05568,9.09648 C126.54,14.73696 130.62384,22.57488 130.77216,31.28688 Z M95.9328,58.59792 C112.4928,58.4136 125.72064,46.26 125.4672,31.45536 C125.34192,24.05376 121.8672,17.39088 116.36208,12.60144 C110.85696,7.812 103.30272,4.896 95.01984,4.98816 C78.45984,5.17536 65.23344,17.32752 65.48544,32.13072 C65.61216,39.53232 69.08544,46.19664 74.59344,50.98608 C80.10144,55.77552 87.65136,58.69152 95.9328,58.59792 L95.9328,58.59792 Z" id="Shape" fill="url(#linearGradient-14)" fill-rule="nonzero"></path>
                            <g id="编组-8" transform="translate(35.974080, 72.599840) rotate(60.000000) translate(-35.974080, -72.599840) translate(28.974080, 35.099840)">
                                <path d="M6.67344,0.90016 C4.65744,0.90016 3.02592,1.4632 3.02592,2.16016 L3.02592,40.75216 L10.32096,40.75216 L10.32096,2.16016 C10.32096,1.4632 8.688,0.90016 6.67344,0.90016 Z" id="Path" fill="#EAF0FE"></path>
                                <path d="M6.57792,8.90016 C2.9592,8.90016 0.02592,9.90816 0.02592,11.16384 L0.02592,72.00816 L13.12992,72.00816 L13.12992,11.15808 C13.12992,9.90816 10.19664,8.90016 6.57792,8.90016 Z" id="Path" fill="url(#linearGradient-15)"></path>
                                <ellipse id="Oval" fill="url(#linearGradient-16)" cx="6.552" cy="71.9704" rx="6.552" ry="2.26224"></ellipse>
                            </g>
                            <path d="M120.05568,9.09648 C113.57136,3.456 104.68656,0.0288 94.94064,0.144 C89.6328575,0.185292797 84.3909519,1.32368645 79.54416,3.48768 L82.48176,7.59744 C86.4488949,5.91172046 90.7095675,5.02503863 95.01984,4.98816 C103.30272,4.896 110.85264,7.81056 116.36208,12.60144 C121.87152,17.39232 125.34192,24.048 125.4672,31.45536 C125.6112,39.91536 121.35456,47.50704 114.59088,52.49664 L117.41616,56.448 C125.69904,50.58576 130.95216,41.472 130.77216,31.28544 C130.62384,22.57488 126.54,14.73264 120.05568,9.09648 Z" id="Path" fill="#FFFFFF" opacity="0.4"></path>
                        </g>
                    </g>
                </g>
            </g>
        </g>
    </g>
</svg>