<?xml version="1.0" encoding="UTF-8"?>
<svg width="218px" height="176px" viewBox="0 0 218 176" version="1.1" xmlns="http://www.w3.org/2000/svg" xmlns:xlink="http://www.w3.org/1999/xlink">
    <title>image/2</title>
    <defs>
        <linearGradient x1="583.613757%" y1="37.4675241%" x2="583.174594%" y2="50.1844685%" id="linearGradient-1">
            <stop stop-color="#457BF2" offset="0%"></stop>
            <stop stop-color="#AAC4FE" offset="100%"></stop>
        </linearGradient>
        <linearGradient x1="52.2524946%" y1="50.7240498%" x2="85.6629011%" y2="61.4666287%" id="linearGradient-2">
            <stop stop-color="#E1ECFF" offset="0%"></stop>
            <stop stop-color="#FFFFFF" offset="100%"></stop>
        </linearGradient>
        <linearGradient x1="65.7511813%" y1="39.2930326%" x2="77.0725806%" y2="31.6865547%" id="linearGradient-3">
            <stop stop-color="#BBD0FE" offset="0%"></stop>
            <stop stop-color="#E0EBFF" offset="100%"></stop>
        </linearGradient>
        <linearGradient x1="70.4313857%" y1="21.9690922%" x2="45.2528426%" y2="56.512615%" id="linearGradient-4">
            <stop stop-color="#3158D3" offset="0%"></stop>
            <stop stop-color="#306EF3" offset="100%"></stop>
        </linearGradient>
        <linearGradient x1="77.3536148%" y1="81.2852311%" x2="-3.13171144%" y2="-10.7674963%" id="linearGradient-5">
            <stop stop-color="#253C6F" offset="0%"></stop>
            <stop stop-color="#3068E8" offset="100%"></stop>
        </linearGradient>
        <linearGradient x1="49.8038234%" y1="51.8666595%" x2="49.6021233%" y2="57.9927541%" id="linearGradient-6">
            <stop stop-color="#BBD0FE" offset="0%"></stop>
            <stop stop-color="#E0EBFF" offset="100%"></stop>
        </linearGradient>
        <linearGradient x1="74.8756354%" y1="36.623326%" x2="40.6497138%" y2="55.0284335%" id="linearGradient-7">
            <stop stop-color="#BBD0FE" offset="0%"></stop>
            <stop stop-color="#E0EBFF" offset="100%"></stop>
        </linearGradient>
        <linearGradient x1="1096.05401%" y1="985.243777%" x2="49.6613379%" y2="51.4776731%" id="linearGradient-8">
            <stop stop-color="#28C4FF" offset="0%"></stop>
            <stop stop-color="#34EDCB" offset="100%"></stop>
        </linearGradient>
        <linearGradient x1="-666.197183%" y1="-88.2158107%" x2="-1968.61167%" y2="-899.246995%" id="linearGradient-9">
            <stop stop-color="#28C4FF" offset="0%"></stop>
            <stop stop-color="#34EDCB" offset="100%"></stop>
        </linearGradient>
        <linearGradient x1="61.9216945%" y1="6876.82804%" x2="64.8214202%" y2="-1514.39439%" id="linearGradient-10">
            <stop stop-color="#28C4FF" offset="0%"></stop>
            <stop stop-color="#34EDCB" offset="100%"></stop>
        </linearGradient>
        <linearGradient x1="64.2168609%" y1="6133.39159%" x2="67.1165866%" y2="-2257.83084%" id="linearGradient-11">
            <stop stop-color="#28C4FF" offset="0%"></stop>
            <stop stop-color="#34EDCB" offset="100%"></stop>
        </linearGradient>
        <linearGradient x1="869.144964%" y1="781.393469%" x2="-177.247711%" y2="-152.034942%" id="linearGradient-12">
            <stop stop-color="#3158D3" offset="0%"></stop>
            <stop stop-color="#306EF3" offset="100%"></stop>
        </linearGradient>
        <linearGradient x1="-883.454865%" y1="-443.86167%" x2="-2185.51672%" y2="-1255.08006%" id="linearGradient-13">
            <stop stop-color="#28C4FF" offset="0%"></stop>
            <stop stop-color="#34EDCB" offset="100%"></stop>
        </linearGradient>
        <linearGradient x1="67.6023932%" y1="5049.79533%" x2="70.502119%" y2="-3341.4271%" id="linearGradient-14">
            <stop stop-color="#28C4FF" offset="0%"></stop>
            <stop stop-color="#34EDCB" offset="100%"></stop>
        </linearGradient>
        <linearGradient x1="69.8435811%" y1="4306.17196%" x2="72.7433068%" y2="-4085.05047%" id="linearGradient-15">
            <stop stop-color="#28C4FF" offset="0%"></stop>
            <stop stop-color="#34EDCB" offset="100%"></stop>
        </linearGradient>
        <linearGradient x1="-598.184076%" y1="-340.419913%" x2="-1401.89353%" y2="-803.053751%" id="linearGradient-16">
            <stop stop-color="#28C4FF" offset="0%"></stop>
            <stop stop-color="#34EDCB" offset="100%"></stop>
        </linearGradient>
        <linearGradient x1="-1627.35232%" y1="-1453.98601%" x2="-580.959646%" y2="-520.588884%" id="linearGradient-17">
            <stop stop-color="#3158D3" offset="0%"></stop>
            <stop stop-color="#306EF3" offset="100%"></stop>
        </linearGradient>
        <linearGradient x1="-2491.88883%" y1="-2415.63256%" x2="-796.237928%" y2="-779.30293%" id="linearGradient-18">
            <stop stop-color="#28C4FF" offset="0%"></stop>
            <stop stop-color="#34EDCB" offset="100%"></stop>
        </linearGradient>
        <linearGradient x1="107.646893%" y1="-14081.415%" x2="104.747167%" y2="-5690.19252%" id="linearGradient-19">
            <stop stop-color="#28C4FF" offset="0%"></stop>
            <stop stop-color="#34EDCB" offset="100%"></stop>
        </linearGradient>
        <linearGradient x1="105.378716%" y1="-13337.7103%" x2="102.47899%" y2="-4946.48785%" id="linearGradient-20">
            <stop stop-color="#28C4FF" offset="0%"></stop>
            <stop stop-color="#34EDCB" offset="100%"></stop>
        </linearGradient>
        <linearGradient x1="-1854.25361%" y1="-1658.74211%" x2="-807.860934%" y2="-724.668152%" id="linearGradient-21">
            <stop stop-color="#3158D3" offset="0%"></stop>
            <stop stop-color="#306EF3" offset="100%"></stop>
        </linearGradient>
        <linearGradient x1="-2859.58878%" y1="-2774.36779%" x2="-1163.95976%" y2="-1136.9047%" id="linearGradient-22">
            <stop stop-color="#28C4FF" offset="0%"></stop>
            <stop stop-color="#34EDCB" offset="100%"></stop>
        </linearGradient>
        <linearGradient x1="113.327592%" y1="-15908.4477%" x2="110.427866%" y2="-7517.22523%" id="linearGradient-23">
            <stop stop-color="#28C4FF" offset="0%"></stop>
            <stop stop-color="#34EDCB" offset="100%"></stop>
        </linearGradient>
        <linearGradient x1="111.005436%" y1="-15164.743%" x2="108.078721%" y2="-6773.60187%" id="linearGradient-24">
            <stop stop-color="#28C4FF" offset="0%"></stop>
            <stop stop-color="#34EDCB" offset="100%"></stop>
        </linearGradient>
        <linearGradient x1="-3234.72334%" y1="-3140.19223%" x2="-1539.05986%" y2="-1501.87753%" id="linearGradient-25">
            <stop stop-color="#28C4FF" offset="0%"></stop>
            <stop stop-color="#34EDCB" offset="100%"></stop>
        </linearGradient>
        <linearGradient x1="116.808126%" y1="-17028.8879%" x2="113.908401%" y2="-8637.66542%" id="linearGradient-26">
            <stop stop-color="#28C4FF" offset="0%"></stop>
            <stop stop-color="#34EDCB" offset="100%"></stop>
        </linearGradient>
        <linearGradient x1="-419.913084%" y1="44.6804107%" x2="-1223.63806%" y2="-417.656445%" id="linearGradient-27">
            <stop stop-color="#28C4FF" offset="0%"></stop>
            <stop stop-color="#34EDCB" offset="100%"></stop>
        </linearGradient>
        <linearGradient x1="-816.540785%" y1="-130.090429%" x2="-2120.26687%" y2="-942.877676%" id="linearGradient-28">
            <stop stop-color="#28C4FF" offset="0%"></stop>
            <stop stop-color="#34EDCB" offset="100%"></stop>
        </linearGradient>
        <linearGradient x1="63.3175788%" y1="6241.12523%" x2="66.2442938%" y2="-2150.01589%" id="linearGradient-29">
            <stop stop-color="#28C4FF" offset="0%"></stop>
            <stop stop-color="#34EDCB" offset="100%"></stop>
        </linearGradient>
        <linearGradient x1="65.6667237%" y1="5497.68879%" x2="68.5664495%" y2="-2893.53364%" id="linearGradient-30">
            <stop stop-color="#28C4FF" offset="0%"></stop>
            <stop stop-color="#34EDCB" offset="100%"></stop>
        </linearGradient>
        <linearGradient x1="843.313829%" y1="758.308663%" x2="-203.078845%" y2="-175.088459%" id="linearGradient-31">
            <stop stop-color="#3158D3" offset="0%"></stop>
            <stop stop-color="#306EF3" offset="100%"></stop>
        </linearGradient>
        <linearGradient x1="-1032.96455%" y1="-485.017756%" x2="-2335.05155%" y2="-1295.72189%" id="linearGradient-32">
            <stop stop-color="#28C4FF" offset="0%"></stop>
            <stop stop-color="#34EDCB" offset="100%"></stop>
        </linearGradient>
        <linearGradient x1="68.96697%" y1="4414.18598%" x2="71.8666958%" y2="-3977.03645%" id="linearGradient-33">
            <stop stop-color="#28C4FF" offset="0%"></stop>
            <stop stop-color="#34EDCB" offset="100%"></stop>
        </linearGradient>
        <linearGradient x1="71.2081579%" y1="3670.65607%" x2="74.1078837%" y2="-4720.56636%" id="linearGradient-34">
            <stop stop-color="#28C4FF" offset="0%"></stop>
            <stop stop-color="#34EDCB" offset="100%"></stop>
        </linearGradient>
        <linearGradient x1="-690.470278%" y1="-363.836533%" x2="-1494.19525%" y2="-826.189181%" id="linearGradient-35">
            <stop stop-color="#28C4FF" offset="0%"></stop>
            <stop stop-color="#34EDCB" offset="100%"></stop>
        </linearGradient>
        <linearGradient x1="-1653.66429%" y1="-1477.52787%" x2="-607.271613%" y2="-544.099463%" id="linearGradient-36">
            <stop stop-color="#28C4FF" offset="0%"></stop>
            <stop stop-color="#34EDCB" offset="100%"></stop>
        </linearGradient>
        <linearGradient x1="-2534.52666%" y1="-2458.19741%" x2="-838.875755%" y2="-820.968002%" id="linearGradient-37">
            <stop stop-color="#3158D3" offset="0%"></stop>
            <stop stop-color="#306EF3" offset="100%"></stop>
        </linearGradient>
        <linearGradient x1="109.129143%" y1="-14728.0673%" x2="106.202428%" y2="-6336.92617%" id="linearGradient-38">
            <stop stop-color="#3158D3" offset="0%"></stop>
            <stop stop-color="#306EF3" offset="100%"></stop>
        </linearGradient>
        <linearGradient x1="106.779998%" y1="-13984.5374%" x2="103.880273%" y2="-5593.31495%" id="linearGradient-39">
            <stop stop-color="#28C4FF" offset="0%"></stop>
            <stop stop-color="#34EDCB" offset="100%"></stop>
        </linearGradient>
        <linearGradient x1="-2902.22661%" y1="-2814.30412%" x2="-1206.58501%" y2="-1177.5397%" id="linearGradient-40">
            <stop stop-color="#28C4FF" offset="0%"></stop>
            <stop stop-color="#34EDCB" offset="100%"></stop>
        </linearGradient>
        <linearGradient x1="114.697567%" y1="-16555.1813%" x2="111.797841%" y2="-8163.95888%" id="linearGradient-41">
            <stop stop-color="#28C4FF" offset="0%"></stop>
            <stop stop-color="#34EDCB" offset="100%"></stop>
        </linearGradient>
        <linearGradient x1="112.429389%" y1="-15811.5701%" x2="109.529664%" y2="-7420.34766%" id="linearGradient-42">
            <stop stop-color="#28C4FF" offset="0%"></stop>
            <stop stop-color="#34EDCB" offset="100%"></stop>
        </linearGradient>
        <linearGradient x1="63.9204329%" y1="42.5317887%" x2="44.7679293%" y2="52.8077306%" id="linearGradient-43">
            <stop stop-color="#5781DB" offset="0%"></stop>
            <stop stop-color="#A0BDFD" offset="100%"></stop>
        </linearGradient>
        <linearGradient x1="63.9204329%" y1="42.5306885%" x2="44.7660239%" y2="52.8066304%" id="linearGradient-44">
            <stop stop-color="#5781DB" offset="0%"></stop>
            <stop stop-color="#A0BDFD" offset="100%"></stop>
        </linearGradient>
        <linearGradient x1="-0.0317636782%" y1="49.9930192%" x2="99.9801477%" y2="49.9930192%" id="linearGradient-45">
            <stop stop-color="#3158D3" offset="0%"></stop>
            <stop stop-color="#306EF3" offset="100%"></stop>
        </linearGradient>
        <linearGradient x1="0%" y1="50.0013525%" x2="100%" y2="50.0013525%" id="linearGradient-46">
            <stop stop-color="#BBD0FE" offset="0%"></stop>
            <stop stop-color="#E0EBFF" offset="100%"></stop>
        </linearGradient>
        <linearGradient x1="55.1544157%" y1="32.0013403%" x2="48.9684696%" y2="67.8398627%" id="linearGradient-47">
            <stop stop-color="#253C6F" offset="0%"></stop>
            <stop stop-color="#3068E8" offset="100%"></stop>
        </linearGradient>
        <linearGradient x1="1.93346073%" y1="26.9908636%" x2="102.25479%" y2="72.8664453%" id="linearGradient-48">
            <stop stop-color="#28C4FF" offset="0%"></stop>
            <stop stop-color="#34EDCB" offset="100%"></stop>
        </linearGradient>
        <linearGradient x1="-0.00150791798%" y1="50.0118302%" x2="99.9795892%" y2="50.0118302%" id="linearGradient-49">
            <stop stop-color="#BBD0FE" offset="0%"></stop>
            <stop stop-color="#E0EBFF" offset="100%"></stop>
        </linearGradient>
        <linearGradient x1="51.3805275%" y1="53.8199221%" x2="44.1393295%" y2="-5.32238379%" id="linearGradient-50">
            <stop stop-color="#5781DB" offset="0%"></stop>
            <stop stop-color="#A0BDFD" offset="100%"></stop>
        </linearGradient>
        <linearGradient x1="116.917013%" y1="43.1139075%" x2="60.7577788%" y2="48.898731%" id="linearGradient-51">
            <stop stop-color="#BBD0FE" offset="0%"></stop>
            <stop stop-color="#E0EBFF" offset="100%"></stop>
        </linearGradient>
        <linearGradient x1="-0.00726767455%" y1="50.3018232%" x2="100.09514%" y2="50.3018232%" id="linearGradient-52">
            <stop stop-color="#5781DB" offset="0%"></stop>
            <stop stop-color="#A0BDFD" offset="100%"></stop>
        </linearGradient>
        <linearGradient x1="60.375754%" y1="50.9378759%" x2="-47.7536999%" y2="41.159222%" id="linearGradient-53">
            <stop stop-color="#BBD0FE" offset="0%"></stop>
            <stop stop-color="#E0EBFF" offset="100%"></stop>
        </linearGradient>
        <linearGradient x1="49.9817449%" y1="11.1246509%" x2="50.0242642%" y2="101.589236%" id="linearGradient-54">
            <stop stop-color="#3158D3" offset="0%"></stop>
            <stop stop-color="#306EF3" offset="100%"></stop>
        </linearGradient>
        <linearGradient x1="49.9786794%" y1="4.14217533%" x2="50.0202657%" y2="93.6523487%" id="linearGradient-55">
            <stop stop-color="#3158D3" offset="0%"></stop>
            <stop stop-color="#306EF3" offset="100%"></stop>
        </linearGradient>
        <linearGradient x1="49.9783143%" y1="3.40617935%" x2="50.0199006%" y2="92.9138407%" id="linearGradient-56">
            <stop stop-color="#3158D3" offset="0%"></stop>
            <stop stop-color="#306EF3" offset="100%"></stop>
        </linearGradient>
        <linearGradient x1="-0.00726767455%" y1="50.1696945%" x2="100.09514%" y2="50.1696945%" id="linearGradient-57">
            <stop stop-color="#5781DB" offset="0%"></stop>
            <stop stop-color="#A0BDFD" offset="100%"></stop>
        </linearGradient>
        <linearGradient x1="-0.000912806407%" y1="49.9826808%" x2="99.9807994%" y2="49.9826808%" id="linearGradient-58">
            <stop stop-color="#BBD0FE" offset="0%"></stop>
            <stop stop-color="#E0EBFF" offset="100%"></stop>
        </linearGradient>
        <linearGradient x1="52.4248335%" y1="187.050205%" x2="45.6339747%" y2="-196.843353%" id="linearGradient-59">
            <stop stop-color="#3158D3" offset="0%"></stop>
            <stop stop-color="#306EF3" offset="100%"></stop>
        </linearGradient>
        <linearGradient x1="50.8743417%" y1="99.5691048%" x2="44.0849459%" y2="-284.283098%" id="linearGradient-60">
            <stop stop-color="#3158D3" offset="0%"></stop>
            <stop stop-color="#306EF3" offset="100%"></stop>
        </linearGradient>
        <linearGradient x1="52.3983326%" y1="185.455721%" x2="45.6074738%" y2="-198.437837%" id="linearGradient-61">
            <stop stop-color="#3158D3" offset="0%"></stop>
            <stop stop-color="#306EF3" offset="100%"></stop>
        </linearGradient>
        <linearGradient x1="50.8478465%" y1="97.9747926%" x2="44.0584507%" y2="-285.87741%" id="linearGradient-62">
            <stop stop-color="#3158D3" offset="0%"></stop>
            <stop stop-color="#306EF3" offset="100%"></stop>
        </linearGradient>
        <linearGradient x1="55.5121898%" y1="361.700065%" x2="48.721331%" y2="-22.2042663%" id="linearGradient-63">
            <stop stop-color="#3158D3" offset="0%"></stop>
            <stop stop-color="#306EF3" offset="100%"></stop>
        </linearGradient>
        <linearGradient x1="53.9676567%" y1="274.200151%" x2="47.1716371%" y2="-109.662825%" id="linearGradient-64">
            <stop stop-color="#3158D3" offset="0%"></stop>
            <stop stop-color="#306EF3" offset="100%"></stop>
        </linearGradient>
        <linearGradient x1="55.4923141%" y1="360.105581%" x2="48.6948301%" y2="-23.7879767%" id="linearGradient-65">
            <stop stop-color="#3158D3" offset="0%"></stop>
            <stop stop-color="#306EF3" offset="100%"></stop>
        </linearGradient>
        <linearGradient x1="53.9411615%" y1="272.605839%" x2="47.1451419%" y2="-111.257137%" id="linearGradient-66">
            <stop stop-color="#3158D3" offset="0%"></stop>
            <stop stop-color="#306EF3" offset="100%"></stop>
        </linearGradient>
        <linearGradient x1="60.2566037%" y1="51.6242453%" x2="153.622375%" y2="66.4175737%" id="linearGradient-67">
            <stop stop-color="#3158D3" offset="0%"></stop>
            <stop stop-color="#306EF3" offset="100%"></stop>
        </linearGradient>
        <linearGradient x1="-0.0120659734%" y1="49.9997964%" x2="100%" y2="49.9997964%" id="linearGradient-68">
            <stop stop-color="#253C6F" offset="0%"></stop>
            <stop stop-color="#3068E8" offset="100%"></stop>
        </linearGradient>
        <linearGradient x1="60.2534646%" y1="51.6246872%" x2="153.631936%" y2="66.4220405%" id="linearGradient-69">
            <stop stop-color="#BBD0FE" offset="0%"></stop>
            <stop stop-color="#E0EBFF" offset="100%"></stop>
        </linearGradient>
        <linearGradient x1="30.4178866%" y1="42.0864131%" x2="92.0830913%" y2="66.9706528%" id="linearGradient-70">
            <stop stop-color="#E1ECFF" offset="0%"></stop>
            <stop stop-color="#FFFFFF" offset="100%"></stop>
        </linearGradient>
        <linearGradient x1="60.8132033%" y1="66.69781%" x2="50.2711921%" y2="50.4273529%" id="linearGradient-71">
            <stop stop-color="#3158D3" offset="0%"></stop>
            <stop stop-color="#306EF3" offset="100%"></stop>
        </linearGradient>
        <linearGradient x1="0.029979489%" y1="50.0524277%" x2="99.9868916%" y2="50.0524277%" id="linearGradient-72">
            <stop stop-color="#28C4FF" offset="0%"></stop>
            <stop stop-color="#34EDCB" offset="100%"></stop>
        </linearGradient>
        <linearGradient x1="-0.0243002222%" y1="50.1330604%" x2="100.011846%" y2="50.1330604%" id="linearGradient-73">
            <stop stop-color="#5781DB" offset="0%"></stop>
            <stop stop-color="#A0BDFD" offset="100%"></stop>
        </linearGradient>
        <linearGradient x1="-0.0240539557%" y1="50.1151681%" x2="100.012174%" y2="50.1151681%" id="linearGradient-74">
            <stop stop-color="#3158D3" offset="0%"></stop>
            <stop stop-color="#306EF3" offset="100%"></stop>
        </linearGradient>
        <linearGradient x1="-0.0222517236%" y1="49.9795166%" x2="100.010875%" y2="49.9795166%" id="linearGradient-75">
            <stop stop-color="#28C4FF" offset="0%"></stop>
            <stop stop-color="#34EDCB" offset="100%"></stop>
        </linearGradient>
        <linearGradient x1="41.9791118%" y1="69.5221435%" x2="56.7853301%" y2="33.5016191%" id="linearGradient-76">
            <stop stop-color="#28C4FF" offset="0%"></stop>
            <stop stop-color="#34EDCB" offset="100%"></stop>
        </linearGradient>
        <linearGradient x1="-0.172798133%" y1="50.3372952%" x2="100.007216%" y2="50.3372952%" id="linearGradient-77">
            <stop stop-color="#28C4FF" offset="0%"></stop>
            <stop stop-color="#34EDCB" offset="100%"></stop>
        </linearGradient>
        <linearGradient x1="41.948049%" y1="69.5215671%" x2="56.762469%" y2="33.4845941%" id="linearGradient-78">
            <stop stop-color="#28C4FF" offset="0%"></stop>
            <stop stop-color="#34EDCB" offset="100%"></stop>
        </linearGradient>
    </defs>
    <g id="场景框架" stroke="none" stroke-width="1" fill="none" fill-rule="evenodd" opacity="0.899323963">
        <g id="引导页" transform="translate(-723.000000, -409.000000)">
            <g id="编组-3" transform="translate(144.000000, 400.106787)">
                <g id="编组-9" transform="translate(520.000000, 9.131813)">
                    <g id="image/2" transform="translate(59.000000, 0.000000)">
                        <g id="cable" transform="translate(10.600000, 88.600000)" fill="url(#linearGradient-1)">
                            <path d="M72.366,26.754 L30.044,2.32 C26.898,0.502 21.364,0.742 17.71,2.852 L0.51,12.786 L0,11.92 L17.2,1.986 C21.13,-0.284 27.112,-0.522 30.534,1.454 L72.866,25.888 L72.366,26.754 Z" id="Path"></path>
                        </g>
                        <g id="laptop" transform="translate(47.000000, 0.000000)">
                            <path d="M168.472,138.342 C169.778,139.096 169.786,140.32 168.488,141.072 L111.428,174.232 C110.13,174.986 108.028,174.986 106.714,174.232 L8.814,117.71 C7.508,116.956 7.502,115.734 8.798,114.98 L65.86,81.82 C67.156,81.066 69.26,81.066 70.574,81.82 L168.472,138.342 Z" id="Path" fill="url(#linearGradient-2)"></path>
                            <path d="M161.638,57.046 L63.738,0.524 C63.082,0.144 62.486,0.11 62.056,0.36 L59.754,1.698 C60.184,1.448 60.78,1.482 61.436,1.862 L159.336,58.384 C160.64,59.138 161.696,60.966 161.692,62.466 L161.504,128.466 C161.504,129.212 161.24,129.736 160.814,129.984 L163.118,128.646 C163.542,128.398 163.804,127.874 163.806,127.128 L163.994025,61.128 C164,59.628 162.944,57.8 161.638,57.046 Z" id="Path" fill="url(#linearGradient-3)"></path>
                            <path d="M159.336,58.384 C160.64,59.138 161.696,60.966 161.692011,62.466 L161.504,128.466 C161.504,129.968 160.438,130.572 159.132,129.818 L61.234,73.292 C59.928,72.538 58.872,70.712 58.8779746,69.212 L59.064,3.212 C59.064,1.71 60.13,1.104 61.436,1.858 L159.336,58.384 Z" id="Path" fill="url(#linearGradient-4)"></path>
                            <polygon id="Path" fill="url(#linearGradient-5)" points="159.576 122.676 159.74 64.376 60.996 7.366 60.832 65.666"></polygon>
                            <path d="M160.722,133.472 L103.662,166.632 C102.366,167.386 100.262,167.386 98.948,166.632 L1.05,110.11 C0.392,109.73 0.064,109.232 0.066,108.734 L0.056,112.286 C0.056,112.782 0.382,113.286 1.04,113.66 L98.938,170.182 C100.244,170.936 102.356,170.936 103.652,170.182 L160.712,137.022 C161.358,136.648 161.68,136.158 161.682145,135.666 L161.682145,132.116 C161.69,132.6 161.368,133.098 160.722,133.472 Z" id="Path" fill="url(#linearGradient-6)"></path>
                            <path d="M160.708,130.74 C162.014,131.494 162.02,132.718 160.722,133.472 L103.662,166.632 C102.366,167.386 100.262,167.386 98.948,166.632 L1.05,110.11 C-0.256,109.356 -0.264,108.134 1.034,107.38 L58.094,74.22 C59.392,73.466 61.494,73.464 62.808,74.22 L160.708,130.74 Z" id="Path" fill="url(#linearGradient-7)"></path>
                            <path d="M81.648,31.654 L70.066,24.968 C69.6633551,24.6786728 69.4215121,24.2157588 69.414,23.72 L69.414,23.72 C69.414,23.238 69.706,23.018 70.066,23.226 L81.648,29.912 C82.0508927,30.2011122 82.2928059,30.6641607 82.3,31.16 L82.3,31.16 C82.3,31.64 82,31.862 81.648,31.654 Z" id="Path" fill="url(#linearGradient-8)"></path>
                            <path d="M96.2,39.182 L96.2,39.182 C96.1924879,38.6862412 95.9506449,38.2233272 95.548,37.934 L88.902,34.098 C88.542,33.898 88.248,34.11 88.248,34.592 L88.248,34.592 C88.2562949,35.0880362 88.4988456,35.5508854 88.902,35.84 L95.548,39.676 C95.904,39.886 96.2,39.664 96.2,39.182 Z" id="Path" fill="url(#linearGradient-9)"></path>
                            <ellipse id="Oval" fill="url(#linearGradient-10)" transform="translate(85.272890, 32.877270) rotate(-30.310000) translate(-85.272890, -32.877270) " cx="85.2728904" cy="32.8772696" rx="1" ry="1.07"></ellipse>
                            <ellipse id="Oval" fill="url(#linearGradient-11)" transform="translate(99.167941, 40.899712) rotate(-30.310000) translate(-99.167941, -40.899712) " cx="99.1679406" cy="40.8997124" rx="1" ry="1.07"></ellipse>
                            <path d="M116.446,50.874 L116.446,50.874 C116.438488,50.3782412 116.196645,49.9153272 115.794,49.626 L104.214,42.94 C103.852,42.74 103.56,42.952 103.56,43.434 L103.56,43.434 C103.567019,43.9303607 103.809853,44.3937498 104.214,44.682 L115.8,51.368 C116.154,51.576 116.446,51.356 116.446,50.874 Z" id="Path" fill="url(#linearGradient-12)"></path>
                            <path d="M130.344,58.898 L130.344,58.898 C130.335701,58.4014163 130.093221,57.9379608 129.69,57.648 L123.044,53.812 C122.684,53.612 122.39,53.824 122.39,54.306 L122.39,54.306 C122.397977,54.8021171 122.640598,55.2651003 123.044,55.554 L129.69,59.4 C130.05,59.6 130.344,59.378 130.344,58.898 Z" id="Path" fill="url(#linearGradient-13)"></path>
                            <ellipse id="Oval" fill="url(#linearGradient-14)" transform="translate(119.418616, 52.591768) rotate(-30.310000) translate(-119.418616, -52.591768) " cx="119.418616" cy="52.5917678" rx="1" ry="1.07"></ellipse>
                            <ellipse id="Oval" fill="url(#linearGradient-15)" transform="translate(133.316402, 60.614928) rotate(-30.310000) translate(-133.316402, -60.614928) " cx="133.316402" cy="60.6149279" rx="1" ry="1.07"></ellipse>
                            <path d="M151.126,70.896 L151.126,70.896 C151.118488,70.4002412 150.876645,69.9373272 150.474,69.648 L138.892,62.962 C138.532,62.762 138.24,62.976 138.24,63.456 L138.24,63.456 C138.247194,63.9518393 138.489107,64.4148878 138.892,64.704 L150.474,71.4 C150.834,71.6 151.126,71.378 151.126,70.896 Z" id="Path" fill="url(#linearGradient-16)"></path>
                            <path d="M86.884,43.142 L86.884,43.142 C86.8915121,43.6377588 87.1333551,44.1006728 87.536,44.39 L99.118,51.076 C99.478,51.276 99.77,51.062 99.77,50.582 L99.77,50.582 C99.7628059,50.0861607 99.5208927,49.6231122 99.118,49.334 L87.536,42.648 C87.176,42.44 86.884,42.66 86.884,43.142 Z" id="Path" fill="url(#linearGradient-17)"></path>
                            <path d="M72.988,35.118 L72.988,35.118 C72.9951941,35.6138393 73.2371073,36.0768878 73.64,36.366 L80.286,40.2 C80.648,40.4 80.94,40.186 80.94,39.706 L80.94,39.706 C80.932981,39.2096393 80.6901473,38.7462502 80.286,38.458 L73.64,34.624 C73.28,34.416 72.988,34.638 72.988,35.118 Z" id="Path" fill="url(#linearGradient-18)"></path>
                            <ellipse id="Oval" fill="url(#linearGradient-19)" transform="translate(83.911792, 41.426911) rotate(-30.310000) translate(-83.911792, -41.426911) " cx="83.9117918" cy="41.4269111" rx="1" ry="1.07"></ellipse>
                            <ellipse id="Oval" fill="url(#linearGradient-20)" transform="translate(70.015732, 33.402742) rotate(-30.310000) translate(-70.015732, -33.402742) " cx="70.0157323" cy="33.4027416" rx="1" ry="1.07"></ellipse>
                            <path d="M121.03,62.856 L121.03,62.856 C121.03734,63.3522794 121.280102,63.8155325 121.684,64.104 L133.264,70.8 C133.624,71 133.916,70.788 133.916,70.306 L133.916,70.306 C133.908806,69.8101607 133.666893,69.3471122 133.264,69.058 L121.684,62.372 C121.322,62.154 121.03,62.374 121.03,62.856 Z" id="Path" fill="url(#linearGradient-21)"></path>
                            <path d="M107.134,54.832 L107.134,54.832 C107.141194,55.3278393 107.383107,55.7908878 107.786,56.08 L114.432,59.918 C114.794,60.118 115.086,59.904 115.086,59.424 L115.086,59.424 C115.078981,58.9276393 114.836147,58.4642502 114.432,58.176 L107.786,54.338 C107.426,54.13 107.134,54.352 107.134,54.832 Z" id="Path" fill="url(#linearGradient-22)"></path>
                            <ellipse id="Oval" fill="url(#linearGradient-23)" transform="translate(118.057517, 61.141409) rotate(-30.310000) translate(-118.057517, -61.141409) " cx="118.057517" cy="61.1414093" rx="1" ry="1.07"></ellipse>
                            <ellipse id="Oval" fill="url(#linearGradient-24)" transform="translate(104.161458, 53.117240) rotate(-30.310000) translate(-104.161458, -53.117240) " cx="104.161458" cy="53.1172398" rx="1" ry="1.07"></ellipse>
                            <path d="M141.97,74.946 L141.97,74.946 C141.978295,75.4420362 142.220846,75.9048854 142.624,76.194 L149.27,80.03 C149.63,80.24 149.922,80.018 149.922,79.538 L149.922,79.538 C149.914483,79.0416935 149.672711,78.5781734 149.27,78.288 L142.624,74.452 C142.264,74.244 141.97,74.464 141.97,74.946 Z" id="Path" fill="url(#linearGradient-25)"></path>
                            <ellipse id="Oval" fill="url(#linearGradient-26)" transform="translate(138.035280, 73.870800) rotate(-30.173520) translate(-138.035280, -73.870800) " cx="138.03528" cy="73.8708" rx="1" ry="1.06442146"></ellipse>
                            <path d="M82.112,49.722 L82.112,49.722 C82.1044879,49.2262412 81.8626449,48.7633272 81.46,48.474 L69.878,41.788 C69.518,41.588 69.226,41.8 69.226,42.282 L69.226,42.282 C69.2335121,42.7777588 69.4753551,43.2406728 69.878,43.53 L81.46,50.216 C81.82,50.424 82.112,50.2 82.112,49.722 Z" id="Path" fill="url(#linearGradient-27)"></path>
                            <path d="M96,57.746 L96,57.746 C95.9924829,57.2496935 95.7507109,56.7861734 95.348,56.496 L88.71,52.66 C88.35,52.46 88.056,52.672 88.056,53.154 L88.056,53.154 C88.0642949,53.6500362 88.3068456,54.1128854 88.71,54.402 L95.356,58.24 C95.716,58.448 96,58.226 96,57.746 Z" id="Path" fill="url(#linearGradient-28)"></path>
                            <ellipse id="Oval" fill="url(#linearGradient-29)" transform="translate(85.084427, 51.440863) rotate(-30.310000) translate(-85.084427, -51.440863) " cx="85.0844274" cy="51.4408626" rx="1" ry="1.07"></ellipse>
                            <ellipse id="Oval" fill="url(#linearGradient-30)" transform="translate(98.979477, 59.463305) rotate(-30.310000) translate(-98.979477, -59.463305) " cx="98.9794775" cy="59.4633054" rx="1" ry="1.07"></ellipse>
                            <path d="M116.258,69.436 L116.258,69.436 C116.250488,68.9402412 116.008645,68.4773272 115.606,68.188 L104.026,61.502 C103.664,61.302 103.372,61.516 103.372,61.996 L103.372,61.996 C103.379019,62.4923607 103.621853,62.9557498 104.026,63.244 L115.6,69.93 C115.966,70.138 116.258,69.918 116.258,69.436 Z" id="Path" fill="url(#linearGradient-31)"></path>
                            <path d="M130.156,77.46 L130.156,77.46 C130.148023,76.9638829 129.905402,76.5008997 129.502,76.212 L122.856,72.374 C122.496,72.174 122.202,72.388 122.202,72.868 L122.202,72.868 C122.209977,73.3641171 122.452598,73.8271003 122.856,74.116 L129.502,77.954 C129.862,78.162 130.156,77.94 130.156,77.46 Z" id="Path" fill="url(#linearGradient-32)"></path>
                            <ellipse id="Oval" fill="url(#linearGradient-33)" transform="translate(119.230153, 71.155361) rotate(-30.310000) translate(-119.230153, -71.155361) " cx="119.230153" cy="71.1553608" rx="1" ry="1.07"></ellipse>
                            <ellipse id="Oval" fill="url(#linearGradient-34)" transform="translate(133.127939, 79.178521) rotate(-30.310000) translate(-133.127939, -79.178521) " cx="133.127939" cy="79.1785209" rx="1" ry="1.07"></ellipse>
                            <path d="M150.938,89.458 L150.938,89.458 C150.930488,88.9622412 150.688645,88.4993272 150.286,88.21 L138.704,81.524 C138.344,81.324 138.052,81.538 138.052,82.018 L138.052,82.018 C138.059194,82.5138393 138.301107,82.9768878 138.704,83.266 L150.286,89.952 C150.646,90.16 150.938,89.94 150.938,89.458 Z" id="Path" fill="url(#linearGradient-35)"></path>
                            <path d="M86.696,62.026 L86.696,62.026 C86.7035121,62.5217588 86.9453551,62.9846728 87.348,63.274 L98.93,69.96 C99.29,70.16 99.582,69.948 99.582,69.466 L99.582,69.466 C99.5748059,68.9701607 99.3328927,68.5071122 98.93,68.218 L87.348,61.532 C86.988,61.324 86.696,61.544 86.696,62.026 Z" id="Path" fill="url(#linearGradient-36)"></path>
                            <path d="M72.8,54 L72.8,54 C72.8071941,54.4958393 73.0491073,54.9588878 73.452,55.248 L80.098,59.086 C80.46,59.286 80.752,59.074 80.752,58.592 L80.752,58.592 C80.744981,58.0956393 80.5021473,57.6322502 80.098,57.344 L73.452,53.506 C73.092,53.3 72.8,53.522 72.8,54 Z" id="Path" fill="url(#linearGradient-37)"></path>
                            <ellipse id="Oval" fill="url(#linearGradient-38)" transform="translate(83.723835, 60.310489) rotate(-30.310000) translate(-83.723835, -60.310489) " cx="83.7238351" cy="60.310489" rx="1" ry="1.07"></ellipse>
                            <ellipse id="Oval" fill="url(#linearGradient-39)" transform="translate(69.827776, 52.286320) rotate(-30.310000) translate(-69.827776, -52.286320) " cx="69.8277756" cy="52.2863196" rx="1" ry="1.07"></ellipse>
                            <path d="M106.946,73.716 L106.946,73.716 C106.953517,74.2123065 107.195289,74.6758266 107.598,74.966 L114.244,78.8 C114.606,79 114.898,78.788 114.898,78.306 L114.898,78.306 C114.89066,77.8097206 114.647898,77.3464675 114.244,77.058 L107.6,73.224 C107.238,73.014 106.946,73.236 106.946,73.716 Z" id="Path" fill="url(#linearGradient-40)"></path>
                            <ellipse id="Oval" fill="url(#linearGradient-41)" transform="translate(117.869561, 80.026987) rotate(-30.310000) translate(-117.869561, -80.026987) " cx="117.869561" cy="80.0269872" rx="1" ry="1.07"></ellipse>
                            <ellipse id="Oval" fill="url(#linearGradient-42)" transform="translate(103.132640, 72.482720) rotate(-30.173520) translate(-103.132640, -72.482720) " cx="103.13264" cy="72.48272" rx="1" ry="1.06442146"></ellipse>
                            <polygon id="Path" fill="url(#linearGradient-43)" points="48.874 79.578 151.504 138.83 153.842 137.47 51.214 78.218"></polygon>
                            <polygon id="Path" fill="url(#linearGradient-44)" points="36.16 86.966 138.788 146.22 141.128 144.86 38.5 85.608"></polygon>
                        </g>
                        <g id="graph" transform="translate(166.200000, 22.600000)">
                            <path d="M49.546,27.24 L2.8,0.25 C2.4,0.022 2.048,-6.9388939e-18 1.8,0.15 L0.6,0.85 C0.858,0.7 1.214,0.722 1.61,0.95 L48.358,27.95 C49.1943277,28.4944585 49.7204434,29.4055007 49.774,30.402 L49.69,60.314 C49.69,60.762 49.53,61.078 49.274,61.226 L50.474,60.526 C50.728,60.378 50.886,60.062 50.888,59.614 L50.972,29.702 C50.9209462,28.6995586 50.3901249,27.7830915 49.546,27.24 Z" id="Path" fill="url(#linearGradient-45)"></path>
                            <path d="M48.342,27.94 C49.1783277,28.4844585 49.7044434,29.3955007 49.758,30.392 L49.674,60.304 C49.674,61.206 49.032,61.57 48.248,61.116 L1.5,34.126 C0.662457849,33.5826937 0.13595163,32.6709753 0.084,31.674 L0.168,1.762 C0.168,0.862 0.808,0.496 1.594,0.95 L48.342,27.94 Z" id="Path" fill="url(#linearGradient-46)"></path>
                            <path d="M45.322,47.04 C43.224,45.83 42.176,42.06 41.164,38.414 C40.164,34.844 39.148,31.154 37.164,30.014 C35.18,28.874 34.164,31.38 33.164,33.814 C32.15,36.29 31.104,38.85 29.006,37.638 C26.908,36.426 25.862,32.658 24.85,29.012 C23.85,25.442 22.832,21.752 20.85,20.612 C18.868,19.472 17.85,21.976 16.85,24.402 C15.836,26.878 14.79,29.438 12.692,28.228 C10.594,27.018 9.548,23.248 8.536,19.602 C7.536,16.032 6.518,12.34 4.536,11.202 L4.536,11.002 C6.634,12.202 7.682,15.982 8.694,19.628 C9.684,23.198 10.71,26.888 12.694,28.028 C14.678,29.168 15.694,26.664 16.694,24.238 C17.706,21.762 18.752,19.202 20.85,20.412 C22.948,21.622 23.994,25.392 25.008,29.038 C26.008,32.608 27.024,36.3 29.008,37.438 C30.992,38.576 32.008,36.072 33.008,33.648 C34.02,31.172 35.066,28.61 37.164,29.822 C39.262,31.034 40.31,34.802 41.322,38.448 C42.322,42.018 43.34,45.71 45.322,46.848 L45.322,47.04 Z" id="Path" fill="url(#linearGradient-47)"></path>
                            <path d="M45.322,47.522 C43.806,46.648 43.056,43.958 42.322,41.358 C41.618,38.832 40.888,36.222 39.492,35.416 C38.096,34.61 37.366,36.378 36.66,38.09 C35.934,39.852 35.184,41.672 33.66,40.798 C32.136,39.924 31.394,37.234 30.66,34.634 C29.954,32.108 29.226,29.498 27.83,28.69 C26.434,27.882 25.704,29.654 24.998,31.366 C24.272,33.128 23.522,34.95 21.998,34.074 C20.474,33.198 19.732,30.51 18.998,27.91 C18.292,25.384 17.564,22.774 16.168,21.968 C14.772,21.162 14.042,22.93 13.336,24.642 C12.61,26.404 11.86,28.226 10.336,27.35 C8.812,26.474 8.07,23.786 7.336,21.186 C6.632,18.662 5.902,16.05 4.506,15.244 L4.506,15.044 C6.022,15.918 6.772,18.606 7.506,21.208 C8.212,23.732 8.94,26.344 10.336,27.15 C11.732,27.956 12.462,26.186 13.168,24.476 C13.894,22.714 14.644,20.892 16.168,21.766 C17.692,22.64 18.434,25.33 19.168,27.93 C19.872,30.456 20.602,33.068 21.998,33.874 C23.394,34.68 24.124,32.91 24.83,31.198 C25.556,29.438 26.306,27.616 27.83,28.49 C29.354,29.364 30.096,32.054 30.83,34.654 C31.536,37.18 32.264,39.792 33.66,40.598 C35.056,41.404 35.786,39.634 36.492,37.922 C37.218,36.162 37.968,34.34 39.492,35.214 C41.016,36.088 41.758,38.778 42.492,41.378 C43.198,43.904 43.928,46.516 45.324,47.322 L45.322,47.522 Z" id="Path" fill="url(#linearGradient-48)"></path>
                        </g>
                        <g id="rig_rocket" transform="translate(53.600000, 12.600000)">
                            <path d="M5.228,98.954 C4.652,99.286 4.648,99.826 5.228,100.154 L20.242,108.878 C20.8951036,109.212022 21.6688964,109.212022 22.322,108.878 L37.434,100.154 C38.01,99.822 38.012,99.282 37.434,98.954 L22.42,90.228 C21.7664259,89.8959371 20.9935741,89.8959371 20.34,90.228 L5.228,98.954 Z" id="Path" fill="url(#linearGradient-49)"></path>
                            <path d="M0.05,90.026 C0.0491723672,90.0413135 0.0491723672,90.0566865 0.05,90.072 C0.0521383526,90.0849514 0.0554863382,90.0976737 0.06,90.11 C0.0621182412,90.1251161 0.0661506002,90.1399015 0.072,90.154 L0.086,90.19 L0.108,90.236 L0.128,90.268 C0.138,90.286 0.15,90.302 0.162,90.32 L0.202,90.368 L0.202,90.38 C0.221200048,90.4014619 0.241920271,90.4215137 0.264,90.44 L0.308,90.478 C0.322,90.488 0.334,90.5 0.35,90.51 L0.402,90.546 L0.458,90.582 L15.472,99.306 C15.5167531,99.3317141 15.5628155,99.3550791 15.61,99.376 L15.652,99.394 L15.768,99.438 L15.81,99.452 L15.886,99.474 L15.944,99.49 L16.024,99.508 L16.08,99.518 L16.248,99.542 L16.3,99.542 C16.332,99.542 16.366,99.542 16.4,99.542 L16.61,99.542 L16.686,99.542 L16.754,99.542 L16.826,99.542 L16.892,99.542 L16.97,99.528 L17.032,99.516 L17.122,99.494 L17.174,99.48 C17.226,99.464 17.28,99.446 17.33,99.426 L17.404,99.396 L17.442,99.378 C17.4792012,99.3617472 17.5152807,99.3430393 17.55,99.322 L32.662,90.598 C32.8763886,90.496816 33.0336559,90.3042738 33.09,90.074 C33.0919624,90.0460344 33.0919624,90.0179656 33.09,89.99 L33.11,96.99 C33.0842141,97.2536668 32.9183456,97.4829781 32.676,97.59 L17.564,106.314 C17.53,106.334 17.494,106.352 17.456,106.37 L17.418,106.386 L17.352,106.416 L17.352,106.416 C17.302,106.436 17.248,106.454 17.194,106.47 L17.182,106.47 L17.144,106.47 L17.054,106.492 L17.028,106.492 L16.992,106.492 L16.914,106.506 L16.884,106.506 L16.848,106.506 L16.776,106.506 L16.74,106.506 L16.708,106.506 L16.632,106.506 L16.42,106.506 L16.322,106.506 L16.282,106.506 L16.27,106.506 C16.212,106.506 16.158,106.492 16.102,106.482 L16.102,106.482 L16.054,106.482 L15.974,106.466 L15.916,106.45 L15.84,106.428 L15.824,106.428 L15.798,106.428 L15.682,106.384 L15.64,106.366 C15.5928155,106.345079 15.5467531,106.321714 15.502,106.296 L0.494,97.6 L0.476,97.588 L0.438,97.564 L0.386,97.528 C0.37,97.518 0.358,97.506 0.344,97.496 L0.298,97.458 L0.298,97.458 L0.244,97.406 L0.244,97.394 L0.214,97.36 L0.204,97.346 C0.192,97.328 0.18,97.312 0.17,97.294 L0.156,97.272 L0.156,97.272 C0.156,97.256 0.142,97.24 0.134,97.226 L0.122,97.198 C0.122,97.198 0.122,97.198 0.122,97.198 C0.116431559,97.1836357 0.111755984,97.168941 0.108,97.154 C0.108,97.144 0.108,97.134 0.108,97.124 L0.108,97.124 C0.107024798,97.1086822 0.107024798,97.0933178 0.108,97.078 C0.108976347,97.0680238 0.108976347,97.0579762 0.108,97.048 L0.108,97 L0.088,90 C0.046,90 0.05,90.012 0.05,90.026 Z" id="Path" fill="url(#linearGradient-50)"></path>
                            <path d="M0.48,89.376 C-0.096,89.71 -0.098,90.248 0.48,90.576 L15.494,99.3 C16.1468759,99.6320346 16.9191241,99.6320346 17.572,99.3 L32.684,90.576 C33.26,90.242 33.264,89.704 32.684,89.376 L17.67,80.65 C17.0164259,80.3179371 16.2435741,80.3179371 15.59,80.65 L0.48,89.376 Z" id="Path" fill="url(#linearGradient-51)"></path>
                            <path d="M2.91398611,87.5 C2.91398611,87.514 2.91398611,87.526 2.91398611,87.538 C2.91398611,87.55 2.91398611,87.56 2.91398611,87.57 C2.91398611,87.58 2.91398611,87.594 2.924,87.606 L2.938,87.636 C2.94234463,87.6493865 2.94839434,87.6621582 2.956,87.674 L2.972,87.7 C2.98015065,87.7153866 2.98951358,87.7300998 3,87.744 L3.032,87.784 L3.032,87.784 C3.048,87.802 3.066,87.818 3.084,87.836 L3.12,87.866 L3.154,87.892 L3.198,87.922 L3.244,87.952 L15.658,95.166 C15.694,95.186 15.734,95.206 15.774,95.224 L15.808,95.238 C15.8390514,95.2523918 15.871142,95.2644258 15.904,95.274 C15.9148759,95.2791939 15.9262733,95.2832166 15.938,95.286 C15.958,95.286 15.98,95.298 16,95.304 L16.048,95.318 L16.116,95.332 L16.162,95.332 L16.3,95.35 L16.344,95.35 L16.426,95.35 L16.6,95.35 L16.662,95.35 L16.718,95.35 L16.778,95.35 L16.834,95.35 L16.898,95.338 L16.948,95.328 L17.024,95.31 L17.066,95.298 C17.11,95.286 17.154,95.27 17.196,95.254 L17.258,95.228 L17.288,95.214 C17.32,95.2 17.348,95.184 17.378,95.168 L29.872,87.954 C30.0489288,87.8695056 30.1787877,87.7103 30.226,87.52 C30.2279302,87.4973744 30.2279302,87.4746256 30.226,87.452 L30.242,89.592 C30.2218329,89.8116144 30.0850663,90.0033934 29.884,90.094 L17.388,97.308 C17.3588793,97.3255968 17.3288362,97.3416198 17.298,97.356 L17.268,97.368 C17.2498697,97.3771977 17.231164,97.3852144 17.212,97.392 L17.212,97.392 C17.1697254,97.4096265 17.1262898,97.4243278 17.082,97.436 L17.072,97.436 L17.04,97.436 C17.016,97.436 16.99,97.45 16.964,97.454 L16.944,97.454 L16.914,97.454 L16.85,97.466 L16.824,97.466 L16.796,97.466 L16.734,97.466 L16.706,97.466 L16.442,97.466 C16.4147053,97.4680554 16.3872947,97.4680554 16.36,97.466 L16.316,97.466 L16.178,97.446 L16.178,97.446 L16.138,97.446 L16.072,97.432 L16.024,97.42 L15.96,97.402 L15.948,97.402 L15.926,97.402 L15.83,97.366 L15.796,97.35 C15.7568173,97.333085 15.7187416,97.3137131 15.682,97.292 L3.282,90.1 L3.266,90.1 L3.236,90.078 C3.22061338,90.0698493 3.20590022,90.0604864 3.192,90.05 L3.158,90.022 L3.12,89.992 L3.12,89.992 L3.076,89.948 L3.076,89.938 L3.052,89.91 C3.05257437,89.9060206 3.05257437,89.9019794 3.052,89.898 L3.024,89.856 L3.012,89.838 L3.012,89.828 C3.00481126,89.8159314 2.99878423,89.8032076 2.994,89.79 C2.98948368,89.7832642 2.98610531,89.7758317 2.984,89.768 L2.972,89.73 L2.972,89.706 L2.972,89.706 C2.9711861,89.6933464 2.9711861,89.6806536 2.972,89.668 C2.972,89.668 2.972,89.65 2.972,89.642 L2.972,89.6 L2.956,87.46 C2.912,87.476 2.91398611,87.488 2.91398611,87.5 Z" id="Path" fill="url(#linearGradient-52)"></path>
                            <path d="M3.27,86.964 C2.794,87.238 2.792,87.684 3.27,87.964 L15.684,95.178 C16.2245865,95.4520425 16.8634135,95.4520425 17.404,95.178 L29.898,87.964 C30.376,87.688 30.378,87.242 29.898,86.964 L17.484,79.75 C16.9445812,79.4740294 16.3054188,79.4740294 15.766,79.75 L3.27,86.964 Z" id="Path" fill="url(#linearGradient-53)"></path>
                            <rect id="Rectangle" fill="url(#linearGradient-54)" transform="translate(16.291000, 54.390000) rotate(-180.000000) translate(-16.291000, -54.390000) " x="15.648" y="15" width="1.286" height="78.78" rx="0.643"></rect>
                            <rect id="Rectangle" fill="url(#linearGradient-55)" transform="translate(26.391000, 48.208000) rotate(-180.000000) translate(-26.391000, -48.208000) " x="25.748" y="8.398" width="1.286" height="79.62" rx="0.643"></rect>
                            <rect id="Rectangle" fill="url(#linearGradient-56)" transform="translate(5.973000, 48.208000) rotate(-180.000000) translate(-5.973000, -48.208000) " x="5.33" y="8.398" width="1.286" height="79.62" rx="0.643"></rect>
                            <path d="M2.91398611,7.978 C2.91398611,7.99 2.91398611,8.004 2.91398611,8.016 C2.91398611,8.028 2.91398611,8.036 2.91398611,8.046 C2.91398611,8.056 2.91398611,8.072 2.924,8.084 C2.934,8.096 2.934,8.104 2.938,8.112 C2.94193106,8.12554707 2.94800815,8.13837646 2.956,8.15 C2.96057093,8.15974881 2.96592166,8.16911257 2.972,8.178 C2.972,8.192 2.99,8.206 3,8.22 C3.00955223,8.23418792 3.02025496,8.24756633 3.032,8.26 L3.032,8.26 L3.084,8.31 L3.12,8.34 L3.154,8.368 L3.198,8.398 L3.244,8.426 L15.658,15.64 C15.6954297,15.6617141 15.7341708,15.6810847 15.774,15.698 L15.808,15.714 L15.904,15.75 L15.938,15.762 L16,15.78 L16.048,15.792 L16.116,15.806 L16.162,15.806 L16.3,15.826 L16.344,15.826 L16.426,15.826 L16.662,15.826 L16.718,15.826 L16.778,15.826 L16.834,15.826 L16.898,15.826 L16.948,15.814 C16.974,15.814 16.998,15.802 17.024,15.796 L17.066,15.786 L17.196,15.742 L17.258,15.716 L17.288,15.702 L17.378,15.654 L29.872,8.44 C30.0491865,8.35685196 30.1792975,8.19807239 30.226,8.008 C30.2279302,7.98537442 30.2279302,7.96262558 30.226,7.94 L30.242,10.08 C30.2218329,10.2996144 30.0850663,10.4913934 29.884,10.582 L17.414,17.8 C17.3848412,17.8169262 17.3547983,17.8322814 17.324,17.846 L17.294,17.86 L17.238,17.884 L17.238,17.884 L17.108,17.928 L17.098,17.928 L17.066,17.928 L16.99,17.946 L16.97,17.946 L16.94,17.946 L16.876,17.958 L16.85,17.958 L16.822,17.958 L16.76,17.958 L16.704,17.958 L16.642,17.958 L16.6,17.958 C16.5920315,17.9569961 16.5839685,17.9569961 16.576,17.958 L16.456,17.958 L16.374,17.958 L16.33,17.958 C16.284,17.958 16.238,17.946 16.192,17.938 L16.192,17.938 L16.152,17.938 L16.086,17.924 L16.038,17.91 L15.974,17.892 L15.962,17.892 L15.94,17.892 L15.844,17.856 L15.81,17.842 C15.77,17.824 15.732,17.804 15.696,17.784 L3.282,10.57 L3.266,10.57 L3.236,10.55 L3.192,10.52 L3.158,10.494 L3.12,10.462 L3.12,10.462 L3.076,10.418 C3.076,10.418 3.076,10.418 3.076,10.418 L3.052,10.39 C3.05257437,10.3860206 3.05257437,10.3819794 3.052,10.378 L3.024,10.334 L3.012,10.316 C3.012,10.316 3.012,10.316 3.012,10.316 C3.00518852,10.3037339 2.99917602,10.2910408 2.994,10.278 C2.98985413,10.2710639 2.9864998,10.2636843 2.984,10.256 L2.972,10.22 L2.972,10.196 L2.972,10.196 C2.97088364,10.1833579 2.97088364,10.1706421 2.972,10.158 C2.972,10.158 2.972,10.142 2.972,10.134 L2.972,10.122 L2.956,7.982 C2.912,7.954 2.91398611,7.966 2.91398611,7.978 Z" id="Path" fill="url(#linearGradient-57)"></path>
                            <path d="M3.27,7.44 C2.794,7.716 2.792,8.162 3.27,8.44 L15.684,15.654 C16.2241181,15.9299956 16.8638819,15.9299956 17.404,15.654 L29.898,8.44 C30.376,8.166 30.378,7.72 29.898,7.44 L17.484,0.226 C16.9441112,-0.048013097 16.3058888,-0.048013097 15.766,0.226 L3.27,7.44 Z" id="Path" fill="url(#linearGradient-58)"></path>
                            <polygon id="Path" fill="url(#linearGradient-59)" points="5.336 61.862 10.068 59.164 5.336 51.002 6.312 50.446 11.044 58.608 15.776 55.91 16.752 57.592 12.02 60.29 16.752 68.454 15.776 69.01 11.044 60.846 6.312 63.546"></polygon>
                            <polygon id="Path" fill="url(#linearGradient-60)" points="5.336 78.116 10.068 75.418 5.336 67.254 6.312 66.698 11.044 74.862 15.776 72.164 16.752 73.846 12.02 76.544 16.752 84.708 15.776 85.264 11.044 77.1 6.312 79.798"></polygon>
                            <polygon id="Path" fill="url(#linearGradient-61)" points="27.034 61.862 22.302 59.164 27.034 51.002 26.06 50.446 21.326 58.608 16.594 55.91 15.618 57.592 20.352 60.29 15.618 68.454 16.594 69.01 21.326 60.846 26.06 63.546"></polygon>
                            <polygon id="Path" fill="url(#linearGradient-62)" points="27.034 78.116 22.302 75.418 27.034 67.254 26.06 66.698 21.326 74.862 16.594 72.164 15.618 73.846 20.352 76.544 15.618 84.708 16.594 85.264 21.326 77.1 26.06 79.798"></polygon>
                            <polygon id="Path" fill="url(#linearGradient-63)" points="5.336 29.414 10.068 26.716 5.336 18.554 6.312 17.998 11.044 26.16 15.776 23.462 16.752 25.144 12.02 27.842 16.752 36.006 15.776 36.562 11.044 28.398 6.312 31.098"></polygon>
                            <polygon id="Path" fill="url(#linearGradient-64)" points="5.336 45.668 10.068 42.97 5.336 34.806 6.312 34.25 11.044 42.414 15.776 39.716 16.752 41.398 12.02 44.096 16.752 52.26 15.776 52.816 11.044 44.652 6.312 47.35"></polygon>
                            <polygon id="Path" fill="url(#linearGradient-65)" points="27.034 29.414 22.302 26.716 27.034 18.554 26.06 17.998 21.326 26.16 16.594 23.462 15.618 25.144 20.352 27.842 15.618 36.006 16.594 36.562 21.326 28.398 26.06 31.098"></polygon>
                            <polygon id="Path" fill="url(#linearGradient-66)" points="27.034 45.668 22.302 42.97 27.034 34.806 26.06 34.25 21.326 42.414 16.594 39.716 15.618 41.398 20.352 44.096 15.618 52.26 16.594 52.816 21.326 44.652 26.06 47.35"></polygon>
                        </g>
                        <g id="trolley" transform="translate(115.200000, 92.000000)">
                            <g id="Group" opacity="0.2" transform="translate(0.000000, 4.800000)" fill="url(#linearGradient-67)">
                                <path d="M65.71,25.012 C66.416,25.412 66.42,26.08 65.71,26.486 L45.71,38.106 C44.9104066,38.514151 43.9635934,38.514151 43.164,38.106 L0.6,13.528 C-0.106,13.128 -0.11,12.462 0.6,12.054 L20.6,0.434 C21.3990518,0.0265292281 22.3449482,0.0265292281 23.144,0.434 L65.71,25.012 Z" id="Path"></path>
                            </g>
                            <path d="M65.722,26.502 L45.722,38.12 C44.9224066,38.528151 43.9755934,38.528151 43.176,38.12 L0.61,13.542 C0.256,13.342 0.078,13.07 0.0799833326,12.8 L0.0799833326,14.986 C0.0799833326,15.254 0.258,15.522 0.612,15.728 L43.176,40.306 C43.9755934,40.714151 44.9224066,40.714151 45.722,40.306 L65.722,28.686 C66.07,28.486 66.244,28.22 66.244,27.954 L66.244,25.77 C66.244,26.034 66.07,26.3 65.722,26.502 Z" id="Path" fill="url(#linearGradient-68)"></path>
                            <path d="M65.714,25.028 C66.418,25.428 66.422,26.094 65.714,26.502 L45.714,38.12 C44.9144066,38.528151 43.9675934,38.528151 43.168,38.12 L0.61,13.542 C-0.094,13.142 -0.098,12.476 0.61,12.068 L20.61,0.448 C21.4090518,0.0405292281 22.3549482,0.0405292281 23.154,0.448 L65.714,25.028 Z" id="Path" fill="url(#linearGradient-69)"></path>
                        </g>
                        <g id="box_gear" transform="translate(0.000000, 90.200000)">
                            <path d="M33.348,27.334 C33.816,27.602 33.818,28.04 33.348,28.31 L21.174,35.4 C20.643264,35.668077 20.016736,35.668077 19.486,35.4 L7.226,28.32 C6.758,28.05 6.756,27.612 7.226,27.344 L19.4,20.254 C19.9302722,19.983983 20.5577278,19.983983 21.088,20.254 L33.348,27.334 Z" id="Path" fill="url(#linearGradient-70)"></path>
                            <path d="M26.84,7.932 C26.8410861,7.94464339 26.8410861,7.95735661 26.84,7.97 C26.8408146,7.9799795 26.8408146,7.9900205 26.84,8 C26.8408146,8.01198336 26.8408146,8.02401664 26.84,8.036 L26.828,8.066 C26.8228072,8.07838692 26.8167939,8.09041362 26.81,8.102 C26.8054291,8.11174881 26.8000783,8.12111257 26.794,8.13 L26.766,8.172 C26.756,8.184 26.746,8.198 26.734,8.21 L26.734,8.22 L26.682,8.268 C26.6709626,8.27970277 26.6589161,8.2904108 26.646,8.3 L26.612,8.326 C26.6,8.336 26.584,8.344 26.57,8.354 L26.524,8.384 L14.344,15.462 C14.3076931,15.4826525 14.2703062,15.501346 14.232,15.518 L14.198,15.534 L14.104,15.568 L14.07,15.58 C14.05,15.58 14.028,15.592 14.008,15.598 L13.96,15.61 L13.894,15.624 L13.85,15.634 C13.806,15.634 13.76,15.648 13.714,15.652 L13.672,15.652 L13.592,15.652 L13.4,15.652 L13.34,15.652 L13.284,15.652 L13.224,15.652 L13.17,15.652 L13.108,15.642 L13.058,15.642 L12.984,15.622 L12.944,15.612 C12.9005395,15.5997532 12.8578049,15.5850631 12.816,15.568 L12.756,15.544 L12.724,15.53 L12.636,15.484 L0.368,8.384 C0.194181931,8.30162717 0.0669807647,8.14501533 0.022,7.958 C0.0200231918,7.93604441 0.0200231918,7.91395559 0.022,7.892 L0,23.87 C0.0200207291,24.0854786 0.15452575,24.27348 0.352,24.362 L12.612,31.44 L12.7,31.486 L12.732,31.5 L12.784,31.524 L12.784,31.524 C12.8258466,31.5403858 12.8685805,31.5544079 12.912,31.566 L12.922,31.566 L12.952,31.566 L13.026,31.584 L13.046,31.584 L13.076,31.584 L13.138,31.594 L13.164,31.594 L13.192,31.594 L13.252,31.594 L13.28,31.594 L13.54,31.594 L13.62,31.594 L13.652,31.594 L13.652,31.594 L13.788,31.574 L13.788,31.574 L13.826,31.574 L13.892,31.56 L13.94,31.546 L14.002,31.53 L14.014,31.53 L14.036,31.53 L14.13,31.494 L14.164,31.48 C14.2023357,31.4626669 14.2397218,31.4433062 14.276,31.422 L26.456,24.344 L26.47,24.344 L26.502,24.322 C26.5167472,24.3138393 26.530795,24.3044741 26.544,24.294 L26.578,24.268 L26.614,24.238 L26.614,24.238 C26.6290306,24.2243529 26.6430663,24.2096487 26.656,24.194 L26.68,24.168 L26.68,24.156 C26.69,24.142 26.7,24.128 26.708,24.114 L26.72,24.096 C26.72,24.096 26.72,24.096 26.72,24.096 L26.738,24.058 C26.74171,24.0508438 26.7450478,24.0435007 26.748,24.036 L26.748,24.036 C26.7522561,24.0242756 26.7555994,24.0122398 26.758,24 C26.758,24 26.758,23.984 26.758,23.976 L26.758,23.976 C26.7589835,23.9640202 26.7589835,23.9519798 26.758,23.94 C26.758,23.94 26.758,23.924 26.758,23.914 L26.758,23.914 L26.774,7.936 C26.7955497,7.93050896 26.8179449,7.92915168 26.84,7.932 L26.84,7.932 Z" id="Path" fill="#EAF0FE"></path>
                            <path d="M26.492,7.4 C26.958,7.67 26.96,8.108 26.492,8.378 L14.312,15.456 C13.7817278,15.726017 13.1542722,15.726017 12.624,15.456 L0.368,8.384 C-0.1,8.114 -0.102,7.676 0.368,7.406 L12.55,0.328 C13.0795736,0.0580099788 13.7064264,0.0580099788 14.236,0.328 L26.492,7.4 Z" id="Path" fill="url(#linearGradient-71)"></path>
                            <path d="M26.836,7.97 C26.8369055,7.9799795 26.8369055,7.9900205 26.836,8 C26.8368938,8.01198336 26.8368938,8.02401664 26.836,8.036 L26.824,8.066 C26.8188072,8.07838692 26.8127939,8.09041362 26.806,8.102 C26.8014291,8.11174881 26.7960783,8.12111257 26.79,8.13 L26.762,8.172 C26.752,8.184 26.742,8.198 26.73,8.21 L26.73,8.22 L26.678,8.268 C26.6669626,8.27970277 26.6549161,8.2904108 26.642,8.3 L26.608,8.326 C26.596,8.336 26.58,8.344 26.566,8.354 L26.52,8.384 L14.34,15.462 C14.3036931,15.4826525 14.2663062,15.501346 14.228,15.518 L14.194,15.534 L14.1,15.568 L14.066,15.58 C14.046,15.58 14.024,15.592 14.004,15.598 L13.956,15.61 L13.89,15.624 L13.846,15.634 C13.802,15.634 13.756,15.648 13.71,15.652 L13.668,15.652 L13.588,15.652 L13.454,15.652 L13.454,31.63 L13.572,31.63 L13.652,31.63 L13.684,31.63 L13.684,31.63 L13.82,31.61 L13.82,31.61 L13.858,31.61 L13.924,31.596 L13.972,31.582 L14.034,31.566 L14.046,31.566 L14.068,31.566 L14.162,31.53 L14.196,31.516 C14.2343357,31.4986669 14.2717218,31.4793062 14.308,31.458 L26.488,24.38 L26.502,24.38 L26.534,24.358 C26.5487472,24.3498393 26.562795,24.3404741 26.576,24.33 L26.61,24.304 L26.646,24.274 L26.646,24.274 C26.6610306,24.2603529 26.6750663,24.2456487 26.688,24.23 L26.712,24.204 L26.712,24.192 C26.722,24.178 26.732,24.164 26.74,24.15 L26.752,24.132 C26.752,24.132 26.752,24.132 26.752,24.132 L26.77,24.094 C26.77371,24.0868438 26.7770478,24.0795007 26.78,24.072 L26.78,24.072 C26.7842561,24.0602756 26.7875994,24.0482398 26.79,24.036 C26.79,24.036 26.79,24.02 26.79,24.012 L26.79,24.012 C26.7909835,24.0000202 26.7909835,23.9879798 26.79,23.976 C26.7891818,23.9673526 26.7891818,23.9586474 26.79,23.95 L26.79,23.95 L26.806,7.972 C26.8070973,7.98330677 26.8070973,7.99469323 26.806,8.006 C26.8147019,7.99297521 26.8247579,7.980908 26.836,7.97 L26.836,7.97 Z" id="Path" fill="#DEE7FF"></path>
                            <path d="M17.386,9.06 C17.618,8.798 18.528,8.66 18.606,8.374 C18.684,8.088 17.886,7.788 17.806,7.498 C17.726,7.208 18.324,6.79 18.09,6.526 C17.856,6.262 16.924,6.302 16.554,6.088 C16.184,5.874 16.234,5.332 15.794,5.2 C15.354,5.068 14.606,5.41 14.11,5.364 C13.614,5.318 13.096,4.858 12.594,4.904 C12.092,4.95 11.86,5.474 11.4,5.6 C10.94,5.726 10.078,5.528 9.71,5.74 C9.342,5.952 9.692,6.462 9.47,6.716 C9.248,6.97 8.326,7.116 8.25,7.402 C8.174,7.688 8.97,7.988 9.05,8.278 C9.13,8.568 8.532,8.986 8.766,9.25 C9,9.514 9.932,9.476 10.302,9.688 C10.672,9.9 10.62,10.446 11.062,10.576 C11.504,10.706 12.25,10.366 12.746,10.412 C13.242,10.458 13.76,10.918 14.26,10.874 C14.76,10.83 14.994,10.304 15.46,10.17 C15.926,10.036 16.782,10.242 17.15,10.03 C17.518,9.818 17.162,9.314 17.386,9.06 Z M11.296,9.124 C10.11,8.438 10.096,7.324 11.282,6.652 C12.468,5.98 14.378,5.974 15.564,6.652 C16.75,7.33 16.764,8.452 15.578,9.126 C14.392,9.8 12.482,9.8 11.296,9.124 L11.296,9.124 Z" id="Shape" fill="url(#linearGradient-72)" fill-rule="nonzero"></path>
                            <path d="M12.58,17.472 L12.672,17.522 L12.706,17.536 L12.77,17.562 C12.8138097,17.5797247 12.8585409,17.5950802 12.904,17.608 L12.948,17.62 L13.028,17.64 L13.08,17.65 L13.146,17.662 L13.204,17.662 L13.266,17.662 L13.326,17.662 L13.39,17.662 L13.572,17.662 L13.658,17.662 L13.702,17.662 L13.848,17.642 L13.894,17.642 L13.964,17.626 L14.014,17.614 L14.08,17.594 L14.116,17.582 L14.216,17.544 L14.252,17.528 C14.2931651,17.5104203 14.3332372,17.4903842 14.372,17.468 L26.84,10.222 L26.84,7.894 C26.8410973,7.90530677 26.8410973,7.91669323 26.84,7.928 C26.8408229,7.94064339 26.8408229,7.95335661 26.84,7.966 C26.8408229,7.9759795 26.8408229,7.9860205 26.84,7.996 C26.8408229,8.00798336 26.8408229,8.02001664 26.84,8.032 L26.828,8.062 C26.8228072,8.07438692 26.8167939,8.08641362 26.81,8.098 C26.8054291,8.10774881 26.8000783,8.11711257 26.794,8.126 L26.766,8.168 C26.756,8.18 26.746,8.194 26.734,8.206 L26.734,8.216 L26.682,8.264 C26.6709626,8.27570277 26.6589161,8.2864108 26.646,8.296 L26.612,8.322 C26.6,8.332 26.584,8.34 26.57,8.35 L26.524,8.38 L14.344,15.458 C14.3076931,15.4786525 14.2703062,15.497346 14.232,15.514 L14.198,15.53 L14.104,15.564 L14.07,15.576 C14.05,15.576 14.028,15.588 14.008,15.594 L13.96,15.606 L13.894,15.62 L13.85,15.63 C13.806,15.63 13.76,15.644 13.714,15.648 L13.672,15.648 L13.592,15.648 L13.4,15.648 L13.34,15.648 L13.284,15.648 L13.224,15.648 L13.17,15.648 L13.108,15.638 L13.058,15.638 L12.984,15.618 L12.944,15.608 C12.9005395,15.5957532 12.8578049,15.5810631 12.816,15.564 L12.756,15.54 L12.724,15.526 L12.636,15.48 L0.368,8.384 C0.194181931,8.30162717 0.0669807647,8.14501533 0.022,7.958 C0.0200231918,7.93604441 0.0200231918,7.91395559 0.022,7.892 L0.022,10.218 L12.58,17.472 Z" id="Path" fill="url(#linearGradient-73)"></path>
                            <path d="M12.58,29.348 C12.6095956,29.3659741 12.6403269,29.3820079 12.672,29.396 L12.706,29.41 L12.77,29.438 C12.8138097,29.4557247 12.8585409,29.4710802 12.904,29.484 L12.948,29.496 C12.974,29.496 13,29.51 13.028,29.514 L13.08,29.526 L13.146,29.538 L13.204,29.538 L13.266,29.538 L13.326,29.538 L13.572,29.538 C13.6006323,29.5399842 13.6293677,29.5399842 13.658,29.538 L13.702,29.538 C13.7510397,29.5344184 13.7998037,29.5277384 13.848,29.518 L13.894,29.518 L13.964,29.502 L14.014,29.488 L14.08,29.47 L14.116,29.458 L14.216,29.42 L14.252,29.404 C14.2931651,29.3864203 14.3332372,29.3663842 14.372,29.344 L26.84,22.098 L26.84,19.77 C26.8407348,19.7813128 26.8407348,19.7926872 26.84,19.804 C26.8407348,19.8166477 26.8407348,19.8293523 26.84,19.842 C26.8407348,19.8519795 26.8407348,19.8620205 26.84,19.872 C26.8407348,19.8839834 26.8407348,19.8960166 26.84,19.908 L26.828,19.938 C26.8228072,19.9503869 26.8167939,19.9624136 26.81,19.974 C26.8058565,19.9833448 26.8004749,19.9920899 26.794,20 L26.766,20.042 C26.7564478,20.0561879 26.745745,20.0695663 26.734,20.082 L26.734,20.092 L26.682,20.14 L26.646,20.17 L26.612,20.198 L26.57,20.226 L26.524,20.254 L14.344,27.334 L14.2,27.4 L14.166,27.414 C14.1353596,27.4277365 14.1039776,27.4397551 14.072,27.45 L14.038,27.462 L13.976,27.48 L13.928,27.492 L13.862,27.506 L13.818,27.506 C13.774,27.506 13.728,27.52 13.682,27.524 L13.64,27.524 L13.56,27.524 L13.4,27.524 L13.34,27.524 L13.284,27.524 L13.224,27.524 L13.17,27.524 L13.108,27.512 L13.058,27.512 L12.984,27.494 L12.944,27.494 C12.9,27.48 12.856,27.466 12.816,27.45 L12.756,27.424 L12.724,27.412 L12.636,27.366 L0.368,20.26 C0.194545906,20.1771643 0.0675084391,20.020754 0.022,19.834 C0.0199351188,19.8113804 0.0199351188,19.7886196 0.022,19.766 L0.022,22.094 L12.58,29.348 Z" id="Path" fill="url(#linearGradient-74)"></path>
                        </g>
                        <g id="box_code" transform="translate(129.400000, 91.600000)">
                            <path d="M29.47,8.554 C29.4707409,8.56798258 29.4707409,8.58201742 29.47,8.596 C29.47,8.608 29.47,8.618 29.47,8.63 C29.4669142,8.64293742 29.4629039,8.6556367 29.458,8.668 L29.446,8.7 C29.4405516,8.71390844 29.4338577,8.7272962 29.426,8.74 L29.408,8.77 C29.3989588,8.78593768 29.3889396,8.8013004 29.378,8.816 L29.344,8.858 L29.344,8.858 L29.288,8.912 C29.2755663,8.92374504 29.2621879,8.93444777 29.248,8.944 L29.212,8.974 L29.164,9.006 L29.116,9.036 L15.8,16.778 C15.762,16.8 15.72,16.82 15.678,16.84 L15.64,16.856 C15.608,16.87 15.574,16.882 15.538,16.894 L15.5,16.908 L15.434,16.926 L15.382,16.94 L15.31,16.956 L15.262,16.966 L15.114,16.986 L15.066,16.986 L14.978,16.986 L14.792,16.986 L14.726,16.986 L14.664,16.986 L14.6,16.986 L14.542,16.986 L14.472,16.974 L14.418,16.974 L14.338,16.954 L14.294,16.942 C14.2465404,16.9284137 14.1998118,16.9123925 14.154,16.894 C14.1315046,16.8858805 14.1094715,16.8765331 14.088,16.866 L14.054,16.852 L13.958,16.802 L0.558,9.072 C0.36861786,8.98105419 0.229922382,8.81006982 0.18,8.606 C0.178024054,8.58204067 0.178024054,8.55795933 0.18,8.534 L0.158,17.4 C0.179698603,17.6354284 0.326403097,17.8409675 0.542,17.938 L13.932,25.668 C13.964,25.686 13.996,25.704 14.028,25.718 L14.062,25.734 L14.12,25.758 L14.12,25.758 L14.26,25.804 L14.26,25.804 L14.294,25.804 L14.374,25.824 L14.396,25.824 L14.43,25.824 L14.498,25.836 L14.526,25.836 L14.556,25.836 L14.622,25.836 L14.652,25.836 L14.682,25.836 L14.748,25.836 L14.936,25.836 L15.024,25.836 L15.058,25.836 L15.07,25.836 C15.12,25.836 15.168,25.824 15.218,25.814 L15.218,25.814 L15.26,25.814 L15.332,25.8 L15.384,25.786 L15.452,25.766 L15.466,25.766 L15.488,25.766 C15.524,25.754 15.558,25.74 15.59,25.726 L15.628,25.71 C15.6702246,25.6925538 15.7110163,25.6718236 15.75,25.648 L29.054,17.918 L29.07,17.908 L29.104,17.886 C29.1201079,17.8764923 29.1354839,17.865796 29.15,17.854 L29.186,17.826 L29.226,17.794 L29.226,17.794 L29.274,17.748 L29.274,17.748 L29.3,17.718 L29.3,17.704 C29.311796,17.6894839 29.3224923,17.6741079 29.332,17.658 L29.344,17.64 C29.344,17.64 29.344,17.64 29.344,17.63 L29.364,17.59 C29.3647888,17.5820194 29.3647888,17.5739806 29.364,17.566 L29.364,17.566 C29.364,17.552 29.364,17.54 29.374,17.526 L29.374,17.5 L29.374,17.5 C29.3749683,17.4860167 29.3749683,17.4719833 29.374,17.458 C29.374,17.458 29.374,17.44 29.374,17.432 L29.374,17.42 L29.392,8.526 C29.419527,8.53035463 29.445988,8.53985344 29.47,8.554 L29.47,8.554 Z" id="Path" fill="#EAF0FE"></path>
                            <path d="M29.47,14.58 L29.47,12.966 C29.4708146,12.9786434 29.4708146,12.9913566 29.47,13.004 C29.4708146,13.0179826 29.4708146,13.0320174 29.47,13.046 C29.47,13.058 29.47,13.068 29.47,13.08 C29.4669142,13.0929374 29.4629039,13.1056367 29.458,13.118 L29.446,13.15 C29.4405516,13.1639084 29.4338577,13.1772962 29.426,13.19 L29.408,13.22 C29.3989588,13.2359377 29.3889396,13.2513004 29.378,13.266 L29.344,13.308 L29.344,13.318 L29.288,13.372 C29.2755663,13.383745 29.2621879,13.3944478 29.248,13.404 L29.212,13.434 L29.164,13.466 L29.116,13.496 L15.8,21.228 C15.762,21.25 15.72,21.27 15.678,21.29 L15.64,21.306 C15.608,21.32 15.574,21.332 15.538,21.344 L15.5,21.358 L15.434,21.376 L15.382,21.39 L15.31,21.406 L15.262,21.416 L15.114,21.436 L15.066,21.436 L14.978,21.436 L14.792,21.436 L14.726,21.436 L14.664,21.436 L14.6,21.436 L14.542,21.436 L14.472,21.424 L14.418,21.424 L14.338,21.404 L14.294,21.392 C14.2465404,21.3784137 14.1998118,21.3623925 14.154,21.344 C14.1315046,21.3358805 14.1094715,21.3265331 14.088,21.316 L14.054,21.302 L13.958,21.252 L0.558,13.522 C0.36861786,13.4310542 0.229922382,13.2600698 0.18,13.056 C0.178024054,13.0320407 0.178024054,13.0079593 0.18,12.984 L0.18,14.594 L13.918,22.526 L14.018,22.578 L14.054,22.594 L14.122,22.622 C14.1695958,22.6416436 14.2183545,22.6583417 14.268,22.672 L14.316,22.684 L14.4,22.706 L14.456,22.718 L14.528,22.73 L14.59,22.73 L14.658,22.73 L14.72,22.73 L14.986,22.73 L15.078,22.73 L15.126,22.73 C15.178,22.73 15.23,22.718 15.282,22.708 L15.332,22.708 L15.408,22.692 L15.462,22.678 L15.532,22.658 L15.572,22.644 L15.678,22.604 L15.718,22.588 C15.762,22.568 15.804,22.546 15.846,22.522" id="Path" fill="url(#linearGradient-75)"></path>
                            <path d="M29.09,7.98 C29.6,8.274 29.602,8.752 29.09,9.046 L15.8,16.778 C15.2211821,17.0719512 14.5368179,17.0719512 13.958,16.778 L0.558,9.048 C0.048,8.752 0.046,8.274 0.558,7.98 L13.86,0.25 C14.4390468,-0.0459349602 15.1249532,-0.0459349602 15.704,0.25 L29.09,7.98 Z" id="Path" fill="url(#linearGradient-76)"></path>
                            <polygon id="Path" fill="#EAF0FE" points="10.832 8.458 9.944 7.946 9.848 5.852 13.466 5.912 14.354 6.424 10.73 6.36"></polygon>
                            <polygon id="Path" fill="#EAF0FE" points="20.426 6.854 21.128 7.254 10.48 10.966 9.784 10.566"></polygon>
                            <polygon id="Path" fill="#EAF0FE" points="19.76 11.574 19.648 9.48 20.536 9.994 20.648 12.088 17.014 12.028 16.126 11.514"></polygon>
                        </g>
                        <g id="box_empty" transform="translate(151.800000, 110.400000)">
                            <path d="M18.958,5.478 C18.958,5.478 18.958,5.496 18.958,5.504 L18.958,5.526 C18.9588596,5.53397691 18.9588596,5.54202309 18.958,5.55 C18.9583335,5.55666249 18.9583335,5.56333751 18.958,5.57 L18.946,5.596 L18.934,5.616 C18.928493,5.62610954 18.921777,5.63551189 18.914,5.644 C18.907789,5.65416305 18.900405,5.66356086 18.892,5.672 L18.892,5.672 L18.856,5.708 L18.83,5.728 C18.822418,5.7351528 18.8144028,5.7418321 18.806,5.748 L18.776,5.768 L18.744,5.788 L10.202,10.752 L10.124,10.792 L10.1,10.792 L10.034,10.818 L10.01,10.818 L9.966,10.83 L9.934,10.83 L9.888,10.84 L9.856,10.84 L9.76,10.854 L9.732,10.854 L9.674,10.854 L9.512,10.854 L9.472,10.854 L9.432,10.854 L9.394,10.854 L9.35,10.854 L9.314,10.854 L9.262,10.842 L9.234,10.842 L9.144,10.812 L9.102,10.794 L9.08,10.794 C9.059381,10.7845369 9.03934535,10.7738512 9.02,10.762 L0.4,5.8 C0.278884798,5.74178281 0.190125413,5.63248406 0.158,5.502 C0.156073038,5.48605802 0.156073038,5.46994198 0.158,5.454 L0.146,11.166 C0.159627395,11.3173577 0.254705194,11.4492398 0.394,11.51 L8.994,16.474 L9.056,16.506 L9.076,16.506 L9.114,16.522 L9.114,16.522 C9.14258207,16.5340813 9.17199015,16.5441068 9.202,16.552 L9.202,16.552 L9.224,16.552 L9.276,16.566 L9.29,16.566 L9.31,16.566 L9.354,16.566 L9.372,16.566 L9.392,16.566 L9.434,16.566 L9.472,16.566 L9.514,16.566 L9.636,16.566 L9.692,16.566 L9.722,16.566 C9.75356561,16.5640978 9.78496887,16.5600889 9.816,16.554 L9.816,16.554 L9.842,16.554 L9.888,16.554 L9.922,16.554 L9.964,16.542 L9.964,16.542 L9.978,16.542 L10.044,16.518 L10.068,16.506 C10.095175,16.4950942 10.1212857,16.4817041 10.146,16.466 L18.69,11.502 L18.7,11.502 L18.722,11.488 L18.752,11.468 L18.774,11.45 L18.8,11.428 L18.8,11.428 L18.83,11.398 L18.83,11.398 C18.8341949,11.3904973 18.8396011,11.3837395 18.846,11.378 L18.846,11.378 L18.866,11.348 L18.866,11.336 C18.866,11.336 18.866,11.336 18.866,11.336 L18.878,11.31 L18.878,11.294 L18.878,11.294 L18.878,11.268 L18.878,11.252 L18.878,11.252 C18.8790669,11.2433662 18.8790669,11.2346338 18.878,11.226 C18.8789778,11.2207115 18.8789778,11.2152885 18.878,11.21 L18.878,11.21 L18.89,5.5 C18.89,5.5 18.958,5.47 18.958,5.478 Z" id="Path" fill="#EAF0FE"></path>
                            <path d="M18.958,9.346 L18.958,8.31 C18.958,8.32 18.958,8.328 18.958,8.336 C18.958,8.344 18.958,8.352 18.958,8.362 L18.958,8.384 C18.9588596,8.39197691 18.9588596,8.40002309 18.958,8.408 L18.958,8.428 L18.946,8.454 L18.934,8.474 L18.914,8.502 C18.9072955,8.51181074 18.899946,8.52116471 18.892,8.53 L18.892,8.53 L18.856,8.566 L18.83,8.586 L18.806,8.604 C18.7968066,8.61180377 18.7867394,8.61851525 18.776,8.624 L18.744,8.646 L10.202,13.61 L10.124,13.65 L10.1,13.66 L10.034,13.684 L10.01,13.684 L9.966,13.698 L9.934,13.698 L9.888,13.698 L9.856,13.698 L9.76,13.712 L9.732,13.712 L9.674,13.712 L9.512,13.712 L9.472,13.712 L9.432,13.712 L9.394,13.712 L9.35,13.712 L9.314,13.712 L9.262,13.7 L9.234,13.7 L9.144,13.67 L9.102,13.652 L9.08,13.652 C9.059381,13.6425369 9.03934535,13.6318512 9.02,13.62 L0.42,8.656 C0.298421823,8.59735653 0.209589758,8.48723413 0.178,8.356 C0.175940364,8.34073583 0.175940364,8.32526417 0.178,8.31 L0.178,9.344 L9,14.438 L9.064,14.472 L9.086,14.472 L9.13,14.49 L9.224,14.522 L9.254,14.522 L9.308,14.536 L9.346,14.536 L9.392,14.536 L9.43,14.536 L9.474,14.536 L9.686,14.536 L9.744,14.536 L9.776,14.536 L9.874,14.522 L9.908,14.522 L9.956,14.522 L9.99,14.512 L10.036,14.5 L10.062,14.49 L10.13,14.464 L10.154,14.464 C10.1829646,14.4520186 10.2110361,14.4379829 10.238,14.422" id="Path" fill="url(#linearGradient-77)"></path>
                            <path d="M18.714,5.108 C19.04,5.308 19.042,5.604 18.714,5.794 L10.172,10.758 C9.80093777,10.9481313 9.36106223,10.9481313 8.99,10.758 L0.4,5.8 C0.072,5.6 0.07,5.304 0.4,5.114 L8.944,0.15 C9.31506223,-0.040131345 9.75493777,-0.040131345 10.126,0.15 L18.714,5.108 Z" id="Path" fill="url(#linearGradient-78)"></path>
                        </g>
                    </g>
                </g>
            </g>
        </g>
    </g>
</svg>