<?xml version="1.0" encoding="utf-8"?>
<!-- Generator: Adobe Illustrator 22.1.0, SVG Export Plug-In . SVG Version: 6.00 Build 0)  -->
<svg version="1.1" id="图层_2" xmlns="http://www.w3.org/2000/svg" xmlns:xlink="http://www.w3.org/1999/xlink" x="0px" y="0px"
	 viewBox="0 0 64 64" style="enable-background:new 0 0 64 64;" xml:space="preserve">
<style type="text/css">
	.st0{fill:#737987;}
</style>
<g id="kafka">
	<path class="st0" d="M43,34.5c-2.3,0-4.4,1.1-5.8,2.7l-4.1-2.4c0.3-0.9,0.4-1.8,0.4-2.8c0-0.9-0.1-1.8-0.4-2.6l4.2-2.5
		c1.4,1.6,3.4,2.6,5.7,2.6c4.1,0,7.5-3.4,7.5-7.5s-3.4-7.5-7.5-7.5s-7.5,3.4-7.5,7.5c0,0.5,0,0.9,0.1,1.3l-4.3,2.5
		c-1.4-1.8-3.5-3.2-5.9-3.6v-3.5c3.2-0.9,5.5-3.8,5.5-7.2C31,7.4,27.6,4,23.5,4S16,7.4,16,11.5c0,3.4,2.3,6.3,5.5,7.2v3.5
		c-4.6,0.9-8,5-8,9.8s3.4,8.9,8,9.8v3.5c-3.2,0.9-5.5,3.8-5.5,7.2c0,4.1,3.4,7.5,7.5,7.5s7.5-3.4,7.5-7.5c0-3.4-2.3-6.3-5.5-7.2
		v-3.5c2.3-0.5,4.3-1.7,5.8-3.5l4.3,2.6c-0.1,0.4-0.1,0.8-0.1,1.2c0,4.1,3.4,7.5,7.5,7.5s7.5-3.4,7.5-7.5
		C50.5,37.9,47.1,34.5,43,34.5z M43,19.5c1.4,0,2.5,1.1,2.5,2.5s-1.1,2.5-2.5,2.5s-2.5-1.1-2.5-2.5S41.6,19.5,43,19.5z M23.5,9
		c1.4,0,2.5,1.1,2.5,2.5S24.9,14,23.5,14S21,12.9,21,11.5S22.1,9,23.5,9z M23.5,55c-1.4,0-2.5-1.1-2.5-2.5s1.1-2.5,2.5-2.5
		s2.5,1.1,2.5,2.5S24.9,55,23.5,55z M23.5,36.5c-2.5,0-4.5-2-4.5-4.5s2-4.5,4.5-4.5s4.5,2,4.5,4.5S26,36.5,23.5,36.5z M43,44.5
		c-1.4,0-2.5-1.1-2.5-2.5s1.1-2.5,2.5-2.5s2.5,1.1,2.5,2.5S44.4,44.5,43,44.5z"/>
</g>
</svg>
