<?xml version="1.0" encoding="utf-8"?>
<!-- Generator: Adobe Illustrator 22.1.0, SVG Export Plug-In . SVG Version: 6.00 Build 0)  -->
<svg version="1.1" id="图层_2" xmlns="http://www.w3.org/2000/svg" xmlns:xlink="http://www.w3.org/1999/xlink" x="0px" y="0px"
	 viewBox="0 0 64 64" style="enable-background:new 0 0 64 64;" xml:space="preserve">
<style type="text/css">
	.st0{fill:#737987;}
</style>
<g id="linux">
	<path class="st0" d="M28.9,17.5c0-0.2,0.2-0.3,0.4-0.3c0.2-0.1,0.4-0.1,0.6,0l0.1,0.1c0,0.1-0.3,0.1-0.4,0.2s-0.2,0.2-0.3,0.2
		C29.1,17.7,28.9,17.6,28.9,17.5L28.9,17.5z M31.6,17.5c0.1,0.1,0.2,0.2,0.3,0.2c0.1,0,0.3,0,0.3-0.2s-0.2-0.3-0.4-0.3
		c-0.2-0.1-0.4-0.1-0.6,0l-0.1,0.1C31.3,17.4,31.5,17.4,31.6,17.5L31.6,17.5z M55.1,51.4c-0.1,0.9-0.7,1.5-1.5,2
		c-1.6,1-4.1,1.7-5.6,3.5l-0.3-0.2l0.3,0.2c-1.6,1.8-3.5,2.9-5.3,3.1c-1.8,0.1-3.5-0.7-4.4-2.5l0,0c-0.1-0.2-0.2-0.5-0.3-0.7
		c-2.4,0.1-4.4-0.6-6-0.4c-2.4,0.1-3.9,0.7-5.3,0.7c-0.5,1.2-1.6,1.9-2.8,2.2c-1.7,0.4-3.9,0-6.1-1.1l0.2-0.3l-0.2,0.3
		c-2-1.1-4.6-1-6.5-1.4c-1-0.2-1.8-0.5-2.2-1.3S8.8,53.6,9.3,52c0.2-0.6,0-1.4-0.1-2.3c-0.1-0.4-0.1-0.9-0.1-1.3
		c0-0.5,0.1-0.9,0.3-1.4c0.5-0.9,1.3-1.3,2-1.6s1.4-0.4,1.9-0.9c0.6-0.6,1.1-1.6,1.8-2.2c-0.3-1.9,0-3.9,0.7-5.8
		c1.4-4.1,4.3-8.1,6.4-10.6c1.8-2.5,2.3-4.5,2.5-7.1C24.8,15.3,22,4,33.2,4c8.8,0,8.3,9.3,8.3,14.4c0,3.3,1.8,5.5,3.7,7.9
		c1.7,2,3.8,4.8,5.1,8.1c1,2.7,1.4,5.7,0.4,8.7c0.2,0.1,0.3,0.1,0.4,0.2c0.2,0.1,0.3,0.2,0.4,0.3c0.7,0.6,1,1.6,1.1,2.4
		c0.2,0.9,0.4,1.7,0.8,2.2C54.6,49.5,55.2,50.5,55.1,51.4L55.1,51.4z M31.6,15.9c0.4,0.1,1,0.3,1.4,0.5c-0.2-1.3,0.5-2.6,1.3-2.5
		c1,0,1.5,1.7,1,3c-0.1,0.2-0.3,0.4-0.4,0.5c0.7,0.3,1.2,0.4,1.4,0.5c0.9-1,1.2-2.9,0.5-4.4c-1.1-2.3-3.7-2.4-4.8,0
		C31.6,14.3,31.5,15.2,31.6,15.9L31.6,15.9z M26.6,18c0.9-0.6,0.8-0.5,0.6-0.6c-0.9-0.8-0.7-3,0.2-3.1c0.7-0.1,1.2,1.2,1,2.1
		c0.3-0.2,0.7-0.4,1.1-0.5c0.2-2.1-1-3.7-2.1-3.7C25.4,12.3,24.9,16.4,26.6,18L26.6,18z M25.6,20.3c0.2,0.5,0.7,1.1,1.6,1.7
		c0.9,0.5,1.3,1.3,2.2,1.6c0.3,0.1,0.6,0.2,1,0.2c2,0.1,3-1.2,4.2-1.6c1.3-0.4,2.2-1.2,2.5-2c0.3-0.9-0.2-1.6-1.1-2
		c-1.2-0.5-1.8-0.6-2.5-1c-1.1-0.7-2.1-1-2.8-1c-1.6,0-2.5,1.1-3.1,1.6c-0.1,0.1-0.9,0.6-1.5,1.1C25.6,19.3,25.4,19.7,25.6,20.3
		L25.6,20.3z M21.9,47.9L19.8,44c-0.7-1-1.5-1.6-2.4-1.7c-0.8-0.1-1.4,0.2-1.9,0.8s-1,1.3-1.6,2c-0.9,0.7-1,0.7-2.1,1.1
		c-0.7,0.2-1.2,0.5-1.6,1.2c-0.3,0.5-0.2,1.3-0.1,2.2c0.1,0.9,0.3,1.8,0.1,2.6l0,0c-0.5,1.5-0.5,2.4-0.3,2.9
		c0.9,1.7,5.1,0.7,8.4,2.4c3.4,1.8,7.9,1.9,8.2-2C26.6,53.2,22.9,50.1,21.9,47.9L21.9,47.9z M38.7,51.8c0.4-1.2,0.7-2.3,0.7-3.2
		c0.1-1.7,0.2-3.1,0.5-4.4c0.3-1.4,1-2.5,2.3-3c0.3-2.3,2-2.3,4.2-1.4c2.1,0.9,2.8,1.7,2.5,2.9c0.1,0,0.2,0,0.5,0
		c0.6-1.8-1.6-3.1-3.4-3.8c0.3-1.3,0.3-2.6,0-3.9c-0.7-2.8-2.5-5.2-3.8-6.5c-0.3,0-0.2,0.2,0.3,0.7c1.3,1.2,4.1,5.4,2.5,9.3
		c-0.4-0.1-0.8-0.2-1.2-0.2c-0.6-3.2-1.9-5.8-2.6-7.1c-1.2-2.1-3.2-6.9-4-10.2c-0.5,0.7-1.4,1.3-2.4,1.6c-0.5,0.2-1.1,0.6-1.7,1
		c-1.5,0.9-3.3,1-4.6-0.1c-0.5-0.4-0.9-0.8-1.4-1.1c-0.2-0.1-0.6-0.4-0.7-0.4c-0.2,4.1-3,9.3-4.3,12.3c-0.9,2.2-1.4,4.5-1.5,6.7
		c-2.4-3.2-0.6-7.3,0.3-9c1-1.9,1.2-2.5,1-2.3c-0.9,1.5-2.4,4-3,6.5c-0.3,1.3-0.4,2.6,0,3.8s1.2,2.4,2.7,3.3c0,0,2.7,1.6,4.2,3.6
		c0.8,1.1,1.1,2,0.8,2.7c-0.3,0.7-1,1-1.8,1c0.5,0.7,1.1,1.4,1.6,2.1C30.3,55.4,35.2,54.3,38.7,51.8L38.7,51.8z M52.9,48.7
		c-1.1-1.2-0.8-3.6-1.9-4.5c-0.8-0.7-1.5-0.6-2.5-0.6c-0.8,1-2.8,2.1-4.2,1.8c-1.3-0.3-2-1.8-2.1-3.2c0,0-0.1,0-0.1,0.1
		c-0.8,0.4-1.2,1.2-1.5,2.3s-0.4,2.6-0.5,4.2c-0.1,1.3-0.7,2.9-1.1,4.4c-0.4,1.4-0.6,2.8-0.1,4c0.8,1.6,2.1,2.2,3.7,2.1
		c1.6-0.1,3.3-1.1,4.8-2.8c2.4-2.9,6.8-3.2,6.9-5.1C54.4,50.8,54,49.9,52.9,48.7L52.9,48.7z M26.4,20.3c0.2,0.2,0.5,0.5,0.9,0.8
		c0.7,0.6,1.7,1.2,3,1.2s2.5-0.6,3.5-1.2c0.5-0.3,1.2-0.8,1.6-1.1c0.4-0.4,0.6-0.7,0.3-0.7s-0.3,0.3-0.7,0.6
		c-0.5,0.3-1.1,0.8-1.5,1.1c-0.8,0.5-2.1,1.1-3.3,1.1c-1.1,0-2-0.5-2.7-1.1c-0.3-0.3-0.6-0.5-0.8-0.8c-0.2-0.2-0.2-0.5-0.5-0.5
		C26.1,19.5,26.1,20,26.4,20.3L26.4,20.3z"/>
</g>
</svg>
