<?xml version="1.0" encoding="utf-8"?>
<!-- Generator: Adobe Illustrator 22.1.0, SVG Export Plug-In . SVG Version: 6.00 Build 0)  -->
<svg version="1.1" id="图层_2" xmlns="http://www.w3.org/2000/svg" xmlns:xlink="http://www.w3.org/1999/xlink" x="0px" y="0px"
	 viewBox="0 0 64 64" style="enable-background:new 0 0 64 64;" xml:space="preserve">
<style type="text/css">
	.st0{fill:#737987;}
</style>
<g id="Memcached">
	<g>
		<g>
			<path class="st0" d="M23.6,53.5c0-1.6,1.3-2.9,2.9-2.9s2.9,1.3,2.9,2.9c0,1.6-1.3,2.9-2.9,2.9C24.9,56.3,23.6,55.1,23.6,53.5
				L23.6,53.5z M35.5,53.5c0-1.6,1.3-2.9,2.9-2.9c1.6,0,2.9,1.3,2.9,2.9c0,1.6-1.3,2.9-2.9,2.9C36.7,56.3,35.5,55.1,35.5,53.5
				L35.5,53.5z"/>
			<path class="st0" d="M53.1,7.7h-7c-2.6,0-3.5,0.6-4.2,1.3c-3.8,3.2-8,9.3-9.6,11.5c-1.6-2.2-5.8-8.6-9.6-11.5
				c-0.6-0.6-1.6-1.3-4.2-1.3h-7C8.2,7.7,6,10.2,6,17.9v28.2c0,5.1,1.9,9.9,4.2,9.9h9C23,56,16,44.1,16,32v-3.5c0-3.8,1-7.7,2.9-6.1
				c7,5.8,6.7,22.7,10.2,22.7h5.8c3.5,0,3.2-17,10.2-22.7c1.9-1.6,2.9,1.9,2.9,6.1V32c0,12.2-7.4,24-3.2,24h9c2.6,0,4.2-4.8,4.2-9.9
				V17.9C58.5,10.2,56.3,7.7,53.1,7.7L53.1,7.7z"/>
		</g>
	</g>
</g>
</svg>
