<?xml version="1.0" encoding="utf-8"?>
<!-- Generator: Adobe Illustrator 22.1.0, SVG Export Plug-In . SVG Version: 6.00 Build 0)  -->
<svg version="1.1" id="图层_2" xmlns="http://www.w3.org/2000/svg" xmlns:xlink="http://www.w3.org/1999/xlink" x="0px" y="0px"
	 viewBox="0 0 64 64" style="enable-background:new 0 0 64 64;" xml:space="preserve">
<style type="text/css">
	.st0{fill:#737987;}
</style>
<g id="MySQL">
	<path class="st0" d="M57,48.9c0.8,0.8,1.6,1.7,2.1,2.7l0.6,0.8c0.1,0.3,0.2,0.6,0.3,0.8v0.1c-1.5-0.4-3-0.8-4.4-1.4
		c-1.6-0.7-4.7-2.1-4.8-2.2c-8-3.8-7.3-4.1-8.4-4.9c-0.5-0.5-1-1.1-1.5-1.6c-1.1-1-1.9-2.2-2.6-3.5c-0.2-0.7-0.5-1.4-0.7-2.1v-0.1
		c-0.1,0.2-0.2,0.4-0.2,0.7c-0.4,1.2-0.3,2.6-1.4,2.9c-1.2,0.4-1.9-1-2.2-1.7c-1-2.7-0.9-5.6,0.2-8.2c0.2-0.6,0.4-1.2,0.7-1.8
		c-0.1-0.3-0.2-0.6-0.5-0.9c-0.3-0.5-0.5-1-0.7-1.6c-0.3-1.1-0.6-2.2-0.8-3.4c-0.1-0.5-0.1-0.9-0.2-1.3c-0.3-0.7-0.6-1.3-0.9-1.9
		c-0.5-0.9-1.8-2.6-1-4.1c0.3-0.8,1.1-1.2,2-1c1.3,0.3,2.6,1,3.6,1.9c0.3,0.3,0.6,0.7,0.9,0.9c0.6,0.1,1.1,0.2,1.7,0.3
		c1,0.3,1.9,0.7,2.8,1.3c3.5,2.5,6.2,6,7.8,9.9c0.3,0.9,0.6,1.9,0.9,2.9c0.4,1.5,0.9,3,1.4,4.4c0.2,0.7,0.4,1.3,0.7,2
		c0.2,0.2,0.5,0.4,0.8,0.5c0.7,0.5,1.6,0.9,2.2,1.5c1.2,1,2.4,2.2,3.4,3.4c0.4,0.5,0.6,1.1,1,1.6V46c-0.4,0.1-0.8,0.1-1.1,0.2
		c-0.8,0.1-1.5,0-2.3,0.2c-0.5,0.1-1.1,0.2-1.6,0.2c0,0,0,0,0,0.1C54.8,47.4,56.3,48.3,57,48.9L57,48.9z M38.5,20.2
		c-0.2-0.3-0.5-0.5-0.9-0.6c-0.1,0-0.1,0-0.2,0c-0.8-0.2-1.7,0.5-1,1.1c0.5,0.8,0.9,1.7,1.1,2.6c1-0.4,1.5-1.5,1.2-2.6
		C38.7,20.5,38.6,20.3,38.5,20.2L38.5,20.2z M38.7,15.9l-0.4-0.2l-1.8-0.3c-0.1-0.1-0.2-0.2-0.2-0.3c-0.2-0.2-0.3-0.4-0.5-0.6
		c-1.3-1.2-2.8-2-4.5-2.3c-1.4-0.2-2.7,0.5-3.3,1.7c-1,1.9,0.2,3.9,0.9,5c0.1,0.2,0.2,0.3,0.3,0.5l0.3,0.4c0.3,0.5,0.5,1,0.7,1.5
		c0.1,0.2,0.1,0.4,0.1,0.6c0,0.3,0.1,0.5,0.1,0.8l0.2,1c0.2,0.9,0.4,1.9,0.7,2.8c0.2,0.6,0.5,1.3,0.8,1.9c-2.7,0.4-5.5,0.7-8.2,0.7
		c-11,0-19.9-3.3-19.9-7.3V16c0-4,8.9-7.3,19.8-7.3S43.6,12,43.6,16v3c-0.6-0.6-1.3-1.1-2-1.7C40.7,16.7,39.7,16.2,38.7,15.9
		L38.7,15.9z M23.8,33.5c2.4,0,4.8-0.2,7.2-0.5c-0.5,2.4-0.3,5,0.6,7.3c0.2,0.4,0.4,0.9,0.7,1.3c-2.8,0.5-5.7,0.7-8.5,0.7
		C12.9,42.2,4,38.9,4,34.9v-8.7C4,30.2,12.9,33.5,23.8,33.5L23.8,33.5z M23.8,46.5c6.1,0,11.5-1,15.1-2.6c0.2,0.3,0.5,0.5,0.7,0.8
		c0.2,0.2,0.4,0.4,0.5,0.6c0.4,0.5,0.8,0.9,1.2,1.2c0.2,0.1,0.3,0.3,0.5,0.4c0.5,0.5,1.1,1,1.7,1.3c-0.4,3.9-9.1,7-19.8,7
		C12.9,55.3,4,52,4,48v-8.7C4,43.3,12.9,46.5,23.8,46.5z"/>
</g>
</svg>
