<?xml version="1.0" encoding="utf-8"?>
<!-- Generator: Adobe Illustrator 22.1.0, SVG Export Plug-In . SVG Version: 6.00 Build 0)  -->
<svg version="1.1" id="图层_2" xmlns="http://www.w3.org/2000/svg" xmlns:xlink="http://www.w3.org/1999/xlink" x="0px" y="0px"
	 viewBox="0 0 64 64" style="enable-background:new 0 0 64 64;" xml:space="preserve">
<style type="text/css">
	.st0{fill:#737987;}
</style>
<g id="Nginx">
	<path class="st0" d="M53.2,32h-3.5H28.5C26,32,24,34,24,36.5s2,4.5,4.5,4.5h15.9l-3,5.2c-0.4,0.6-1,1-1.7,1H24.4
		c-0.7,0-1.4-0.4-1.7-1L15,33c-0.4-0.6-0.4-1.4,0-2l7.6-13.2c0.4-0.6,1-1,1.7-1h16.5L47,27.5h10.4L46,7.8H19.2c-0.7,0-1.4,0.4-1.7,1
		L4.6,31c-0.4,0.6-0.4,1.4,0,2l12.8,22.2c0.4,0.6,1,1,1.7,1h25.7c0.7,0,1.4-0.4,1.7-1L60,32H53.2z"/>
</g>
</svg>
