<?xml version="1.0" encoding="utf-8"?>
<!-- Generator: Adobe Illustrator 22.1.0, SVG Export Plug-In . SVG Version: 6.00 Build 0)  -->
<svg version="1.1" id="图层_2" xmlns="http://www.w3.org/2000/svg" xmlns:xlink="http://www.w3.org/1999/xlink" x="0px" y="0px"
	 viewBox="0 0 64 64" style="enable-background:new 0 0 64 64;" xml:space="preserve">
<style type="text/css">
	.st0{fill:#737987;}
</style>
<g id="拨测">
	<g>
		<path class="st0" d="M32,60c-3.6,0-7.6-5-9.9-12.8c3.1,0.5,6.4,0.8,9.9,0.8s6.8-0.3,9.9-0.8C39.6,55,35.6,60,32,60z"/>
	</g>
	<g>
		<path class="st0" d="M32,44c-3.9,0-7.6-0.4-11-1c-0.7-3.3-1-7-1-11c0-2.7,0.2-5.3,0.5-7.8c1.8-0.4,3.2-1.9,3.7-3.7
			c2.5-0.3,5.1-0.5,7.8-0.5c3.9,0,7.6,0.4,11,1c0.7,3.3,1,7,1,11s-0.4,7.6-1,11C39.6,43.6,35.9,44,32,44z"/>
	</g>
	<g>
		<path class="st0" d="M15.5,22.5c0.3,0.4,0.7,0.7,1.1,1C16.2,26.2,16,29.1,16,32c0,3.5,0.3,6.8,0.8,9.9C9,39.6,4,35.6,4,32
			C4,28.6,8.4,24.9,15.5,22.5z"/>
	</g>
	<g>
		<path class="st0" d="M32,4c3.6,0,7.6,5,9.9,12.8C38.8,16.3,35.5,16,32,16c-3,0-5.8,0.2-8.5,0.6c-0.3-0.4-0.6-0.7-1-1.1
			C24.9,8.4,28.6,4,32,4z"/>
	</g>
	<g>
		<path class="st0" d="M47.2,22.1C55,24.4,60,28.4,60,32s-5,7.6-12.8,9.9c0.5-3.1,0.8-6.4,0.8-9.9S47.7,25.2,47.2,22.1z"/>
	</g>
	<g>
		<path class="st0" d="M58.5,23c-3.1-2.3-7.3-4.1-12.2-5.4c-1.2-4.9-3.1-9.1-5.4-12.2C49.2,8.3,55.7,14.8,58.5,23z"/>
	</g>
	<g>
		<path class="st0" d="M23,5.5c-1.8,2.4-3.3,5.4-4.4,9c-2.2,0.3-3.9,2-4.2,4.2c-3.5,1.2-6.6,2.7-8.9,4.4C8.3,14.8,14.8,8.3,23,5.5z"
			/>
	</g>
	<g>
		<path class="st0" d="M5.5,41c3.1,2.3,7.3,4.1,12.2,5.4c1.2,4.9,3.1,9.1,5.4,12.2C14.8,55.7,8.3,49.2,5.5,41z"/>
	</g>
	<g>
		<path class="st0" d="M41,58.5c2.3-3.1,4.1-7.3,5.4-12.2c4.9-1.2,9.1-3.1,12.2-5.4C55.7,49.2,49.2,55.7,41,58.5z"/>
	</g>
</g>
</svg>
