<?xml version="1.0" encoding="utf-8"?>
<!-- Generator: Adobe Illustrator 22.1.0, SVG Export Plug-In . SVG Version: 6.00 Build 0)  -->
<svg version="1.1" id="图层_2" xmlns="http://www.w3.org/2000/svg" xmlns:xlink="http://www.w3.org/1999/xlink" x="0px" y="0px"
	 viewBox="0 0 64 64" style="enable-background:new 0 0 64 64;" xml:space="preserve">
<style type="text/css">
	.st0{fill:#737987;}
</style>
<g id="Redis">
	<g>
		<path class="st0" d="M58,38.1c0,0.5-0.7,1.1-2,1.8c-2.8,1.4-17.2,7.4-20.2,9s-4.8,1.6-7.2,0.4S10.9,42,8.1,40.6
			C6.7,39.9,6,39.3,6,38.8v7.3c0,0.5,0.7,1.1,2.1,1.7c2.8,1.3,18.1,7.5,20.5,8.7s4.1,1.2,7.2-0.4c3.1-1.6,17.4-7.5,20.2-9
			c1.4-0.7,2-1.3,2-1.8V38.1L58,38.1z"/>
		<path class="st0" d="M58,27.5c0,0.5-0.7,1-2,1.8c-2.8,1.4-17.1,7.4-20.2,9s-4.8,1.6-7.2,0.4S10.9,31.3,8.1,30
			C6.7,29.3,6,28.8,6,28.2v7.3c0,0.5,0.7,1.1,2.1,1.7c2.8,1.3,18.1,7.5,20.5,8.7s4.1,1.2,7.2-0.4c3.1-1.6,17.4-7.5,20.2-9
			c1.4-0.7,2-1.3,2-1.8V27.5L58,27.5z"/>
		<path class="st0" d="M58,16.6c0-0.5-0.7-1-2.1-1.5c-2.7-1-17-6.7-19.7-7.7s-3.9-1-7.1,0.2S10.7,14.7,8,15.8c-1.4,0.5-2,1-2,1.6
			v7.3c0,0.5,0.7,1.1,2.1,1.7c2.8,1.3,18.1,7.5,20.5,8.7s4.1,1.2,7.2-0.4c3.1-1.6,17.4-7.5,20.2-9c1.4-0.7,2-1.3,2-1.8V16.6L58,16.6
			L58,16.6z M24.6,21.6l12-1.8L33,25.1L24.6,21.6L24.6,21.6z M51.3,16.8l-7.1,2.8l-0.8,0.3l-7.1-2.8l7.9-3.1L51.3,16.8L51.3,16.8z
			 M30.3,11.6l-1.2-2.1l3.6,1.4l3.4-1.1L35.3,12l3.5,1.3l-4.5,0.5l-1,2.4l-1.6-2.7L26.5,13L30.3,11.6z M21.4,14.7
			c3.6,0,6.4,1.1,6.4,2.5s-2.9,2.5-6.4,2.5S15,18.6,15,17.2C14.9,15.8,17.8,14.7,21.4,14.7L21.4,14.7z"/>
	</g>
</g>
</svg>
