<?xml version="1.0" encoding="utf-8"?>
<!-- Generator: Adobe Illustrator 22.1.0, SVG Export Plug-In . SVG Version: 6.00 Build 0)  -->
<svg version="1.1" id="图层_2" xmlns="http://www.w3.org/2000/svg" xmlns:xlink="http://www.w3.org/1999/xlink" x="0px" y="0px"
	 viewBox="0 0 64 64" style="enable-background:new 0 0 64 64;" xml:space="preserve">
<style type="text/css">
	.st0{fill:#737987;}
</style>
<g id="提醒_1_">
	<path class="st0" d="M32,16c-1.7,0-3,1.3-3,3c0,0.1,0,0.2,0,0.3L30,38c0,1.1,0.9,2,2,2c1.1,0,2-0.9,2-2l1-18.7c0-0.1,0-0.2,0-0.3
		C35,17.3,33.7,16,32,16z"/>
	<circle class="st0" cx="32" cy="45" r="3"/>
	<path class="st0" d="M32,4C16.5,4,4,16.5,4,32s12.5,28,28,28s28-12.5,28-28S47.5,4,32,4z M32,56C18.8,56,8,45.2,8,32S18.8,8,32,8
		s24,10.8,24,24S45.2,56,32,56z"/>
</g>
</svg>
