<?xml version="1.0" encoding="utf-8"?>
<!-- Generator: Adobe Illustrator 22.1.0, SVG Export Plug-In . SVG Version: 6.00 Build 0)  -->
<svg version="1.1" xmlns="http://www.w3.org/2000/svg" xmlns:xlink="http://www.w3.org/1999/xlink" x="0px" y="0px"
	 viewBox="0 0 64 64" style="enable-background:new 0 0 64 64;" xml:space="preserve">
<style type="text/css">
	.st0{fill:#FFFFFF;}
	.st1{display:none;}
	.st2{fill:#737987;}
	.st3{display:none;fill:#737987;}
	.st4{display:inline;fill:#737987;}
	.st5{fill:none;stroke:#737987;stroke-width:4;stroke-miterlimit:10;}
</style>
	<g id="设置">
		<path class="st2" d="M33.7,8c0.1,0,0.2,0,0.3,0c0.4,0,0.8,0.4,0.9,0.8l0.7,3.2l0.3,1.7c0.1,0.3,0.3,0.6,0.6,0.7l1.6,0.6
			c2,0.7,3.9,1.8,5.5,3.2l1.3,1.1c0.3,0.2,0.6,0.3,1,0.2l1.6-0.5l3.1-1.1c0.4-0.1,0.9,0,1.1,0.4c0.2,0.2,0.3,0.5,0.5,0.8l1.1,1.9
			c0.2,0.3,0.3,0.6,0.4,0.9c0.2,0.4,0.1,0.9-0.2,1.2L51,25.1l-1.3,1.1c-0.3,0.2-0.4,0.6-0.3,0.9l0.3,1.7c0.2,1,0.3,2.1,0.3,3.1
			c0,1.1-0.1,2.1-0.3,3.2l-0.3,1.7c-0.1,0.3,0.1,0.7,0.3,0.9l1.3,1.1l2.5,2.2c0.3,0.3,0.4,0.8,0.2,1.2c-0.3,0.6-0.6,1.2-1,1.8
			c-0.3,0.6-0.7,1.1-1.1,1.7c-0.2,0.4-0.7,0.5-1.1,0.4L47.5,45l-1.6-0.5c-0.3-0.1-0.7,0-1,0.2l-1.3,1.1c-1.6,1.4-3.5,2.4-5.5,3.2
			l-1.6,0.6c-0.3,0.1-0.6,0.4-0.6,0.7l-0.3,1.7l-0.7,3.2c-0.1,0.4-0.5,0.8-0.9,0.8C33.4,56,32.7,56,32,56c-0.7,0-1.3,0-2-0.1
			c-0.4,0-0.8-0.4-0.9-0.8l-0.6-3.2l-0.3-1.7c-0.1-0.3-0.3-0.6-0.6-0.7l-1.6-0.6c-2-0.7-3.9-1.8-5.5-3.2l-1.3-1.1
			c-0.3-0.2-0.6-0.3-1-0.2L16.6,45l-3.2,1.1c-0.4,0.1-0.9,0-1.1-0.4c-0.1-0.1-0.2-0.3-0.3-0.4c0,0,0,0,0-0.1l-1.5-2.5c0,0,0,0,0-0.1
			c-0.1-0.1-0.1-0.2-0.2-0.4c-0.2-0.4-0.1-0.9,0.2-1.2l2.5-2.2l1.3-1.1c0.3-0.2,0.4-0.6,0.3-0.9l-0.3-1.7C14.1,34.1,14,33.1,14,32
			c0-1.1,0.1-2.1,0.3-3.2l0.3-1.7c0.1-0.3-0.1-0.7-0.3-0.9L13,25.1l-2.5-2.2c-0.3-0.3-0.4-0.8-0.2-1.2l0,0c0,0,0,0,0-0.1l1.9-3.3
			c0,0,0,0,0-0.1c0,0,0,0,0,0c0.2-0.4,0.7-0.5,1.1-0.4l3.1,1.1l1.6,0.5c0.3,0.1,0.7,0,1-0.2l1.3-1.1c1.7-1.4,3.5-2.5,5.6-3.2
			l1.6-0.6c0.3-0.1,0.6-0.4,0.6-0.7l0.3-1.7l0.6-3.2C29.2,8.4,29.6,8,30,8c0.1,0,0.1,0,0.2,0c0,0,0,0,0.1,0L33.7,8 M27.5,4.4
			c-0.9,0.2-1.7,0.8-1.9,1.7L24.8,10c-0.1,0.7-0.6,1.3-1.3,1.6c-1.7,0.7-3.3,1.6-4.8,2.8c-0.6,0.5-1.4,0.6-2.1,0.3l-3.8-1.3
			c-0.9-0.3-1.9,0-2.5,0.7c-0.5,0.6-1,1.3-1.5,1.9c0,0-0.1,0.1-0.1,0.2l-2,3.5c0,0.1-0.1,0.1-0.1,0.2c-0.3,0.7-0.6,1.4-0.9,2.2
			C5.4,23,5.7,24,6.4,24.6l3,2.7c0.6,0.5,0.8,1.2,0.8,2C10,30.1,10,31,10,32c0,0.9,0.1,1.9,0.2,2.8c0.1,0.7-0.2,1.5-0.8,2l-3,2.7
			c-0.7,0.6-1,1.6-0.6,2.5c0.3,0.9,0.7,1.8,1.1,2.6c0,0,0,0.1,0.1,0.1l1.5,2.7c0,0,0.1,0.1,0.1,0.1c0.6,0.8,1.1,1.6,1.8,2.4
			c0.6,0.7,1.6,1,2.5,0.7l3.8-1.3c0.7-0.2,1.5-0.1,2.1,0.3c1.4,1.1,3,2,4.7,2.7c0.7,0.3,1.2,0.9,1.3,1.6l0.8,4
			c0.2,0.9,0.9,1.6,1.8,1.8c1.5,0.2,3,0.4,4.6,0.4c1.6,0,3.1-0.1,4.6-0.4c0.9-0.2,1.7-0.9,1.8-1.8l0.8-4c0.1-0.7,0.6-1.3,1.3-1.6
			c1.7-0.7,3.2-1.6,4.7-2.7c0.6-0.5,1.4-0.6,2.1-0.3l3.8,1.3c0.9,0.3,1.9,0,2.5-0.7c1.9-2.4,3.5-5,4.6-8c0.3-0.9,0.1-1.9-0.6-2.5
			l-3-2.7c-0.6-0.5-0.8-1.2-0.8-2c0.1-0.9,0.2-1.8,0.2-2.7c0-0.9-0.1-1.8-0.2-2.7c-0.1-0.7,0.2-1.5,0.8-2l3-2.7
			c0.7-0.6,1-1.6,0.6-2.5c-0.4-1.1-0.9-2.1-1.4-3.2l-1.2-2c-0.6-1-1.3-1.9-2-2.8c-0.6-0.7-1.6-1-2.5-0.7l-3.8,1.3
			c-0.7,0.2-1.5,0.1-2.1-0.3c-1.5-1.1-3-2-4.8-2.8c-0.7-0.3-1.2-0.9-1.3-1.6l-0.8-4c-0.2-0.9-0.9-1.6-1.9-1.7
			C33.2,3.9,30.7,3.9,27.5,4.4z"/>
		<path class="st2" d="M32,26c3.3,0,6,2.7,6,6c0,3.3-2.7,6-6,6s-6-2.7-6-6S28.7,26,32,26 M32,22c-5.5,0-10,4.5-10,10s4.5,10,10,10
			s10-4.5,10-10S37.5,22,32,22L32,22z"/>
	</g>
</svg>
