<?xml version="1.0" encoding="utf-8"?>
<!-- Generator: Adobe Illustrator 22.1.0, SVG Export Plug-In . SVG Version: 6.00 Build 0)  -->
<svg version="1.1" id="图层_2" xmlns="http://www.w3.org/2000/svg" xmlns:xlink="http://www.w3.org/1999/xlink" x="0px" y="0px"
	 viewBox="0 0 64 64" style="enable-background:new 0 0 64 64;" xml:space="preserve">
<style type="text/css">
	.st0{fill:#737987;}
</style>
<g id="Tomcat">
	<path class="st0" d="M32.4,19.5c0.1,2.1,0.4,4.1,0.9,6.1c0,0,4.4,10.6,12.9,13.3c2.5-1.8,4.6-4,6.2-6.6l0.4-0.7
		c0.2-0.3,0.4-0.6,0.5-1l0.3-0.7c1.5-3.2,2.3-6.8,2.2-10.8l0,0c0-1.1-0.3-5.7-1-7c-1.7,0.6-4.8,2.7-5.5,4.9
		c-3.3-0.5-7.1-0.4-10.4,0.1c-0.6-2.3-3.3-4.1-5.4-5C32.7,13.7,32.3,17.1,32.4,19.5L32.4,19.5L32.4,19.5z"/>
	<path class="st0" d="M59.2,49.5c-1.1-1.2-3.1-1.7-4.9-1.7c-0.8-0.9-4.5-4.9-6.7-7.2l-1.1,0.8l-1-0.3c-9.3-3-14-14.1-14.2-14.5
		l-0.1-0.1v-0.1c-6.6,2.1-13.5,6.4-17.5,10.5L13,37.6c-0.3,0.3-0.6,0.7-0.9,1C7.4,43.7,4,49.4,4,50.3v0.5h6.2l-0.1-0.6
		c-0.3-1.9,0.3-4.2,1.8-5.9c0.9-1.1,2.4-2.3,4.7-2.9c1.9-0.7,7-0.1,7-0.1c10,0.9,19.6,4.9,30.4,10.6h5.9l0.1-0.4
		C60.1,50.9,59.8,50.1,59.2,49.5L59.2,49.5z"/>
	<path class="st0" d="M28.1,45.8c-0.7-0.5-1.9-0.5-2.9-0.2c-0.6-0.7-1.1-1.6-1.4-2.6c-0.1,0-0.2,0-0.3,0c0,0-3.1-0.3-5.4-0.2
		c1.9,1.7,4,3.3,6.1,4.8h4.6v-0.5C28.9,46.6,28.6,46.2,28.1,45.8z"/>
	<path class="st0" d="M11.9,35.8l0.4-0.5c0.1-0.1,0.2-0.2,0.3-0.3c-1.3-2-1.8-3.8-2-5.1c-0.3-2.2,0.2-4.2,1.5-5.8
		c2-2.5,4.9-2.7,7.8-2.2c-0.1,0.5,0,0.9,0.2,1.2c0.8,1.2,5,1.6,7.5,0.4c-1.9-2.6-5.6-3.9-6.6-3.3c-0.3,0.2-0.6,0.5-0.8,0.8
		c-1-0.2-2-0.3-2.8-0.3c-2.6,0-4.6,0.9-6.1,2.8c-1.5,1.8-2.1,4.1-1.7,6.5C9.9,31.9,10.7,33.8,11.9,35.8z"/>
</g>
</svg>
