<?xml version="1.0" encoding="utf-8"?>
<!-- Generator: Adobe Illustrator 24.1.2, SVG Export Plug-In . SVG Version: 6.00 Build 0)  -->
<svg version="1.1" id="图层_1" xmlns="http://www.w3.org/2000/svg" xmlns:xlink="http://www.w3.org/1999/xlink" x="0px" y="0px"
	 viewBox="0 0 28 16" style="enable-background:new 0 0 28 16;" xml:space="preserve">
<style type="text/css">
	.st0{fill:#C4C6CC;}
</style>
<g>
	<path class="st0" d="M13.7,5.7c-0.5,0-1,0.2-1.3,0.6C12,6.8,11.8,7.4,11.9,8c0,0.6,0.1,1.1,0.5,1.6c0.3,0.4,0.8,0.7,1.3,0.6
		c0.5,0,1-0.2,1.3-0.6c0.3-0.5,0.5-1.1,0.5-1.7c0-0.6-0.1-1.2-0.5-1.7C14.7,5.9,14.2,5.7,13.7,5.7z"/>
	<path class="st0" d="M20.2,5.7h-0.6v2.2h0.6c0.9,0,1.3-0.4,1.3-1.1C21.5,6,21.1,5.7,20.2,5.7z"/>
	<path class="st0" d="M26,0H2C0.9,0,0,0.9,0,2v12c0,1.1,0.9,2,2,2h24c1.1,0,2-0.9,2-2V2C28,0.9,27.1,0,26,0z M10.2,5.8H8.3v5.6H6.8
		V5.8H4.9V4.6h5.3V5.8z M16.1,10.5c-0.6,0.7-1.5,1-2.4,1c-0.9,0-1.8-0.3-2.4-1c-0.6-0.7-0.9-1.5-0.9-2.4c0-1,0.3-1.9,0.9-2.6
		c0.6-0.7,1.5-1,2.5-1c0.9,0,1.7,0.3,2.3,1C16.7,6.2,17,7,17,7.9C17,8.9,16.7,9.8,16.1,10.5z M22.3,8.4C21.7,8.9,21,9.1,20.3,9
		l-0.8,0v2.4h-1.5V4.6h2.3c1.7,0,2.5,0.7,2.5,2.1C23.1,7.4,22.8,8,22.3,8.4z"/>
</g>
</svg>
