<?xml version="1.0" encoding="utf-8"?>
<!-- Generator: Adobe Illustrator 22.1.0, SVG Export Plug-In . SVG Version: 6.00 Build 0)  -->
<svg version="1.1" id="图层_2" xmlns="http://www.w3.org/2000/svg" xmlns:xlink="http://www.w3.org/1999/xlink" x="0px" y="0px"
	 viewBox="0 0 64 64" style="enable-background:new 0 0 64 64;" xml:space="preserve">
<style type="text/css">
	.st0{fill:#737987;}
</style>
<g id="TSDB">
	<path class="st0" d="M32,4L7.8,18v28L32,60l24.2-14V18L32,4z M32.2,56l-21-12V21.7l12.1,7.1v13.5c0,1.6-1.2,2.9-2.9,2.9
		c-1.6,0-2.9-1.2-2.9-2.9v-7.1c1.4-0.4,2.3-1.6,2.3-3c0-1.8-1.5-3.3-3.3-3.3s-3,1.5-3,3.3c0,1.5,1,2.6,2.3,3v7.1
		c0,2.6,2.2,4.8,4.8,4.8s4.8-2.2,4.8-4.8V21.9c0-1.6,1.2-2.9,2.9-2.9c1.6,0,2.9,1.2,2.9,2.9v20.4c0,2.6,2.2,4.8,4.8,4.8
		s4.8-2.2,4.8-4.8v-3.7l10.7,6.3L32.2,56z M16.8,33.3c-0.7,0-1.2-0.5-1.2-1.2s0.5-1.2,1.2-1.2s1.2,0.5,1.2,1.2
		C18.1,32.7,17.6,33.3,16.8,33.3z M52.8,42.3l-12.1-7.1V21.7c0-1.6,1.2-2.9,2.9-2.9c1.6,0,2.9,1.2,2.9,2.9v7.1
		c-1.4,0.4-2.3,1.6-2.3,3c0,1.8,1.5,3.3,3.3,3.3s3.3-1.5,3.3-3.3c0-1.5-1-2.6-2.3-3v-7.1c0-2.6-2.2-4.8-4.8-4.8s-4.8,2.2-4.8,4.8
		v20.4c0,1.6-1.2,2.9-2.9,2.9c-1.6,0-2.9-1.2-2.9-2.9V21.7c0-2.6-2.2-4.8-4.8-4.8s-4.8,2.2-4.8,4.8v3.7l-10.9-6.3L31.9,8l20.8,12
		v22.3H52.8z M47,30.8c0.7,0,1.2,0.5,1.2,1.2s-0.5,1.2-1.2,1.2s-1.2-0.5-1.2-1.2C45.8,31.4,46.4,30.8,47,30.8z"/>
</g>
</svg>
