<?xml version="1.0" encoding="utf-8"?>
<!-- Generator: Adobe Illustrator 22.1.0, SVG Export Plug-In . SVG Version: 6.00 Build 0)  -->
<svg version="1.1" id="图层_2" xmlns="http://www.w3.org/2000/svg" xmlns:xlink="http://www.w3.org/1999/xlink" x="0px" y="0px"
	 viewBox="0 0 64 64" style="enable-background:new 0 0 64 64;" xml:space="preserve">
<style type="text/css">
	.st0{fill:#737987;}
</style>
<g id="高危">
	<g>
		<path class="st0" d="M32,13.1L54.6,53H9.4L32,13.1 M32,7c-0.7,0-1.3,0.3-1.7,1l-26,45.9C3.5,55.3,4.5,57,6,57h52
			c1.5,0,2.5-1.7,1.7-3.1L33.7,8C33.3,7.3,32.7,7,32,7L32,7z"/>
	</g>
	<g>
		<path class="st0" d="M30.5,41.8c0,0.8,0.7,1.5,1.5,1.5s1.5-0.7,1.5-1.5l0.7-14c0-0.1,0-0.2,0-0.2c0-1.2-1-2.3-2.3-2.3
			s-2.3,1-2.3,2.3c0,0.1,0,0.2,0,0.2L30.5,41.8z"/>
		<circle class="st0" cx="32" cy="47.1" r="2.3"/>
	</g>
</g>
</svg>
