<?xml version="1.0" encoding="UTF-8"?>
<svg width="16px" height="16px" viewBox="0 0 16 16" version="1.1" xmlns="http://www.w3.org/2000/svg" xmlns:xlink="http://www.w3.org/1999/xlink">
    <title>无穷大</title>
    <g id="仪表盘" stroke="none" stroke-width="1" fill="none" fill-rule="evenodd">
        <g id="无穷大" fill="#63656e" fill-rule="nonzero">
            <rect id="矩形" opacity="0" x="0" y="0" width="16" height="16"></rect>
            <path d="M10.9734375,5.6875 C10.3296875,5.6875 9.7328125,5.98125 9.20625,6.3421875 C8.7953125,6.625 8.3890625,6.9765625 8,7.328125 C7.6109375,6.975 7.2046875,6.6234375 6.79375,6.3421875 C6.2671875,5.9796875 5.6703125,5.6875 5.0265625,5.6875 C3.7609375,5.6875 2.7140625,6.7359375 2.7140625,8 C2.7140625,9.2640625 3.7625,10.3125 5.0265625,10.3125 C5.6703125,10.3125 6.2671875,10.01875 6.79375,9.6578125 C7.2046875,9.375 7.6109375,9.0234375 8,8.671875 C8.3890625,9.025 8.7953125,9.3765625 9.20625,9.6578125 C9.7328125,10.0203125 10.3296875,10.3125 10.9734375,10.3125 C12.2390625,10.3125 13.2859375,9.2640625 13.2859375,8 C13.2859375,6.7359375 12.2390625,5.6875 10.9734375,5.6875 Z M6.2328125,8.840625 C5.76875,9.159375 5.3734375,9.321875 5.0265625,9.321875 C4.309375,9.321875 3.7046875,8.7171875 3.7046875,8 C3.7046875,7.2828125 4.309375,6.678125 5.0265625,6.678125 C5.3734375,6.678125 5.7671875,6.8390625 6.2328125,7.159375 C6.56875,7.390625 6.909375,7.68125 7.2640625,8 C6.909375,8.31875 6.56875,8.609375 6.2328125,8.840625 L6.2328125,8.840625 Z M10.9734375,9.321875 C10.6265625,9.321875 10.2328125,9.1609375 9.7671875,8.840625 C9.43125,8.609375 9.090625,8.31875 8.7359375,8 C9.090625,7.68125 9.43125,7.390625 9.7671875,7.159375 C10.23125,6.840625 10.6265625,6.678125 10.9734375,6.678125 C11.690625,6.678125 12.2953125,7.2828125 12.2953125,8 C12.2953125,8.7171875 11.690625,9.321875 10.9734375,9.321875 Z" id="形状"></path>
        </g>
    </g>
</svg>