<?xml version="1.0" encoding="utf-8"?>
<!-- Generator: Adobe Illustrator 22.1.0, SVG Export Plug-In . SVG Version: 6.00 Build 0)  -->
<svg version="1.1" id="图层_2" xmlns="http://www.w3.org/2000/svg" xmlns:xlink="http://www.w3.org/1999/xlink" x="0px" y="0px"
	 viewBox="0 0 64 64" style="enable-background:new 0 0 64 64;" xml:space="preserve">
<style type="text/css">
	.st0{fill:#737987;}
	.st1{fill:#FFFFFF;}
</style>
<g id="Zookeeper">
	<circle class="st0" cx="32" cy="32" r="28"/>
	<g>
		<path class="st1" d="M19.3,36.7c0,0,15.2,1.7,21.2,4.9s11.3,3.6,5.8-0.6S28.1,32.2,19.3,36.7L19.3,36.7z"/>
		<path class="st1" d="M42.8,22.1C35.7,19.2,27.1,19.9,23,21s-12.6,4.5-13,9c-0.2,2.5,1.3,4.3,3.5,5.5c0-0.1-0.1-0.3-0.1-0.4
			l-0.3-0.8l0.7-0.5c1.3-0.9,3.5-2.1,6.5-3s6.1-1.4,9.2-1.4c0.1,0,0.1,0,0.2,0l0.7-0.6L27,28.4l0.2-1l6,0.7l-1.4,1.2
			c0.8,0,1.5,0.1,2.3,0.2c0.3-0.3,0.8-0.6,1.5-0.8c1.3-0.5,3.2,0.2,4,1.7c0.1,0.1,0.1,0.3,0.2,0.4c0.5,0.2,1,0.4,1.5,0.6
			c0.3-0.3,0.9-0.7,1.6-0.7c0.8,0,1.7,0.6,2.1,1c0.4,0.4,1,1.4,1.1,2.5c0.1,0.1,0.3,0.2,0.4,0.3c2.2,1.8,3.3,3.3,3.3,3.4l0.3,0.4
			L50,38.8c0,0.1-0.1,0.2-0.2,0.4c1.6-0.9,3.6-2.5,4.2-4.8C54.9,30.3,49.9,25,42.8,22.1L42.8,22.1L42.8,22.1z"/>
		<path class="st1" d="M45.9,35.6c-0.3,0.7-0.8,1.3-1.8,1.3c-1.4,0-2.6-1.3-3.1-2.3c-0.3-0.7-0.4-1.4-0.2-2
			c-0.3-0.1-0.5-0.2-0.8-0.3c0,1-0.6,2-1.7,2.3c-1.7,0.5-3.5-0.3-4.4-1.4c-0.4-0.5-0.8-1.5-0.5-2.4c-1-0.1-1.9-0.2-2.8-0.2l-2.2,1.8
			l3.9,0.4l-0.2,1L25.5,33l3-2.6c-6.2,0.2-11.1,2.3-14.1,4.2c0,0,1,3.1,0.9,3.7c0,0,0.3-0.2,1.7-0.7l-0.3-1.1l2-1
			c2.5-1.3,5.5-2,8.9-2c7.5,0,15.3,3.3,19.3,6.3c0.2,0.1,0.3,0.2,0.4,0.3c0.6-0.6,1.2-1.3,1.3-1.8C48.8,38.6,47.9,37.3,45.9,35.6
			L45.9,35.6L45.9,35.6z"/>
		<path class="st1" d="M38.5,32.6c-0.3,0.8-1.3,1.3-2.5,0.8s-1.4-1.8-1.2-2.4s0.7-1,1.2-1.1c0.5-0.2,1.5-0.1,2.1,0.5
			C38.6,31,38.9,31.8,38.5,32.6L38.5,32.6L38.5,32.6z"/>
		<path class="st1" d="M44.5,35.5c-0.7,0.6-1.8,0.1-2.3-0.7c-0.5-0.7-0.4-1.6-0.2-2.1c0,0,0.5-1,1.4-0.8s1.4,1.1,1.5,1.6
			C45.1,34.1,45.2,34.9,44.5,35.5L44.5,35.5L44.5,35.5z"/>
	</g>
</g>
</svg>
