<svg xmlns="http://www.w3.org/2000/svg" width="32" height="32" viewBox="0 0 32 32" fill="none">
<g clip-path="url(#clip0_2614_110397)">
<rect width="32" height="32" rx="6.4" fill="#FFC802"/>
<path d="M26.704 0.1152L14.128 22.1664C13.3792 23.4784 11.712 23.9424 10.3968 23.2032L5.328 20.3648V20.3616L0 17.3792V6.5312C0 2.9248 2.9248 0 6.5312 0H25.4688C25.8912 0 26.304 0.0416 26.704 0.1152Z" fill="#FA4E26"/>
<path d="M13.3676 22.3999H32.0009V31.9999H10.332L13.3676 22.3999Z" fill="#33A853"/>
<path d="M32.0008 6.5312V32H20.9605L6.17676 26.1632C4.83276 25.632 4.12876 24.1536 4.56396 22.7776L5.32876 20.3648V20.3616L11.7672 0H25.4696C25.892 0 26.3048 0.0416 26.7048 0.1152C29.7224 0.6944 32.0008 3.3472 32.0008 6.5312Z" fill="#0D68FF"/>
<path d="M16.0795 27.8375L12.141 12.4762L5.30003 14.2305L3.82227 8.4676L24.0056 3.29224L25.4834 9.0548L18.6424 10.809L22.5813 26.1703L16.0795 27.8375Z" fill="white"/>
</g>
<defs>
<clipPath id="clip0_2614_110397">
<rect width="32" height="32" rx="6.4" fill="white"/>
</clipPath>
</defs>
<script xmlns=""/></svg>