<?xml version="1.0" encoding="UTF-8"?>
<svg width="18px" height="18px" viewBox="0 0 18 18" version="1.1" xmlns="http://www.w3.org/2000/svg" xmlns:xlink="http://www.w3.org/1999/xlink">
    <title>icon/业务数</title>
    <g id="首页" stroke="none" stroke-width="1" fill="none" fill-rule="evenodd">
        <g transform="translate(-168.000000, -191.000000)" id="编组-4">
            <g transform="translate(117.000000, 122.000000)">
                <g id="icon/空间数" transform="translate(51.000000, 69.000000)">
                    <polygon id="路径" points="0 0 18 0 18 18 0 18"></polygon>
                    <path d="M5.648,4.984 L5.648,2.992 C5.648,2.62528293 5.94528293,2.328 6.312,2.328 L14.28,2.328 C14.6467171,2.328 14.944,2.62528293 14.944,2.992 L14.944,12.288 C14.944,12.6547171 14.6467171,12.952 14.28,12.952 L12.288,12.952 L12.288,14.944 C12.288,15.310528 11.9892,15.608012 11.619352,15.608012 L3.660648,15.608012 C3.4837939,15.6090602 3.31380972,15.5395928 3.18831733,15.4149727 C3.06282494,15.2903527 2.9921735,15.1208572 2.992,14.944 L2.993992,5.648 C2.993992,5.281472 3.292792,4.984 3.661976,4.984 L5.648,4.984 Z M4.321328,6.312 L4.32,14.28 L10.96,14.28 L10.96,6.312 L4.321328,6.312 Z M6.976,4.984 L12.288,4.984 L12.288,11.624 L13.616,11.624 L13.616,3.656 L6.976,3.656 L6.976,4.984 Z M5.648,8.304 L9.632,8.304 L9.632,9.632 L5.648,9.632 L5.648,8.304 Z M5.648,10.96 L9.632,10.96 L9.632,12.288 L5.648,12.288 L5.648,10.96 Z" id="形状" fill="#3A84FF" fill-rule="nonzero"></path>
                </g>
            </g>
        </g>
    </g>
</svg>