<?xml version="1.0" encoding="UTF-8"?>
<svg width="18px" height="18px" viewBox="0 0 18 18" version="1.1" xmlns="http://www.w3.org/2000/svg" xmlns:xlink="http://www.w3.org/1999/xlink">
    <title>icon/总事件数</title>
    <g id="首页" stroke="none" stroke-width="1" fill="none" fill-rule="evenodd">
        <g transform="translate(-330.000000, -191.000000)" id="编组-4">
            <g transform="translate(117.000000, 122.000000)">
                <g id="编组-12备份" transform="translate(51.000000, 69.000000)">
                    <g id="icon/总事件数" transform="translate(162.000000, 0.000000)">
                        <polygon id="路径" points="0 0 18 0 18 18 0 18"></polygon>
                        <path d="M12.288,3.992 L14.944,3.992 C15.3107171,3.992 15.608,4.28928293 15.608,4.656 L15.608,15.28 C15.608,15.6467171 15.3107171,15.944 14.944,15.944 L2.992,15.944 C2.62528293,15.944 2.328,15.6467171 2.328,15.28 L2.328,4.656 C2.328,4.28928293 2.62528293,3.992 2.992,3.992 L5.648,3.992 L5.648,2.664 L6.976,2.664 L6.976,3.992 L10.96,3.992 L10.96,2.664 L12.288,2.664 L12.288,3.992 Z M14.28,7.976 L14.28,5.32 L12.288,5.32 L12.288,6.648 L10.96,6.648 L10.96,5.32 L6.976,5.32 L6.976,6.648 L5.648,6.648 L5.648,5.32 L3.656,5.32 L3.656,7.976 L14.28,7.976 Z M14.28,9.304 L3.656,9.304 L3.656,14.616 L14.28,14.616 L14.28,9.304 Z M4.984,11.296 L8.304,11.296 L8.304,12.624 L4.984,12.624 L4.984,11.296 Z" id="形状" fill="#3A84FF" fill-rule="nonzero"></path>
                    </g>
                </g>
            </g>
        </g>
    </g>
</svg>