<?xml version="1.0" encoding="UTF-8"?>
<svg width="18px" height="18px" viewBox="0 0 18 18" version="1.1" xmlns="http://www.w3.org/2000/svg" xmlns:xlink="http://www.w3.org/1999/xlink">
    <title>icon/MTTR</title>
    <g id="首页" stroke="none" stroke-width="1" fill="none" fill-rule="evenodd">
        <g transform="translate(-1359.000000, -191.000000)" id="编组-4">
            <g transform="translate(117.000000, 122.000000)">
                <g id="编组-12备份" transform="translate(51.000000, 69.000000)">
                    <g id="icon/MTTR" transform="translate(1191.000000, 0.000000)">
                        <polygon id="路径" points="0 0 18 0 18 18 0 18"></polygon>
                        <path d="M12.2960032,2.55358574 C14.8473145,4.02658599 16.0512747,6.93685158 15.4756034,9.6710711 C15.9793708,10.2964523 16.28,11.0911069 16.28,11.956 C16.28,13.9729996 14.6449996,15.608 12.628,15.608 C11.7612479,15.608 10.9650366,15.3060771 10.3387965,14.8016616 C8.79524722,15.12718 7.13028565,14.9055879 5.656,14.0544087 C2.48004929,12.2207727 1.39195532,8.15995071 3.22559132,4.984 C3.93474332,3.75571271 4.9773807,2.83957179 6.17209529,2.28418542 L6.10079566,6.644 L4.37567306,5.648 C3.113867,7.83392675 3.56445379,10.6059213 5.45364625,12.2796543 C6.55819744,13.2582332 7.97617905,13.7033861 9.3668178,13.6013582 C9.11648546,13.1056538 8.976,12.5472383 8.976,11.956 C8.976,9.9390004 10.6110004,8.304 12.628,8.304 C13.2200466,8.304 13.7791805,8.44486982 14.2737133,8.69492098 C14.3404124,7.80115136 14.1815344,6.88289963 13.7758312,6.02742838 C12.6943087,3.74691542 10.1573945,2.54232055 7.70657759,3.14558411 L7.72920185,1.78238175 C9.29466423,1.48065584 10.9164312,1.75452873 12.2960032,2.55358574 Z M12.628,9.632 C11.3444902,9.632 10.304,10.6724902 10.304,11.956 C10.304,13.2395098 11.3444902,14.28 12.628,14.28 C13.9115098,14.28 14.952,13.2395098 14.952,11.956 C14.952,10.6724902 13.9115098,9.632 12.628,9.632 Z M12.96,10.296 L12.96,11.624 L13.624,11.624 L13.624,12.288 L12.296,12.288 L12.296,10.296 L12.96,10.296 Z" id="形状结合" fill="#3A84FF" fill-rule="nonzero"></path>
                    </g>
                </g>
            </g>
        </g>
    </g>
</svg>