<?xml version="1.0" encoding="UTF-8"?>
<svg width="18px" height="18px" viewBox="0 0 18 18" version="1.1" xmlns="http://www.w3.org/2000/svg" xmlns:xlink="http://www.w3.org/1999/xlink">
    <title>icon/自愈率</title>
    <g id="首页" stroke="none" stroke-width="1" fill="none" fill-rule="evenodd">
        <g transform="translate(-1018.000000, -191.000000)" id="编组-4">
            <g transform="translate(117.000000, 122.000000)">
                <g id="编组-12备份" transform="translate(51.000000, 69.000000)">
                    <g id="icon/自愈率" transform="translate(850.000000, 0.000000)">
                        <polygon id="路径" points="0 0 18 0 18 18 0 18"></polygon>
                        <path d="M13.628568,13.992488 C12.4237008,15.0365215 10.8822729,15.6102241 9.288,15.6080064 C5.620728,15.6080064 2.648,12.635272 2.648,8.968 C2.648,5.300728 5.620728,2.328 9.288,2.328 C12.955272,2.328 15.928,5.300728 15.928,8.968 C15.928,10.386304 15.48312,11.701024 14.72616,12.77936 L12.608,8.968 L14.6,8.968 C14.5997927,6.44402887 12.8235758,4.26870453 10.3506207,3.76380547 C7.87766549,3.25890641 5.39088574,4.56386195 4.40130756,6.88575026 C3.41172939,9.20763857 4.19262763,11.9052635 6.26951007,13.3394844 C8.34639251,14.7737054 11.1457221,14.548458 12.96656,12.800608 L13.628568,13.992488 Z" id="路径" fill="#3A84FF" fill-rule="nonzero"></path>
                    </g>
                </g>
            </g>
        </g>
    </g>
</svg>