<?xml version="1.0" encoding="UTF-8"?>
<svg width="113px" height="114px" viewBox="0 0 113 114" version="1.1" xmlns="http://www.w3.org/2000/svg" xmlns:xlink="http://www.w3.org/1999/xlink">
    <title>编组 10</title>
    <defs>
        <linearGradient x1="50%" y1="95.0902604%" x2="35.112422%" y2="19.6450217%" id="linearGradient-1">
            <stop stop-color="#DC63FE" offset="0.0150240385%"></stop>
            <stop stop-color="#235DFA" offset="100%"></stop>
        </linearGradient>
    </defs>
    <g id="故障详情-配色优化" stroke="none" stroke-width="1" fill="none" fill-rule="evenodd" fill-opacity="0.06">
        <g id="故障诊断" transform="translate(-689, -539)" fill="url(#linearGradient-1)" fill-rule="nonzero">
            <g id="故障总结" transform="translate(366, 196)">
                <g id="编组-10" transform="translate(323, 343)">
                    <path d="M66.1458402,20.0103481 C66.1458402,43.7161089 83.8849013,63.27869 106.812979,66.1480471 L112.64584,66.5103481 C88.9400794,66.5103481 69.3774983,84.2494092 66.5081412,107.177487 L66.1458402,113.010348 C66.1458402,89.3045873 48.4067792,69.7420062 25.4787014,66.8726492 L19.6458402,66.5103481 C43.351601,66.5103481 62.9141821,48.7712871 65.7835392,25.8432093 L66.1458402,20.0103481 Z" id="星形"></path>
                    <path d="M23.5,-1.0658141e-13 C23.5,11.9803307 32.4649018,21.8667964 44.0522099,23.3169016 L47,23.5 C35.0196693,23.5 25.1332036,32.4649018 23.6830984,44.0522099 L23.5,47 C23.5,35.0196693 14.5350982,25.1332036 2.94779007,23.6830984 L-4.9775832e-14,23.5 C11.9803307,23.5 21.8667964,14.5350982 23.3169016,2.94779007 L23.5,-1.0658141e-13 Z" id="星形"></path>
                </g>
            </g>
        </g>
    </g>
</svg>