<?xml version="1.0" encoding="UTF-8"?>
<svg width="16px" height="16px" viewBox="0 0 16 16" version="1.1" xmlns="http://www.w3.org/2000/svg" xmlns:xlink="http://www.w3.org/1999/xlink">
    <title>Source/BCS</title>
    <defs>
        <linearGradient x1="50.1677215%" y1="100.248832%" x2="50.1677215%" y2="0.206296899%" id="linearGradient-1">
            <stop stop-color="#0054D4" offset="0%"></stop>
            <stop stop-color="#00D3FF" offset="100%"></stop>
        </linearGradient>
        <linearGradient x1="0.994230769%" y1="49.8956044%" x2="100.779808%" y2="49.8956044%" id="linearGradient-2">
            <stop stop-color="#2D7F56" offset="0%"></stop>
            <stop stop-color="#27B4A4" offset="100%"></stop>
        </linearGradient>
        <linearGradient x1="49.118705%" y1="99.8369916%" x2="49.118705%" y2="-0.0607743012%" id="linearGradient-3">
            <stop stop-color="#0054D4" offset="0%"></stop>
            <stop stop-color="#00D3FF" offset="100%"></stop>
        </linearGradient>
    </defs>
    <g id="Source/BCS" stroke="none" stroke-width="1" fill="none" fill-rule="evenodd">
        <circle id="椭圆形" fill="#2F567D" cx="8" cy="8" r="8"></circle>
        <g id="容器管理" transform="translate(2, 2)" fill-rule="nonzero">
            <path d="M11.2645161,2.75806452 L6.65806452,0.0870967742 C6.50322581,-0.0290322581 6.27096774,-0.0290322581 6.11612903,0.0870967742 L1.47096774,2.75806452 C1.47096774,2.75806452 1.5483871,2.83548387 1.58709677,3.02903226 C1.62580645,3.18387097 1.62580645,3.33870968 1.62580645,3.33870968 L6.11612903,5.93225806 C6.27096774,6.0483871 6.50322581,6.0483871 6.65806452,5.93225806 L11.2645161,3.26129032 C11.4580645,3.10645161 11.4580645,2.87419355 11.2645161,2.75806452 Z" id="路径" fill="#D4F5FF"></path>
            <path d="M6.89032258,6.31935484 L11.4967742,3.6483871 C11.6903226,3.53225806 11.9225806,3.68709677 11.9225806,3.88064516 L11.9225806,9.22258065 C11.9225806,9.41612903 11.8064516,9.60967742 11.6516129,9.68709677 L7.04516129,12.3580645 C6.8516129,12.4741935 6.61935484,12.3193548 6.61935484,12.1258065 L6.61935484,6.78387097 C6.61935484,6.59032258 6.69677419,6.39677419 6.89032258,6.31935484 Z" id="路径" fill="#D4F5FF"></path>
            <path d="M8.32258065,6.70645161 C8.32258065,6.47419355 8.51612903,6.16451613 8.7483871,6.00967742 C8.98064516,5.85483871 9.17419355,5.97096774 9.17419355,6.20322581 C9.17419355,6.43548387 8.98064516,6.74516129 8.7483871,6.9 C8.51612903,7.05483871 8.32258065,6.93870968 8.32258065,6.70645161 Z" id="路径" fill="#FFFFFF"></path>
            <path d="M5.84516129,6.31935484 L1.27741935,3.6483871 C1.47096774,3.33870968 1.39354839,2.87419355 1.12258065,2.56451613 C0.619354839,2.68064516 0.735483871,3.3 0.735483871,3.3 C0.270967742,3.18387097 0.0387096774,3.37741935 0,3.41612903 C0.15483871,3.80322581 0.541935484,3.95806452 0.812903226,3.91935484 L0.812903226,9.18387097 C0.812903226,9.37741935 0.929032258,9.57096774 1.08387097,9.6483871 L5.69032258,12.3193548 C5.88387097,12.4354839 6.11612903,12.2806452 6.11612903,12.0870968 L6.11612903,6.78387097 C6.11612903,6.59032258 6.03870968,6.39677419 5.84516129,6.31935484 Z" id="路径" fill="url(#linearGradient-1)"></path>
            <path d="M8.70967742,11.3516129 C9.09677419,10.8870968 9.2516129,10.383871 9.2516129,10.383871 C9.2516129,10.4225806 9.36774194,10.4612903 9.36774194,10.5774194 C9.36774194,10.6935484 9.56129032,10.7709677 9.6,10.6548387 C10.0258065,9.95806452 9.71612903,8.9516129 9.6,8.64193548 C9.63870968,8.29354839 9.63870968,7.98387097 9.71612903,7.59677419 C9.90967742,6.78387097 10.3741935,6.28064516 11.0709677,5.85483871 C11.7290323,5.42903226 11.883871,4.80967742 11.883871,4.80967742 L9.17419355,6.9 C9.17419355,6.70645161 7.85806452,11.8548387 7.85806452,11.8548387 C7.85806452,11.8548387 8.67096774,11.3903226 8.70967742,11.3516129 Z" id="路径" fill="url(#linearGradient-2)" opacity="0.3"></path>
            <path d="M11.4967742,3.6483871 L6.89032258,6.31935484 C6.73548387,6.43548387 6.61935484,6.59032258 6.61935484,6.78387097 L6.61935484,12.1258065 C6.61935484,12.3193548 6.8516129,12.4741935 7.04516129,12.3580645 C7.04516129,12.3580645 7.74193548,11.9709677 7.93548387,11.8548387 C8.59354839,11.4677419 9.2516129,10.1903226 9.2516129,10.1516129 C9.29032258,10.2677419 9.29032258,10.383871 9.29032258,10.5 C9.29032258,10.616129 9.44516129,10.6548387 9.52258065,10.5774194 C10.0258065,9.80322581 9.63870968,8.71935484 9.6,8.68064516 C9.63870968,8.33225806 9.67741935,7.98387097 9.79354839,7.59677419 C9.98709677,6.78387097 10.4903226,6.28064516 11.1483871,5.85483871 C11.8064516,5.42903226 12,4.80967742 12,4.80967742 L12,3.88064516 C11.9225806,3.6483871 11.6903226,3.53225806 11.4967742,3.6483871 Z M8.32258065,6.70645161 C8.32258065,6.47419355 8.51612903,6.16451613 8.7483871,6.00967742 C8.98064516,5.85483871 9.17419355,5.97096774 9.17419355,6.20322581 C9.17419355,6.43548387 8.98064516,6.74516129 8.7483871,6.9 C8.51612903,7.05483871 8.32258065,6.93870968 8.32258065,6.70645161 Z" id="形状" fill="url(#linearGradient-3)"></path>
        </g>
    </g>
</svg>