<?xml version="1.0" encoding="UTF-8"?>
<svg width="16px" height="16px" viewBox="0 0 16 16" version="1.1" xmlns="http://www.w3.org/2000/svg" xmlns:xlink="http://www.w3.org/1999/xlink">
    <title>Source/蓝盾</title>
    <g id="Source/蓝盾" stroke="none" stroke-width="1" fill="none" fill-rule="evenodd">
        <circle id="椭圆形" fill="#2F567D" cx="8" cy="8" r="8"></circle>
        <path d="M7.02269874,7.41482626 C7.13823962,7.52778757 7.36536203,7.75664969 7.5039391,7.89667318 L7.62037983,8.01448702 L7.15151697,8.48330938 C7.08163755,8.55318283 7.01010155,8.62471275 6.94166679,8.69314174 L6.53794897,9.09682789 C6.32576409,8.88662268 6.04150113,8.59066166 5.78063431,8.43111807 C4.82670218,7.84315538 3.80465133,8.44074647 3.45226965,9.05984401 C3.02789988,9.80357093 3.19536217,10.751654 3.86116198,11.2752774 C4.54639857,11.8165378 5.50806941,11.7775742 6.12914663,11.1682851 C6.40510845,10.8974186 6.80098106,10.5036424 7.18802423,10.1172293 L7.68754724,9.61781204 C7.88408314,9.42107028 8.06023406,9.24447119 8.19392522,9.11035237 L8.45364192,8.8496388 L8.65475749,9.05075869 C8.76469241,9.16069783 8.89829203,9.29430574 8.99765876,9.39368883 L9.0967616,9.49281543 C9.12184832,9.51791154 9.13775234,9.53382648 9.1407682,9.53685507 C8.39128224,10.2707736 7.64179628,11.1001663 6.84947741,11.7854029 C5.98706014,12.5310195 4.96887865,12.6925428 3.90786425,12.2876098 C2.83515178,11.8788075 2.21218488,11.0709212 2.02726549,9.93206966 C2.00584903,9.79583221 2.00386936,9.66148444 2,9.52902636 C2,8.33375418 2.70863272,7.26104171 3.80078197,6.80355743 C4.90849864,6.34022411 6.16802019,6.57769481 7.02269874,7.41482626 Z M13.9727345,9.12800773 C13.9902816,9.25848614 13.9961306,9.3928339 14,9.52709168 C14,11.2403181 12.5515997,12.5972036 10.846202,12.4785132 C10.1375692,12.4278516 9.52243104,12.1572664 9.00645643,11.6665776 C8.81766768,11.4875072 8.58208666,11.2344691 8.3951876,11.0534191 L9.47761845,9.97098822 C9.59252944,10.0897686 9.76764046,10.2610102 9.88840047,10.3759212 C10.4276812,10.8996345 11.202453,11.0183249 11.8722121,10.6835803 C12.5067871,10.3642231 12.8961527,9.64974139 12.8046378,8.96450479 C12.7053843,8.20332077 12.1816709,7.61922744 11.4458627,7.46931225 C10.8734674,7.35251158 10.3594725,7.49270837 9.92736402,7.88792297 C9.66640721,8.12737334 9.34327069,8.4466405 9.09599161,8.70165829 L9.07582792,8.68147432 L8.3951876,8.00085428 C8.7105854,7.70300357 9.02985256,7.3233564 9.39195263,7.07607733 C11.1868856,5.84958031 13.6944106,6.97295439 13.9727345,9.12800773 Z M7.99811031,8.3940712 L8.3776675,8.77371837 L8.35031121,8.80081274 C8.34143245,8.80960725 8.33051399,8.82042268 8.31773584,8.83308132 L8.22019061,8.92972999 C8.0837121,9.06497448 7.87374845,9.27312076 7.65203916,9.4932146 L7.42234149,9.72135353 C7.30790989,9.83507302 7.19597035,9.94642506 7.09492091,10.0471184 L6.90983042,10.231837 C6.62169811,10.5180797 6.34130451,10.811971 6.04732317,11.0942543 C5.42831561,11.6899557 4.45872608,11.6939151 3.83386949,11.1098217 L3.79103658,11.0599475 L3.74820367,11.0085885 C3.28487035,10.564692 3.18561678,9.72567082 3.5263004,9.12412038 C3.58137128,9.02562525 3.70367757,8.87000978 3.73749833,8.82755832 L3.745,8.8175 L3.73677484,8.83393496 C3.71295831,8.87761157 3.65123572,8.99256215 3.62942333,9.05015262 C3.41138942,9.6478337 3.6936727,10.3058048 4.21738602,10.6504478 C4.74694838,10.9968904 5.43992369,10.9326411 5.89551829,10.4829855 C6.56716713,9.82114502 7.23494662,9.15525522 7.89876675,8.48747574 C7.9474487,8.4387938 7.99811031,8.3940712 7.99811031,8.3940712 Z M9.99932511,7.96580508 C10.4957729,7.50634112 11.2063853,7.39925884 11.8079358,7.70493825 C12.8358357,8.22865158 12.9837712,9.53100604 12.2362649,10.280582 C12.2147585,10.3038881 12.193432,10.3194555 12.1544684,10.3486107 C12.3276898,10.1208584 12.428923,9.83857513 12.428923,9.53100604 C12.428923,8.78143009 11.8215235,8.17214093 11.0700579,8.17214093 C11.0467518,8.17214093 11.0214659,8.17214093 10.9980698,8.17403062 C10.6866314,8.18185932 10.39256,8.31035805 10.1239545,8.5517881 C9.94092478,8.71727071 9.70732344,8.96068042 9.53599179,9.13777112 C9.51268565,9.11446497 9.19143882,8.79312815 9.17002236,8.77180168 C9.39003595,8.55367778 9.80855668,8.14298575 9.99932511,7.96580508 Z M8,4.83922753 C8.86052758,4.83922753 9.57491935,5.45832506 9.72483454,6.27404006 C9.53019675,6.35385685 9.34329768,6.45113076 9.16809668,6.56217238 C9.15252926,5.93137677 8.63466496,5.42521054 8,5.42521054 C7.36533504,5.42521054 6.84747074,5.93137677 6.83190332,6.56217238 C6.65670232,6.44924107 6.46980325,6.35385685 6.27516546,6.27404006 C6.42508065,5.45832506 7.13947242,4.83922753 8,4.83922753 Z M7.99811031,2.9995 C8.15378455,2.9995 8.30558942,3.00921839 8.45550461,3.02874516 L8.53730108,3.6925653 C8.68721627,3.71983079 8.8332621,3.75879434 8.97336891,3.80747628 L9.3764122,3.27206489 C9.46594739,3.31102844 9.55548257,3.35188168 9.64312806,3.39669426 L9.94286846,3.5699156 C10.0227752,3.6224669 10.102502,3.67699787 10.1784495,3.73539821 L9.91758264,4.3505364 C10.0324036,4.44790029 10.1394859,4.55498257 10.2388295,4.66989355 L10.8539677,4.40902672 C10.9046293,4.47714545 10.9533112,4.54526418 11.0000135,4.61536257 L11.2180474,4.99500974 C11.2530516,5.06501816 11.2861661,5.13709623 11.317301,5.21106399 L10.7838693,5.61212761 C10.8306615,5.7444957 10.8696251,5.88073316 10.8968006,6.02092995 C10.5347005,6.03649738 10.1881679,6.10659578 9.86305166,6.22339645 C9.68983033,5.35126078 8.92279728,4.69517937 8,4.69517937 C7.07720272,4.69517937 6.31016967,5.35126078 6.13694834,6.2272658 C5.81183214,6.11055512 5.46529949,6.04045672 5.10319942,6.02479931 C5.13037492,5.88658219 5.1673588,5.75421409 5.21217139,5.62382567 L4.67684998,5.22078238 C4.79752001,4.93076038 4.9552639,4.66008517 5.14207299,4.41487576 L5.75730117,4.67574258 C5.85268538,4.56281127 5.95778799,4.45761868 6.0707193,4.36034478 L5.80796278,3.7451166 C6.0531722,3.55632784 6.3238474,3.39858395 6.61197972,3.27791392 L7.01295336,3.81134564 C7.15315015,3.7626637 7.29721631,3.72181046 7.44515183,3.69454497 L7.52694829,3.03063485 C7.68073284,3.00921839 7.83838675,2.9995 7.99811031,2.9995 Z" id="形状结合" fill="#FFFFFF"></path>
    </g>
</svg>