<svg xmlns="http://www.w3.org/2000/svg" viewBox="0 0 6.12503876 8.75007754" class="design-iconfont">
  <path d="M8.97815625,4.8125 C9.582125,4.80746875 10.0675313,4.31353125 10.0625,3.70934375 C10.05725,3.10515625 9.56353125,2.61996875 8.95934375,2.625 C8.358875,2.63003125 7.875,3.1185 7.875,3.71875 L7.875,3.72815625 C7.88025,4.332125 8.3741875,4.81753125 8.97815625,4.8125 M5.02184375,2.625 C4.421375,2.63003125 3.9375,3.1185 3.9375,3.71875 L3.9375,3.72815625 C3.94275,4.332125 4.4366875,4.81753125 5.04065625,4.8125 C5.644625,4.80746875 6.13003125,4.31353125 6.125,3.70934375 C6.11975,3.10515625 5.62603125,2.61996875 5.02184375,2.625 M8.95934375,5.90625 C8.358875,5.91128125 7.875,6.39975 7.875,7 L7.875,7.00940625 C7.88025,7.613375 8.3741875,8.09878125 8.97815625,8.09375 C9.582125,8.08871875 10.0675313,7.59478125 10.0625,6.99059375 C10.05725,6.38640625 9.56353125,5.90121875 8.95934375,5.90625 M5.02184375,5.90625 C4.421375,5.91128125 3.9375,6.39975 3.9375,7 L3.9375,7.00940625 C3.94275,7.613375 4.4366875,8.09878125 5.04065625,8.09375 C5.644625,8.08871875 6.13003125,7.59478125 6.125,6.99059375 C6.11975,6.38640625 5.62603125,5.90121875 5.02184375,5.90625 M8.95934375,9.1875 C8.358875,9.19253125 7.875,9.681 7.875,10.28125 L7.875,10.2906563 C7.88025,10.894625 8.3741875,11.3800313 8.97815625,11.375 C9.582125,11.3699688 10.0675313,10.8760313 10.0625,10.2718438 C10.05725,9.66765625 9.56353125,9.18246875 8.95934375,9.1875 M5.02184375,9.1875 C4.421375,9.19253125 3.9375,9.681 3.9375,10.28125 L3.9375,10.2906563 C3.94275,10.894625 4.4366875,11.3800313 5.04065625,11.375 C5.644625,11.3699688 6.13003125,10.8760313 6.125,10.2718438 C6.11975,9.66765625 5.62603125,9.18246875 5.02184375,9.1875" fill="#C4C6CC" transform="translate(-3.9375 -2.624961)" fill-rule="evenodd"/>
</svg>
