<svg xmlns="http://www.w3.org/2000/svg" viewBox="0 0 110 90.9045137" class="design-iconfont">
  <defs>
    <linearGradient x1="51.9445544%" y1="48.7605571%" x2="52.6037065%" y2="51.2471476%" id="imouui4cc__kd247wnjwa">
      <stop stop-color="#E8EAED" stop-opacity=".2" offset="0%"/>
      <stop stop-color="#E8EAED" stop-opacity=".6" offset="100%"/>
    </linearGradient>
  </defs>
  <g fill="none" fill-rule="evenodd">
    <path d="M16.5830373,3.17105806 C27.5772358,0.675442448 43.3603183,-0.403742681 54.0847205,0.135849884 C64.8091227,0.675442448 73.7124001,2.56401642 74.3194417,2.09187293 C76.4778119,0.675442448 81.0643487,0.0684008131 80.7945525,0.607993377 C80.5922053,1.14758594 77.6244461,2.90126178 78.5687331,3.17105806 C79.5130201,3.44085434 89.0907881,4.52003947 93.0702833,5.39687738 C97.0497785,6.20626623 99.6128431,7.01565508 100.489681,7.01565508 C101.366519,7.01565508 102.7155,5.86902088 108.448671,6.40861344 C108.58357,6.61096065 107.167139,6.67840972 105.885607,7.35290043 C104.604074,8.02739113 103.659787,7.95994206 103.659787,8.09484021 C103.659787,8.22973835 104.401727,7.89249299 105.885607,8.83677998 C107.369486,9.78106697 110,10.1183123 110,10.3206595 C110,10.5230067 106.694996,11.6696409 101.096723,9.91596511 C99.6802922,9.44382162 96.3752878,13.3558677 81.1992469,14.4350528 C66.023206,15.514238 40.3925592,16.3910759 40.3925592,16.3910759 C40.3925592,16.3910759 41.9438878,18.3470989 44.1697072,18.9541406 C44.3046053,19.1564878 43.2928693,19.8984275 38.9086797,19.0890387 C34.5244901,18.2796499 32.2312217,16.458525 32.2312217,16.458525 C32.2312217,16.458525 23.5977407,15.9189324 20.3601853,15.3793398 C17.1226299,14.8397473 13.3454819,13.4233168 10.7824173,13.1535205 C8.21935258,12.8837242 -3.44933662,11.5347428 1.00230203,8.49953463 C0.867403892,8.43208556 5.58883883,5.66667367 16.5830373,3.17105806 Z" fill="url(#imouui4cc__kd247wnjwa)" transform="translate(0 71.445705)"/>
    <path fill="#C4C6CC" fill-rule="nonzero" d="M12.8058894 6.47606251L12.8058894 11.8719882 18.201815 11.8719882 18.201815 12.9511733 11.7267042 12.9511733 11.7267042 6.47606251z" transform="translate(0 71.445705)"/>
    <path fill="#C4C6CC" fill-rule="nonzero" d="M85.111293 11.8719882L90.5072186 11.8719882 90.5072186 6.47606251 91.5864037 6.47606251 91.5864037 12.9511733 85.111293 12.9511733z" transform="translate(0 71.445705)"/>
    <g>
      <path d="M69.3109691,70.3078258 C83.5638286,56.0532304 83.5628904,32.9435168 69.3088736,18.6900786 C55.0548568,4.43664046 31.9451432,4.43664046 17.6911264,18.6900786 C3.43710957,32.9435168 3.43617142,56.0532304 17.6890309,70.3078258 C24.5342365,77.1538651 33.8188279,81 43.5,81 C53.1811721,81 62.4657635,77.1538651 69.3109691,70.3078258 L69.3109691,70.3078258 Z" fill="#EBEDF0" transform="translate(9)"/>
      <path d="M62.6825389,14 C71.8365719,28.2089453 69.8993342,46.8257821 58.0135977,58.8684832 C46.1278611,70.9111844 27.4508135,73.1808679 13,64.338653 C21.0729354,76.8696388 36.0367556,83.204795 50.7123736,80.304748 C65.3879916,77.4047011 76.781097,65.8611563 79.4256995,51.2122793 C82.070302,36.5634022 75.4268155,21.798047 62.6825389,14 L62.6825389,14 Z" fill="#E7E9EB" fill-rule="nonzero" transform="translate(9)"/>
      <path d="M12.639267,48.0073211 C12.6490251,33.4148598 21.9830771,20.4466944 35.856092,15.7512734 C49.7291069,11.0558523 65.0644174,15.6744957 74,27.2393426 C67.6634523,16.1452769 55.6364894,9.50427828 42.8316763,10.0289466 C30.0268632,10.5536148 18.5883093,18.1560966 13.1882365,29.7310621 C7.78816363,41.3060276 9.33079024,54.9153 17.186011,65 C14.1959881,59.8326873 12.627638,53.9712467 12.639267,48.0073211 L12.639267,48.0073211 Z" fill="#F5F7FA" transform="translate(9)"/>
      <path d="M29.0432803,49.3365959 C28.6351191,48.9445828 28.0052435,48.8885807 27.5329338,49.2023113 C27.060624,49.5160419 26.8747662,50.1138929 27.0872748,50.6358678 C29.84311,57.4393482 36.4768291,61.9263671 43.8869611,61.9991029 C51.2970932,62.0718387 58.0195501,57.7159203 60.9113733,50.9678757 C61.0137435,50.7149958 61.0278598,50.4355605 60.9514855,50.173848 C60.8716568,49.9126737 60.7043476,49.6861377 60.4770665,49.5314867 C60.2497937,49.376401 59.9748063,49.3048777 59.699796,49.3293213 C59.4263489,49.3527061 59.1690345,49.4672307 58.969993,49.6541393 C53.631304,54.7718833 42.2933144,62.0586332 29.0431948,49.3365959 L29.0432803,49.3365959 Z" fill="#5E4939" fill-rule="nonzero" transform="translate(9)"/>
      <path d="M29.0432803,49.3365959 C28.6351191,48.9445828 28.0052435,48.8885807 27.5329338,49.2023113 C27.060624,49.5160419 26.8747662,50.1138929 27.0872748,50.6358678 C29.84311,57.4393482 36.4768291,61.9263671 43.8869611,61.9991029 C51.2970932,62.0718387 58.0195501,57.7159203 60.9113733,50.9678757 C61.0137435,50.7149958 61.0278598,50.4355605 60.9514855,50.173848 C60.8716568,49.9126737 60.7043476,49.6861377 60.4770665,49.5314867 C60.2497937,49.376401 59.9748063,49.3048777 59.699796,49.3293213 C59.4263489,49.3527061 59.1690345,49.4672307 58.969993,49.6541393 C53.631304,54.7718833 42.2933144,62.0586332 29.0431948,49.3365959 L29.0432803,49.3365959 Z" fill="#C4C6CC" transform="translate(9)"/>
      <path d="M33.3315236,37.4982174 C33.3315236,39.9863618 32.1407363,42 30.6676281,42 C29.1945199,42 28,39.9972271 28,37.4982174 C28,34.9992077 29.194435,33 30.6676281,33 C32.1408212,33 33.3315236,35.0136382 33.3315236,37.4982174 Z M60,37.4982174 C60,39.9863618 58.8092128,42 57.3361045,42 C55.8629963,42 54.6684764,39.9863618 54.6684764,37.4982174 C54.6684764,35.010073 55.8593485,33 57.3361045,33 C58.8128605,33 60,35.0136382 60,37.4982174 Z" fill="#979BA5" transform="translate(9)"/>
      <path fill="#C4C6CC" fill-rule="nonzero" d="M68.3662782 7.58811008A1 1 0 1 0 68.3662782 9.58811008A1 1 0 1 0 68.3662782 7.58811008Z" transform="translate(9)"/>
      <path fill="#C4C6CC" fill-rule="nonzero" d="M85.4787916 47.22502693A1.17622017 1.17622017 0 1 0 85.4787916 49.57746727A1.17622017 1.17622017 0 1 0 85.4787916 47.22502693Z" transform="translate(9)"/>
      <path fill="#C4C6CC" fill-rule="nonzero" d="M3.43424196 23.75794463A1.17622017 1.17622017 0 1 0 3.43424196 26.110384970000002A1.17622017 1.17622017 0 1 0 3.43424196 23.75794463Z" transform="translate(9)"/>
    </g>
  </g>
</svg>
