<svg xmlns="http://www.w3.org/2000/svg" viewBox="0 0 220 100" class="design-iconfont">
  <defs>
    <linearGradient x1="51.9445544%" y1="48.770605%" x2="52.5880775%" y2="51.1785565%" id="2967njfhf__mgze219n2a">
      <stop stop-color="#282829" offset="0%"/>
      <stop stop-color="#434343" offset="100%"/>
    </linearGradient>
    <linearGradient x1="50.0012121%" y1="2.22166716%" x2="50.0012121%" y2="92.4206804%" id="2967njfhf__knmm06kogb">
      <stop stop-color="#413634" offset="0%"/>
      <stop stop-color="#5A5A5A" offset="100%"/>
    </linearGradient>
    <linearGradient x1="50.0012121%" y1=".01153409%" x2="50.0012121%" y2="99.2215341%" id="2967njfhf__3jvoji8u8c">
      <stop stop-color="#705050" offset="0%"/>
      <stop stop-color="#757575" offset="100%"/>
    </linearGradient>
    <linearGradient x1="50.0012121%" y1=".01153409%" x2="50.0012121%" y2="99.2215341%" id="2967njfhf__an2ywupxyd">
      <stop stop-color="#4B3D3D" offset="0%"/>
      <stop stop-color="#5A5353" offset="100%"/>
    </linearGradient>
    <linearGradient x1="49.9965659%" y1="-.22664835%" x2="49.9965659%" y2="98.4436813%" id="2967njfhf__zsqzqj1ide">
      <stop stop-color="#766262" offset="0%"/>
      <stop stop-color="#5B5B5B" offset="100%"/>
    </linearGradient>
  </defs>
  <g fill="none" fill-rule="evenodd">
    <path d="M17.263366,70.0388742 C29.2257578,67.4356594 47.2623174,66.5059398 58.976784,67.1257529 C70.6912505,67.7455659 83.397418,69.4810424 83.397418,69.4810424 C83.397418,69.4810424 86.6824271,67.9934911 86.4345019,68.6133042 C86.1865767,69.1711359 84.6370441,70.1008555 85.6907263,70.3487807 C86.6824271,70.6586872 97.1572676,71.836332 101.433978,72.7040703 C105.772669,73.5718085 107.818052,74.4395468 107.818052,74.4395468 C107.818052,74.4395468 110.669192,69.4810424 116.929304,70.0388742 C116.929304,70.5347246 114.635995,71.0925564 113.830239,72.3941638 C113.086463,73.6957712 111.350986,74.4395468 111.350986,74.4395468 C111.350986,74.4395468 112.714575,73.6957712 115.007883,74.8114346 C117.301192,75.9270981 119.532519,76.2989859 119.532519,76.4849299 C119.532519,76.6708738 118.540818,79.0881447 110.11136,77.3526681 C106.702389,76.4849299 105.028893,81.1335277 88.479885,82.3111725 C71.9308766,83.4888173 43.9773083,84.3565555 43.9773083,84.3565555 C43.9773083,84.3565555 45.2789157,86.0920321 47.8201492,86.7118451 C47.8201492,86.7118451 46.0226913,88.4473216 42.489757,87.8894899 C38.9568226,87.3316582 35.1139817,84.3565555 35.1139817,84.3565555 C35.1139817,84.3565555 25.6928234,83.7987238 22.1598891,83.1789108 C18.6269547,82.5590977 14.5361886,81.1335277 11.7470299,80.8236212 C8.95787118,80.5137147 -3.74829626,79.0881447 1.0862455,75.8651168 C1.02426419,75.8651168 5.30097421,72.7040703 17.263366,70.0388742 Z" fill="url(#2967njfhf__mgze219n2a)" transform="translate(60.5737 8)"/>
    <path fill="#7C5252" fill-rule="nonzero" d="M17.7592164 72.5181264L17.7592164 78.2204064 23.4614965 78.2204064 23.4614965 79.3360699 16.6435529 79.3360699 16.6435529 72.5181264z" transform="translate(60.5737 8)"/>
    <path fill="#7C5252" fill-rule="nonzero" d="M20.9822443 1.11566348L15.2799642 1.11566348 15.2799642 6.8179435 14.1643008 6.8179435 14.1643008 1.11566348 14.1643008 1.11566348 14.1643008 0 20.9822443 0z" transform="translate(60.5737 8)"/>
    <path fill="#7C5252" fill-rule="nonzero" d="M77.509194 6.8179435L77.509194 1.11566348 71.806914 1.11566348 71.806914 0 77.509194 0 77.509194 0 78.6248575 0 78.6248575 6.8179435z" transform="translate(60.5737 8)"/>
    <path d="M20.3624312,4.95850437 L73.6663532,4.95850437 C74.038241,4.95850437 74.2861662,5.20642959 74.2861662,5.57831741 L74.2861662,73.7577525 C74.2861662,74.1296403 74.038241,74.3775655 73.6663532,74.3775655 L20.3624312,74.3775655 C19.9905434,74.3775655 19.7426182,74.1296403 19.7426182,73.7577525 L19.7426182,5.57831741 C19.7426182,5.20642959 19.9905434,4.95850437 20.3624312,4.95850437 Z" fill="url(#2967njfhf__knmm06kogb)" fill-rule="nonzero" transform="translate(60.5737 8)"/>
    <path fill="url(#2967njfhf__3jvoji8u8c)" fill-rule="nonzero" d="M24.0813095 9.29719569H69.3276618V69.41906109H24.0813095z" transform="translate(60.5737 8)"/>
    <path fill="#4B4949" fill-rule="nonzero" d="M33.3785052 11.7764479H60.0304662V13.01607399H33.3785052z" transform="translate(60.5737 8)"/>
    <path fill="#4B4949" fill-rule="nonzero" d="M24.0813095 68.179435H69.3276618V69.41906109H24.0813095z" transform="translate(60.5737 8)"/>
    <path fill="url(#2967njfhf__an2ywupxyd)" fill-rule="nonzero" d="M33.3785052 2.47925218H60.0304662V11.77644787H33.3785052z" transform="translate(60.5737 8)"/>
    <path d="M74.2861662,46.4859784 L74.2861662,73.7577525 C74.2861662,74.1296403 74.038241,74.3775655 73.6663532,74.3775655 L58.4189522,74.3775655 L74.2861662,46.4859784 Z" fill="#2B2B2B" fill-rule="nonzero" transform="translate(60.5737 8)"/>
    <path fill="#4A4B4D" fill-rule="nonzero" d="M69.3276618 55.2873237L69.3276618 68.179435 61.8899053 68.179435z" transform="translate(60.5737 8)"/>
    <path d="M79.0587267,44.6885206 L79.9884462,46.3000345 L79.9884462,46.3000345 L97.4051928,77.4766307 C97.7150993,78.0964438 97.5291554,78.8402194 96.9093424,79.150126 C96.7233985,79.2740886 96.5374546,79.3360699 96.2895293,79.3360699 L59.596597,79.3360699 C58.9148027,79.3360699 58.3569709,78.7782381 58.3569709,78.0964438 C58.3569709,77.9104999 58.4189522,77.6625746 58.5429148,77.4766307 L76.889381,44.6885206 C77.1992875,44.0687076 78.0050445,43.8827636 78.5628762,44.1926702 C78.8108014,44.3166328 78.9967454,44.5025767 79.0587267,44.6885206 Z" fill="url(#2967njfhf__zsqzqj1ide)" fill-rule="nonzero" transform="translate(60.5737 8)"/>
    <path d="M79.6785397,58.2624263 L79.3066519,68.4273603 L76.7034371,68.4273603 L76.3315493,58.2624263 C76.3315493,58.2624263 79.6785397,58.2624263 79.6785397,58.2624263 Z M76.1456053,71.7743507 C76.1456053,71.216519 76.3315493,70.7826498 76.7034371,70.410762 C77.0753249,70.0388742 77.509194,69.9149116 78.0050445,69.9149116 C78.5628762,69.9149116 78.9967454,70.1008555 79.3066519,70.410762 C79.6785397,70.7826498 79.8025023,71.216519 79.8025023,71.7123694 C79.8025023,72.2082198 79.6165584,72.7040703 79.3066519,73.0139768 C78.9347641,73.3858646 78.5628762,73.5718085 78.0670258,73.5718085 C77.4472127,73.5718085 77.0133436,73.3858646 76.6414558,73.0139768 C76.3315493,72.7040703 76.1456053,72.2702011 76.1456053,71.7743507 Z" fill="#212224" fill-rule="nonzero" transform="translate(60.5737 8)"/>
    <g fill="#A06D6D" fill-rule="nonzero">
      <path d="M0 0H2.35528957V1H0z" transform="translate(103.2494 35.2718)"/>
      <path d="M4.71057915 0H7.06586872V1H4.71057915z" transform="translate(103.2494 35.2718)"/>
      <path d="M9.35917699 0H11.71446656V1H9.35917699z" transform="translate(103.2494 35.2718)"/>
      <path d="M14.0697561 0H16.42504567V1H14.0697561z" transform="translate(103.2494 35.2718)"/>
      <path d="M18.718354 0H21.07364357V1H18.718354z" transform="translate(103.2494 35.2718)"/>
    </g>
    <g fill="#A06D6D" fill-rule="nonzero">
      <path d="M4.83454176 0H7.251812639999999V1H4.83454176z" transform="translate(117.5051 45.8086)"/>
      <path d="M0 0H2.41727088V1H0z" transform="translate(117.5051 45.8086)"/>
      <path d="M9.66908352 0H12.0863544V1H9.66908352z" transform="translate(117.5051 45.8086)"/>
      <path d="M14.5656066 0H16.98287748V1H14.5656066z" transform="translate(117.5051 45.8086)"/>
      <path d="M19.4001483 0H21.81741918V1H19.4001483z" transform="translate(117.5051 45.8086)"/>
      <path d="M24.2346901 0H26.651960980000002V1H24.2346901z" transform="translate(117.5051 45.8086)"/>
    </g>
  </g>
</svg>
