<svg width="32" height="32" viewBox="0 0 32 32" fill="none" xmlns="http://www.w3.org/2000/svg">
<path d="M4 5C4 4.44772 4.44772 4 5 4H15C15.5523 4 16 4.44772 16 5V9C16 9.55228 15.5523 10 15 10H5C4.44772 10 4 9.55228 4 9V5Z" fill="#C1CDE6"/>
<path d="M11 14H16V13C16 12.4477 16.4477 12 17 12H27C27.5523 12 28 12.4477 28 13V17C28 17.5523 27.5523 18 27 18H17C16.4477 18 16 17.5523 16 17V16H11V24H16V23C16 22.4477 16.4477 22 17 22H27C27.5523 22 28 22.4477 28 23V27C28 27.5523 27.5523 28 27 28H17C16.4477 28 16 27.5523 16 27V26H9V10H11V14Z" fill="#3974FF"/>
</svg>
