<svg xmlns="http://www.w3.org/2000/svg" viewBox="0 0 220 100" class="design-iconfont">
  <defs>
    <linearGradient x1="51.9445544%" y1="48.7605571%" x2="52.5880775%" y2="51.1881889%" id="xlsdvfk81__zl4q1ezr3a">
      <stop stop-color="#282829" offset="0%"/>
      <stop stop-color="#434343" offset="100%"/>
    </linearGradient>
    <linearGradient x1="50.0012121%" y1="1.16976909%" x2="50.0012121%" y2="92.4206804%" id="xlsdvfk81__q38p8z8zzb">
      <stop stop-color="#2C2C2D" offset="0%"/>
      <stop stop-color="#5A5A5A" offset="100%"/>
    </linearGradient>
    <linearGradient x1="50.0012121%" y1=".01153409%" x2="50.0012121%" y2="99.2215341%" id="xlsdvfk81__afcg2c8e4c">
      <stop stop-color="#5E5E5E" offset="0%"/>
      <stop stop-color="#757575" offset="100%"/>
    </linearGradient>
  </defs>
  <g fill="none" fill-rule="evenodd">
    <path d="M16.5830373,50.967344 C27.5772358,48.4717284 43.3603183,47.3925433 54.0847205,47.9321358 C64.8091227,48.4717284 73.7124001,50.3603024 74.3194417,49.8881589 C76.4778119,48.4717284 81.0643487,47.8646868 80.7945525,48.4042793 C80.5922053,48.9438719 77.6244461,50.6975477 78.5687331,50.967344 C79.5130201,51.2371403 89.0907881,52.3163254 93.0702833,53.1931633 C97.0497785,54.0025522 99.6128431,54.811941 100.489681,54.811941 C101.366519,54.811941 102.7155,53.6653068 108.448671,54.2048994 C108.58357,54.4072466 107.167139,54.4746957 105.885607,55.1491864 C104.604074,55.8236771 103.659787,55.756228 103.659787,55.8911262 C103.659787,56.0260243 104.401727,55.6887789 105.885607,56.6330659 C107.369486,57.5773529 110,57.9145983 110,58.1169455 C110,58.3192927 106.694996,59.4659269 101.096723,57.7122511 C99.6802922,57.2401076 96.3752878,61.1521537 81.1992469,62.2313388 C66.023206,63.3105239 40.3925592,64.1873618 40.3925592,64.1873618 C40.3925592,64.1873618 41.9438878,66.1433849 44.1697072,66.7504265 C44.3046053,66.9527737 43.2928693,67.6947135 38.9086797,66.8853247 C34.5244901,66.0759358 32.2312217,64.2548109 32.2312217,64.2548109 C32.2312217,64.2548109 23.5977407,63.7152183 20.3601853,63.1756258 C17.1226299,62.6360332 13.3454819,61.2196027 10.7824173,60.9498064 C8.21935258,60.6800102 -3.44933662,59.3310288 1.00230203,56.2958206 C0.867403892,56.2283715 5.58883883,53.4629596 16.5830373,50.967344 Z" fill="url(#xlsdvfk81__zl4q1ezr3a)" transform="translate(57 18.6494)"/>
    <path fill="url(#xlsdvfk81__q38p8z8zzb)" fill-rule="nonzero" d="M16.0434448 32.6886459L31.8939763 8.94657307 71.4191317 8.94657307 87.2696632 32.6886459 87.2696632 46.9203998 16.0434448 46.9203998z" transform="translate(57 18.6494)"/>
    <path d="M33.1755087,56.4307187 L17.3924262,56.4307187 C16.6504864,56.4307187 16.0434448,55.8236771 16.0434448,55.0817373 L16.0434448,32.6886459 L31.8265273,32.6886459 C32.568467,32.6886459 33.1755087,33.2956875 33.1755087,34.0376273 L33.1755087,39.0288585 C33.1755087,39.7707983 33.7151012,40.3103909 34.457041,40.3778399 L34.5244901,40.3778399 L68.7886179,40.3778399 C69.5305577,40.3778399 70.0701502,39.8382474 70.1375993,39.0963076 L70.1375993,39.0288585 L70.1375993,34.0376273 C70.1375993,33.2956875 70.744641,32.6886459 71.4865807,32.6886459 L87.2696632,32.6886459 L87.2696632,55.0817373 C87.2696632,55.8236771 86.6626216,56.4307187 85.9206818,56.4307187 L70.1375993,56.4307187 L33.1755087,56.4307187 Z" fill="url(#xlsdvfk81__afcg2c8e4c)" fill-rule="nonzero" transform="translate(57 18.6494)"/>
    <path fill="#5D5E5E" fill-rule="nonzero" d="M12.8058894 54.2723485L12.8058894 59.6682741 18.201815 59.6682741 18.201815 60.7474592 11.7267042 60.7474592 11.7267042 54.2723485z" transform="translate(57 18.6494)"/>
    <path fill="#5D5E5E" fill-rule="nonzero" d="M85.111293 59.6682741L90.5072186 59.6682741 90.5072186 54.2723485 91.5864037 54.2723485 91.5864037 60.7474592 85.111293 60.7474592z" transform="translate(57 18.6494)"/>
    <g fill="#5D5E5E" fill-rule="nonzero">
      <path transform="rotate(111 54.3231732 51.8628284)" d="M-0.539448834 0.53959698L1.61892142 0.53959698 1.61892142 1.61878211 -0.539448834 1.61878211z"/>
      <path transform="rotate(111 53.64811698 55.504635)" d="M-0.539583732 4.85637282L1.61878653 4.85637282 1.61878653 5.93555795 -0.539583732 5.93555795z"/>
      <path transform="rotate(111 52.97326076 59.14630417)" d="M-0.539516283 9.17301377L1.61885397 9.17301377 1.61885397 10.2521989 -0.539516283 10.2521989z"/>
      <path transform="rotate(111 52.2982889 62.78812642)" d="M-0.53944883 13.4897896H1.6189214299999999V14.56897473H-0.53944883z"/>
    </g>
    <g fill="#5D5E5E" fill-rule="nonzero">
      <path transform="rotate(148 34.54608862 25.89808308)" d="M0.00000868 0.00000434H1.07919381V2.1583745999999997H0.00000868z"/>
      <path transform="rotate(148 35.78408398 30.21473113)" d="M0.000243767971 4.31674485L1.0794289 4.31674485 1.0794289 6.47511511 0.000243767971 6.47511511z"/>
      <path transform="rotate(148 37.02193668 34.53163653)" d="M0.000209063694 8.63362026L1.07939419 8.63362026 1.07939419 10.7919905 0.000209063694 10.7919905z"/>
      <path transform="rotate(148 38.25960336 38.8482706)" d="M0.000106910106 12.9502259L1.07929204 12.9502259 1.07929204 15.1085961 0.000106910106 15.1085961z"/>
      <path transform="rotate(148 39.4974274 43.165076)" d="M0.00007221 17.2669664H1.0792573399999998V19.42533666H0.00007221z"/>
    </g>
    <path fill="#5D5E5E" fill-rule="nonzero" d="M71.0818863 2.4714623000000002A1.07918513 1.07918513 0 1 0 71.0818863 4.6298325600000005A1.07918513 1.07918513 0 1 0 71.0818863 2.4714623000000002Z" transform="translate(57 18.6494)"/>
    <path fill="#5D5E5E" fill-rule="nonzero" d="M43.023073 19.73842437A1.07918513 1.07918513 0 1 0 43.023073 21.89679463A1.07918513 1.07918513 0 1 0 43.023073 19.73842437Z" transform="translate(57 18.6494)"/>
  </g>
</svg>
