<?xml version="1.0" encoding="UTF-8"?>
<svg width="16px" height="16px" viewBox="0 0 16 16" version="1.1" xmlns="http://www.w3.org/2000/svg" xmlns:xlink="http://www.w3.org/1999/xlink">
    <title>Source/主机</title>
    <g id="Source/主机" stroke="none" stroke-width="1" fill="none" fill-rule="evenodd">
        <circle id="椭圆形" fill="#2F567D" cx="8" cy="8" r="8"></circle>
        <path d="M11,2.5 C11.5522847,2.5 12,2.94771525 12,3.5 L12,12.5 C12,13.0522847 11.5522847,13.5 11,13.5 L5,13.5 C4.44771525,13.5 4,13.0522847 4,12.5 L4,3.5 C4,2.94771525 4.44771525,2.5 5,2.5 L11,2.5 Z M8,9.57142857 C7.5581722,9.57142857 7.2,9.92320484 7.2,10.3571429 C7.2,10.7910809 7.5581722,11.1428571 8,11.1428571 C8.4418278,11.1428571 8.8,10.7910809 8.8,10.3571429 C8.8,9.92320484 8.4418278,9.57142857 8,9.57142857 Z M10.8,6.82142857 L5.2,6.82142857 L5.2,7.60714286 L10.8,7.60714286 L10.8,6.82142857 Z M10.8,4.85714286 L5.2,4.85714286 L5.2,5.64285714 L10.8,5.64285714 L10.8,4.85714286 Z" id="形状结合" fill="#FFFFFF"></path>
    </g>
</svg>