<?xml version="1.0" encoding="utf-8"?>
<!-- Generator: Adobe Illustrator 25.0.0, SVG Export Plug-In . SVG Version: 6.00 Build 0)  -->
<svg version="1.1" id="图层_1" xmlns="http://www.w3.org/2000/svg" xmlns:xlink="http://www.w3.org/1999/xlink" x="0px" y="0px"
	 viewBox="0 0 16 16" style="enable-background:new 0 0 16 16;" xml:space="preserve">
<style type="text/css">
	.st0{fill:#2F567D;}
	.st1{fill:#D4FBFF;}
	.st2{fill:#FFFFFF;}
	.st3{fill:url(#路径_5_);}
	.st4{opacity:0.3;fill:url(#路径_6_);enable-background:new    ;}
	.st5{fill:url(#形状_1_);}
</style>
<circle id="椭圆形" class="st0" cx="8" cy="8" r="8"/>
<g id="容器管理" transform="translate(2, 2)">
	<path id="路径" class="st1" d="M11.3,2.8L6.7,0.1C6.5,0,6.3,0,6.1,0.1L1.5,2.8c0,0,0.1,0.1,0.1,0.3c0,0.2,0,0.3,0,0.3l4.5,2.6
		C6.3,6,6.5,6,6.7,5.9l4.6-2.7C11.5,3.1,11.5,2.9,11.3,2.8z"/>
	<path id="路径_1_" class="st1" d="M6.9,6.3l4.6-2.7c0.2-0.1,0.4,0,0.4,0.2v5.3c0,0.2-0.1,0.4-0.3,0.5L7,12.4
		c-0.2,0.1-0.4,0-0.4-0.2V6.8C6.6,6.6,6.7,6.4,6.9,6.3z"/>
	<path id="路径_2_" class="st2" d="M8.3,6.7c0-0.2,0.2-0.5,0.4-0.7s0.4,0,0.4,0.2c0,0.2-0.2,0.5-0.4,0.7C8.5,7.1,8.3,6.9,8.3,6.7z
		"/>

		<linearGradient id="路径_5_" gradientUnits="userSpaceOnUse" x1="-231.5369" y1="260.8506" x2="-231.5369" y2="261.8506" gradientTransform="matrix(6.1161 0 0 -9.7948 1419.1677 2567.374)">
		<stop  offset="0" style="stop-color:#0054D4"/>
		<stop  offset="1" style="stop-color:#00D3FF"/>
	</linearGradient>
	<path id="路径_3_" class="st3" d="M5.8,6.3L1.3,3.6c0.2-0.3,0.1-0.8-0.2-1.1C0.6,2.7,0.7,3.3,0.7,3.3C0.3,3.2,0,3.4,0,3.4
		C0.2,3.8,0.5,4,0.8,3.9v5.3c0,0.2,0.1,0.4,0.3,0.5l4.6,2.7c0.2,0.1,0.4,0,0.4-0.2V6.8C6.1,6.6,6,6.4,5.8,6.3z"/>

		<linearGradient id="路径_6_" gradientUnits="userSpaceOnUse" x1="-208.6808" y1="250.3952" x2="-207.6829" y2="250.3952" gradientTransform="matrix(4.0258 0 0 -7.0452 848.0065 1772.407)">
		<stop  offset="0" style="stop-color:#2D7F56"/>
		<stop  offset="1" style="stop-color:#27B4A4"/>
	</linearGradient>
	<path id="路径_4_" class="st4" d="M8.7,11.4c0.4-0.5,0.5-1,0.5-1c0,0,0.1,0.1,0.1,0.2s0.2,0.2,0.2,0.1c0.4-0.7,0.1-1.7,0-2
		c0-0.3,0-0.7,0.1-1c0.2-0.8,0.7-1.3,1.4-1.7c0.7-0.4,0.8-1,0.8-1L9.2,6.9c0-0.2-1.3,5-1.3,5S8.7,11.4,8.7,11.4z"/>

		<linearGradient id="形状_1_" gradientUnits="userSpaceOnUse" x1="-225.3909" y1="257.6638" x2="-225.3909" y2="258.6628" gradientTransform="matrix(5.3806 0 0 -8.7952 1222.0581 2278.5981)">
		<stop  offset="0" style="stop-color:#0054D4"/>
		<stop  offset="1" style="stop-color:#00D3FF"/>
	</linearGradient>
	<path id="形状" class="st5" d="M11.5,3.6L6.9,6.3C6.7,6.4,6.6,6.6,6.6,6.8v5.3c0,0.2,0.2,0.3,0.4,0.2c0,0,0.7-0.4,0.9-0.5
		c0.7-0.4,1.3-1.7,1.3-1.7c0,0.1,0,0.2,0,0.3s0.2,0.2,0.2,0.1C10,9.8,9.6,8.7,9.6,8.7c0-0.3,0.1-0.7,0.2-1.1
		c0.2-0.8,0.7-1.3,1.4-1.7c0.7-0.4,0.9-1,0.9-1V3.9C11.9,3.6,11.7,3.5,11.5,3.6z M8.3,6.7c0-0.2,0.2-0.5,0.4-0.7s0.4,0,0.4,0.2
		c0,0.2-0.2,0.5-0.4,0.7C8.5,7.1,8.3,6.9,8.3,6.7z"/>
</g>
</svg>
