<?xml version="1.0" encoding="UTF-8"?>
<svg width="16px" height="16px" viewBox="0 0 16 16" version="1.1" xmlns="http://www.w3.org/2000/svg" xmlns:xlink="http://www.w3.org/1999/xlink">
    <title>LOGO/其他</title>
    <g id="LOGO/其他" stroke="none" stroke-width="1" fill="none" fill-rule="evenodd">
        <circle id="椭圆形" fill="#2F567D" cx="8" cy="8" r="8"></circle>
        <path d="M8,2 C11.3137085,2 14,4.6862915 14,8 C14,11.3137085 11.3137085,14 8,14 C4.6862915,14 2,11.3137085 2,8 C2,4.6862915 4.6862915,2 8,2 Z M8,3 C5.23857625,3 3,5.23857625 3,8 C3,10.7614237 5.23857625,13 8,13 C10.7614237,13 13,10.7614237 13,8 C13,5.23857625 10.7614237,3 8,3 Z M7.998,10.193 C8.196,10.193 8.367,10.256 8.502,10.382 C8.628,10.508 8.7,10.67 8.7,10.868 C8.7,11.066 8.628,11.237 8.493,11.363 C8.358,11.489 8.196,11.552 7.998,11.552 C7.8,11.552 7.638,11.48 7.503,11.354 C7.368,11.228 7.305,11.066 7.305,10.868 C7.305,10.67 7.368,10.508 7.503,10.382 C7.638,10.256 7.8,10.193 7.998,10.193 Z M8.16,5 C8.745,5 9.222,5.153 9.582,5.477 C9.942,5.792 10.122,6.224 10.122,6.773 C10.122,7.223 10.005,7.592 9.789,7.88 C9.708,7.97 9.447,8.213 9.015,8.591 C8.853,8.726 8.736,8.879 8.655,9.041 C8.565,9.221 8.52,9.41 8.52,9.626 L8.52,9.752 L7.485,9.752 L7.485,9.626 C7.485,9.284 7.539,8.987 7.665,8.744 C7.782,8.501 8.133,8.123 8.718,7.601 L8.826,7.475 C8.988,7.277 9.069,7.061 9.069,6.836 C9.069,6.539 8.979,6.305 8.817,6.134 C8.646,5.963 8.403,5.882 8.097,5.882 C7.701,5.882 7.422,5.999 7.251,6.251 C7.098,6.458 7.026,6.755 7.026,7.133 L6,7.133 C6,6.467 6.189,5.945 6.585,5.567 C6.972,5.189 7.494,5 8.16,5 Z" id="形状结合" fill="#FFFFFF" fill-rule="nonzero"></path>
    </g>
</svg>