<?xml version="1.0" encoding="utf-8"?>
<!-- Generator: Adobe Illustrator 25.0.0, SVG Export Plug-In . SVG Version: 6.00 Build 0)  -->
<svg version="1.1" id="图层_1" xmlns="http://www.w3.org/2000/svg" xmlns:xlink="http://www.w3.org/1999/xlink" x="0px" y="0px"
	 viewBox="0 0 16 16" style="enable-background:new 0 0 16 16;" xml:space="preserve">
<style type="text/css">
	.st0{fill:#2F567D;}
	.st1{fill-rule:evenodd;clip-rule:evenodd;fill:#FFFFFF;}
</style>
<circle id="椭圆形" class="st0" cx="8" cy="8" r="8"/>
<g id="Module_x2F_主机" transform="translate(4.25, 2.75)">
	<path id="形状结合" class="st1" d="M6.5,0c0.6,0,1,0.4,1,1v8.5c0,0.6-0.4,1-1,1H1c-0.6,0-1-0.4-1-1V1c0-0.6,0.4-1,1-1H6.5z
		 M3.8,6.7C3.3,6.7,3,7.1,3,7.5s0.3,0.7,0.8,0.7s0.8-0.3,0.8-0.7S4.2,6.7,3.8,6.7z M6.4,4.1H1.1v0.8h5.2V4.1z M6.4,2.2H1.1V3h5.2
		V2.2z"/>
</g>
</svg>
