<?xml version="1.0" encoding="utf-8"?>
<!-- Generator: Adobe Illustrator 25.0.0, SVG Export Plug-In . SVG Version: 6.00 Build 0)  -->
<svg version="1.1" id="图层_1" xmlns="http://www.w3.org/2000/svg" xmlns:xlink="http://www.w3.org/1999/xlink" x="0px" y="0px"
	 viewBox="0 0 16 16" style="enable-background:new 0 0 16 16;" xml:space="preserve">
<style type="text/css">
	.st0{fill:#2F567D;}
	.st1{fill-rule:evenodd;clip-rule:evenodd;fill:#FEFEFE;}
</style>
<circle id="椭圆形" class="st0" cx="8" cy="8" r="8"/>
<path id="形状结合" class="st1" d="M7,7.4c0.1,0.1,0.3,0.3,0.5,0.5L7.6,8L7.2,8.5C7.1,8.6,7,8.6,6.9,8.7L6.5,9.1
	C6.3,8.9,6,8.6,5.8,8.4c-1-0.6-2,0-2.3,0.6C3,9.8,3.2,10.8,3.9,11.3c0.7,0.5,1.6,0.5,2.3-0.1c0.3-0.3,0.7-0.7,1.1-1.1l0.5-0.5
	c0.2-0.2,0.4-0.4,0.5-0.5l0.3-0.3l0.2,0.2C8.8,9.2,8.9,9.3,9,9.4l0.1,0.1c0,0,0,0,0,0c-0.7,0.7-1.5,1.6-2.3,2.2
	C6,12.5,5,12.7,3.9,12.3C2.8,11.9,2.2,11.1,2,9.9c0-0.1,0-0.3,0-0.4c0-1.2,0.7-2.3,1.8-2.7C4.9,6.3,6.2,6.6,7,7.4z M14,9.1
	c0,0.1,0,0.3,0,0.4c0,1.7-1.4,3.1-3.2,3c-0.7-0.1-1.3-0.3-1.8-0.8c-0.2-0.2-0.4-0.4-0.6-0.6L9.5,10c0.1,0.1,0.3,0.3,0.4,0.4
	c0.5,0.5,1.3,0.6,2,0.3c0.6-0.3,1-1,0.9-1.7c-0.1-0.8-0.6-1.3-1.4-1.5c-0.6-0.1-1.1,0-1.5,0.4C9.7,8.1,9.3,8.4,9.1,8.7l0,0L8.4,8
	c0.3-0.3,0.6-0.7,1-0.9C11.2,5.8,13.7,7,14,9.1z M8,8.4l0.4,0.4l0,0c0,0,0,0,0,0L8.2,8.9C8.1,9.1,7.9,9.3,7.7,9.5L7.4,9.7
	C7.3,9.8,7.2,9.9,7.1,10l-0.2,0.2c-0.3,0.3-0.6,0.6-0.9,0.9c-0.6,0.6-1.6,0.6-2.2,0l0,0l0-0.1c-0.5-0.4-0.6-1.3-0.2-1.9
	C3.6,9,3.7,8.9,3.7,8.8l0,0l0,0c0,0-0.1,0.2-0.1,0.2c-0.2,0.6,0.1,1.3,0.6,1.6c0.5,0.3,1.2,0.3,1.7-0.2C6.6,9.8,7.2,9.2,8,8.4
	C7.9,8.4,8,8.4,8,8.4z M10,8c0.5-0.5,1.2-0.6,1.8-0.3c1,0.5,1.2,1.8,0.4,2.6c0,0,0,0-0.1,0.1c0.2-0.2,0.3-0.5,0.3-0.8
	c0-0.7-0.6-1.4-1.4-1.4c0,0,0,0-0.1,0c-0.3,0-0.6,0.1-0.9,0.4C9.9,8.7,9.7,9,9.5,9.1c0,0-0.3-0.3-0.4-0.4C9.4,8.6,9.8,8.1,10,8z
	 M8,4.8c0.9,0,1.6,0.6,1.7,1.4C9.5,6.4,9.3,6.5,9.2,6.6c0-0.6-0.5-1.1-1.2-1.1S6.8,5.9,6.8,6.6C6.7,6.4,6.5,6.4,6.3,6.3
	C6.4,5.5,7.1,4.8,8,4.8z M8,3c0.2,0,0.3,0,0.5,0l0.1,0.7c0.1,0,0.3,0.1,0.4,0.1l0.4-0.5c0.1,0,0.2,0.1,0.3,0.1l0.3,0.2
	c0.1,0.1,0.2,0.1,0.2,0.2L9.9,4.4c0.1,0.1,0.2,0.2,0.3,0.3l0.6-0.3C10.9,4.5,11,4.5,11,4.6L11.2,5c0,0.1,0.1,0.1,0.1,0.2l-0.5,0.4
	c0,0.1,0.1,0.3,0.1,0.4c-0.4,0-0.7,0.1-1,0.2C9.7,5.4,8.9,4.7,8,4.7S6.3,5.4,6.1,6.2C5.8,6.1,5.5,6,5.1,6c0-0.1,0.1-0.3,0.1-0.4
	L4.7,5.2C4.8,4.9,5,4.7,5.1,4.4l0.6,0.3C5.9,4.6,6,4.5,6.1,4.4L5.8,3.7c0.2-0.2,0.5-0.3,0.8-0.5L7,3.8c0.1,0,0.3-0.1,0.4-0.1L7.5,3
	C7.7,3,7.8,3,8,3z"/>
</svg>
