<?xml version="1.0" encoding="UTF-8"?>
<svg width="16px" height="16px" viewBox="0 0 16 16" version="1.1" xmlns="http://www.w3.org/2000/svg" xmlns:xlink="http://www.w3.org/1999/xlink">
    <title>Status/2-loading</title>
    <g id="Status/2-loading" stroke="none" stroke-width="1" fill="none" fill-rule="evenodd">
        <g id="Loading/圆形-蓝色" transform="translate(1, 1)" fill="#3A84FF" fill-rule="nonzero">
            <path d="M2.1109127,2.6109127 C2.1109127,2.05862795 2.55862795,1.6109127 3.1109127,1.6109127 C3.66319745,1.6109127 4.1109127,2.05862795 4.1109127,2.6109127 L4.1109127,3.6109127 C4.1109127,4.16319745 3.66319745,4.6109127 3.1109127,4.6109127 C2.55862795,4.6109127 2.1109127,4.16319745 2.1109127,3.6109127 L2.1109127,2.6109127 Z" id="8" opacity="0.100000001" transform="translate(3.1109, 3.1109) rotate(-225) translate(-3.1109, -3.1109)"></path>
            <path d="M0.5,6.5 C0.5,5.94771525 0.94771525,5.5 1.5,5.5 C2.05228475,5.5 2.5,5.94771525 2.5,6.5 L2.5,7.5 C2.5,8.05228475 2.05228475,8.5 1.5,8.5 C0.94771525,8.5 0.5,8.05228475 0.5,7.5 L0.5,6.5 Z" id="7" opacity="0.149999991" transform="translate(1.5, 7) rotate(-270) translate(-1.5, -7)"></path>
            <path d="M2.1109127,10.3890873 C2.1109127,9.83680255 2.55862795,9.3890873 3.1109127,9.3890873 C3.66319745,9.3890873 4.1109127,9.83680255 4.1109127,10.3890873 L4.1109127,11.3890873 C4.1109127,11.941372 3.66319745,12.3890873 3.1109127,12.3890873 C2.55862795,12.3890873 2.1109127,11.941372 2.1109127,11.3890873 L2.1109127,10.3890873 Z" id="6" opacity="0.300000012" transform="translate(3.1109, 10.8891) rotate(-315) translate(-3.1109, -10.8891)"></path>
            <path d="M6,12 C6,11.4477153 6.44771525,11 7,11 C7.55228475,11 8,11.4477153 8,12 L8,13 C8,13.5522847 7.55228475,14 7,14 C6.44771525,14 6,13.5522847 6,13 L6,12 Z" id="5" opacity="0.449999988"></path>
            <path d="M10.8890873,9.3890873 C11.441372,9.3890873 11.8890873,9.83680255 11.8890873,10.3890873 L11.8890873,10.8890873 L11.8870873,10.8890873 L11.8890873,11.3890873 C11.8890873,11.941372 11.441372,12.3890873 10.8890873,12.3890873 C10.3368025,12.3890873 9.8890873,11.941372 9.8890873,11.3890873 L9.88978408,10.3814228 C9.8890873,9.83680255 10.3368025,9.3890873 10.8890873,9.3890873 Z" id="4" opacity="0.600000024" transform="translate(10.8891, 10.8891) rotate(-225) translate(-10.8891, -10.8891)"></path>
            <path d="M13.5,7.5 C13.5,8.05228475 13.0522847,8.5 12.5,8.5 C11.9477153,8.5 11.5,8.05228475 11.5,7.5 L11.5,6.5 C11.5,5.94771525 11.9477153,5.5 12.5,5.5 C13.0522847,5.5 13.5,5.94771525 13.5,6.5 L13.5,7.5 Z" id="3" opacity="0.75" transform="translate(12.5, 7) rotate(-270) translate(-12.5, -7)"></path>
            <path d="M11.889981,3.60875523 C11.889981,4.16103998 11.4422657,4.60875523 10.889981,4.60875523 C10.3376962,4.60875523 9.88998095,4.16103998 9.88998095,3.60875523 L9.88387869,2.60655275 C9.88998095,2.05647048 10.3376962,1.60875523 10.889981,1.60875523 C11.4422657,1.60875523 11.889981,2.05647048 11.889981,2.60875523 L11.889981,3.60875523 Z" id="2" opacity="0.900000036" transform="translate(10.8869, 3.1088) rotate(-315) translate(-10.8869, -3.1088)"></path>
            <path d="M8,1.5 L8,2 C8,2.55228475 7.55228475,3 7,3 C6.44771525,3 6,2.55228475 6,2 L6,1.5 L8,1.5 Z M7,-2.22044605e-16 C7.55228475,0 8,0.44771525 8,1 L8,1.5 L6,1.5 L6,1 C6,0.44771525 6.44771525,-2.22044605e-16 7,-2.22044605e-16 Z M6,1.5 L8,1.5 L8,2 L6,2 Z" id="1"></path>
        </g>
    </g>
</svg>