<?xml version="1.0" encoding="UTF-8"?>
<svg width="32px" height="32px" viewBox="0 0 32 32" version="1.1" xmlns="http://www.w3.org/2000/svg" xmlns:xlink="http://www.w3.org/1999/xlink">
    <title>AI 魔法棒</title>
    <defs>
        <linearGradient x1="45.02491%" y1="37.1323421%" x2="87.8239326%" y2="68.31214%" id="linearGradient-1">
            <stop stop-color="#235DFA" offset="0%"></stop>
            <stop stop-color="#EB8CEC" offset="100%"></stop>
        </linearGradient>
    </defs>
    <g id="AI-魔法棒" stroke="none" stroke-width="1" fill="none" fill-rule="evenodd">
        <g id="AI-文字" transform="translate(0, 4)" fill="url(#linearGradient-1)" fill-rule="nonzero">
            <path d="M12.6749158,2.66840333 C18.20136,2.66840333 22.6814283,7.14847158 22.6814283,12.6749158 L22.6833536,20.1247878 C25.0383983,20.3607808 26.6840333,21.029045 26.6840333,22.6619265 C26.6721737,22.6739396 26.6484545,22.6769039 26.5772972,22.678776 L26.5286571,22.6797708 C26.5195173,22.6799156 26.5098399,22.6800501 26.4995933,22.6801746 L25.6477282,22.6803886 C25.6153436,22.6802948 25.5819471,22.6801952 25.547507,22.6800904 L25.208513,22.6790119 C25.1675263,22.6788781 25.1254012,22.6787399 25.0821058,22.6785975 L24.808039,22.6776977 C24.7599367,22.6775404 24.7106008,22.6773798 24.66,22.677216 L24.3409617,22.6761981 C24.1735994,22.675673 23.9942827,22.6751254 23.8021577,22.6745637 L23.4005769,22.6734242 C23.176792,22.6728084 22.9377551,22.6721831 22.6824267,22.6715586 L12.6749158,22.6814283 C8.28875428,22.6814283 4.56171416,19.8593941 3.21043005,15.93196 C1.37907196,15.5663286 0,13.9570878 0,12.0273167 L1.62264585,12.0266711 L1.99274897,12.0263257 L2.68947499,12.0254478 C3.02361599,6.80186489 7.36655506,2.66840333 12.6749158,2.66840333 Z M12.6749158,5.33680666 C8.62219004,5.33680666 5.33680666,8.62219007 5.33680666,12.6749158 C5.33680666,16.7276416 8.62219004,20.013025 12.6749158,20.013025 L17.3446216,20.013025 C18.8183401,20.013025 20.013025,18.8183401 20.013025,17.3446216 L20.013025,12.6749158 C20.013025,8.62219007 16.7276416,5.33680666 12.6749158,5.33680666 Z M10.9950937,8.67231082 C12.0358779,8.67231082 12.9358291,9.39798111 13.1564558,10.4151121 L14.3038325,15.7047378 C14.3779746,16.0465475 14.1609873,16.3837431 13.8191776,16.4578852 C13.5460707,16.5171251 13.2664183,16.39035 13.1309814,16.1459044 L12.2133347,14.4896753 C11.8562221,13.845135 11.044222,13.612129 10.3996818,13.9692415 C10.1808396,14.0904927 10.0004991,14.2708331 9.87924791,14.4896753 L8.96160118,16.1459044 C8.78696195,16.4611049 8.38986848,16.5750521 8.07466812,16.4004129 C7.82466123,16.2618947 7.69391063,15.9767849 7.75206037,15.6969468 L8.84894259,10.4183421 C9.06027152,9.4013489 9.95637562,8.67231082 10.9950937,8.67231082 Z M16.3662071,8.67231082 C17.0785043,8.67231082 17.6559353,9.24974183 17.6559353,9.96203914 L17.6559353,15.1209522 C17.6559353,15.8332495 17.0785043,16.4106805 16.3662071,16.4106805 C15.6539098,16.4106805 15.0764788,15.8332495 15.0764788,15.1209522 L15.0764788,9.96203914 C15.0764788,9.24974183 15.6539098,8.67231082 16.3662071,8.67231082 Z M27.3302942,7.01491361 C27.3302942,9.39553578 29.1117177,11.3600841 31.414242,11.6482358 L32,11.6846194 C29.6193778,11.6846194 27.6548295,13.466043 27.3666777,15.7685672 L27.3302942,16.3543253 C27.3302942,13.9737031 25.5488705,12.0091548 23.2463462,11.7210031 L22.6605883,11.6846194 C25.0412104,11.6846194 27.0057588,9.90319591 27.2939105,7.6006716 L27.3302942,7.01491361 Z M23.99479,0.343905289 C23.99479,1.7042608 25.0127463,2.82685986 26.3284744,2.99151797 L26.6631933,3.01230862 C25.3028379,3.01230862 24.1802387,4.03026496 24.0155806,5.34599311 L23.99479,5.68071195 C23.99479,4.32035645 22.9768336,3.19775738 21.6611055,3.03309927 L21.3263867,3.01230862 C22.6867422,3.01230862 23.8093412,1.99435228 23.9739993,0.678624132 L23.99479,0.343905289 Z M15.0838295,0 C16.6652155,0 16.6481161,2.1138526 15.0838295,1.92688078 C14.2586471,1.82825063 13.6991583,2.07542482 13.4053627,2.66840333 L12.9646694,2.66840333 C13.3231854,0.889467781 14.0295721,0 15.0838295,0 Z M10.8455094,0 C11.8997668,0 12.6061535,0.889467781 12.9646694,2.66840333 L12.5239762,2.66840333 C12.2301807,2.07542482 11.6706917,1.82825063 10.8455094,1.92688078 C9.28122284,2.1138526 9.26412339,0 10.8455094,0 Z" id="形状结合"></path>
        </g>
    </g>
</svg>