<svg xmlns="http://www.w3.org/2000/svg" viewBox="0 0 20 20" class="design-iconfont">
  <defs>
    <linearGradient x1="73.6060403%" y1="32.2993275%" x2="20.5392086%" y2="77.2507009%" id="d86242pww__tluobofpza">
      <stop stop-color="#33E5F2" offset="0%"/>
      <stop stop-color="#178AFE" offset="100%"/>
    </linearGradient>
  </defs>
  <path d="M6.69982326,1 C7.79397515,1 8.54324935,1.8920455 8.94764586,3.67613651 L8.98642799,3.67552335 C9.23070098,2.59195505 9.70167159,2.03821684 10.3993398,2.01430872 C11.5598617,1.97453924 11.6108486,3.407347 10.4502437,3.44478218 C9.99080268,3.45960139 9.62369681,3.53658423 9.34892609,3.6757307 L10.2618694,3.67633998 C13.4644232,3.67633998 16.0606061,6.2725228 16.0606061,9.4750766 C16.0606061,9.62064723 16.055242,9.76496502 16.0447009,9.90784311 C17.4229998,9.73209637 18.1116035,9.74525338 18.1116035,9.94680101 C18.1116035,10.244644 17.63644,11.7183133 16.1334824,12.260649 C16.2610659,13.6256997 16.5601085,14.620182 17.0300774,15.2440015 C17.0707116,14.941346 17.1691117,14.6277281 17.3233693,14.3030996 C17.7751843,13.3522741 19.0273929,12.7177256 19.4190326,12.8969396 C19.7409084,13.0442297 19.7165927,14.8854801 18.4197133,15.8349963 C18.6376745,15.8750225 18.8433898,15.9524211 19.0375998,16.0649291 C19.6891431,16.4423753 20.0703453,17.2188984 19.9891806,17.4871527 C19.908016,17.7554069 18.7853954,17.791776 17.8355169,17.1948016 L17.7402584,17.1310448 C16.5429634,17.6963686 13.6763256,18.1553886 8.48476205,17.9501532 L8.25155567,17.9460347 C5.05350062,17.8329392 2.45706626,15.4040311 2.15133202,12.3168456 C0.511513876,11.8306303 4.40536496e-13,10.2558267 4.40536496e-13,9.94680101 C4.40536496e-13,9.74181105 0.712326529,9.7317019 2.13697959,9.91647354 C2.12680303,9.77100568 2.12121212,9.62369406 2.12121212,9.4750766 C2.12121212,6.2725228 4.71739494,3.67633998 7.91994874,3.67633998 L8.76778036,3.67561541 C8.33761786,3.3018116 7.64829883,3.11586359 6.69982326,3.11777137 C4.98170682,3.12122723 4.98170682,1 6.69982326,1 Z M8.66317878,8.65 L7.26321487,8.65 L5.2173913,13.75 L6.50911059,13.75 L6.92044019,12.5811814 L8.95183114,12.5811814 L9.37037705,13.75 L10.6693126,13.75 L8.66317878,8.65 Z M13.0434783,8.65 L10.9002345,8.65 L10.9002345,9.49615881 L11.3729028,9.49615881 L11.3729028,12.9038412 L10.9002345,12.9038412 L10.9002345,13.75 L13.0434783,13.75 L13.0434783,12.9038412 L12.5635937,12.9038412 L12.5635937,9.49615881 L13.0434783,9.49615881 L13.0434783,8.65 Z M7.94876421,9.52908328 C7.96560226,9.7134603 7.9944675,9.8616204 8.03535991,9.97356359 L8.67039509,11.7416075 L7.18022731,11.7416075 L7.81887065,9.9603938 C7.86938481,9.82211104 7.9018582,9.67834087 7.91629082,9.52908328 Z" fill="url(#d86242pww__tluobofpza)" fill-rule="evenodd"/>
</svg>
